<svg>
	<symbol id="icon-1" xmlns="http://www.w3.org/2000/svg" xmlns:xlink="http://www.w3.org/1999/xlink">
		<!-- Generator: Sketch 47.1 (45422) - http://www.bohemiancoding.com/sketch -->
		<title>icon-cpmcpa</title>
		<desc>Created with Sketch.</desc>
		<defs></defs>
		<g id="Page-1" stroke="none" stroke-width="1" fill="none" fill-rule="evenodd">
			<g id="hilltop_site-upd_main-06" transform="translate(-126.000000, -912.000000)">
				<g id="features" transform="translate(75.000000, 777.000000)">
					<g id="row-1" transform="translate(0.000000, 97.000000)">
						<g id="item">
							<g id="icon-cpmcpa" transform="translate(51.000000, 38.000000)">
								<path d="M39.2561983,0 C60.9366116,0 78.5123967,17.4890625 78.5123967,39.0625 C78.5123967,60.6359375 60.9366116,78.125 39.2561983,78.125 C17.5757851,78.125 0,60.6359375 0,39.0625 C0,17.4890625 17.5757851,0 39.2561983,0" id="Fill-1" fill="#36B1E7"></path>
								<polygon id="Fill-3" fill="#FFFFFF" points="40.8264463 83.59375 40.8264463 51.5625 62.0247934 71.09375 62.0247934 48.4375 77.7272727 64.84375 77.7272727 46.875 91.8595041 60.9375 70.661157 74.21875"></polygon>
								<polygon id="Fill-5" fill="#D9D9D9" points="80.0826446 73.1171875 80.0826446 53.8984375 95 67.6773437 88.3578512 67.7210937 92.3980992 77.3539062 88.4944628 78.90625 84.5806198 69.0726562"></polygon>
								<polygon id="Fill-7" fill="#91929B" points="65.1652893 81.828125 65.1652893 57.8046875 84.0082645 75.028125 75.6184298 75.0828125 80.7217355 87.1242187 75.791157 89.0617187 70.844876 76.76875"></polygon>
								<polygon id="Stroke-9" stroke="#FFFFFF" stroke-width="6.22702703" stroke-linejoin="round" points="65.1652893 81.828125 65.1652893 57.8046875 84.0082645 75.028125 75.6184298 75.0828125 80.7217355 87.1242187 75.791157 89.0617187 70.844876 76.76875"></polygon>
								<polygon id="Fill-11" fill="#91929B" points="65.1652893 81.828125 65.1652893 57.8046875 84.0082645 75.028125 75.6184298 75.0828125 80.7217355 87.1242187 75.791157 89.0617187 70.844876 76.76875"></polygon>
								<polygon id="Fill-13" fill="#000000" points="43.9669421 90.5828125 43.9669421 59.3171875 69.0909091 81.7335937 57.9052479 81.8039062 64.7083471 97.4757812 58.133719 99.9992187 51.5386777 83.9992187"></polygon>
								<polygon id="Stroke-15" stroke="#FFFFFF" stroke-width="6.22702703" stroke-linejoin="round" points="43.9669421 90.5828125 43.9669421 59.3171875 69.0909091 81.7335937 57.9052479 81.8039062 64.7083471 97.4757812 58.133719 99.9992187 51.5386777 83.9992187"></polygon>
								<polygon id="Fill-17" fill="#2E2F39" points="43.9669421 90.5828125 43.9669421 59.3171875 69.0909091 81.7335937 57.9052479 81.8039062 64.7083471 97.4757812 58.133719 99.9992187 51.5386777 83.9992187"></polygon>
								<path d="M39.2357851,56.375 C20.8984298,56.375 11.0105785,39.3484375 11.0105785,39.3484375 C11.0105785,39.3484375 20.8984298,22.3171875 39.2357851,22.3171875 C57.5731405,22.3171875 67.4609917,39.3484375 67.4609917,39.3484375 C67.4609917,39.3484375 57.576281,56.3757812 39.2357851,56.3757812 L39.2357851,56.375 Z" id="Fill-19" fill="#FFFFFF"></path>
								<path d="M38.8683471,24.9945312 C30.843595,24.9890625 24.3333471,31.4578125 24.3278512,39.4429687 C24.3223554,47.428125 30.8231818,53.90625 38.8479339,53.9117187 C46.872686,53.9171875 53.3829339,47.4484375 53.3884298,39.4632812 L53.3884298,39.453125 C53.3813636,31.475 46.8860331,25.0078125 38.8683471,24.9945312 L38.8683471,24.9945312 Z" id="Path" fill="#00B7B2"></path>
								<path d="M38.8683471,49.2132812 C33.4517769,49.2179687 29.057438,44.8515625 29.0527273,39.4617187 C29.0480165,34.071875 33.4360744,29.6992187 38.8526446,29.6945312 C44.2692149,29.6898437 48.6635537,34.05625 48.6682645,39.4460937 L48.6682645,39.4554687 C48.6666942,44.8421875 44.2817769,49.2109375 38.8683471,49.21875 L38.8683471,49.2132812 Z" id="Fill-21" fill="#FFFFFF"></path>
								<path d="M42.4799174,40.0414062 C40.5477273,40.0382812 38.9837603,38.4765625 38.987686,36.5539062 C38.9900413,34.8515625 40.2305372,33.4007812 41.9185537,33.125 C40.9709091,32.6601562 39.9290496,32.415625 38.8722727,32.409375 C34.9654959,32.4046875 31.7951653,35.553125 31.7904545,39.440625 C31.7857438,43.328125 34.9497934,46.4828125 38.8565702,46.4875 C42.7633471,46.4921875 45.9336777,43.34375 45.9383884,39.45625 L45.9383884,39.4515625 C45.9321074,38.903125 45.8614463,38.3578125 45.726405,37.8265625 C45.2066529,39.1601562 43.9190496,40.040625 42.4814876,40.0453125 L42.4799174,40.0414062 Z" id="Path" fill="#2E2F39"></path>
							</g>
						</g>
					</g>
				</g>
			</g>
		</g>
	</symbol>
	<symbol id="icon-2" xmlns="http://www.w3.org/2000/svg" xmlns:xlink="http://www.w3.org/1999/xlink">
		<!-- Generator: Sketch 47.1 (45422) - http://www.bohemiancoding.com/sketch -->
		<title>Page 1</title>
		<desc>Created with Sketch.</desc>
		<defs></defs>
		<g id="Page-1" stroke="none" stroke-width="1" fill="none" fill-rule="evenodd">
			<g id="hilltop_site-upd_main-06" transform="translate(-307.000000, -927.000000)">
				<g id="features" transform="translate(75.000000, 777.000000)">
					<g id="row-1" transform="translate(0.000000, 97.000000)">
						<g id="item" transform="translate(190.000000, 0.000000)">
							<g id="Page-1" transform="translate(42.000000, 53.000000)">
								<path d="M60.1862069,14.4703448 L50.2303448,14.4703448 C50.097931,14.4703448 49.982069,14.4951724 49.8662069,14.5117241 L36.8731034,14.5117241 C35.1765517,14.5117241 32.817931,15.5048276 31.617931,16.7048276 L16.0593103,32.5117241 C14.8675862,33.7282759 14.8758621,35.697931 16.0593103,36.897931 L23.2758621,44.097931 C24.4758621,45.3062069 26.4372414,45.3062069 27.6372414,44.097931 L48.8234483,22.9034483 C49.6013793,22.1255172 50.8675862,21.4468966 52.1337931,21.057931 L60.1613793,21.057931 C62.2303448,21.057931 63.902069,19.5848276 63.902069,17.7724138 C63.902069,15.9517241 62.2303448,14.4786207 60.177931,14.4786207 L60.1862069,14.4703448 Z M53.6234483,70.737931 C52.3241379,72.0206897 50.1062069,71.88 48.6413793,70.4068966 L45.8689655,67.6427586 C44.4041379,66.177931 44.2634483,63.9517241 45.537931,62.6772414 C46.8372414,61.3862069 49.0551724,61.5186207 50.52,62.9834483 L53.2924138,65.7641379 C54.7572414,67.2289655 54.897931,69.4468966 53.6234483,70.7296552 L53.6234483,70.737931 Z M59.4165517,64.9365517 C58.1337931,66.2193103 55.9075862,66.0786207 54.4510345,64.622069 L48.4096552,58.5806897 C46.9531034,57.1241379 46.8124138,54.9062069 48.0951724,53.6151724 C49.377931,52.3324138 51.6041379,52.4731034 53.0606897,53.9462069 L59.102069,59.9627586 C60.5503448,61.4275862 60.6993103,63.6537931 59.4165517,64.9282759 L59.4165517,64.9365517 Z M65.2096552,59.1351724 C63.9268966,60.417931 61.7089655,60.2772414 60.2441379,58.8041379 L53.2096552,51.7696552 C51.7448276,50.3131034 51.5958621,48.0868966 52.8786207,46.8041379 C54.1696552,45.5213793 56.3958621,45.662069 57.8441379,47.1186207 L64.8951724,54.1531034 C66.36,55.6262069 66.5006897,57.8524138 65.2262069,59.1351724 L65.2096552,59.1351724 Z M71.0193103,53.3337931 C69.7365517,54.6165517 67.6510345,54.6165517 66.3682759,53.3337931 L61.377931,48.3434483 C60.0951724,47.0689655 60.0951724,44.9834483 61.377931,43.7089655 C62.6606897,42.417931 64.7462069,42.417931 66.0289655,43.7089655 L71.0110345,48.6910345 C72.2937931,49.9737931 72.2937931,52.0510345 71.0110345,53.342069 L71.0193103,53.3337931 Z" id="Fill-1" fill="#91929B"></path>
								<path d="M8.60275862,27.0662069 C7.52689655,27.0662069 6.64137931,26.1889655 6.64137931,25.0965517 C6.64137931,24.0041379 7.52689655,23.1351724 8.61103448,23.1351724 C9.69517241,23.1351724 10.5889655,24.0041379 10.5889655,25.0965517 C10.5889655,26.1889655 9.71172414,27.0662069 8.62758621,27.0662069 L8.60275862,27.0662069 Z M31.7751724,9.70344828 L25.982069,0.906206897 C24.7737931,-0.302068966 22.8124138,-0.302068966 21.6124138,0.906206897 L0.906206897,21.2068966 C-0.302068966,22.4068966 -0.302068966,24.3765517 0.906206897,25.5765517 L10.0924138,31.3696552 C11.2924138,32.577931 13.262069,32.577931 14.462069,31.3696552 L31.7586207,14.0731034 C32.9751724,12.8648276 32.9751724,10.9034483 31.7586207,9.70344828 L31.7751724,9.70344828 Z" id="Fill-3" fill="#36B1E7"></path>
								<path d="M64.2165517,14.9834483 L64.2331034,14.9917241 C63.0331034,13.7834483 63.0331034,11.8137931 64.2331034,10.6055172 L70.0262069,1.80827586 C71.2344828,0.608275862 73.1958621,0.608275862 74.3958621,1.80827586 L95.0855172,22.1255172 C96.2937931,23.3255172 96.2937931,25.2868966 95.0855172,26.4868966 L85.8993103,32.28 C84.6910345,33.48 82.7296552,33.48 81.5296552,32.28 L64.2165517,14.9834483 Z M85.4193103,26.0068966 L85.4027586,26.0068966 C85.4027586,27.0910345 86.2882759,27.9765517 87.3724138,27.9765517 C88.4565517,27.9765517 89.342069,27.0827586 89.342069,26.0068966 C89.342069,24.9227586 88.4648276,24.0372414 87.3806897,24.0372414 C86.2965517,24.0372414 85.4193103,24.9310345 85.4193103,26.0068966 Z" id="Combined-Shape" fill="#00B7B2"></path>
								<path d="M79.8910345,32.5696552 L65.8882759,18.5668966 C65.697931,19.7255172 65.1186207,20.817931 64.1917241,21.6289655 C63.1158621,22.5889655 61.6841379,23.1186207 60.1862069,23.1186207 L52.4648276,23.1186207 C51.5875862,23.4165517 50.76,23.8882759 50.2965517,24.36 L29.0855172,45.5544828 C28.2993103,46.3406897 27.3062069,46.8206897 26.222069,46.9862069 L25.8910345,47.2924138 C24.6082759,48.5834483 24.6082759,50.6606897 25.8910345,51.9434483 C27.182069,53.2344828 29.2593103,53.2344828 30.5503448,51.9434483 L42.7572414,39.777931 C42.9227586,39.6124138 43.1544828,39.4965517 43.4193103,39.4965517 C43.9158621,39.4965517 44.3296552,39.9103448 44.3296552,40.4234483 C44.3296552,40.6717241 44.2303448,40.92 44.0648276,41.0855172 L29.6648276,55.4855172 C28.2,56.9586207 28.0593103,59.1765517 29.3337931,60.4675862 C30.6248276,61.7503448 32.8510345,61.6096552 34.2993103,60.1365517 L48.7406897,45.7696552 C48.9062069,45.6041379 49.137931,45.4882759 49.4027586,45.4882759 C49.8993103,45.4882759 50.3131034,45.902069 50.3131034,46.4151724 C50.3131034,46.6634483 50.2303448,46.9117241 50.0482759,47.0772414 L35.9462069,61.1793103 C34.4896552,62.6358621 34.3489655,64.862069 35.6317241,66.1448276 C36.9144828,67.4275862 39.1406897,67.2868966 40.5972414,65.8303448 L42.7903448,63.6372414 C42.9972414,62.7268966 43.4193103,61.8993103 44.1144828,61.2041379 C44.7765517,60.542069 45.6206897,60.0951724 46.5475862,59.88 L46.7131034,59.7144828 C45.8193103,58.7048276 45.2648276,57.4634483 45.182069,56.1558621 C45.0744828,54.6413793 45.6124138,53.1765517 46.6468966,52.1503448 C47.5903448,51.2151724 48.8648276,50.6937931 50.2386207,50.6772414 C50.0731034,50.1310345 49.9572414,49.56 49.9572414,48.9889655 C49.9572414,47.582069 50.4868966,46.2910345 51.4468966,45.3475862 C52.3903448,44.3875862 53.6813793,43.857931 55.0882759,43.857931 C56.28,43.857931 57.4634483,44.2551724 58.4813793,44.9586207 C58.6717241,43.9324138 59.1765517,42.9889655 59.937931,42.2275862 C60.9475862,41.217931 62.2882759,40.6551724 63.7117241,40.6551724 C65.1351724,40.6551724 66.4841379,41.217931 67.4937931,42.2275862 L71.582069,46.3489655 L79.8910345,37.8910345 C81.3558621,36.4262069 81.3558621,34.0344828 79.8910345,32.5696552" id="Fill-5" fill="#2E2F39"></path>
							</g>
						</g>
					</g>
				</g>
			</g>
		</g>
	</symbol>
	<symbol id="icon-3" xmlns="http://www.w3.org/2000/svg" xmlns:xlink="http://www.w3.org/1999/xlink">
		<!-- Generator: Sketch 47.1 (45422) - http://www.bohemiancoding.com/sketch -->
		<title>Page 1</title>
		<desc>Created with Sketch.</desc>
		<defs></defs>
		<g id="Page-1" stroke="none" stroke-width="1" fill="none" fill-rule="evenodd">
			<g id="hilltop_site-upd_main-06" transform="translate(-505.000000, -916.000000)">
				<g id="features" transform="translate(75.000000, 777.000000)">
					<g id="row-1" transform="translate(0.000000, 97.000000)">
						<g id="item" transform="translate(380.000000, 0.000000)">
							<g id="Page-1" transform="translate(50.000000, 42.000000)">
								<polygon id="Fill-1" fill="#2E2F39" points="43.4121702 80.7369009 51.6189787 73.5708636 58.768766 90.9892841 65.8964255 88.2414243 58.5202553 71.1802 70.6453617 71.1036579 43.4121702 46.7012"></polygon>
								<g id="Group-9" transform="translate(0.000000, 0.839411)">
									<path d="M40.2629787,72.6724299 C35.7480851,72.6843364 31.2765957,71.8015514 27.1055319,70.0742523 C23.2314894,68.4405047 19.7097872,66.0753551 16.733617,63.1072243 C13.7787234,60.1042243 11.427234,56.5628785 9.80595745,52.6753925 C6.36340426,44.5576822 6.36340426,35.3921963 9.80595745,27.274486 C13.0331915,19.4110654 19.2570213,13.1516262 27.1055319,9.87647664 C35.1668085,6.41337383 44.2978723,6.41337383 52.3591489,9.87647664 C60.2068085,13.1541776 66.4306383,19.4119159 69.6612766,27.274486 C72.68,35.4729907 72.68,44.4768879 69.6612766,52.6753925 C68.3957447,55.6681869 66.707234,58.4636729 64.6485106,60.9785047 L70.027234,65.845729 C72.6246809,62.7330187 74.7446809,59.2512056 76.3165957,55.5151028 C80.0953191,45.4991495 80.0953191,34.4515794 76.3165957,24.4356262 C72.3761702,14.8253458 64.772766,7.17624299 55.1821277,3.17394393 C45.3140426,-1.04352336 34.1497872,-1.04352336 24.2817021,3.17394393 C14.693617,7.17964486 7.09021277,14.8278972 3.14468085,24.4356262 C-1.04851064,34.3716355 -1.04851064,45.5790935 3.14468085,55.5151028 C7.0893617,65.1228318 14.692766,72.7710841 24.2817021,76.776785 C29.3455319,78.8833925 34.7787234,79.9592336 40.2629787,79.9405234 C40.3565957,79.9405234 40.4468085,79.9286168 40.5404255,79.9269159 L40.5404255,72.6596729 C40.4451064,72.657972 40.3531915,72.6715794 40.2629787,72.6715794 L40.2629787,72.6724299 Z" id="Fill-2" fill="#38B0E4"></path>
									<path d="M65.0204255,39.9804673 C65.0289362,36.5862523 64.3455319,33.2252056 63.0119149,30.1031402 C60.5004255,23.984028 55.6578723,19.1125514 49.5506383,16.5637009 C43.28,13.8762243 36.1804255,13.8762243 29.9097872,16.5637009 C23.8017021,19.1134019 18.9591489,23.985729 16.4476596,30.1056916 C13.7753191,36.4195607 13.7753191,43.5464766 16.4476596,49.8603458 C18.9591489,55.9803084 23.8017021,60.8509346 29.9097872,63.399785 C33.1948936,64.740972 36.7123404,65.4255981 40.2612766,65.4153925 C40.3548936,65.4153925 40.4451064,65.403486 40.5387234,65.4026355 L40.5387234,58.1328411 C40.4451064,58.1328411 40.3540426,58.1464486 40.2612766,58.1464486 C37.6765957,58.1549533 35.1140426,57.6642336 32.7157447,56.7006542 C28.3608511,54.8747009 24.906383,51.3996916 23.107234,47.0359439 C21.1880851,42.5284673 21.1880851,37.4341682 23.107234,32.9266916 C24.0119149,30.7699065 25.3191489,28.8044766 26.9591489,27.1367103 C28.6110638,25.4876542 30.5659574,24.1719813 32.7157447,23.2619813 C37.1923404,21.3331215 42.267234,21.3331215 46.7438298,23.2619813 C48.8944681,24.1719813 50.8485106,25.4876542 52.5012766,27.1367103 C54.1412766,28.8053271 55.4485106,30.7699065 56.3531915,32.9266916 C58.2714894,37.4341682 58.2714894,42.5284673 56.3531915,47.0359439 C55.6978723,48.5276636 54.8493617,49.9266822 53.8297872,51.1972804 L59.2765957,56.1299907 C60.8076596,54.2257944 62.0646809,52.1166355 63.0110638,49.8645981 C64.346383,46.7408318 65.0297872,43.3772336 65.0204255,39.9804673" id="Fill-5" fill="#2E2F39"></path>
									<path d="M47.827234,32.1587196 C43.4025532,27.9472056 36.3991489,28.1181495 32.1855319,32.539729 C28.1131915,36.8124766 28.1157447,43.5269159 32.1914894,47.7962617 C34.4502128,49.9241308 37.4510638,51.0867196 40.5548936,51.0365421 C40.653617,51.0365421 40.7421277,51.012729 40.8382979,51.011028 L40.8382979,43.6119626 C40.7395745,43.6179159 40.6570213,43.6655421 40.5548936,43.6655421 C39.4110638,43.6834019 38.2970213,43.3006916 37.4059574,42.5837477 C35.9676596,41.1430561 35.9693617,38.8102243 37.4110638,37.3720841 C38.852766,35.9347944 41.1880851,35.9373458 42.626383,37.3771869 C43.3157447,38.0677664 43.7029787,39.0024299 43.7038298,39.9779159 C43.7046809,40.4847944 43.5991489,40.9857196 43.3948936,41.4492243 L48.9523404,46.449972 C52.1565957,42.0615607 51.6782979,35.9934766 47.827234,32.1595701 L47.827234,32.1587196 Z" id="Fill-7" fill="#38B0E4"></path>
								</g>
							</g>
						</g>
					</g>
				</g>
			</g>
		</g>
	</symbol>
	<symbol id="icon-4" xmlns="http://www.w3.org/2000/svg" xmlns:xlink="http://www.w3.org/1999/xlink">
		<!-- Generator: Sketch 47.1 (45422) - http://www.bohemiancoding.com/sketch -->
		<title>icon</title>
		<desc>Created with Sketch.</desc>
		<defs>
			<path d="M39.2388889,53.5822642 L64.0344444,29.2211321 C69.5263333,37.2798679 67.3283333,48.1865943 59.1258889,53.5822642 C53.109,57.5398019 45.2557778,57.5398019 39.2388889,53.5822642 L39.2388889,53.5822642 Z M34.3,48.7222642 C28.8135556,40.6597075 31.0177778,29.7545094 39.2241111,24.3641887 C45.2347778,20.4158208 53.0755556,20.4142925 59.0877778,24.3611321 L34.3,48.7222642 Z M49.1555556,14.5188679 C35.4098889,14.5188679 24.2666667,25.4668585 24.2666667,38.9716981 C24.2666667,52.4765377 35.4098889,63.4245283 49.1555556,63.4245283 C62.9012222,63.4245283 74.0444444,52.4765377 74.0444444,38.9716981 C74.0273333,25.4737358 62.8942222,14.5356792 49.1555556,14.5188679 L49.1555556,14.5188679 Z M49.1555556,58.0754717 C59.8857778,58.086934 68.5945556,49.5506038 68.6062222,39.0083774 C68.6108889,34.5938774 67.0592222,30.3146321 64.2133333,26.8981132 L36.8666667,53.7503774 C40.3293333,56.5471698 44.6732222,58.0754717 49.1555556,58.0754717 L49.1555556,58.0754717 Z M34.1211111,51.045283 L61.4677778,24.1853774 C53.1206667,17.5471981 40.8768889,18.8133962 34.1203333,27.0135 C28.3476667,34.0192358 28.3453333,44.0364906 34.1133333,51.045283 L34.1211111,51.045283 Z M49.1555556,16.0471698 C62.0425556,16.0471698 72.4888889,26.3104811 72.4888889,38.9716981 C72.4888889,51.6329151 62.0425556,61.8962264 49.1555556,61.8962264 C36.2685556,61.8962264 25.8222222,51.6329151 25.8222222,38.9716981 C25.8222222,26.3104811 36.2685556,16.0471698 49.1555556,16.0471698 L49.1555556,16.0471698 Z" id="path-1"></path>
		</defs>
		<g id="Page-1" stroke="none" stroke-width="1" fill="none" fill-rule="evenodd">
			<g id="hilltop_site-upd_main-06" transform="translate(-690.000000, -926.000000)">
				<g id="features" transform="translate(75.000000, 777.000000)">
					<g id="row-1" transform="translate(0.000000, 97.000000)">
						<g id="item" transform="translate(570.000000, 0.000000)">
							<g id="icon" transform="translate(45.000000, 52.000000)">
								<path d="M94.8888889,6.22018868 C94.8888889,7.0049717 94.241,7.64150943 93.4422222,7.64150943 L17.78,7.64150943 C16.9812222,7.64150943 16.3333333,7.0049717 16.3333333,6.22018868 L16.3333333,4.47792453 C16.3333333,3.69314151 16.9812222,3.05660377 17.78,3.05660377 L93.4422222,3.05660377 C94.241,3.05660377 94.8888889,3.69314151 94.8888889,4.47792453 L94.8888889,6.22018868 Z M94.8888889,64.1886792 C94.8888889,65.033066 94.1927778,65.7169811 93.3333333,65.7169811 L4.66666667,65.7169811 C3.80722222,65.7169811 3.11111111,65.033066 3.11111111,64.1886792 L3.11111111,12.2264151 C3.11111111,11.3820283 3.80722222,10.6981132 4.66666667,10.6981132 L93.3333333,10.6981132 C94.1927778,10.6981132 94.8888889,11.3820283 94.8888889,12.2264151 L94.8888889,64.1886792 Z M5.44444444,3.05660377 C6.73322222,3.05660377 7.77777778,4.08285849 7.77777778,5.3490566 C7.77777778,6.61525472 6.73322222,7.64150943 5.44444444,7.64150943 C4.15566667,7.64150943 3.11111111,6.61525472 3.11111111,5.3490566 C3.11111111,4.08285849 4.15566667,3.05660377 5.44444444,3.05660377 L5.44444444,3.05660377 Z M11.6666667,3.05660377 C12.9554444,3.05660377 14,4.08285849 14,5.3490566 C14,6.61525472 12.9554444,7.64150943 11.6666667,7.64150943 C10.3778889,7.64150943 9.33333333,6.61525472 9.33333333,5.3490566 C9.33333333,4.08285849 10.3778889,3.05660377 11.6666667,3.05660377 L11.6666667,3.05660377 Z M94.8888889,0 L3.11111111,0 C1.393,0 0,1.36859434 0,3.05660377 L0,65.7169811 C0,67.4049906 1.393,68.7735849 3.11111111,68.7735849 L94.8888889,68.7735849 C96.607,68.7735849 98,67.4049906 98,65.7169811 L98,3.05660377 C98,1.36859434 96.607,0 94.8888889,0 L94.8888889,0 Z" id="Fill-1" fill="#91929B"></path>
								<path d="M53.5845847,55.0099938 C52.5838779,55.0089944 51.6941406,55.6525921 51.3751034,56.6089944 C50.3337739,59.5541537 51.51976,62.8301062 54.1988799,64.4041224 L54.2781438,64.4640849 L54.3574077,64.4940662 L63.5916522,69.2410993 L67,71 L66.4550607,67.1723923 L65.6921456,61.9156777 L65.5435258,60.8963148 L64.6319909,60.4266084 L54.6249234,55.2698314 C54.3009322,55.0989382 53.9412722,55.0059963 53.5746767,55 L53.5845847,55.0099938 Z M53.5746767,57.0087445 C53.6261982,57.0107433 53.6777198,57.0237352 53.7232965,57.0487196 L63.7303641,62.2054966 L64.4833711,67.4722049 L55.2689426,62.7251718 C53.3477838,61.652842 52.4927244,59.3242973 53.2576211,57.2485946 C53.3041886,57.1066833 53.4359649,57.0097439 53.5845847,57.0087445 L53.5746767,57.0087445 Z" id="Fill-9" fill="#FFFFFF"></path>
								<path d="M55.386558,63.4605563 C53.3843599,62.4351199 52.493232,60.2084033 53.2903939,58.2234719 C53.3564799,58.0495395 53.5629985,57.957795 53.7509304,58.018958 C53.7633216,58.0227807 53.7746801,58.027559 53.7860386,58.0323374 L64.2152292,62.9636067 L65,68 L55.386558,63.4605563 Z" id="Fill-7" fill="#00B7B2"></path>
								<rect id="Rectangle-34" fill="#38B0E4" x="20" y="19" width="58" height="39" rx="1"></rect>
								<path d="M51.7222222,36.6792453 L44.0222222,36.6792453 L46.1766667,34.004717 L44.0222222,31.3301887 L51.7222222,31.3301887 L51.7222222,36.6792453 Z M39.2777778,29.0377358 L43.0422222,34.004717 L39.2777778,38.9487736 L51.7222222,38.9487736 L51.7222222,47.3773585 L54.0555556,47.3773585 L54.0555556,29.0377358 L39.2777778,29.0377358 Z" id="Fill-5" fill="#FFFFFF"></path>
								<circle id="Oval-9" fill="#FFFEFE" cx="78.5" cy="67.5" r="3.5"></circle>
								<g id="Fill-13">
									<use fill="#FFFFFF" fill-rule="evenodd" href="#path-1"></use>
									<path stroke="#FFFFFF" stroke-width="0.200000018" d="M39.3976441,53.5664784 C45.3674856,57.4341866 53.121939,57.4115993 59.070932,53.4987193 C67.1933916,48.1556645 69.3939419,37.3789738 64.0188927,29.3765994 L39.3976441,53.5664784 Z M34.3156006,48.5667224 L58.9289586,24.3770081 C52.964023,20.5200282 45.2219585,20.5438874 39.2790117,24.4477705 C31.1530105,29.7853252 28.9458326,40.5603403 34.3156006,48.5667224 Z M49.1555556,14.4188679 L49.1556779,14.418868 C62.9490853,14.4357463 74.1272629,25.4180798 74.1444445,38.9716981 C74.1444445,52.5321657 62.9560589,63.5245283 49.1555556,63.5245283 C35.3550522,63.5245283 24.1666667,52.5321657 24.1666667,38.9716981 C24.1666667,25.4112305 35.3550522,14.4188679 49.1555556,14.4188679 Z M49.1554487,58.1754716 L49.1555556,58.1754717 C44.6498377,58.1754717 40.2838903,56.6390104 36.8038326,53.8281712 L36.7966039,53.6790246 L64.1432706,26.8267605 L64.2901689,26.8341108 C67.1506348,30.2681297 68.7109143,34.5699171 68.7062222,39.008488 C68.6944942,49.6060981 59.9407534,58.1869928 49.1554487,58.1754716 Z M34.191184,51.1166258 L34.1211111,51.145283 L34.036119,51.1088278 C28.2375181,44.0628518 28.2402786,33.9923099 34.0431566,26.9499095 C40.8344589,18.7076353 53.1402821,17.4350303 61.5300211,24.1071101 L61.5378507,24.2567201 L34.191184,51.1166258 Z M49.1555556,16.1471698 C36.3233923,16.1471698 25.9222222,26.3661091 25.9222222,38.9716981 C25.9222222,51.5772871 36.3233923,61.7962264 49.1555556,61.7962264 C61.9877188,61.7962264 72.3888889,51.5772871 72.3888889,38.9716981 C72.3888889,26.3661091 61.9877188,16.1471698 49.1555556,16.1471698 Z"></path>
								</g>
								<path d="M49.1555556,58.0754717 C44.674,58.0777642 40.3308889,56.5517547 36.8666667,53.7580189 L64.2133333,26.8981132 C71.0087778,35.0569528 69.7861111,47.0831604 61.4817778,53.7595472 C58.0043333,56.5555755 53.6487778,58.0800566 49.1555556,58.0754717 M29.7111111,38.9716981 C29.6963333,28.4294717 38.3833333,19.8717453 49.1135556,19.8572264 C53.6153333,19.8511132 57.9794444,21.3809434 61.46,24.1853774 L34.1133333,51.045283 C31.2666667,47.643283 29.7111111,43.3755 29.7111111,38.9716981 M49.1555556,16.0471698 C36.2685556,16.0471698 25.8222222,26.3104811 25.8222222,38.9716981 C25.8222222,51.6329151 36.2685556,61.8962264 49.1555556,61.8962264 C62.0425556,61.8962264 72.4888889,51.6329151 72.4888889,38.9716981 C72.4888889,26.3104811 62.0425556,16.0471698 49.1555556,16.0471698" id="Fill-11" fill="#2E2F39"></path>
								<path d="M78.4363594,65.2519986 C77.9276555,65.2480351 77.4320991,65.4045922 77.0204838,65.6978892 C75.9423957,66.4806749 75.6996741,67.9640043 76.4743604,69.0371144 C76.9284519,69.6564069 77.6576278,70.0250098 78.4363594,70.0279824 C78.9450633,70.0319458 79.4416311,69.8763796 79.8522351,69.5820918 C80.9333572,68.7963334 81.1720334,67.3060679 80.3882451,66.2329579 C79.9361762,65.616638 79.2110457,65.2480351 78.4363594,65.2420899 L78.4363594,65.2519986 Z M64.5607783,75.1210439 C64.0520744,75.1170805 63.5555066,75.2726468 63.1449027,75.5669346 C62.0637805,76.3526929 61.8251043,77.8429584 62.6088926,78.9160684 C63.0629842,79.5353609 63.7921601,79.9039638 64.5708917,79.9069364 C65.0694822,79.9049547 65.5539139,79.7483976 65.9564271,79.4610458 C67.0446287,78.6812327 67.2924069,77.1899764 66.512664,76.111912 C66.0585725,75.4926195 65.3293965,75.1240166 64.5506649,75.1210439 L64.5607783,75.1210439 Z M64.6113453,84.999998 C60.4112514,85.0029706 57.0030365,81.6696906 57.0000025,77.5546158 C56.9969685,73.8557055 59.763994,70.7146539 63.4988716,70.1766126 C63.8740786,70.1231057 64.2523197,70.0963523 64.6315721,70.0973431 L64.7023659,70.0973431 L61.8200477,50.4979739 C61.7715033,50.1244166 61.8898301,49.7498685 62.1436764,49.4674711 C62.3965113,49.1771468 62.7656503,49.0077084 63.1550161,49.0017632 C65.8583272,48.9343842 68.2096921,50.805143 68.6971578,53.4111258 L70.4164354,65.0042816 L71.2558473,65.4303548 C72.4745117,61.5491248 76.6735943,59.3711969 80.635012,60.564202 C81.054718,60.6910331 81.4632992,60.8535355 81.8546877,61.0507182 C85.5754066,62.9294039 87.0630873,67.3902917 85.1921088,71.0584851 C83.9269228,73.574299 81.3095756,75.165633 78.4464728,75.1606787 C77.6566165,75.1646421 76.8708055,75.0437562 76.1203914,74.8039662 L76.1001647,74.8832356 L75.0483713,74.3878016 L71.5390225,72.6042392 L72.2671871,77.5288532 L72.1660531,77.5288532 C72.1781892,79.9267538 71.0111031,82.1839511 69.0308999,83.5929654 C67.7454871,84.5055549 66.1991487,84.9980163 64.6113453,84.999998 L64.6113453,84.999998 Z" id="Fill-15" fill="#00B7B2"></path>
								<path d="M64.6390848,78.9088577 C64.1830776,78.9157922 63.752292,78.700824 63.4889781,78.3342885 C63.0259088,77.6982998 63.1691677,76.814652 63.8118151,76.3530154 C64.0468807,76.1885697 64.330372,76.1013937 64.6189075,76.1053563 C65.0678527,76.1053563 65.4895585,76.3193338 65.748837,76.6799255 C66.2169506,77.310961 66.0817626,78.1936181 65.4461773,78.6611986 C65.2111116,78.8256442 64.9276204,78.9128203 64.6390848,78.9088577 L64.6390848,78.9088577 Z M78.4605432,69.0421177 C78.011598,69.0421177 77.5898922,68.8281402 77.3306137,68.4675485 C76.8675444,67.8315598 77.0108034,66.947912 77.6534507,66.4862754 C78.2648233,66.0464328 79.1233679,66.1762062 79.5713042,66.7765319 C79.5773574,66.7854476 79.5844194,66.7943634 79.5904726,66.8032791 C80.0535419,67.4392678 79.910283,68.3229156 79.2676356,68.7845522 C79.03257,68.9489979 78.7490787,69.0361739 78.4605432,69.0322113 L78.4605432,69.0421177 Z M63.256939,48.0009974 L63.226673,48.0009974 C61.9171655,48.0138757 60.8669365,49.0669223 60.8800517,50.3527686 C60.8810606,50.460748 60.8901404,50.5687273 60.9062822,50.6757161 C60.9466368,51.0422516 61.2795625,53.3504348 63.610042,69.1609941 L63.4082688,69.1808068 C58.7019109,69.8306644 55.4230978,74.1042704 56.0849136,78.7255899 C56.7467295,83.3469094 61.0989755,86.5664782 65.8053334,85.9166206 C69.6793772,85.3816769 72.6989119,82.3473572 73.1539103,78.5324158 L73.4565699,78.5324158 L73.1539103,76.3232963 L72.8512506,74.3420232 L74.6167653,75.2335961 L76.6344965,76.2539518 L76.7353831,75.9567608 C80.5226644,76.7363918 84.36846,74.9027235 86.0875669,71.4988963 C88.203158,67.3382228 86.5163348,62.2820139 82.304321,60.1561079 C78.35663,58.1698816 73.5171019,59.5092222 71.2067997,63.2270812 L69.7641219,53.3504348 L69.733856,53.2513711 L69.7136787,53.1721202 C69.1245012,50.1298754 66.3894666,47.9465124 63.2367617,48.0009974 L63.256939,48.0009974 Z M78.4605432,71.0134844 C79.1778466,71.0154657 79.8779993,70.7935631 80.458097,70.379477 C81.989555,69.2778892 82.3355958,67.1727865 81.2349235,65.6541407 C80.1574551,64.1503544 78.0428728,63.7887721 76.5124238,64.8467719 C76.495273,64.8586595 76.4791312,64.8695566 76.4629893,64.8814442 C74.9315314,65.983032 74.5854905,68.0881347 75.6861629,69.6067805 C76.3237659,70.4894377 77.3578531,71.0134844 78.4605432,71.0134844 L78.4605432,71.0134844 Z M78.4605432,61.2458081 C79.4845417,61.2448174 80.4944162,61.4825702 81.4064307,61.9392536 C84.6176498,63.5698414 85.9029445,67.4293614 84.2917862,70.6073234 C83.1961582,72.7867238 80.9362993,74.1686618 78.4605432,74.173615 C77.4436067,74.1726244 76.4407943,73.9348716 75.534833,73.4801694 L71.8222077,71.6276791 L71.0554699,66.3971181 L72.0038035,66.8726237 C72.0996457,66.1336088 72.3246228,65.4163879 72.6696548,64.7526614 C73.7683094,62.6000082 76.0089998,61.2388736 78.4605432,61.2359017 L78.4605432,61.2458081 Z M64.6491735,80.9000372 C65.3604237,80.895084 66.0525055,80.6702095 66.62655,80.2561234 C68.1640611,79.1545356 68.5111109,77.0415078 67.4033765,75.5208807 C66.318846,74.0161038 64.1961928,73.6594746 62.663726,74.7253996 C62.6526285,74.7333247 62.6425399,74.7402591 62.6314423,74.7481842 C61.0999844,75.849772 60.7539435,77.9548747 61.8546159,79.4735205 C62.4922189,80.3631122 63.5313504,80.8911214 64.6390848,80.8901308 L64.6491735,80.9000372 Z M63.256939,49.9822705 C65.4814876,49.912926 67.4134652,51.4721879 67.7766568,53.627813 L71.1563564,76.6105809 L71.1361791,76.6105809 C71.4912998,78.9930618 70.4733544,81.3725708 68.4929513,82.792153 C67.3872347,83.5806997 66.056541,84.0066734 64.6895281,84.0106359 C61.0566032,84.0552146 58.0754054,81.1992094 58.0300065,77.6329178 C57.988643,74.3717423 60.4300977,71.5920162 63.7210172,71.1521735 C64.0478896,71.1016511 64.3787975,71.0749039 64.7097054,71.0729226 C65.1293935,71.071932 65.5490816,71.1115574 65.9606987,71.191799 L62.8937474,50.3884315 C62.8654992,50.1992199 62.9996783,50.0228866 63.1923716,49.9961394 C63.2105312,49.9931675 63.2286908,49.9921769 63.2468503,49.9921769 L63.2771163,49.9921769 L63.256939,49.9822705 Z" id="Fill-17" fill="#FFFFFF"></path>
							</g>
						</g>
					</g>
				</g>
			</g>
		</g>
	</symbol>
	<symbol id="icon-5" xmlns="http://www.w3.org/2000/svg" xmlns:xlink="http://www.w3.org/1999/xlink">
		<!-- Generator: Sketch 47.1 (45422) - http://www.bohemiancoding.com/sketch -->
		<title>icon</title>
		<desc>Created with Sketch.</desc>
		<defs>
			<path d="M36.9406593,62.4932913 C36.887033,62.4950388 36.8334066,62.4915437 36.7797802,62.4845534 C36.1564835,62.4129029 35.6685714,61.917466 35.6105495,61.2962039 L34.2637363,47.4729029 L33.0127473,52.1826117 C32.8597802,52.7680485 32.3287912,53.1769806 31.7204396,53.1787282 L21.6615385,53.1787282 C20.9213187,53.1778544 20.3208791,52.5810583 20.3217582,51.8453301 C20.3226374,51.1104757 20.9221978,50.5145534 21.6615385,50.5136796 L30.6918681,50.5136796 L33.5797802,39.6350388 C33.7503297,39.0163981 34.3358242,38.6030971 34.9793407,38.6476602 C35.6237363,38.701835 36.1362637,39.2051359 36.1995604,39.8447476 L37.6835165,55.0486311 L41.3318681,44.7292136 C41.5367033,44.1813495 42.0720879,43.8257184 42.6593407,43.8466893 C43.250989,43.8737767 43.752967,44.2870777 43.8901099,44.8602816 L45.2747253,50.5136796 L53.7213187,50.5136796 C54.4615385,50.5145534 55.061978,51.1113495 55.0610989,51.8470777 C55.0602198,52.581932 54.4606593,53.1778544 53.7213187,53.1787282 L44.2268132,53.1787282 C43.6079121,53.1787282 43.0698901,52.7549417 42.9283516,52.1563981 L42.3621978,49.8408641 L38.2013187,61.610767 C38.0114286,62.1402816 37.5068132,62.4932913 36.9415385,62.4932913 L36.9406593,62.4932913 Z" id="path-2"></path>
		</defs>
		<g id="Page-1" stroke="none" stroke-width="1" fill="none" fill-rule="evenodd">
			<g id="hilltop_site-upd_main-06" transform="translate(-885.000000, -912.000000)">
				<g id="features" transform="translate(75.000000, 777.000000)">
					<g id="row-1" transform="translate(0.000000, 97.000000)">
						<g id="item" transform="translate(760.000000, 0.000000)">
							<g id="icon" transform="translate(50.000000, 38.000000)">
								<path d="M40.7652747,50.679699 L70.643956,50.679699 C70.643956,36.2071748 55.3261538,20.1032913 40.7652747,20.0971748 L40.7652747,50.679699 Z" id="Fill-3" fill="#00B7B2"></path>
								<g id="Fill-7">
									<use fill="#38B0E4" fill-rule="evenodd" href="#path-2"></use>
									<path stroke="#FFFFFF" stroke-width="2" d="M36.9557113,63.4932488 C36.8534247,63.4956177 36.7532912,63.4895543 36.6655782,63.478011 C35.5734508,63.3524665 34.7169631,62.4822081 34.6152623,61.3931754 L33.7903803,52.9268251 C33.3948292,53.6821302 32.6047742,54.1761912 31.7204396,54.1787282 L21.660358,54.1787275 C20.3692605,54.1772034 19.3202182,53.1335818 19.321759,51.8441338 C19.3232993,50.5565609 20.3710136,49.5152041 21.6615385,49.5136796 L29.9227013,49.5136796 L32.6157436,39.3692692 C32.9129683,38.2911344 33.9311679,37.57268 35.0631158,37.6511755 C36.1870536,37.7456657 37.0838038,38.6256691 37.194831,39.7476054 L38.2414404,50.4706507 L40.3951944,44.3790104 C40.75096,43.427459 41.6784142,42.8110229 42.7050757,42.8477357 C43.7411398,42.8951697 44.6216493,43.6202571 44.8614028,44.622395 L46.0593634,49.5136797 L53.7224991,49.5136803 C55.0135967,49.5152044 56.0626389,50.558826 56.0610982,51.848274 C56.0595578,53.1358468 55.0118435,54.1772037 53.7213187,54.1787282 L44.2268132,54.1787282 C43.4167086,54.1787282 42.6850897,53.762712 42.2652237,53.1154304 L39.1426219,61.9483293 C38.8115956,62.8714066 37.936704,63.4873687 36.9557113,63.4932488 Z"></path>
								</g>
								<path d="M39.6553846,11.3593107 C17.8065934,11.3068835 0.0527472527,28.8691165 -2.90363409e-13,50.5853301 C-0.0527472527,72.3015437 17.6167033,89.9476602 39.4654945,90.0000874 C61.3142857,90.0516408 79.0681319,72.4902816 79.1208791,50.774068 L79.1208791,50.679699 C79.1472527,28.989699 61.4778022,11.3855243 39.6553846,11.3593107 L39.6553846,11.3593107 Z M39.6490604,15.7282504 C59.0695249,15.6819635 74.8509096,31.2929393 74.8974791,50.5964786 C74.9440487,69.8990733 59.2367953,85.5846749 39.8163308,85.6309619 C20.3958663,85.6763041 4.61448167,70.0653284 4.56791209,50.7627337 L4.56791209,50.6796061 C4.56791209,31.4091289 20.2609095,15.7745373 39.6490604,15.7282504 L39.6490604,15.7282504 Z" id="Fill-9" fill="#2E2F39"></path>
								<path d="M78.8237363,25.0401845 C77.4540659,26.4050388 74.1221978,25.3023204 71.381978,22.5673689 C68.6417582,19.8324175 67.5314286,16.5190194 68.9010989,15.154165 C70.2707692,13.7893107 73.6043956,14.8920291 76.3428571,17.625233 C79.0813187,20.3584369 80.1934066,23.6805728 78.8237363,25.0410583 L78.8237363,25.0401845 Z" id="Path" fill="#2E2F39"></path>
								<path d="M50.1784615,4.36901942 C50.1784615,6.7806699 45.4663736,8.73795146 39.6553846,8.73795146 C33.8443956,8.73795146 29.1323077,6.7806699 29.1323077,4.36901942 C29.1323077,1.95736893 33.8426374,8.7378641e-05 39.6553846,8.7378641e-05 C45.4681319,8.7378641e-05 50.1784615,1.95736893 50.1784615,4.36901942 L50.1784615,4.36901942 Z" id="Path" fill="#2E2F39"></path>
							</g>
						</g>
					</g>
				</g>
			</g>
		</g>
	</symbol>
	<symbol id="icon-6" xmlns="http://www.w3.org/2000/svg" xmlns:xlink="http://www.w3.org/1999/xlink">
		<!-- Generator: Sketch 47.1 (45422) - http://www.bohemiancoding.com/sketch -->
		<title>Page 1</title>
		<desc>Created with Sketch.</desc>
		<defs></defs>
		<g id="Page-1" stroke="none" stroke-width="1" fill="none" fill-rule="evenodd">
			<g id="hilltop_site-upd_main-06" transform="translate(-1069.000000, -922.000000)">
				<g id="features" transform="translate(75.000000, 777.000000)">
					<g id="row-1" transform="translate(0.000000, 97.000000)">
						<g id="item" transform="translate(950.000000, 0.000000)">
							<g id="Page-1" transform="translate(44.000000, 48.000000)">
								<polygon id="Fill-1" fill="#38B0E4" points="38.7366 8.00000002e-05 38.7366 60.88808 44.3857228 60.88808 44.3857228 31.16808 49.7669158 35.95208 53.2629158 39.06408 53.2629158 8.00000002e-05"></polygon>
								<polygon id="Fill-2" fill="#2E2F39" points="47.6143579 70.35992 55.3972351 63.61592 62.1753754 79.99992 68.9341474 77.41592 61.9405333 61.36792 73.4389193 61.29592 47.6143579 38.34392"></polygon>
								<path d="M77.4739263,40.05584 L77.4739263,60.58384 L77.688593,60.88864 L92.0002421,60.88864 L92.0002421,40.05584 L77.4739263,40.05584 Z M0.000242105263,60.88864 L14.5265579,60.88864 L14.5265579,40.05584 L0.000242105263,40.05584 L0.000242105263,60.88864 Z" id="Fill-3" fill="#91929A"></path>
								<polygon id="Fill-4" fill="#2E2F39" points="19.3684211 60.888 33.8947368 60.888 33.8947368 28.84 19.3684211 28.84"></polygon>
								<polygon id="Path" fill="#2E2F39" points="72.6315789 16.824 58.1052632 16.824 58.1052632 43.368 72.6315789 56.28"></polygon>
							</g>
						</g>
					</g>
				</g>
			</g>
		</g>
	</symbol>
	<symbol id="icon-7" xmlns="http://www.w3.org/2000/svg" xmlns:xlink="http://www.w3.org/1999/xlink">
		<!-- Generator: Sketch 47.1 (45422) - http://www.bohemiancoding.com/sketch -->
		<title>icon</title>
		<desc>Created with Sketch.</desc>
		<defs>
			<path d="M9.26829268,0 C6.70869919,0 4.63414634,2.08396552 4.63414634,4.65517241 L4.63414634,80.6896552 C4.63414634,83.2608621 6.70869919,85.3448276 9.26829268,85.3448276 L90.3658537,85.3448276 C92.9254472,85.3448276 95,83.2608621 95,80.6896552 L95,4.65517241 C95,2.08396552 92.9254472,0 90.3658537,0 L9.26829268,0 Z" id="path-3"></path>
			<path d="M4.63414634,4.65517241 C2.07455285,4.65517241 0,6.73913793 0,9.31034483 L0,85.3448276 C0,87.9160345 2.07455285,90 4.63414634,90 L85.7317073,90 C88.2913008,90 90.3658537,87.9160345 90.3658537,85.3448276 L90.3658537,9.31034483 C90.3658537,6.73913793 88.2913008,4.65517241 85.7317073,4.65517241 L4.63414634,4.65517241 Z" id="path-2"></path>
		</defs>
		<g id="Page-1" stroke="none" stroke-width="1" fill="none" fill-rule="evenodd">
			<g id="hilltop_site-upd_main-06" transform="translate(-116.000000, -1152.000000)">
				<g id="features" transform="translate(75.000000, 777.000000)">
					<g id="row-2" transform="translate(0.000000, 337.000000)">
						<g id="item">
							<g id="icon" transform="translate(43.000000, 38.000000)">
								<path d="M4.63414634,4.65517241 L85.7317073,4.65517241 C88.2913008,4.65517241 90.3658537,6.73913793 90.3658537,9.31034483 L90.3658537,85.3448276 C90.3658537,87.9160345 88.2913008,90 85.7317073,90 L4.63414634,90 C2.07455285,90 0,87.9160345 0,85.3448276 L0,9.31034483 C0,6.73913793 2.07455285,4.65517241 4.63414634,4.65517241" id="Fill-5" fill="#FFFFFF"></path>
								<g id="Fill-7">
									<use fill="#FFFFFF" fill-rule="evenodd" href="#path-3"></use>
									<path stroke="#D9D9D9" stroke-width="2.32758621" d="M9.26829268,1.1637931 C7.35262669,1.1637931 5.79793944,2.72553428 5.79793944,4.65517241 L5.79793944,80.6896552 C5.79793944,82.6192933 7.35262669,84.1810345 9.26829268,84.1810345 L90.3658537,84.1810345 C92.2815197,84.1810345 93.8362069,82.6192933 93.8362069,80.6896552 L93.8362069,4.65517241 C93.8362069,2.72553428 92.2815197,1.1637931 90.3658537,1.1637931 L9.26829268,1.1637931 Z"></path>
								</g>
								<g id="Fill-7">
									<use fill="#FFFFFF" fill-rule="evenodd" xlink:href="#path-2"></use>
									<path stroke="#FFFFFF" stroke-width="1.55172414" d="M4.63414634,3.87931034 L85.7317073,3.87931034 C88.7205858,3.87931034 91.1417157,6.31142542 91.1417157,9.31034483 L91.1417157,85.3448276 C91.1417157,88.343747 88.7205858,90.7758621 85.7317073,90.7758621 L4.63414634,90.7758621 C1.64526784,90.7758621 -0.775862069,88.343747 -0.775862069,85.3448276 L-0.775862069,9.31034483 C-0.775862069,6.31142542 1.64526784,3.87931034 4.63414634,3.87931034 Z"></path>
									<path stroke="#38B0E4" stroke-width="2.32758621" d="M4.63414634,5.81896552 C2.71848035,5.81896552 1.1637931,7.3807067 1.1637931,9.31034483 L1.1637931,85.3448276 C1.1637931,87.2744657 2.71848035,88.8362069 4.63414634,88.8362069 L85.7317073,88.8362069 C87.6473733,88.8362069 89.2020606,87.2744657 89.2020606,85.3448276 L89.2020606,9.31034483 C89.2020606,7.3807067 87.6473733,5.81896552 85.7317073,5.81896552 L4.63414634,5.81896552 Z"></path>
								</g>
								<path d="M44.796748,16.2931034 C55.8870325,16.2931034 64.8780488,25.3249138 64.8780488,36.4655172 C64.8780488,47.6061207 55.8870325,56.637931 44.796748,56.637931 C33.7064634,56.637931 24.7154472,47.6061207 24.7154472,36.4655172 C24.7154472,25.3249138 33.7064634,16.2931034 44.796748,16.2931034" id="Fill-9" fill="#36B1E7"></path>
								<polygon id="Fill-11" fill="#FFFFFF" points="54.0650407 34.9137931 46.3414634 34.9137931 46.3414634 27.1551724 43.2520325 27.1551724 43.2520325 34.9137931 35.5284553 34.9137931 35.5284553 38.0172414 43.2520325 38.0172414 43.2520325 45.7758621 46.3414634 45.7758621 46.3414634 38.0172414 54.0650407 38.0172414"></polygon>
								<polygon id="Fill-13" fill="#2E2F39" points="56.3821138 62.9456897 56.3821138 42.6724138 72.601626 57.2043103 65.3800813 57.2508621 69.7825203 67.4146552 65.5345528 69.0439655 61.2711382 58.662931"></polygon>
								<path d="M56.3821138,40.3448276 C55.1023171,40.3448276 54.0650407,41.3868103 54.0650407,42.6724138 L54.0650407,62.9456897 C54.065813,64.2312931 55.1046341,65.2725 56.3844309,65.2709483 C56.9428455,65.2709483 57.4827236,65.0676724 57.9036585,64.6991379 L60.3597561,62.55 L63.3873984,69.9206897 C63.8631707,71.0930172 65.1839024,71.6687069 66.3609756,71.2163793 L70.6089431,69.587069 C71.8030081,69.1246552 72.3977236,67.7777586 71.9373984,66.5782759 C71.9250407,66.5464655 71.9126829,66.5146552 71.8987805,66.4836207 L68.8865854,59.5474138 L72.6093496,59.5241379 C73.8891463,59.5125 74.9163821,58.460431 74.9047967,57.1748276 C74.8986179,56.5269828 74.6236585,55.9101724 74.1463415,55.4741379 L57.9268293,40.9267241 C57.5028049,40.5434483 56.9528862,40.3308621 56.3821138,40.3293103 L56.3821138,40.3448276 Z M56.3821138,42.6724138 L72.601626,57.2043103 L65.3800813,57.2508621 L69.7825203,67.4146552 L65.5345528,69.0439655 L61.2711382,58.662931 L56.3821138,62.9301724 L56.3821138,42.6724138 L56.3821138,42.6724138 Z" id="Fill-15" fill="#FFFFFF"></path>
								<path d="M75.6601626,74.9094828 C75.6601626,73.5284483 75.0422764,72.7137931 74.0073171,72.7137931 C72.9800813,72.7137931 72.3621951,73.5284483 72.3621951,74.9094828 C72.3621951,76.3060345 72.9800813,77.1051724 74.0073171,77.1051724 C75.0422764,77.1051724 75.6601626,76.2982759 75.6601626,74.9094828 L75.6601626,74.9094828 Z M70.8329268,74.9094828 C70.8329268,72.8146552 72.0686992,71.5112069 73.9995935,71.5112069 C75.9536585,71.5112069 77.1894309,72.8146552 77.1894309,74.9094828 C77.1894309,77.0275862 75.9536585,78.3232759 74.0073171,78.3232759 C72.0764228,78.3232759 70.8406504,77.0275862 70.8406504,74.9094828 L70.8329268,74.9094828 Z M60.4292683,71.5965517 L61.8658537,71.5965517 L61.8658537,72.7603448 L61.896748,72.7603448 C62.1933333,71.9860345 62.9479268,71.4871552 63.7735772,71.5189655 C64.6270325,71.4522414 65.4063415,72.0069828 65.6272358,72.837931 L65.6504065,72.837931 C65.9933333,72.0069828 66.817439,71.4793966 67.7126016,71.5189655 C68.8417886,71.4607759 69.8041463,72.3328448 69.8620732,73.4663793 C69.865935,73.5493966 69.8651626,73.6324138 69.8597561,73.7146552 L69.8597561,78.2146552 L68.3691057,78.2146552 L68.3691057,74.087069 C68.4556098,73.4632759 68.0230894,72.8868103 67.4021138,72.7991379 C67.3233333,72.7882759 67.2437805,72.7859483 67.1642276,72.7913793 C66.4644715,72.7851724 65.8929268,73.35 65.886748,74.052931 C65.8859756,74.087069 65.8875203,74.1219828 65.8898374,74.1568966 L65.8898374,78.2146552 L64.4223577,78.2146552 L64.4223577,73.9862069 C64.474878,73.3717241 64.0215041,72.8301724 63.4090244,72.7774138 C63.3534146,72.7727586 63.2970325,72.7719828 63.2406504,72.7758621 C62.5239024,72.7743103 61.9415447,73.3562069 61.94,74.0762069 C61.94,74.1080172 61.9407724,74.1406034 61.9430894,74.1724138 L61.9430894,78.2068966 L60.4447154,78.2068966 L60.4447154,71.5732759 L60.4292683,71.5965517 Z M57.895935,74.9094828 C57.895935,73.5284483 57.2780488,72.7137931 56.2430894,72.7137931 C55.2158537,72.7137931 54.5979675,73.5284483 54.5979675,74.9094828 C54.5979675,76.3060345 55.2158537,77.1051724 56.2430894,77.1051724 C57.2780488,77.1051724 57.895935,76.2982759 57.895935,74.9094828 L57.895935,74.9094828 Z M53.0686992,74.9094828 C53.0686992,72.8146552 54.3044715,71.5112069 56.2353659,71.5112069 C58.1894309,71.5112069 59.4252033,72.8146552 59.4252033,74.9094828 C59.4252033,77.0275862 58.1894309,78.3232759 56.2430894,78.3232759 C54.3121951,78.3232759 53.0764228,77.0275862 53.0764228,74.9094828 L53.0686992,74.9094828 Z M49.253252,71.5965517 L50.6898374,71.5965517 L50.6898374,72.7603448 L50.7130081,72.7603448 C50.8728862,72.017069 51.5394309,71.4941379 52.2963415,71.5189655 C52.4539024,71.5228448 52.6099187,71.5492241 52.7597561,71.5965517 L52.7597561,72.9543103 C52.5643496,72.894569 52.3612195,72.8689655 52.1573171,72.8767241 C51.416626,72.8332759 50.7802033,73.4012069 50.7369512,74.1452586 C50.7323171,74.2243966 50.7346341,74.3035345 50.7439024,74.3818966 L50.7439024,78.2224138 L49.2455285,78.2224138 L49.2455285,71.5887931 L49.253252,71.5965517 Z M43.3601626,74.0715517 L44.904878,74.0715517 C45.8154878,74.1343966 46.604065,73.4431034 46.666626,72.5283621 C46.729187,71.6136207 46.0417886,70.8214655 45.1304065,70.7586207 C45.0554878,70.7531897 44.9797967,70.7531897 44.904878,70.7586207 L43.3601626,70.7586207 L43.3601626,74.0715517 Z M45.3142276,69.4784483 C46.8473577,69.3907759 48.1611382,70.5685345 48.2476423,72.1086207 C48.2538211,72.2063793 48.2538211,72.3049138 48.249187,72.4034483 C48.3078862,73.9621552 47.098374,75.2733621 45.5467073,75.3323276 C45.4486179,75.3362069 45.3505285,75.3346552 45.252439,75.3284483 L43.3601626,75.3284483 L43.3601626,78.2146552 L41.8154472,78.2146552 L41.8154472,69.462931 L45.3142276,69.462931 L45.3142276,69.4784483 Z M32.8174797,74.9094828 C32.8174797,76.2284483 33.4585366,77.0431034 34.454878,77.0431034 C35.4512195,77.0431034 36.1,76.1896552 36.1,74.9172414 C36.1,73.637069 35.4434959,72.7836207 34.454878,72.7836207 C33.450813,72.7836207 32.8097561,73.6215517 32.8097561,74.9172414 L32.8174797,74.9094828 Z M31.2727642,74.9094828 C31.2727642,72.8534483 32.3772358,71.5267241 34.0069106,71.5267241 C34.8619106,71.4840517 35.6628455,71.9480172 36.0536585,72.7137931 L36.0922764,72.7137931 L36.0922764,69.075 L37.5906504,69.075 L37.5906504,78.2301724 L36.1231707,78.2301724 L36.1231707,77.0974138 L36.0922764,77.0974138 C35.6945122,77.8763793 34.8773577,78.3473276 34.0069106,78.3 C32.3617886,78.3 31.2650407,76.9655172 31.2650407,74.9017241 L31.2727642,74.9094828 Z M25.4414634,74.9094828 C25.4414634,76.2284483 26.0902439,77.0431034 27.0865854,77.0431034 C28.0829268,77.0431034 28.7317073,76.1896552 28.7317073,74.9172414 C28.7317073,73.637069 28.0752033,72.7836207 27.0865854,72.7836207 C26.0825203,72.7836207 25.4414634,73.6215517 25.4414634,74.9172414 L25.4414634,74.9094828 Z M23.896748,74.9094828 C23.896748,72.8534483 25.0089431,71.5267241 26.6386179,71.5267241 C27.4967073,71.4809483 28.3015041,71.9456897 28.6930894,72.7137931 L28.7394309,72.7137931 L28.7394309,69.075 L30.2378049,69.075 L30.2378049,78.2301724 L28.7703252,78.2301724 L28.7703252,77.0974138 L28.7394309,77.0974138 C28.3416667,77.8763793 27.5245122,78.3473276 26.654065,78.3 C25.0089431,78.3 23.9121951,76.9655172 23.9121951,74.9017241 L23.896748,74.9094828 Z M18.3512195,74.7543103 L20.8227642,74.7543103 L19.6101626,71.0301724 L19.5715447,71.0301724 L18.3512195,74.7543103 Z M21.1934959,75.9646552 L17.9882114,75.9646552 L17.246748,78.2146552 L15.6247967,78.2146552 L18.7142276,69.4784483 L20.498374,69.4784483 L23.5878049,78.2224138 L21.9504065,78.2224138 L21.1934959,75.9646552 Z" id="Fill-17" fill="#2E2F39"></path>
							</g>
						</g>
					</g>
				</g>
			</g>
		</g>
	</symbol>
	<symbol id="icon-8" xmlns="http://www.w3.org/2000/svg" xmlns:xlink="http://www.w3.org/1999/xlink">
		<!-- Generator: Sketch 47.1 (45422) - http://www.bohemiancoding.com/sketch -->
		<title>Page 1</title>
		<desc>Created with Sketch.</desc>
		<defs></defs>
		<g id="Page-1" stroke="none" stroke-width="1" fill="none" fill-rule="evenodd">
			<g id="hilltop_site-upd_main-06" transform="translate(-310.000000, -1157.000000)">
				<g id="features" transform="translate(75.000000, 777.000000)">
					<g id="row-2" transform="translate(0.000000, 337.000000)">
						<g id="item" transform="translate(190.000000, 0.000000)">
							<g id="Page-1" transform="translate(45.000000, 43.000000)">
								<path d="M44.2758857,59.7314884 C42.2101714,60.8254248 41.4473143,60.8339712 33.5513143,62.9192873 C31.6484571,64.8071822 28.5713143,64.7994904 26.6778857,62.9021946 C26.3067429,62.5304271 25.9981714,62.0996897 25.7650286,61.6287843 C22.7290286,61.1724077 19.8824571,59.8725037 17.5536,57.8769245 C10.1778857,58.87856 4.00045714,63.9457073 1.59445714,70.9699751 C0.463885714,74.2774233 -0.844114286,76.3712858 0.719314286,78.5335194 C2.60502857,81.1572574 2.46788571,80.1487848 51.8598857,80.1487848 C53.9993143,80.143657 55.7298857,78.4104516 55.7256,76.2772757 C55.7238857,75.8610671 55.6561714,75.4491317 55.5233143,75.0551437 C54.0661714,70.7819548 52.4504571,63.7995642 44.2758857,59.7314884 L44.2758857,59.7314884 Z M89.7713143,62.209938 C88.5370286,58.5862738 86.1027429,48.091322 74.0427429,45.5530478 L75.6970286,45.1171826 C79.6064571,44.0847801 82.3321714,40.5611086 82.3398857,36.528073 L82.3398857,34.8734942 C82.9381714,34.5615515 83.3727429,34.0068915 83.5313143,33.352239 C86.8356,33.3505297 89.5133143,30.6789321 89.5116,27.3843035 C89.5107429,24.0913841 86.8338857,21.423205 83.5313143,21.4214957 C83.3778857,20.8001741 82.9750286,20.269444 82.4170286,19.953228 C82.5661714,17.0201112 81.9953143,14.0946861 80.7541714,11.4307802 C80.0650286,9.937728 79.1830286,8.53954061 78.1313143,7.27382207 C68.4198857,-5.05518241 46.6887429,-1.27853811 43.0518857,15.3270738 C43.0458857,15.3510036 43.0458857,15.3715149 43.0398857,15.3954448 C44.0153143,16.2056414 44.9110286,17.1081389 45.7141714,18.0892631 C45.7458857,18.1268671 45.7690286,18.1644712 45.7998857,18.2020752 C51.0524571,0.3145067 76.5953143,1.21016708 79.7667429,20.1677421 C79.2036,20.6061713 78.8727429,21.2762073 78.8667429,21.9881206 L78.8667429,32.7821956 C78.8718857,33.4684697 79.1796,34.1171398 79.7067429,34.5572783 C79.7813143,34.6188122 79.8618857,34.6726544 79.9467429,34.7196594 L79.9467429,36.5255091 C79.9467429,42.9865706 72.9010286,43.3882504 66.6181714,45.0462476 C65.7061714,44.0352111 64.1453143,43.9531659 63.1321714,44.8625005 C62.1181714,45.7709805 62.0358857,47.3272758 62.9478857,48.3383123 C63.8590286,49.3493488 65.4198857,49.431394 66.4338857,48.5220594 C66.7801714,48.2118259 67.0313143,47.8092915 67.1581714,47.362316 C70.2524571,46.5504101 69.4124571,46.7726159 71.3410286,46.2598333 C70.7898857,46.6316007 70.2173143,46.9708919 69.6267429,47.2768522 C69.3198857,49.9330664 66.9113143,51.8371994 64.2481714,51.531239 C62.6144571,51.3440734 61.1864571,50.3441472 60.4553143,48.8750248 C58.4118857,48.5733377 56.4490286,47.8733894 54.6764571,46.8153478 C53.5570286,47.8084369 52.2061714,48.5075306 50.7473143,48.8493857 C50.7130286,48.8921176 50.6770286,48.9348495 50.6393143,48.9775814 C50.7010286,51.7961767 49.7530286,54.5446918 47.9650286,56.729146 C52.0861714,59.2050316 55.3656,62.858608 57.3790286,67.2155514 L86.1704571,67.2155514 C88.2678857,67.21897 89.9701714,65.5259325 89.9727429,63.4346339 C89.9736,63.0184253 89.9050286,62.603926 89.7704571,62.2090833 L89.7713143,62.209938 Z" id="Fill-1" fill="#2E2F39"></path>
								<path d="M6.8898,46.1085624 C7.13922857,47.1597668 8.07608571,47.9041563 9.15951429,47.9118481 C10.4752286,47.9152666 11.5458,46.8546612 11.5492286,45.5427922 L11.5492286,45.5359551 L11.5492286,34.74188 C11.5406571,34.0291121 11.2055143,33.3582215 10.6406571,32.9215016 C11.2903714,29.2038273 13.0672286,25.7733113 15.7320857,23.0931672 C19.3852286,19.2165303 25.5035143,16.9790886 32.4738,18.6661436 C35.3246571,19.4660845 37.9175143,20.9916129 39.9969429,23.0931672 C42.6618,25.7724566 44.4369429,29.2029726 45.0823714,32.9215016 C43.6715143,34.0598791 44.1763714,35.039294 44.1763714,45.5342458 C44.1875143,46.3213672 44.5938,47.0495186 45.2580857,47.4742735 L45.2580857,49.2775592 C45.2580857,55.5249613 39.0669429,55.9180947 31.9329429,57.7982978 C31.0192286,56.7864067 29.4558,56.7052161 28.4409429,57.61626 C27.4260857,58.5273038 27.3438,60.0861631 28.2583714,61.0980542 C29.1720857,62.1099454 30.7355143,62.1919906 31.7503714,61.2800921 C32.0983714,60.9681493 32.3495143,60.5639056 32.4763714,60.1143662 C39.8615143,58.1743384 47.6478,57.4308036 47.6478,49.2775592 L47.6478,47.6281083 C48.2503714,47.3161655 48.6858,46.7572324 48.8392286,46.0983067 C52.1418,46.0589934 54.7869429,43.3574834 54.7475143,40.0645641 C54.7089429,36.8271962 52.0860857,34.2120046 48.8392286,34.1735459 C48.6866571,33.5513696 48.2838,33.0197849 47.7249429,32.7035689 C47.8175143,31.1524014 47.6958,29.596106 47.3623714,28.0782693 C47.0649429,26.7381973 46.6303714,25.4323108 46.0655143,24.1811211 C44.5663714,21.0035779 42.2563714,18.2747195 39.3660857,16.2671753 C25.5660857,6.74651056 6.51437143,18.0089271 7.99465714,32.7061329 C7.44008571,33.0232035 7.04065714,33.5530789 6.88894286,34.1718366 C3.58294286,34.1726913 0.903514286,36.8442889 0.904371429,40.1406268 C0.904371429,43.4361101 3.5838,46.1068531 6.88894286,46.1077077 L6.8898,46.1085624 Z" id="Fill-3" fill="#2E2F39"></path>
								<path d="M26.0220857,56.8428128 C27.1809429,55.0190158 29.4223714,54.1959996 31.4906571,54.834414 L35.7335143,53.7148385 C42.1166571,47.7494669 41.1883714,40.2713864 41.1883714,34.7222234 C37.9826571,16.5398048 17.8312286,16.050952 14.5380857,34.7222234 L14.5380857,43.0122097 C15.8238,50.2697937 20.3726571,55.8334856 26.0220857,56.8419581 L26.0220857,56.8428128 Z" id="Fill-5" fill="#00B7B2"></path>
								<path d="M60.7123714,44.0916172 C61.6089429,42.7053948 63.1483714,41.8661405 64.8026571,41.8610127 C65.8826571,41.8627219 66.9300857,42.2267976 67.7769429,42.8951244 C72.7483714,40.1688299 76.2455143,33.6855477 76.2455143,26.1100385 C76.2455143,16.0765911 70.1169429,7.94556736 62.5500857,7.94556736 C55.6552286,7.94556736 49.9638,14.7142985 49.0115143,23.5153583 C49.5566571,24.7887685 49.9852286,26.1091839 50.2912286,27.4603662 C50.5706571,28.7662527 50.7258,30.0943598 50.7558,31.429304 C54.8160857,32.3856437 57.6926571,35.9870873 57.7175143,40.1466093 C57.7115143,41.0738913 57.5580857,41.9934815 57.2632286,42.8729038 C58.3372286,43.4660224 59.5029429,43.8771032 60.7123714,44.0907626 L60.7123714,44.0916172 Z" id="Fill-7" fill="#36B1E7"></path>
								<path d="M30.4509429,39.4680269 L33.4509429,35.4512294 L33.4509429,39.4680269 L30.4509429,39.4680269 Z M37.9183714,39.4680269 L36.3198,39.4680269 L36.3198,32.545461 L33.3540857,32.545461 L28.2403714,39.394528 L28.2403714,41.5994935 L33.4492286,41.5994935 L33.4492286,44.3856126 L36.3206571,44.3856126 L36.3206571,41.5994935 L37.9192286,41.5994935 L37.9192286,39.4714454 L37.9183714,39.4680269 Z M27.4140857,42.117404 L22.3963714,42.117404 C22.5969429,41.9635692 22.9235143,41.7071779 23.3735143,41.3396836 C23.8235143,40.9721894 24.2889429,40.5534169 24.7655143,40.0833661 C25.4220857,39.4569166 25.9749429,38.7296199 26.4026571,37.9296789 C26.7249429,37.2938284 26.8938,36.5913162 26.8963714,35.8785483 C26.9529429,34.8828953 26.5543714,33.9145907 25.8112286,33.2462639 C24.8949429,32.5616991 23.7609429,32.229245 22.6183714,32.3104356 C21.9275143,32.3147088 21.2392286,32.3984633 20.5672286,32.5599898 C20.0306571,32.6710927 19.5052286,32.8343285 19.0003714,33.0471333 L19.0003714,35.6213023 L19.2318,35.6213023 C19.3269429,35.560623 19.4692286,35.4666129 19.6603714,35.3392718 C19.8806571,35.197402 20.1112286,35.0726248 20.3512286,34.9657951 C20.6160857,34.8529829 20.8878,34.7581181 21.1655143,34.6803461 C21.4449429,34.6042833 21.7329429,34.5666793 22.0226571,34.5692432 C22.5206571,34.5384762 23.0118,34.6948749 23.3992286,35.008527 C23.7420857,35.3358533 23.9229429,35.796503 23.8929429,36.2691177 C23.8903714,36.7682262 23.7558,37.257079 23.5029429,37.6878164 C23.1498,38.271534 22.7280857,38.8108105 22.2463714,39.2945354 C21.8023714,39.7560398 21.2863714,40.2517297 20.7035143,40.7645124 C20.1206571,41.2772951 19.4572286,41.8328096 18.7200857,42.4139633 L18.7200857,44.3454447 L27.4140857,44.3454447 L27.4140857,42.1148401 L27.4140857,42.117404 Z" id="Fill-9" fill="#FFFFFF"></path>
								<polygon id="Fill-11" fill="#FFFFFF" points="66.6198 20.5805322 57.9138 20.5805322 57.9138 22.8025904 63.5598 22.8025904 58.2712286 32.3805159 61.5798 32.3805159 66.6198 22.921385 66.6198 20.5796775"></polygon>
							</g>
						</g>
					</g>
				</g>
			</g>
		</g>
	</symbol>
	<symbol id="icon-9" xmlns="http://www.w3.org/2000/svg" xmlns:xlink="http://www.w3.org/1999/xlink">
		<!-- Generator: Sketch 47.1 (45422) - http://www.bohemiancoding.com/sketch -->
		<title>Page 1</title>
		<desc>Created with Sketch.</desc>
		<defs></defs>
		<g id="Page-1" stroke="none" stroke-width="1" fill="none" fill-rule="evenodd">
			<g id="hilltop_site-upd_main-06" transform="translate(-511.000000, -1147.000000)">
				<g id="features" transform="translate(75.000000, 777.000000)">
					<g id="row-2" transform="translate(0.000000, 337.000000)">
						<g id="item" transform="translate(380.000000, 0.000000)">
							<g id="Page-1" transform="translate(56.000000, 33.000000)">
								<path d="M42.3748456,54.5467521 C42.7363646,54.2048718 42.9397468,53.8290598 43,54 C43.3098734,54.7094017 44.0156962,55.1965812 44.8075949,55.1965812 C45.3670886,55.1965812 45.9093671,54.9401709 46.2708861,54.5128205 C46.4602532,54.2905983 46.5893671,54.034188 46.6668354,53.7606838 C46.718481,53.5042735 46.6324051,53.2136752 46.7701266,53.0940171 C46.8131646,53.0512821 49.0973772,52.5638462 49.2092759,52.5723932 C49.6654785,52.6065812 50.1561114,52.7946154 50.5864911,52.9142735 C51.1029468,53.0681197 50.6725671,53.5296581 50.5004152,53.7946154 C49.9323139,54.6749573 49.2092759,55.401453 48.2796557,55.9057265 C46.6011747,56.8117094 44.7161114,56.7347863 42.9085165,56.3074359 C42.5125671,56.2219658 41.961681,56.1023077 41.8583899,55.6236752 C41.7550987,55.2134188 42.1166177,54.8373504 42.3748456,54.5638462 L42.3748456,54.5467521 Z M47.487757,58.1963248 C50.1905418,57.6835043 52.5059848,56.1706838 53.5130734,53.5809402 C53.840162,52.7775214 54.9763646,50.444188 53.6680101,49.9655556 C52.3338329,49.4869231 50.9135797,49.435641 49.5019342,49.452735 C46.7905418,49.4783761 44.1652253,49.5040171 41.686238,50.7347863 C40.8254785,51.1792308 39.3019342,51.8117094 39.1039595,52.8715385 C38.9059848,53.8117094 39.1039595,54.8117094 39.2588962,55.7518803 C39.3707949,56.435641 39.5343392,57.2219658 40.2315544,57.5296581 C42.3490228,58.4612821 45.2153519,58.6151282 47.487757,58.1963248 Z" id="Fill-1" fill="#2E2F39"></path>
								<path d="M34.5849722,84.1877778 C34.3267443,83.8800855 34.0082633,83.5040171 33.5778835,83.4612821 C33.1475038,83.4954701 32.8032,83.8886325 32.5449722,84.1877778 C31.1849722,85.8544444 28.8867443,86.5382051 26.8811747,87.0937607 C26.4507949,87.2305128 26.1925671,87.6920513 26.3130734,88.1194017 C26.4249722,88.5211111 26.726238,88.8288034 27.001681,89.1450427 C28.6199089,90.9911966 29.9282633,93.1023077 31.0730734,95.2817949 C31.6756051,96.435641 32.2437063,97.6151282 32.6224405,98.8715385 C32.7515544,99.3159829 32.8548456,99.8971795 33.4143392,99.9826496 C33.4659848,100.008291 33.5176304,99.9826496 33.5692759,99.9826496 C33.6209215,99.9826496 33.6725671,100.008291 33.7242127,99.9826496 C34.2837063,99.8971795 34.3869975,99.3159829 34.524719,98.8715385 C34.9034532,97.6151282 35.4715544,96.435641 36.0740861,95.2817949 C37.2188962,93.1023077 38.5358582,90.9911966 40.1540861,89.1279487 C40.4295291,88.8288034 40.7307949,88.5296581 40.8426937,88.1194017 C40.9718076,87.6920513 40.7135797,87.2305128 40.2745924,87.0937607 C38.2604152,86.5382051 35.9621873,85.8544444 34.5849722,84.1877778 Z" id="Path" fill="#00B7B2"></path>
								<path d="M60.1150987,89.1450427 C58.9444658,88.5723932 56.1039595,88.392906 52.4026937,88.392906 C51.6021873,88.392906 50.8102886,88.392906 50.0183899,88.427094 C48.8735797,88.4612821 48.1075038,88.5125641 47.6685165,87.2134188 C47.4619342,86.5894872 47.2381367,85.9741026 47.0659848,85.3416239 C46.8938329,84.8117094 46.5495291,84.1023077 46.721681,83.5296581 C46.8938329,82.9997436 47.4705418,83.0510256 47.9267443,83.0168376 C48.6153519,82.9741026 49.3039595,82.8458974 49.9925671,82.6749573 C51.5419342,82.3074359 53.0568709,81.6493162 54.2361114,80.5552991 C55.5530734,79.3416239 56.3449722,77.5382051 56.3449722,75.7262393 C56.3449722,74.8117094 55.8543392,73.9655556 55.3120608,73.401453 C54.4513013,72.5467521 52.3510481,72.2732479 51.6968709,73.5552991 C51.524719,73.9142735 51.6968709,74.367265 51.9292759,74.6493162 C52.2994025,75.0766667 52.7900354,74.7860684 53.246238,74.9057265 C54.0467443,75.0937607 53.8229468,76.3587179 53.5044658,76.8715385 C52.5576304,78.4612821 50.3626937,78.8202564 48.7100354,78.5125641 C47.1864911,78.2134188 45.9039595,77.2647009 44.7075038,76.3159829 C43.1150987,75.0510256 41.281681,73.2134188 39.1728203,73.0424786 C38.0194025,72.9399145 36.8745924,73.2988889 35.9019342,73.8971795 C35.4026937,74.2048718 34.9550987,74.5638462 34.524719,74.9741026 C34.1804152,75.3159829 33.9049722,75.6578632 33.5778835,75.6578632 C33.2594025,75.6578632 32.9753519,75.3159829 32.6310481,74.9741026 C32.2178835,74.5638462 31.7702886,74.2048718 31.2710481,73.8971795 C30.2811747,73.2988889 29.1449722,72.9399145 27.9829468,73.0424786 C25.8826937,73.2134188 24.0406684,75.0510256 22.4568709,76.3074359 C21.2518076,77.2476068 19.9778835,78.1877778 18.4457316,78.4954701 C16.8102886,78.8031624 14.6067443,78.444188 13.6426937,76.8715385 C13.3328203,76.3416239 13.1090228,75.0766667 13.9009215,74.8800855 C14.3657316,74.7689744 14.847757,75.0510256 15.2264911,74.6236752 C15.4675038,74.3501709 15.6310481,73.8971795 15.4502886,73.5382051 C14.8133266,72.2561538 12.6958582,72.5125641 11.8523139,73.384359 C11.3014278,73.9484615 10.8194025,74.7946154 10.8194025,75.7091453 C10.8194025,77.5211111 11.6113013,79.3245299 12.9282633,80.5467521 C14.7530734,82.2305128 17.2750987,82.8373504 19.6594025,83.0424786 C23.2143392,83.3501709 26.9500354,82.3330769 30.0745924,80.6493162 C31.0902886,80.0937607 32.3469975,78.8971795 33.5864911,78.8117094 C34.8345924,78.8971795 36.0826937,80.0937607 37.0983899,80.6407692 C38.6735797,81.4954701 40.4037063,82.1792308 42.1768709,82.6065812 C42.9343392,82.7775214 43.2097823,83.0168376 43.321681,83.8031624 C43.7520608,86.8800855 43.8811747,89.9911966 44.4148456,93.0339316 C44.5525671,93.8886325 44.7591494,94.7091453 45.000162,95.5125641 C45.7318076,97.8202564 47.9267443,99.3587179 50.1388962,99.7860684 C50.8791494,99.9228205 51.6710481,99.9826496 52.4285165,99.9826496 C57.2487696,99.9826496 60.5885165,97.8031624 60.7176304,90.41 C60.7434532,89.8117094 60.7176304,89.384359 60.1495291,89.1279487 L60.1150987,89.1450427 Z" id="Fill-4" fill="#38B0E4"></path>
								<path d="M11.2497823,54.0510256 C11.2497823,51.9997436 11.8264911,49.9911966 12.9024405,48.2390598 C13.4361114,47.384359 14.0902886,46.6151282 14.8391494,45.9313675 C15.4761114,45.3330769 15.9839595,44.9057265 16.8705418,44.7946154 C17.3869975,44.7347863 18.7383899,44.7262393 18.884719,45.418547 C19.0310481,46.1194017 17.9034532,46.444188 17.4472506,46.7176923 C16.8275038,47.0937607 16.2852253,47.5723932 15.8118076,48.1364957 C14.3915544,49.7176923 13.5135797,51.7860684 13.5135797,54.0595726 C13.5135797,58.9570085 17.5333266,62.9313675 22.4654785,62.9313675 C27.3976304,62.9313675 31.4345924,58.9655556 31.4345924,54.0681197 C31.4345924,52.5723932 31.038643,51.0766667 30.2983899,49.7689744 C29.9540861,49.1364957 29.5064911,48.5467521 29.0072506,48.0168376 C28.6887696,47.6749573 27.8194025,47.1792308 27.9743392,46.6493162 C28.1981367,45.8458974 30.6426937,46.5467521 31.0214278,46.9057265 C31.6239595,47.452735 32.0715544,48.2732479 32.4502886,48.9826496 C33.2680101,50.5467521 33.7069975,52.3159829 33.7069975,54.0766667 C33.7069975,60.2048718 28.6629468,65.1877778 22.4740861,65.1877778 C16.2766177,65.1621368 11.2497823,60.1792308 11.2497823,54.0510256 Z M24.6188962,53.375812 C24.6188962,54.8117094 23.4396557,55.9741026 21.9935797,55.9741026 C20.5475038,55.9741026 19.3682633,54.8117094 19.3682633,53.375812 C19.3682633,51.9399145 20.5388962,50.7775214 21.9849722,50.7775214 C23.4482633,50.7775214 24.6188962,51.9399145 24.6188962,53.375812 Z M27.5095291,50.0510256 C28.404719,51.1364957 28.9469975,52.5296581 28.9469975,54.0424786 C28.9469975,57.5809402 26.046238,60.452735 22.4740861,60.452735 C20.7095291,60.452735 19.1171241,59.7347863 17.9464911,58.5723932 C17.7743392,58.401453 17.8604152,58.2817949 18.0583899,58.375812 C18.9535797,58.8031624 19.9520608,59.0595726 21.0021873,59.0595726 C24.7206684,59.0595726 27.7505418,56.0681197 27.7505418,52.375812 C27.7505418,51.5894872 27.6128203,50.8373504 27.3545924,50.1364957 C27.2857316,49.9655556 27.3890228,49.8971795 27.5095291,50.0510256 Z M63.2482633,37.3501709 C61.2513013,38.1877778 59.2199089,38.9057265 57.1540861,39.5467521 C56.7237063,39.6749573 56.6118076,39.392906 56.6376304,39.0082906 C57.1885165,30.2732479 59.0305418,17.2305128 61.8624405,11.1877778 C65.7961114,2.79461538 47.3156051,-0.000256410257 32.9409215,-0.000256410257 C18.5232,-0.000256410257 0.0513012658,2.79461538 3.98497215,11.1963248 C6.73940253,17.0595726 8.54699747,29.5211111 9.14952911,38.2390598 C9.25282025,39.5723932 7.56573165,38.7518803 6.88573165,38.4954701 C5.88725063,38.1535897 4.88016203,37.7689744 3.89028861,37.3501709 C2.84016203,36.9228205 0.8432,35.6407692 0.12876962,37.2903419 C-0.645913924,39.0510256 2.28066835,39.7689744 3.3996557,40.2561538 C4.51864304,40.7689744 5.68066835,41.2134188 6.84269367,41.6407692 L8.65028861,42.2817949 C9.6832,42.6236752 9.70902278,43.3501709 9.70902278,44.3159829 C9.70902278,45.4954701 9.70902278,46.6835043 9.73484557,47.8715385 C9.73484557,48.5211111 9.60573165,49.3587179 9.41636456,49.9570085 C8.64168101,52.3330769 8.55560506,54.9142735 9.1753519,57.3330769 C9.48522532,58.5296581 9.97585823,59.6236752 10.0361114,60.8800855 C10.1394025,63.6578632 10.2943392,66.0937607 10.4664911,67.6322222 C10.724719,69.5980342 12.7561114,68.2903419 13.6168709,67.6835043 C14.1505418,67.3074359 14.7100354,66.7946154 15.2867443,66.5382051 C15.7687696,66.3245299 16.6897823,66.367265 17.1459848,66.5552991 C18.7814278,67.2390598 20.5890228,67.6322222 22.4826937,67.6322222 C30.0573772,67.6322222 36.2032,61.5467521 36.2032,54.0595726 C36.2032,52.5211111 36.9090228,51.8373504 37.3049722,51.5467521 C38.9404152,50.41 40.7652253,49.5552991 42.5556051,48.6749573 C44.4492759,47.7347863 46.3859848,46.8373504 48.3226937,45.9826496 C49.9323139,45.2732479 51.5505418,44.6578632 53.1687696,44.0168376 C54.5029468,43.5040171 55.9059848,43.1621368 57.2659848,42.7005983 C58.6948456,42.2390598 60.1064911,41.7433333 61.4837063,41.2048718 C62.2583899,40.9142735 63.0158582,40.6065812 63.7733266,40.2647009 C64.8923139,39.7775214 67.8188962,39.0681197 67.0442127,37.2903419 C66.3039595,35.6322222 64.3069975,36.9057265 63.2482633,37.3501709 Z" id="Fill-6" fill="#2E2F39"></path>
							</g>
						</g>
					</g>
				</g>
			</g>
		</g>
	</symbol>
	<symbol id="icon-10" xmlns="http://www.w3.org/2000/svg" xmlns:xlink="http://www.w3.org/1999/xlink">
		<!-- Generator: Sketch 47.1 (45422) - http://www.bohemiancoding.com/sketch -->
		<title>Page 1</title>
		<desc>Created with Sketch.</desc>
		<defs></defs>
		<g id="Page-1" stroke="none" stroke-width="1" fill="none" fill-rule="evenodd">
			<g id="hilltop_site-upd_main-06" transform="translate(-690.000000, -1152.000000)">
				<g id="features" transform="translate(75.000000, 777.000000)">
					<g id="row-2" transform="translate(0.000000, 337.000000)">
						<g id="item" transform="translate(570.000000, 0.000000)">
							<g id="Page-1" transform="translate(45.000000, 38.000000)">
								<path d="M29.2836273,29.1910909 L29.2099909,29.2647273 L29.1838091,29.2892727 C28.1463545,30.2719091 26.5091727,30.2269091 25.5265364,29.1894545 C24.5439,28.152 24.5889,26.5148182 25.6263545,25.5321818 C26.6638091,24.5495455 28.3009909,24.5945455 29.2836273,25.632 C30.2286273,26.6293636 30.2286273,28.1920909 29.2836273,29.1894545 L29.2836273,29.1910909 Z M24.3377182,22.7274545 C23.6275364,23.1979091 23.0343545,23.8238182 22.6031727,24.5585455 L12.1909909,26.7545455 L9.81826364,27.2536364 C9.89353636,17.8445455 17.3602636,10.161 26.7628091,9.81572727 L26.3160818,12.1884545 L24.3377182,22.7274545 Z M1.58244545,22.6309091 C0.700445455,22.6399091 -0.0081,23.3623636 8.1818182e-05,24.2443636 L0.0819,31.1318182 C0.0925363636,32.0080909 0.805990909,32.7125455 1.68226364,32.7125455 L1.70026364,32.7125455 L4.08280909,32.8295455 C4.7169,35.5475455 5.82471818,38.133 7.35553636,40.4664545 L5.79526364,42.2664545 C5.17835455,42.8956364 5.18817273,43.9060909 5.81817273,44.523 C5.81817273,44.523 5.81899091,44.5238182 5.81980909,44.5246364 L10.7550818,49.3396364 C11.3875364,49.9557273 12.3996273,49.9450909 13.0181727,49.3150909 L14.7854455,47.7155455 C17.0346273,49.113 19.5006273,50.1267273 22.0828091,50.7141818 C22.2709909,50.3918182 22.5000818,50.0948182 22.7635364,49.8305455 C23.5530818,49.0385455 24.6191727,48.5844545 25.7368091,48.5648182 L26.8004455,48.4993636 L26.8249909,48.4175455 C27.1612636,47.2385455 27.5670818,46.0808182 28.0408091,44.9500909 C27.8379,44.9558182 27.6317182,44.9607273 27.4320818,44.9607273 C20.8318091,44.9623636 14.7846273,41.2772727 11.7598091,35.4109091 L11.5143545,34.92 L24.3729,32.0563636 C25.2819,32.6487273 26.3447182,32.9637273 27.4296273,32.9620909 L27.6636273,32.9620909 L29.3130818,34.5714545 L34.7294455,29.1567273 L33.0219,27.4909091 C33.0472636,26.2644545 32.6659909,25.0641818 31.9369909,24.0774545 L34.4962636,11.2753636 C34.7049,11.3678182 34.9135364,11.4635455 35.1180818,11.5617273 C41.4221727,14.6045455 45.3167182,21.1017273 45.0295364,28.0963636 C46.1185364,27.6496364 47.2320818,27.2642727 48.3644455,26.9427273 L48.3857182,26.5941818 L48.4282636,25.884 C48.4446273,24.7655455 48.8970818,23.6978182 49.6899,22.9090909 C50.1112636,22.4869091 50.7805364,21.9272727 50.7805364,21.9272727 C50.1464455,19.2092727 49.0386273,16.6246364 47.5078091,14.2903636 L49.0680818,12.4903636 C49.6849909,11.8611818 49.6751727,10.8507273 49.0451727,10.2338182 L49.0435364,10.2321818 L44.1082636,5.41636364 C43.4766273,4.79863636 42.4637182,4.81009091 41.8459909,5.44090909 L40.0828091,7.04454545 C37.7092636,5.56936364 35.0951727,4.52372727 32.3591727,3.95345455 L32.1889909,1.58072727 C32.1791727,0.705272727 31.4673545,0.000818181818 30.5919,0 L30.5730818,0 L23.6733545,0.0818181818 C22.7905364,0.0908181818 22.0819909,0.814090909 22.0909909,1.69690909 L22.0909909,1.69690909 L21.9739909,4.07454545 C19.2527182,4.707 16.6631727,5.81154545 14.3239909,7.33909091 L12.5239909,5.78045455 C11.8915364,5.16272727 10.8786273,5.175 10.2600818,5.80663636 L5.43280909,10.7320909 C4.81671818,11.3604545 4.82653636,12.3692727 5.4549,12.9861818 C5.45571818,12.9878182 5.45735455,12.9886364 5.45899091,12.9902727 L7.06017273,14.7542727 C5.58335455,17.1220909 4.53444545,19.7320909 3.96253636,22.4631818 L1.58244545,22.6309091 Z" id="Fill-1" fill="#2E2F39"></path>
								<path d="M55.6200818,13.9156364 L47.5200818,13.9156364 L49.7921727,11.0421818 L47.5192636,8.19490909 L55.6192636,8.19490909 L55.6192636,13.9156364 L55.6200818,13.9156364 Z M42.5373545,5.73381818 L46.4973545,11.0413636 L42.5373545,16.3497273 L55.6200818,16.3497273 L55.6200818,25.3701818 L58.0811727,25.3701818 L58.0811727,5.73381818 L42.5373545,5.73381818 Z" id="Fill-3" fill="#36B1E7"></path>
								<path d="M55.6200818,13.9156364 L47.5200818,13.9156364 L49.7921727,11.0421818 L47.5192636,8.19490909 L55.6192636,8.19490909 L55.6192636,13.9156364 L55.6200818,13.9156364 L55.6200818,13.9156364 Z M42.5373545,5.73381818 L46.4973545,11.0413636 L42.5373545,16.3497273 L55.6200818,16.3497273 L55.6200818,25.3701818 L58.0811727,25.3701818 L58.0811727,5.73381818 L42.5373545,5.73381818 L42.5373545,5.73381818 Z" id="Stroke-5" stroke="#FFFFFF" stroke-width="3.27272727" stroke-linejoin="round"></path>
								<path d="M55.6200818,13.9156364 L47.5200818,13.9156364 L49.7921727,11.0421818 L47.5192636,8.19490909 L55.6192636,8.19490909 L55.6192636,13.9156364 L55.6200818,13.9156364 Z M42.5373545,5.73381818 L46.4973545,11.0413636 L42.5373545,16.3497273 L55.6200818,16.3497273 L55.6200818,25.3701818 L58.0811727,25.3701818 L58.0811727,5.73381818 L42.5373545,5.73381818 Z" id="Fill-7" fill="#38B0E4"></path>
								<path d="M56.8514455,53.7226364 C58.5827182,53.7226364 59.9867182,55.125 59.9883545,56.8562727 L59.9883545,57.0272727 C59.8991727,58.6906364 58.5246273,59.994 56.8588091,59.9948182 C55.1267182,59.9948182 53.7227182,58.5908182 53.7227182,56.8587273 C53.7227182,55.1266364 55.1267182,53.7226364 56.8588091,53.7226364 L56.8514455,53.7226364 Z M52.1387182,36.0769091 C53.6801727,35.7291818 55.2551727,35.5532727 56.8350818,35.5532727 L56.8555364,35.5532727 C66.8324455,35.5434545 75.4765364,42.4669091 77.6455364,52.2057273 L75.3219,52.2057273 L61.7752636,52.2171818 C60.7574455,51.1347273 59.4107182,50.4188182 57.9437182,50.1799091 L50.7805364,39.1974545 L50.0196273,38.0315455 L49.3020818,36.9310909 C49.5598091,36.8329091 49.8199909,36.7396364 50.0834455,36.6512727 C50.2920818,36.5809091 50.5031727,36.5154545 50.7134455,36.4516364 C51.1814455,36.315 51.6559909,36.1906364 52.1370818,36.0785455 L52.1387182,36.0769091 Z M36.6480818,63.63 C35.4003545,59.8843636 35.2113545,55.8679091 36.1015364,52.0216364 C36.2136273,51.5405455 36.3412636,51.066 36.4860818,50.598 C36.5351727,50.4343636 36.5842636,50.2789091 36.6366273,50.121 C36.7552636,49.7650909 36.8820818,49.4157273 37.0179,49.0696364 C37.2469909,48.4862727 37.5006273,47.916 37.7788091,47.3596364 C38.7189,45.4753636 39.9314455,43.7408182 41.3788091,42.2116364 L41.6038091,42.5446364 L43.0078091,44.6449091 L45.2414455,47.9847273 L45.9254455,49.005 L46.6086273,50.0260909 L50.2331727,55.4449091 C50.0179909,56.4537273 50.0368091,57.4977273 50.2871727,58.4983636 L43.1477182,69.2083636 L41.5211727,71.649 C39.3194455,69.3711818 37.6536273,66.6319091 36.6448091,63.6291818 L36.6480818,63.63 Z M77.0662636,63.5972727 C76.7504455,64.5430909 76.3675364,65.4651818 75.9208091,66.357 C72.3265364,73.5921818 64.9440818,78.1666364 56.8653545,78.165 L56.8473545,78.165 C54.5580818,78.1666364 52.2827182,77.7992727 50.1104455,77.0768182 C49.9001727,77.0056364 49.6915364,76.9328182 49.4845364,76.8575455 L58.1679,63.495 C59.5506273,63.2200909 60.8130818,62.5189091 61.7777182,61.4904545 L75.3227182,61.479 L77.6488091,61.479 C77.4909,62.1949091 77.2961727,62.9026364 77.0654455,63.5980909 L77.0662636,63.5972727 Z M88.0528091,62.9427273 C89.1221727,62.9410909 89.9869909,62.073 89.9853545,61.0036364 L89.9853545,61.0036364 L89.9788091,52.6581818 C89.9763545,51.5912727 89.1099,50.7272727 88.0429909,50.7272727 L85.1646273,50.5554545 C84.4323545,47.2549091 83.1257182,44.109 81.3044455,41.2609091 L83.2157182,39.0992727 C83.9717182,38.3432727 83.9717182,37.1176364 83.2157182,36.3616364 L77.3084455,30.4641818 C76.5532636,29.709 75.3284455,29.7081818 74.5732636,30.4633636 L74.5724455,30.4641818 L72.4140818,32.3787273 C69.5635364,30.5615455 66.4159909,29.2598182 63.1146273,28.5332727 L62.9379,25.6549091 C62.9370818,24.5863636 62.0706273,23.7207273 61.0020818,23.7207273 L52.6558091,23.7207273 C51.5864455,23.7199091 50.7199909,24.5863636 50.7191727,25.6557273 L50.7191727,25.6639091 L50.5473545,28.5439091 C49.7496273,28.7198182 48.9641727,28.9292727 48.1926273,29.1722727 C46.9571727,29.5576364 45.7487182,30.0264545 44.5762636,30.5746364 C44.1041727,30.7930909 43.6386273,31.0262727 43.1812636,31.2741818 C42.6641727,31.5515455 42.1560818,31.8428182 41.6578091,32.1496364 L41.4859909,32.2576364 C41.4090818,32.3067273 41.3305364,32.3533636 41.2536273,32.4024545 L39.0936273,30.4911818 C38.3368091,29.7368182 37.1128091,29.7368182 36.3559909,30.4911818 L36.3003545,30.5468182 L30.8709,35.9877273 L30.4618091,36.3968182 C30.3137182,36.5465455 30.1901727,36.7183636 30.0969,36.9073636 C29.7328091,37.6519091 29.8809,38.5453636 30.4650818,39.1328182 L32.3796273,41.2928182 C32.3329909,41.364 32.2896273,41.4368182 32.2438091,41.5088182 C31.9329,42.0062727 31.6375364,42.5127273 31.3577182,43.029 C31.1098091,43.4847273 30.8741727,43.9486364 30.6508091,44.4199091 C30.0797182,45.6226364 29.5920818,46.863 29.1928091,48.1328182 C28.9391727,48.9387273 28.7207182,49.7585455 28.5382636,50.5939091 L25.6599,50.7706364 C24.5913545,50.7673636 23.7224455,51.6313636 23.7191727,52.6999091 L23.7191727,52.713 L23.7191727,61.0609091 C23.7199909,62.1294545 24.5864455,62.9950909 25.6549909,62.9950909 L28.5333545,63.1669091 C29.2656273,66.4674545 30.5722636,69.6133636 32.3935364,72.4614545 L30.4822636,74.6230909 C29.7262636,75.3790909 29.7262636,76.6047273 30.4822636,77.3607273 L36.3895364,83.2581818 C37.1455364,84.0133636 38.3703545,84.0133636 39.1263545,83.2581818 L41.2847182,81.3436364 C44.1352636,83.1608182 47.2836273,84.4625455 50.5849909,85.1890909 L50.7617182,88.0674545 C50.7633545,89.1368182 51.6314455,90.0016364 52.7008091,90 L52.7057182,90 L61.0511727,89.9918182 C62.1197182,89.991 62.9861727,89.1237273 62.9853545,88.0551818 L63.1571727,85.1751818 C66.4577182,84.4437273 69.6036273,83.1370909 72.4517182,81.3158182 L74.6117182,83.2270909 C75.3660818,83.9830909 76.5909,83.9839091 77.3469,83.2295455 L77.3493545,83.2270909 L83.2459909,77.3198182 C84.0011727,76.5638182 84.0011727,75.3381818 83.2459909,74.5821818 L81.3314455,72.4238182 C83.1486273,69.5732727 84.4503545,66.4249091 85.1769,63.1227273 L88.0528091,62.9427273 Z" id="Fill-9" fill="#36B1E7"></path>
							</g>
						</g>
					</g>
				</g>
			</g>
		</g>
	</symbol>
	<symbol id="icon-11" xmlns="http://www.w3.org/2000/svg" xmlns:xlink="http://www.w3.org/1999/xlink">
		<!-- Generator: Sketch 47.1 (45422) - http://www.bohemiancoding.com/sketch -->
		<title>Page 1</title>
		<desc>Created with Sketch.</desc>
		<defs>
			<path d="M43.5849057,33.3333333 C52.7169811,33.3333333 60.1886792,25.8333333 60.1886792,16.6666667 C60.1886792,15.6666667 60.0226415,14.6666667 59.8566038,13.6666667 C59.690566,12.1666667 59.2754717,10.75 58.6113208,9.5 C55.8716981,3.83333333 50.2264151,0 43.5849057,0 C36.9433962,0 31.2981132,3.83333333 28.6415094,9.5 C27.9773585,10.75 27.4792453,12.1666667 27.2301887,13.6666667 L26.9811321,16.6666667 C26.9811321,25.8333333 34.4528302,33.3333333 43.5849057,33.3333333 L43.5849057,33.3333333 Z" id="path-4"></path>
		</defs>
		<g id="Page-1" stroke="none" stroke-width="1" fill="none" fill-rule="evenodd">
			<g id="hilltop_site-upd_main-06" transform="translate(-881.000000, -1148.000000)">
				<g id="features" transform="translate(75.000000, 777.000000)">
					<g id="row-2" transform="translate(0.000000, 337.000000)">
						<g id="item" transform="translate(760.000000, 0.000000)">
							<g id="Page-1" transform="translate(46.000000, 37.000000)">
								<path d="M69.7358491,51 C67.8264151,42.6666667 62.4301887,39 57.9471698,37.6666667 C53.4641509,36.5833333 43.5849057,36.8333333 43.5849057,36.8333333 C43.5849057,36.8333333 33.6226415,36.5833333 29.2226415,37.8333333 C24.7396226,39.0833333 19.2603774,42.8333333 17.3509434,50.9166667 C15.5245283,58.25 19.8415094,65.4166667 26.8981132,65.0833333 L26.8981132,46 C26.8981132,44.6666667 27.9773585,43.5 29.3886792,43.5 L57.6150943,43.5 C58.9433962,43.5 60.1056604,44.6666667 60.1056604,46 L60.1056604,65.1666667 C67.245283,65.4166667 71.3962264,58.25 69.7358491,51 L69.7358491,51 Z M29.554717,68.5 C30.3849057,72.6666667 31.3811321,78.9166667 32.045283,81.4166667 C32.2113208,82.8333333 32.3773585,84.5833333 33.0415094,86.1666667 C36.3622642,87.1666667 39.9320755,87.6666667 43.5849057,87.6666667 C47.2377358,87.6666667 50.7245283,87.1666667 54.045283,86.1666667 C54.8754717,84.5 54.8754717,82.8333333 55.290566,81.4166667 L57.5320755,68.5 L29.4716981,68.5 L29.554717,68.5 L29.554717,68.5 Z" id="Fill-1" fill="#00B7B2"></path>
								<path d="M31.9622642,65.1666667 L48.5660377,65.1666667 L48.5660377,63.5 L31.9622642,63.5 M48.5660377,61.8333333 L48.5660377,60.1666667 L31.9622642,60.1666667 L31.9622642,61.8333333 L43.5849057,61.8333333" id="Fill-3" fill="#91929A"></path>
								<path d="M83.5169811,45.3333333 L81.3584906,43.8333333 C81.6075472,45.6666667 81.7735849,47.5 81.7735849,49.3333333 C81.7735849,66.8333333 70.1509434,81.5833333 54.045283,86.1666667 C50.7245283,87.1666667 47.4037736,87.6666667 43.6679245,87.6666667 C39.9320755,87.6666667 36.445283,87.1666667 33.1245283,86.1666667 C21.7509434,82.8333333 12.3698113,74.5 8.21886792,63.4166667 L13.5320755,61.75 L10.2113208,59.6666667 L6.30943396,57.1666667 L4.4,56 L3.15471698,58.8333333 L1.66037736,61.8333333 L0,66 L4.81509434,64.3333333 C10.8754717,79.9166667 25.9018868,91 43.5849057,91 C66.4981132,91 85.0943396,72.3333333 85.0943396,49.3333333 C85.0943396,47.25 84.9283019,45.1666667 84.5962264,43.1666667 L83.4339623,45.3333333 L83.5169811,45.3333333 Z M3.73584906,53.0833333 L5.81132075,54.3333333 C5.47924528,52.6666667 5.39622642,51 5.39622642,49.3333333 C5.39622642,34.75 13.5320755,22.0833333 25.3207547,15.5833333 C25.5698113,14.1666667 25.9018868,12.75 26.4,11.4166667 C12.0377358,17.9166667 2.0754717,32.5 2.0754717,49.3333333 C2.0754717,51.5 2.24150943,53.5 2.49056604,55.5833333 L3.73584906,53.0833333 Z" id="Fill-7" fill="#2E2F39"></path>
								<path d="M82.1886792,34.0833333 C78.2037736,24.0833333 70.5660377,15.75 60.6037736,11.4166667 C61.1849057,12.75 61.4339623,14.1666667 61.6830189,15.5833333 C69.4867925,19.75 75.5471698,26.8333333 78.8679245,35.1666667 L73.8867925,36.5833333 L77.2075472,38.6666667 L80.8603774,41 L82.9358491,42.3333333 L83.9320755,39.8333333 L85.4264151,36.5 L87.2528302,32.5833333 L82.1056604,34 L82.1886792,34.0833333 Z" id="Fill-9" fill="#2E2F39"></path>
								<polygon id="Path" fill="#36B1E7" points="31.9622642 58.5 55.2075472 58.5 55.2075472 46.8333333 31.9622642 46.8333333"></polygon>
								<polygon id="Path" fill="#FFFFFF" points="40.0150943 53.5 41.509434 51.3333333 40.0150943 49.3333333 45.8264151 49.3333333 45.8264151 56 44.9962264 56 44.9962264 53.5"></polygon>
								<polyline id="Fill-8" fill="#36B1E7" points="43.5849057 52.6666667 44.9962264 52.6666667 44.9962264 50.1666667 41.6754717 50.1666667 42.6716981 51.4166667 41.6754717 52.6666667"></polyline>
								<g id="Path">
									<use fill="#00B7B2" fill-rule="evenodd" href="#path-4"></use>
									<path stroke="#FFFFFF" stroke-width="3" d="M43.5849057,34.8333333 C33.6231309,34.8333333 25.4811321,26.6604936 25.4811321,16.6666667 L25.4862746,16.5425653 L25.7353312,13.5425653 L25.7504472,13.4209737 C26.0199119,11.7980613 26.5581688,10.2241561 27.2833536,8.86327967 C30.2445763,2.54684596 36.4935173,-1.5 43.5849057,-1.5 C50.6603658,-1.5 56.9073746,2.52934724 59.9359555,8.79619407 C60.6846261,10.2052687 61.1593016,11.8014551 61.3363453,13.4209737 C61.598952,15.0025821 61.6886792,15.7231193 61.6886792,16.6666667 C61.6886792,26.6604936 53.5466804,34.8333333 43.5849057,34.8333333 Z"></path>
								</g>
							</g>
						</g>
					</g>
				</g>
			</g>
		</g>
	</symbol>
	<symbol id="icon-12" xmlns="http://www.w3.org/2000/svg" xmlns:xlink="http://www.w3.org/1999/xlink">
		<!-- Generator: Sketch 47.1 (45422) - http://www.bohemiancoding.com/sketch -->
		<title>Page 1</title>
		<desc>Created with Sketch.</desc>
		<defs></defs>
		<g id="Page-1" stroke="none" stroke-width="1" fill="none" fill-rule="evenodd">
			<g id="hilltop_site-upd_main-06" transform="translate(-1076.000000, -1161.000000)">
				<g id="features" transform="translate(75.000000, 777.000000)">
					<g id="row-2" transform="translate(0.000000, 337.000000)">
						<g id="item" transform="translate(950.000000, 0.000000)">
							<g id="Page-1" transform="translate(51.000000, 47.000000)">
								<path d="M93.490566,64.5109756 C93.490566,60.06 91.9811321,57.4682927 89.4056604,57.4682927 C86.8584906,57.4682927 85.254717,60.1632927 85.254717,64.5109756 C85.254717,68.8492683 86.8584906,71.61 89.4056604,71.61 C91.9245283,71.61 93.4811321,68.8868293 93.4811321,64.5015854 L93.490566,64.5109756 Z M89.4056604,76.0891463 C83.3490566,76.0891463 79.4245283,71.5442683 79.4245283,64.5015854 C79.4245283,57.4870732 83.3396226,52.9515854 89.3962264,52.9515854 C95.4528302,52.9515854 99.3018868,57.4589024 99.3018868,64.5015854 C99.3018868,71.5442683 95.4150943,76.0797561 89.3962264,76.0797561 L89.4056604,76.0891463 Z M67.0943396,40.4719512 C67.0943396,36.0209756 65.5849057,33.4292683 63.009434,33.4292683 C60.4622642,33.4292683 58.8584906,36.114878 58.8584906,40.4719512 C58.8584906,44.8290244 60.4622642,47.5615854 63.009434,47.5615854 C65.5188679,47.5615854 67.0849057,44.8384146 67.0849057,40.462561 L67.0943396,40.4719512 Z M63.0188679,52.0407317 C56.9528302,52.0407317 53.0377358,47.5052439 53.0377358,40.4531707 C53.0377358,33.4480488 56.9528302,28.9031707 63.009434,28.9031707 C69.0471698,28.9031707 72.9150943,33.4104878 72.9150943,40.4531707 C72.9150943,47.4958537 69.0283019,52.0407317 63.009434,52.0407317 L63.0188679,52.0407317 Z" id="Fill-1" fill="#2E2F39"></path>
								<polygon id="Path" fill="#2E2F39" points="56 75.5163415 89.6226415 29.7389024 96.0660377 29.7389024 62.5 75.5163415 55.990566 75.5163415"></polygon>
								<path d="M31.2264151,62.4639024 C23.8679245,62.4639024 19.0377358,54.1817073 19.0377358,38.3309756 C19.0377358,22.5929268 23.9433962,14.5173171 31.2264151,14.5173171 C38.5283019,14.5173171 43.3207547,22.5459756 43.3207547,38.3873171 C43.3207547,54.2286585 38.5283019,62.4639024 31.2264151,62.4639024 M47.9056604,40.4719512 C47.9056604,31.5512195 53.0377358,25.1095122 60.6415094,23.9920732 C56.6981132,8.73292683 46.1132075,0 31.2264151,0 C12.0943396,0 0,14.320122 0,38.4060976 C0,62.3512195 11.9433962,77 31.2264151,77 C44.8679245,77 54.7830189,69.5629268 59.4339623,56.7170732 C52.490566,55.1207317 47.9056604,48.895 47.9056604,40.4719512" id="Fill-3" fill="#38B0E4"></path>
							</g>
						</g>
					</g>
				</g>
			</g>
		</g>
	</symbol>
</svg>