<svg xmlns="http://www.w3.org/2000/svg" width="70" height="70" viewBox="0 0 70 70">
  <g fill="none" fill-rule="evenodd">
    <polygon fill="#36B2E7" points="0 0 0 10 14.059 10 24 0"/>
    <polygon fill="#16C1BB" points="37.809 0 28 10 39.19 10 49 0"/>
    <polygon fill="#36B2E7" points="63.897 0 54 10 70 10 70 0"/>
    <path fill="#2E2F39" d="M23.9997778,29.7229212 C23.9997778,28.6924624 24.7541285,28.2260507 25.6757673,28.6868655 L50.3087709,41.0032429 C51.2304097,41.4640576 51.2304097,42.2184007 50.3087709,42.6792155 L25.6757673,54.9955929 C24.7541285,55.4564076 23.9997778,54.9906178 23.9997778,53.960159 L23.9997778,29.7229212 Z M0,22.3437036 L0,22.5000354 L0,67.6558015 C0,68.9500106 1.04922222,70 2.34344444,70 L67.6557778,70 C68.95,70 70,68.9500106 70,67.6558015 L70,22.5000354 L70,22.3437036 L70,15 L0,15 L0,22.3437036 Z"/>
  </g>
</svg>
