<svg xmlns="http://www.w3.org/2000/svg" width="62" height="60" viewBox="0 0 62 60">
  <g fill="none" fill-rule="evenodd">
    <path fill="#2E2F39" d="M59.6153846,43.3333333 L47.6923077,43.3333333 C45.0573077,43.3333333 42.9230769,41.2 42.9230769,38.5714286 L42.9230769,36.1904762 C42.9230769,33.5619048 45.0573077,31.4285714 47.6923077,31.4285714 L59.6153846,31.4285714 L59.6153846,43.3333333 Z M2.38461538,55.2380952 L4.76923077,55.2380952 L4.76923077,21.9047619 L2.38461538,21.9047619 L2.38461538,55.2380952 Z M57.2307692,17.1428571 L57.2307692,14.7619048 C57.2307692,12.1357143 55.0917692,10 52.4615385,10 L47.7972308,10 L49.104,12.3809524 L52.4615385,12.3809524 C53.7802308,12.3809524 54.8461538,13.447619 54.8461538,14.7619048 L54.8461538,17.1428571 L4.76923077,17.1428571 C3.45053846,17.1428571 2.38461538,16.0785714 2.38461538,14.7619048 C2.38461538,13.447619 3.45053846,12.3809524 4.76923077,12.3809524 L13.1392308,12.3809524 L17.4887692,10 L4.76923077,10 C2.139,10 0,12.1357143 0,14.7619048 L0,17.1428571 L0,55.2380952 C0,57.8666667 2.13423077,60 4.76923077,60 L57.2307692,60 C59.8633846,60 62,57.8666667 62,55.2380952 L62,21.9047619 C62,19.2761905 59.8633846,17.1428571 57.2307692,17.1428571 L57.2307692,17.1428571 Z"/>
    <polygon fill="#16C1BB" points="47 14 39.141 0 13 14"/>
    <path fill="#38B0E4" fill-rule="nonzero" d="M53,37.5 C53,36.1205695 51.8794305,35 50.5,35 C49.1205695,35 48,36.1205695 48,37.5 C48,38.8794305 49.1205695,40 50.5,40 C51.8794305,40 53,38.8794305 53,37.5 Z M55,37.5 C55,39.984 52.984,42 50.5,42 C48.016,42 46,39.984 46,37.5 C46,35.016 48.016,33 50.5,33 C52.984,33 55,35.016 55,37.5 Z"/>
  </g>
</svg>
