<svg xmlns="http://www.w3.org/2000/svg" width="73" height="73" viewBox="0 0 73 73">
  <g fill="none" fill-rule="evenodd">
    <polygon fill="#2E2F39" points="28.574 5.469 43.695 5.469 43.695 .001 28.574 .001"/>
    <polygon fill="#2E2F39" points="66.797 43.696 72.265 43.696 72.265 28.575 66.797 28.575"/>
    <polygon fill="#36B2E7" points="57.148 0 57.148 5.468 66.797 5.468 66.797 15.121 72.265 15.121 72.265 0"/>
    <polygon fill="#2E2F39" points="28.574 72.266 43.691 72.266 43.691 66.798 28.574 66.798"/>
    <polygon fill="#36B2E7" points="66.797 57.148 66.797 66.797 57.148 66.797 57.148 72.265 72.265 72.265 72.265 57.148"/>
    <polygon fill="#2E2F39" points="0 43.692 5.468 43.692 5.468 28.571 0 28.571"/>
    <polygon fill="#36B2E7" points="0 0 0 15.117 5.468 15.117 5.468 5.468 15.121 5.468 15.121 0"/>
    <polygon fill="#36B2E7" points="0 57.145 0 72.266 15.117 72.266 15.117 66.797 5.468 66.797 5.468 57.145"/>
    <polygon fill="#16C1BB" points="44.539 35.191 44.539 18.847 27.73 18.847 27.73 35.191 19.891 35.191 36.133 55.582 52.375 35.191"/>
  </g>
</svg>
