<svg xmlns="http://www.w3.org/2000/svg" width="70" height="75" viewBox="0 0 70 75">
  <g fill="none" fill-rule="evenodd">
    <path fill="#91929B" d="M6.24082496 15.0621762C6.24082496 15.0621762 5.60813977 15 5.48160273 15 3.52027862 15 1.93856563 16.5544041 2.00183415 18.4818653L2.00183415 41.5492228C2.00183415 42.9792746 3.26720454 44.2227979 4.72238049 44.2227979 6.17755644 44.2227979 7.44292683 42.9792746 7.44292683 41.5492228L7.44292683 24.2642487C7.44292683 23.8290155 7.75926943 23.5181347 8.20214907 23.5181347 8.6450287 23.5181347 8.9613713 23.8290155 8.9613713 24.2642487L8.9613713 41.5492228C8.9613713 42.5440415 8.58176019 43.4766839 8.01234351 44.2227979 7.25312128 45.1554404 6.0510194 45.7772021 4.65911197 45.7772021 4.21623234 45.7772021 3.83662122 45.7150259 3.4570101 45.6528497L3.4570101 71.1450777C3.4570101 73.3212435 5.16526013 75 7.37965831 75 9.5940565 75 11.3023065 73.3212435 11.3023065 71.1450777L11.3023065 42.8549223C12.3146028 42.0466321 13.0738251 40.9274611 13.3901677 39.6839378 14.402464 35.4559585 14.9718807 30.9792746 14.9718807 26.4404145 15.0351492 26.1295337 14.9718807 25.3212435 14.9718807 25.2590674 14.9718807 20.1606218 11.1757695 15.9326425 6.24082496 15.0621762M11.772569.671528624C9.48424544-.122096114 7.13407531.427336397 5.46421759 1.8314417 5.27867784 2.01458587 5.03129152 2.13668199 4.78390519 2.2587781 3.17589405 2.99135478 1.25864999 2.31982616.516491006.793624738.330951259.549432511.207258094.305240284.207258094 0-.844133806 5.372229 2.18634873 10.744458 7.44330823 12.6369477 10.7830237 13.7968608 14.431972 12.0875152 15.6070571 8.79092017 16.8439887 5.49432511 15.0504379 1.8314417 11.772569.671528624"/>
    <path fill="#2E2F39" d="M61 0C64.8659649 0 68 3.13403509 68 7 68 10.8659649 64.8659649 14 61 14 57.1340351 14 54 10.8659649 54 7 54 3.13403509 57.1340351 0 61 0M66.5183973 15C66.3918602 15 65.759175 15.0621762 65.759175 15.0621762 60.8242305 15.9326425 57.0281193 20.1606218 57.0281193 25.2590674 57.0281193 25.3212435 56.9648508 26.1295337 57.0281193 26.4404145 57.0281193 30.9792746 57.597536 35.4559585 58.6098323 39.6839378 58.9261749 40.9274611 59.6853972 42.0466321 60.6976935 42.8549223L60.6976935 71.1450777C60.6976935 73.3212435 62.4059435 75 64.6203417 75 66.8347399 75 68.5429899 73.3212435 68.5429899 71.1450777L68.5429899 45.6528497C68.1633788 45.7150259 67.7837677 45.7772021 67.340888 45.7772021 65.9489806 45.7772021 64.7468787 45.1554404 63.9876565 44.2227979 63.4182398 43.4766839 63.0386287 42.5440415 63.0386287 41.5492228L63.0386287 24.2020725C63.0386287 23.7668394 63.3549713 23.4559585 63.7978509 23.4559585 64.2407306 23.4559585 64.5570732 23.7668394 64.5570732 24.2020725L64.5570732 41.4870466C64.5570732 42.9170984 65.8224436 44.1606218 67.2776195 44.1606218 68.7327955 44.1606218 69.9981658 42.9170984 69.9981658 41.4870466L69.9981658 18.4196891C70.0614344 16.5544041 68.4797214 15 66.5183973 15"/>
    <path fill="#36B2E7" d="M37.2815596,18.2427185 L36.5209511,18.8576052 L35.7603425,18.2427185 C33.5419009,16.3980583 30.1825464,16.644013 28.281025,18.7346279 C26.3795036,20.8867314 26.6330398,24.1456311 28.7880974,25.9902913 L36.5209511,33 L44.1904207,25.9902913 C46.4088624,24.1456311 46.5990145,20.8867314 44.6974931,18.7346279 C42.7959717,16.644013 39.5000013,16.3980583 37.2815596,18.2427185"/>
  </g>
</svg>
