<svg xmlns="http://www.w3.org/2000/svg" width="90" height="65" viewBox="0 0 90 65">
  <g fill="none" fill-rule="evenodd">
    <path fill="#2E2F39" d="M72.4657,23 C71.6657,23 70.9657,22.3 70.9657,21.5 C70.9657,20.7 71.6657,20 72.4657,20 C73.2657,20 73.9657,20.7 73.9657,21.5 C73.9657,22.4 73.2657,23 72.4657,23 M70.6657,27 L72.2657,27 C72.7657,27 73.3657,27.1 73.8657,27.3 C74.2657,27.4 74.5657,27.6 74.8657,27.9 L74.8657,2.1 C74.8657,0.9 73.9657,0 72.7657,0 L16.4657,0 C15.2657,0 14.3657,0.9 14.3657,2.1 L14.3657,27.9 C14.6657,27.7 14.9657,27.5 15.3657,27.3 C15.8657,27.1 16.3657,27 16.9657,27 L18.5657,27 C19.6657,27 18.1657,26.2 18.9657,26.8 L18.9657,4.6 L70.3657,4.6 L70.3657,26.9 C71.0657,26.2 69.5657,27 70.6657,27"/>
    <polygon fill="#2E2F39" points="22.866 39.3 23.566 41.2 24.266 42.9 64.966 42.9 65.666 41.2 66.466 39.3 66.466 38.4 22.866 38.4"/>
    <path fill="#91929B" d="M22.8657 47.4C23.2657 46.3 23.2657 45.1 22.8657 44L22.4657 42.9 21.9657 41.9 21.1657 40C21.0657 39.8 21.0657 39.6 21.0657 39.3L21.0657 31.2C21.0657 29.8 19.9657 28.7 18.5657 28.7L16.9657 28.7C16.6657 28.7 16.2657 28.8 15.9657 28.9 14.9657 29.3 14.3657 30.2 14.3657 31.3L14.3657 41 14.3657 42.7C14.3657 42.9 14.1657 43 14.0657 43L12.9657 43C12.7657 43 12.6657 42.8 12.6657 42.7L12.6657 28.7 12.6657 26.3 12.6657 22.2C12.6657 22 12.4657 21.8 12.2657 21.8L12.0657 21.8 7.7657 23.8C7.3657 24 7.0657 24.3 6.8657 24.7L.1657 37.3C-.0343 37.7-.0343 38.1.0657 38.5L4.7657 54.8C4.8657 55 4.8657 55.2 4.8657 55.5L4.8657 63.4C4.8657 63.8 5.1657 64.1 5.5657 64.1L18.6657 64.1C19.0657 64.1 19.3657 63.8 19.3657 63.4L19.3657 58.2 19.3657 54.5C19.3657 54.3 19.4657 54.1 19.5657 53.9L22.0657 49 22.8657 47.4zM89.0657 37.3L82.3657 24.7C82.1657 24.3 81.8657 24 81.4657 23.8L77.1657 21.8 76.9657 21.8C76.7657 21.8 76.5657 22 76.5657 22.2L76.5657 26.3 76.5657 28.7 76.5657 42.7C76.5657 42.9 76.3657 43 76.2657 43L75.1657 43C74.9657 43 74.8657 42.8 74.8657 42.7L74.8657 41 74.8657 31.3C74.8657 30.2 74.1657 29.3 73.2657 28.9 72.9657 28.8 72.6657 28.7 72.2657 28.7L70.6657 28.7C69.2657 28.7 68.1657 29.8 68.1657 31.2L68.1657 39.3C68.1657 39.5 68.1657 39.7 68.0657 40L67.2657 41.9 66.8657 43 66.4657 44.1C66.0657 45.2 66.0657 46.4 66.4657 47.5L67.2657 49.1 69.7657 54C69.8657 54.2 69.9657 54.4 69.9657 54.6L69.9657 58.3 69.9657 63.4C69.9657 63.8 70.2657 64.1 70.6657 64.1L83.7657 64.1C84.1657 64.1 84.4657 63.8 84.4657 63.4L84.4657 55.5C84.4657 55.3 84.4657 55.1 84.5657 54.8L89.2657 38.5C89.3657 38.1 89.2657 37.6 89.0657 37.3"/>
    <path fill="#36B2E7" d="M39.8657,12.1 L38.1657,12.1 L37.1657,12.1 C36.7657,14.1 35.0657,15.6 32.8657,15.6 C30.7657,15.6 28.9657,14.1 28.5657,12.1 L27.5657,12.1 L25.8657,12.1 L22.3657,13.4 L22.3657,19.5 L25.8657,18.3 L25.8657,28.3 L39.8657,28.3 L39.8657,18.3 L43.3657,19.5 L43.3657,13.4 L39.8657,12.1 Z"/>
    <path fill="#2E2F39" d="M50.3657 21.4L48.7657 21.4C48.0657 21.4 47.5657 20.8 47.5657 20.2 47.5657 19.5 48.1657 19 48.7657 19L50.3657 19C51.0657 19 51.5657 19.6 51.5657 20.2 51.6657 20.9 51.0657 21.4 50.3657 21.4M56.5657 21.4L54.0657 21.4C53.3657 21.4 52.8657 20.8 52.8657 20.2 52.8657 19.5 53.4657 19 54.0657 19L56.5657 19C57.2657 19 57.7657 19.6 57.7657 20.2 57.8657 20.9 57.2657 21.4 56.5657 21.4M62.7657 21.4L60.2657 21.4C59.5657 21.4 59.0657 20.8 59.0657 20.2 59.0657 19.5 59.6657 19 60.2657 19L62.7657 19C63.4657 19 63.9657 19.6 63.9657 20.2 64.0657 20.9 63.4657 21.4 62.7657 21.4M62.7657 15.8L48.7657 15.8C47.7657 15.8 46.8657 15 46.8657 13.9 46.8657 12.9 47.6657 12 48.7657 12L62.7657 12C63.7657 12 64.6657 12.8 64.6657 13.9 64.6657 15 63.8657 15.8 62.7657 15.8"/>
    <path fill="#16C1BB" d="M62.7657,28.2 L48.7657,28.2 C47.7657,28.2 46.8657,27.4 46.8657,26.3 C46.8657,25.2 47.6657,24.4 48.7657,24.4 L62.7657,24.4 C63.7657,24.4 64.6657,25.2 64.6657,26.3 C64.6657,27.4 63.8657,28.2 62.7657,28.2"/>
  </g>
</svg>
