<svg xmlns="http://www.w3.org/2000/svg" width="86" height="86" viewBox="0 0 86 86">
  <g fill="none" fill-rule="evenodd">
    <path fill="#00B7B2" d="M0,48.7105 C0.119,48.1405 0.212,47.5645 0.36,47.0025 C0.769,45.4535 1.566,44.1175 2.695,42.9885 C8.945,36.7325 15.202,30.4815 21.457,24.2295 C21.534,24.1525 21.626,24.0895 21.632,24.0845 C25.187,27.6385 28.72,31.1725 32.317,34.7705 C29.934,37.9275 28.991,41.6215 29.753,45.6845 C30.312,48.6685 31.805,51.1495 34.072,53.1745 C38.37,57.0105 45.535,57.9915 51.247,53.6835 C54.791,57.2275 58.326,60.7625 61.929,64.3645 C61.822,64.4775 61.621,64.6935 61.411,64.9045 C55.457,70.8625 49.492,76.8105 43.55,82.7825 C41.883,84.4585 40.02,85.6955 37.589,85.8695 C37.486,85.8765 37.388,85.9545 37.289,85.9985 L35.944,85.9985 C31.354,85.5865 29.074,81.8915 25.988,79.0745 C28.874,76.2275 31.692,73.4485 34.365,70.8115 C27.934,64.3825 21.581,58.0285 15.152,51.5995 C12.465,54.2905 9.685,57.0745 6.954,59.8085 C5.383,58.2915 3.786,56.8105 2.266,55.2565 C1.211,54.1775 0.593,52.8245 0.26,51.3515 C0.164,50.9205 0.087,50.4865 0,50.0535 L0,48.7105"/>
    <path fill="#38B0E4" d="M50.0541,0 C50.4591,0.078 50.8681,0.145 51.2711,0.236 C52.7141,0.561 54.0701,1.128 55.1301,2.16 C56.7151,3.699 58.2081,5.331 59.7301,6.913 C57.0241,9.613 54.2231,12.409 51.4951,15.131 C57.9851,21.621 64.3311,27.965 70.6941,34.328 C73.3721,31.635 76.1621,28.829 79.0861,25.888 C80.9791,27.926 82.9371,29.682 84.4591,31.757 C86.8081,34.958 86.3851,39.478 83.7751,42.487 C83.4631,42.846 83.1311,43.188 82.7951,43.523 C76.8571,49.463 70.9191,55.401 64.9831,61.341 C64.7671,61.558 64.5851,61.81 64.4701,61.944 C60.8591,58.335 57.3291,54.805 53.7141,51.189 C56.1021,48.013 57.0441,44.241 56.1971,40.091 C55.5881,37.112 54.0551,34.648 51.7521,32.671 C47.3801,28.922 40.3411,28.101 34.7781,32.296 C31.2321,28.753 27.6981,25.221 24.0931,21.618 C24.1761,21.532 24.3741,21.313 24.5811,21.104 C30.5781,15.105 36.5811,9.112 42.5651,3.102 C44.1951,1.465 46.0441,0.306 48.4061,0.127 C48.5101,0.119 48.6091,0.044 48.7101,0 L50.0541,0 Z"/>
    <path fill="#16C1BB" d="M76.7411 23.9834C74.7481 25.9764 72.6741 28.0514 70.6311 30.0964 65.7321 25.1964 60.8101 20.2734 55.9011 15.3654 57.9461 13.3294 60.0221 11.2604 62.0331 9.2584 66.9041 14.1354 71.8171 19.0544 76.7411 23.9834M36.8954 34.5944C40.7654 31.4674 47.1264 32.0654 50.6444 35.8194 54.3574 39.7824 54.0714 45.9124 51.3784 49.0774 46.5604 44.2604 41.7424 39.4414 36.8954 34.5944"/>
    <path fill="#36B2E7" d="M34.5943 36.9394C39.4103 41.7544 44.2313 46.5714 49.0463 51.3864 46.0853 54.0144 39.8173 54.4374 35.7783 50.6074 31.7203 46.7594 31.7433 40.3974 34.5943 36.9394M15.4038 55.9025C20.3018 60.8055 25.2028 65.7105 30.0608 70.5725 28.0018 72.6285 25.9148 74.7105 23.8838 76.7405 19.0288 71.8845 14.1108 66.9675 9.2158 62.0715 11.2388 60.0525 13.3148 57.9835 15.4038 55.9025"/>
  </g>
</svg>
