<svg xmlns="http://www.w3.org/2000/svg" width="66" height="63" viewBox="0 0 66 63">
  <g fill="none" fill-rule="evenodd">
    <path fill="#36B2E7" d="M14.7056113,21.1022168 C26.8982338,23.5840847 34.5813036,15.574787 34.5813036,15.574787 L30.3080643,1.09280572 C21.9748443,13.3453711 6.63060699,5.88017088 6.63060699,5.88017088 L16.7747951,40.2643577 C14.2156931,38.8948923 11.1493817,38.5006522 8.16030445,39.4113237 C2.10606853,41.2568743 -1.3302752,47.7399327 0.485303923,53.8921522 C2.30088305,60.0455245 8.68019409,63.5372002 14.73443,61.6916496 C20.7886659,59.8472518 24.2250097,53.3630406 22.4094305,47.2108211 L14.7056113,21.1022168 Z"/>
    <path fill="#2E2F39" d="M65.9999972,10.4946237 L64.9832729,0 C57.6321947,7.28998248 48.0770611,0.132566095 48.0770611,0.132566095 L50.4897641,25.0480755 C48.9128039,23.7696772 46.8574531,23.0907083 44.6822163,23.3177997 C40.276411,23.7765937 37.0556313,27.7639513 37.4867593,32.2227831 C37.91904,36.6816149 41.8395382,39.9242968 46.2453435,39.4631974 C50.6511489,39.0044034 53.8719286,35.0181986 53.4408006,30.558214 L51.6067775,11.6174009 C59.6541158,14.9396225 65.9999972,10.4946237 65.9999972,10.4946237 L65.9999972,10.4946237 Z"/>
  </g>
</svg>
