<svg xmlns="http://www.w3.org/2000/svg" width="85" height="65" viewBox="0 0 85 65">
  <g fill="none" fill-rule="evenodd">
    <path fill="#91929B" d="M81.8888889,6.44660377 C81.8888889,7.23138679 81.241,7.86792453 80.4422222,7.86792453 L17.78,7.86792453 C16.9812222,7.86792453 16.3333333,7.23138679 16.3333333,6.44660377 L16.3333333,4.70433962 C16.3333333,3.9195566 16.9812222,3.28301887 17.78,3.28301887 L80.4422222,3.28301887 C81.241,3.28301887 81.8888889,3.9195566 81.8888889,4.70433962 L81.8888889,6.44660377 Z M81.8888889,60.4150943 C81.8888889,61.2594811 81.1927778,61.9433962 80.3333333,61.9433962 L4.66666667,61.9433962 C3.80722222,61.9433962 3.11111111,61.2594811 3.11111111,60.4150943 L3.11111111,12.4528302 C3.11111111,11.6084434 3.80722222,10.9245283 4.66666667,10.9245283 L80.3333333,10.9245283 C81.1927778,10.9245283 81.8888889,11.6084434 81.8888889,12.4528302 L81.8888889,60.4150943 Z M7.77777778,5.5754717 C7.77777778,6.84166981 6.73322222,7.86792453 5.44444444,7.86792453 C4.15566667,7.86792453 3.11111111,6.84166981 3.11111111,5.5754717 C3.11111111,4.30927358 4.15566667,3.28301887 5.44444444,3.28301887 C6.73322222,3.28301887 7.77777778,4.30927358 7.77777778,5.5754717 Z M14,5.5754717 C14,6.84166981 12.9554444,7.86792453 11.6666667,7.86792453 C10.3778889,7.86792453 9.33333333,6.84166981 9.33333333,5.5754717 C9.33333333,4.30927358 10.3778889,3.28301887 11.6666667,3.28301887 C12.9554444,3.28301887 14,4.30927358 14,5.5754717 Z M3.11111111,0.226415094 C1.393,0.226415094 0,1.59500943 0,3.28301887 L0,61.9433962 C0,63.6314057 1.393,65 3.11111111,65 L81.8888889,65 C83.607,65 85,63.6314057 85,61.9433962 L85,3.28301887 C85,1.59500943 83.607,0.226415094 81.8888889,0.226415094 L3.11111111,0.226415094 Z"/>
    <rect width="52" height="33" x="7" y="14" fill="#38B0E4"/>
    <rect width="15" height="14" x="63" y="14" fill="#00B7B2"/>
    <rect width="35" height="3" x="7" y="50" fill="#2E2F39"/>
    <rect width="25" height="3" x="7" y="55" fill="#2E2F39"/>
    <rect width="15" height="14" x="63" y="30" fill="#00B7B2"/>
    <rect width="15" height="14" x="63" y="46" fill="#00B7B2"/>
    <path fill="#FFFFFF" d="M33.0005714,25.0011172 C36.3660091,25.0011172 38.5978257,25.1586431 38.5978257,25.1586431 C38.9098001,25.1932765 39.5977435,25.1932765 40.2045508,25.8222628 C40.2045508,25.8222628 40.695939,26.2937233 40.8387844,27.3762949 C41.0079134,28.6420882 40.999914,29.9078814 40.999914,29.9078814 L40.999914,31.094353 C40.999914,31.094353 41.0090561,32.3601463 40.8387844,33.6259395 C40.695939,34.6995734 40.2045508,35.1799716 40.2045508,35.1799716 C39.5977435,35.8000203 38.9098001,35.8000203 38.5978257,35.8346537 C38.5978257,35.8346537 36.3660091,36 33.0005714,36 C28.8397704,35.9653666 27.5633039,35.8424741 27.5633039,35.8424741 C27.2067618,35.7810278 26.4022565,35.7989031 25.7954492,35.1788544 C25.7954492,35.1788544 25.304061,34.6984562 25.1612156,33.6248223 C24.9920866,32.359029 25.000086,31.0932358 25.000086,31.0932358 L25.000086,29.9067642 C25.000086,29.9067642 24.9909439,28.640971 25.1612156,27.3751777 C25.304061,26.2926061 25.7954492,25.8211456 25.7954492,25.8211456 C26.4022565,25.1921593 27.0901999,25.1921593 27.4021743,25.1575259 C27.4021743,25.1575259 29.6339909,25 32.9994286,25 L33.0005714,25.0011172 Z M31.3492785,32.5243754 L35.6700663,30.3424741 L31.3492785,28.1337599 L31.3492785,32.5243754 Z"/>
  </g>
</svg>
