<svg xmlns="http://www.w3.org/2000/svg" width="81" height="68" viewBox="0 0 81 68">
  <g fill="none" fill-rule="evenodd">
    <polygon fill="#91929B" points="48.485 0 15.732 0 0 8.683 64.217 8.683"/>
    <path fill="#91929B" d="M50.5486726,48.6573957 C44.6169406,48.6573957 39.8027813,53.471555 39.8027813,59.3173198 C39.8027813,60.2629583 39.9747155,61.1226296 40.2326169,61.9823009 L0,61.9823009 L0,46.7661188 L53.1276865,46.7661188 C52.783818,47.3678887 52.3539823,48.0556258 52.0960809,48.7433628 C51.5802781,48.6573957 51.0644753,48.6573957 50.5486726,48.6573957 Z M3.6965866,56.6523388 L15.9039191,56.6523388 L15.9039191,52.0960809 L3.6965866,52.0960809 L3.6965866,56.6523388 Z"/>
    <path fill="#2E2F39" d="M63.5297092 41.0922882C60.7787611 41.0922882 58.1997472 42.0379267 56.0505689 43.6713021L-.10542736e-15 43.6713021-.10542736e-15 28.4551201 64.3034134 28.4551201 64.3034134 41.0922882 63.5297092 41.0922882zM3.6965866 38.3413401L15.9039191 38.3413401 15.9039191 33.7850822 3.6965866 33.7850822 3.6965866 38.3413401zM53.8154235 39.0290771C55.448799 39.0290771 56.8242731 37.653603 56.7383059 36.1061947 56.7383059 34.4728192 55.448799 33.1833123 53.8154235 33.1833123 52.182048 33.1833123 50.8925411 34.4728192 50.8925411 36.1061947 50.8925411 37.7395702 52.182048 39.0290771 53.8154235 39.0290771zM64.2174463 10.0581542L64.2174463 25.2743363 0 25.2743363 0 10.0581542 64.2174463 10.0581542zM3.6965866 19.9443742L15.9039191 19.9443742 15.9039191 15.3881163 3.6965866 15.3881163 3.6965866 19.9443742zM53.8154235 20.6321113C55.448799 20.6321113 56.7383059 19.3426043 56.7383059 17.7092288 56.7383059 16.0758534 55.448799 14.7863464 53.8154235 14.7863464 52.182048 14.7863464 50.8925411 16.0758534 50.8925411 17.7092288 50.8925411 19.3426043 52.182048 20.6321113 53.8154235 20.6321113z"/>
    <path fill="#36B2E7" d="M80.4652339,61.4664981 C80.4652339,57.9418458 77.6283186,55.1049305 74.1036662,55.1049305 L73.6738306,55.1049305 C73.7597977,54.5891277 73.8457649,53.9873578 73.8457649,53.471555 C73.7597977,47.7977244 69.2035398,43.2414665 63.5297092,43.2414665 C58.6295828,43.2414665 54.5031606,46.6801517 53.471555,51.3223767 C52.5259166,50.9785082 51.5802781,50.806574 50.4627054,50.806574 C45.7345133,50.806574 41.8659924,54.6750948 41.8659924,59.403287 C41.8659924,64.1314791 45.7345133,68 50.4627054,68 L50.5486726,68 L74.1896334,68 C77.7142857,67.8280657 80.4652339,64.9911504 80.4652339,61.4664981 L80.4652339,61.4664981 Z"/>
  </g>
</svg>
