<svg xmlns="http://www.w3.org/2000/svg" width="91" height="50" viewBox="0 0 91 50">
  <g fill="none" fill-rule="evenodd">
    <path fill="#16C1BB" d="M69.2 43.9L90.1 43.9C90.1 33.9 82.3 24.8 72.6 24.8 68.5 24.8 64.7 26.3 61.7 28.9 65.7 32.7 68.4 37.9 69.2 43.9M72.6 3.3C77.736 3.3 81.9 7.464 81.9 12.6 81.9 17.736 77.736 21.9 72.6 21.9 67.464 21.9 63.3 17.736 63.3 12.6 63.3 7.464 67.464 3.3 72.6 3.3"/>
    <path fill="#36B2E7" d="M28.5 29C25.5 26.3 21.7 24.6 17.5 24.6 7.9 24.6 0 33.8 0 43.8L20.9 43.8C21.7 37.9 24.5 32.8 28.5 29M17.5 3.3C22.636 3.3 26.8 7.464 26.8 12.6 26.8 17.736 22.636 21.9 17.5 21.9 12.364 21.9 8.2 17.736 8.2 12.6 8.2 7.464 12.364 3.3 17.5 3.3"/>
    <path fill="#2E2F39" d="M45.1 0C51.562 0 56.8 5.238 56.8 11.7 56.8 18.162 51.562 23.4 45.1 23.4 38.638 23.4 33.4 18.162 33.4 11.7 33.4 5.238 38.638 0 45.1 0M23 49.1C23 35.7 32.9 24.8 45 24.8 57.1 24.8 67 35.7 67 49.1L23 49.1z"/>
  </g>
</svg>
