<svg width="18" height="18" viewBox="0 0 18 18" fill="none" xmlns="http://www.w3.org/2000/svg">
<path d="M16.0714 9H14.1429V5.14286C14.1429 4.43314 13.5669 3.85714 12.8571 3.85714H9V1.92857C9 0.864 8.136 0 7.07143 0C6.00686 0 5.14286 0.864 5.14286 1.92857V3.85714H1.28571C0.576 3.85714 0 4.43314 0 5.14286V9H1.92857C2.99314 9 3.85714 9.864 3.85714 10.9286C3.85714 11.9931 2.99314 12.8571 1.92857 12.8571H0V16.7143C0 17.424 0.576 18 1.28571 18H5.14286V16.0714C5.14286 15.0069 6.00686 14.1429 7.07143 14.1429C8.136 14.1429 9 15.0069 9 16.0714V18H12.8571C13.5669 18 14.1429 17.424 14.1429 16.7143V12.8571H16.0714C17.136 12.8571 18 11.9931 18 10.9286C18 9.864 17.136 9 16.0714 9Z" fill="white"/>
</svg>
