<?xml version="1.0" encoding="UTF-8"?>
<svg width="92px" height="72px" viewBox="0 0 92 72" version="1.1" xmlns="http://www.w3.org/2000/svg" xmlns:xlink="http://www.w3.org/1999/xlink">
    <!-- Generator: Sketch 47.1 (45422) - http://www.bohemiancoding.com/sketch -->
    <title>arrow</title>
    <desc>Created with Sketch.</desc>
    <defs></defs>
    <g id="Page-1" stroke="none" stroke-width="1" fill="none" fill-rule="evenodd">
        <g id="hilltop_site-upd_publisher-02" transform="translate(-449.000000, -402.000000)" fill-rule="nonzero" fill="#FFFFFF">
            <g id="first" transform="translate(-74.000000, 80.000000)">
                <g id="left" transform="translate(194.000000, 129.000000)">
                    <g id="arrow" transform="translate(330.000000, 193.000000)">
                        <path d="M1.90290004,60.9952746 C57.0824585,66.3786462 86.9419847,46.3591912 90.9960142,1.0891953 C91.0452754,0.539111869 90.6392787,0.0532470466 90.0891953,0.00398584403 C89.5391119,-0.0452753586 89.053247,0.360721273 89.0039858,0.910804702 C85.0580153,44.9741422 56.2508748,64.2880205 2.09709996,59.0047254 C1.54742496,58.9510985 1.0583522,59.353225 1.00472537,59.9029 C0.951098537,60.452575 1.35322503,60.9416478 1.90290004,60.9952746 Z" id="Path-8"></path>
                        <path d="M14.7548073,66.0117943 C15.1453316,66.4023186 15.7784966,66.4023186 16.1690208,66.0117943 C16.5595451,65.62127 16.5595451,64.988105 16.1690208,64.5975807 L5.46191406,53.8904739 L-5.24519272,64.5975807 C-5.63571701,64.988105 -5.63571701,65.62127 -5.24519272,66.0117943 C-4.85466843,66.4023186 -4.22150345,66.4023186 -3.83097916,66.0117943 L5.46191406,56.7189011 L14.7548073,66.0117943 Z" id="Triangle-3" transform="translate(5.461914, 60.097581) rotate(-89.000000) translate(-5.461914, -60.097581) "></path>
                    </g>
                </g>
            </g>
        </g>
    </g>
</svg>