<svg width="532" height="289" xmlns="http://www.w3.org/2000/svg"><g fill="none" fill-rule="evenodd"><g transform="translate(191)"><rect fill="#38B0E4" width="340" height="230" rx="3"/><path d="M.5 25.5h339V3c0-1.4-1.1-2.5-2.5-2.5H3A2.5 2.5 0 0 0 .5 3v22.5z" stroke="#C6C6C6" fill="#EDEDED"/><rect stroke="#C3C3C3" fill="#FFF" x="89.5" y="5.5" width="161" height="15" rx="1"/><path d="M145 11.9h1l.1.2.6 2.2a4.1 4.1 0 0 1 .1.7 11 11 0 0 1 .2-.7l.7-2.2.1-.2h.8v.2l.7 2.2a8.7 8.7 0 0 1 .2.7 10.3 10.3 0 0 1 .2-.7l.6-2.2v-.2h1L150 16h-.8l-.2-.2-.7-2.3a4.7 4.7 0 0 1-.1-.5 6.8 6.8 0 0 1-.2.5l-.7 2.3-.2.2h-.8l-1.3-4.1zm8.6 0h.7a1.6 1.6 0 0 1 .9 1 2.2 2.2 0 0 1 .1 1v.2h-2.7c0 .4.1.7.3.9.2.2.5.3.8.3h.4l.3-.2.2-.1h.4l.3.4-.4.3a2 2 0 0 1-.9.3H152.8l-.6-.5a2 2 0 0 1-.5-.7 2.7 2.7 0 0 1 0-1.7l.4-.7.6-.4.9-.2zm0 .6a1 1 0 0 0-.7.3c-.2.1-.3.4-.3.7h1.8V13l-.2-.3-.2-.2a1 1 0 0 0-.4 0zm3.6-2.4V16h-1v-6h1zm4 2.7h-.1-.1-.2a4.8 4.8 0 0 0-.4-.2h-.3a1 1 0 0 0-.5 0l-.3.3-.2.5v1.1l.2.5.3.2.5.1a1 1 0 0 0 .6-.2l.2-.1H161.2l.3.4a1.8 1.8 0 0 1-.8.5 3 3 0 0 1-.9.1h-.6l-.6-.5a2 2 0 0 1-.4-.7l-.2-.9c0-.3 0-.5.2-.8 0-.3.2-.5.3-.7l.7-.4.8-.2c.3 0 .6 0 .8.2.3 0 .5.2.6.4l-.2.4zm2.7-1c.3 0 .6 0 .8.2a1.8 1.8 0 0 1 1 1l.2 1c0 .3 0 .6-.2.8 0 .3-.2.5-.4.7-.1.2-.3.3-.6.4l-.8.2c-.3 0-.6 0-.9-.2a1.8 1.8 0 0 1-1-1l-.2-1c0-.3 0-.6.2-.8 0-.3.2-.5.4-.7l.6-.4.9-.2zm0 3.5c.3 0 .6-.1.7-.3.2-.3.3-.6.3-1 0-.5-.1-.8-.3-1-.1-.3-.4-.4-.7-.4-.4 0-.6.1-.8.3-.2.3-.2.6-.2 1 0 .5 0 .8.2 1 .2.3.4.4.8.4zm2.8.7v-4.1h.6c.1 0 .2 0 .2.2v.3l.3-.2a1.5 1.5 0 0 1 .5-.3h.4l.6.1.4.6a1.3 1.3 0 0 1 .6-.6l.3-.1a1.8 1.8 0 0 1 1 0l.5.3.2.5.1.7V16h-1v-2.6l-.1-.6-.5-.2h-.3a.7.7 0 0 0-.4.4v3h-1v-2.6l-.2-.6-.5-.2-.4.1-.3.3v3h-1zm8.4-4.2c.3 0 .5 0 .7.2a1.6 1.6 0 0 1 1 .9 2.2 2.2 0 0 1 0 1v.2H174c0 .4.2.7.3.9.2.2.5.3.8.3h.4l.3-.2.3-.1H176.5l.3.4-.3.3a2 2 0 0 1-1 .3H174.4l-.6-.5a2 2 0 0 1-.4-.7 2.7 2.7 0 0 1 0-1.7c0-.3.2-.5.3-.7l.7-.4.8-.2zm0 .7a1 1 0 0 0-.7.3l-.3.7h1.9V13l-.2-.3-.3-.2a1 1 0 0 0-.4 0zm2.3 3a.6.6 0 0 1 .2-.5.6.6 0 0 1 .4-.1.6.6 0 0 1 .5.1.6.6 0 0 1 .1.7l-.1.2-.2.1h-.3a.6.6 0 0 1-.4-.1l-.1-.2v-.2zm5-2.7h-.1H182a4.8 4.8 0 0 0-.4-.2h-.3a1 1 0 0 0-.5 0l-.3.3-.2.5v1.1l.2.5.3.2.4.1a1 1 0 0 0 .7-.2l.1-.1h.4l.3.4a1.8 1.8 0 0 1-.8.5 3 3 0 0 1-.9.1h-.7l-.6-.5a2 2 0 0 1-.4-.7l-.1-.9.1-.8.4-.7.6-.4.9-.2c.3 0 .6 0 .8.2.2 0 .4.2.6.4l-.2.4zm2.6-1c.4 0 .6 0 .9.2a1.8 1.8 0 0 1 1 1l.2 1c0 .3 0 .6-.2.8 0 .3-.2.5-.4.7l-.6.4-.9.2c-.3 0-.5 0-.8-.2a1.8 1.8 0 0 1-1-1l-.2-1c0-.3 0-.6.2-.8 0-.3.2-.5.4-.7.1-.2.4-.3.6-.4l.8-.2zm0 3.5c.4 0 .6-.1.8-.3.2-.3.2-.6.2-1 0-.5 0-.8-.2-1-.2-.3-.4-.4-.8-.4-.3 0-.6.1-.7.3-.2.3-.3.6-.3 1 0 .5.1.8.3 1 .1.3.4.4.7.4zm2.8.7v-4.1h.6c.2 0 .3 0 .3.2v.3l.3-.2a1.5 1.5 0 0 1 .5-.3h.4l.6.1.4.6a1.3 1.3 0 0 1 .5-.6l.4-.1a1.8 1.8 0 0 1 1 0l.4.3.3.5.1.7V16h-1v-2.6c0-.3 0-.5-.2-.6 0-.1-.2-.2-.5-.2h-.2a.7.7 0 0 0-.4.4v3h-1v-2.6l-.2-.6-.5-.2-.4.1c-.2 0-.3.2-.4.3v3h-1z" fill="#2D2D2D"/><circle fill="#FF6059" cx="30" cy="13" r="3"/><circle fill="#FFC02F" cx="20" cy="13" r="3"/><circle fill="#2AD043" cx="10" cy="13" r="3"/><path fill="#38B0E4" d="M0 25h340v8H0z"/><path fill="#484A55" d="M314 205h26v15h-26z"/><path d="M328.1 216h-1a.5.5 0 0 1-.5-.3l-.5-1.5h-3l-.5 1.5a.5.5 0 0 1-.5.3h-1l2.8-7.2h1.4l2.8 7.2zm-4.7-2.7h2.3l-.8-2.4a11 11 0 0 1-.3-.9 16.7 16.7 0 0 1-.3.9l-.9 2.4zm9 2.7c-.2 0-.3 0-.3-.2l-.1-.5a3 3 0 0 1-.3.3 2.1 2.1 0 0 1-.9.4 2 2 0 0 1-.5 0 1.7 1.7 0 0 1-1.3-.6l-.4-.8a4.2 4.2 0 0 1 0-2.2l.4-.9.7-.5a2 2 0 0 1 1-.2 1.8 1.8 0 0 1 1.2.5v-2.7h1.3v7.4h-.8zm-1.6-.9c.2 0 .4 0 .6-.2.2 0 .4-.2.5-.4v-2.3a1.2 1.2 0 0 0-1-.5l-.5.1a1 1 0 0 0-.4.3l-.2.6v1.5l.2.5c0 .2.2.2.3.3h.5z" fill="#FFF"/></g><path fill="#EFCAA6" d="M395 60.3l.2 7.4-5 6.2-2.1-10.6z"/><path d="M351.5 160l-35 45.7s.6 2.9 2.7 4.5c2.2 1.7 4.7 1.2 4.7 1.2l27.8-36.3c12.5 21.9 26.4 32.6 48.6 37.6l-27.7 36.1s.8 2.5 3.6 4.6c2.5 2 4.5 1.6 4.5 1.6l35-45.8c.3-.3-64.2-49.2-64.2-49.2" fill="#193540"/><path d="M399.2 97.8l-22.6 29.4-25 32.8a168.9 168.9 0 0 0 64.1 49.2l25.4-33.1 22.3-29-64.2-49.3z" fill="#EBF5F2"/><path fill="#754D33" d="M502.9 75.7l5.5 4.3 3.2 14.6-12.2 13.5z"/><path fill="#00B7B2" d="M410.2 158.5l6.4-6.8-12-2.8 3.4 11-8.1 25.5 7.3 10.2 7.9-6.6z"/><path d="M498.7 117.3c.5-2-.2-3.8-1.5-4.9 11.1-20.8 11.7-42.6-13.8-62.1-26.6-20.5-47.4-12.6-64.9 7.4-.7-3.7-3.8-5.3-7-3.5a9.7 9.7 0 0 0-4.6 9.7c.4 2.3 1.8 3.7 3.5 4.1a418.6 418.6 0 0 0-30.7 55.3 159 159 0 0 0 64.2 49.2c14-13.3 33-30.1 45.9-48.2h.6a9.7 9.7 0 0 0 8.3-7" fill="#EFCAA6"/><path d="M453.9 74.8c7.3 5.6 7.9 15.5 1.2 22a20 20 0 0 1-25.5 1.8c-7.3-5.7-7.9-15.6-1.2-22.2a20 20 0 0 1 25.5-1.6" fill="#F1F5F7"/><path d="M433.8 98.2c-7.4-5.7-7.9-15.6-1.2-22.1 2.7-2.7 6.2-4.4 9.9-5.1-5.2 0-10.4 1.8-14.1 5.4a14.3 14.3 0 0 0 1.2 22.2 19.6 19.6 0 0 0 15.6 3.4 19 19 0 0 1-11.4-3.8" fill="#DDE1E3"/><path d="M439.1 96.3a4.2 4.2 0 0 1-.3-6.4c2-2 5.3-2.2 7.4-.5a4.1 4.1 0 0 1 1.3 5.2c3-3 2.8-7.5-.5-10a9 9 0 0 0-11.4.8c-3 3-2.8 7.4.5 9.9 1.2.9 2.6 1.4 4 1.6-.3-.1-.7-.3-1-.6" fill="#95A6B1"/><path d="M476.3 101.8a9.7 9.7 0 0 0-14.8 3.1 13.7 13.7 0 0 0 3.4 17.1 9.7 9.7 0 0 0 14.8-3.1 13.7 13.7 0 0 0-3.4-17" fill="#F1F5F7"/><path d="M479.7 118.9c2.1-3.8 2-8.6.3-12.4.9 3.3.6 7-1.2 10.2a9.7 9.7 0 0 1-14.7 3 12.6 12.6 0 0 1-3.7-4.6 13 13 0 0 0 4.5 6.9 9.7 9.7 0 0 0 14.8-3.1" fill="#DDE1E3"/><path d="M466 116.3c-1-.7-1.2-2.2-.6-3.3.6-1 1.9-1.3 2.9-.6a2.7 2.7 0 0 1 .5 3.6l.7-.9c.9-1.6.4-4-1-5a2.9 2.9 0 0 0-4.5.9 4 4 0 0 0 1 5 3 3 0 0 0 1.7.7 2 2 0 0 1-.6-.4" fill="#95A6B1"/><path fill="#754D33" d="M452.3 60.3l14 5.3-3.4 3.3-19.7-4.2zM488.6 88.5l-8-12.8-2.6 4 8 18.6z"/><path d="M456.6 113.1a6.5 6.5 0 0 1-10-2.6 10.5 10.5 0 0 0 10 2.6" fill="#D0A486"/><path d="M456.6 113.1s-3 .3-5.6-.5a15 15 0 0 1-4.3-2.1 10.5 10.5 0 0 0 9.9 2.6" fill="#FFDEBA"/><path d="M479.6 120.4c1-2 1.6-4 1.6-6.3-.2 1.7-.7 3.3-1.5 4.8a9.7 9.7 0 0 1-14.8 3.1c-3.3-2.5-5.1-6.7-5-10.8-.6 4.6 1.2 9.5 4.9 12.3a9.7 9.7 0 0 0 14.8-3M455 96.9a20 20 0 0 1-25.4 1.7c-7.3-5.7-7.9-15.6-1.2-22.2 3.8-3.7 9-5.5 14.2-5.4a21 21 0 0 0-16 5.7 15 15 0 0 0 1.3 23.2 21 21 0 0 0 26.7-1.7c2.5-2.4 4-5.2 4.6-8-.7 2.3-2 4.7-4.1 6.7" fill="#DBB692"/><path d="M420 150.7a6 6 0 0 0 3-2.3c1.2-2 0-2.2-1.2-.9-.8.9-1.4 2-1.8 3.2m-6.3-18.2c-2.3 4.4-5 9.4-4.1 14.8.5 3.8 4.3 4.6 7.5 4.2l1.3-.3.1-.3c.5-1.9 2.7-7 5.6-5.6 4.1 2-2.6 6.6-4.5 7-.2 1-.2 2.1 0 3.1 1.2 3.9 6.5 2.1 8.8 1.2 3.8-1.4 6.3-3.4 9-6.2-1.8 4.1-13.1 12.3-18 7a5 5 0 0 1-1.2-2.7 8 8 0 0 1 0-2h-.8c-2 .3-4.2.2-6-.9-4-2.2-3.3-7.7-2.2-11 1-3 2.3-5.8 4.5-8.3" fill="#C5997C"/><path d="M513.4 70.5c3.9-1.6 7.4-4.8 10.6-10.3-34.8 1.6-49-64-88.1-19l-7.5 1.2-9.9 15.3 30.2-13c31.7 7 52 54.6 83.1 36.4a45.3 45.3 0 0 1-18.4-10.6" fill="#754D33"/><path d="M431.5 87.2a1.5 1.5 0 1 1-2 2.4 1.5 1.5 0 0 1 2-2.4m3.2-.7a.9.9 0 1 1-1 1.4.9.9 0 0 1 1-1.4M462.3 112.6a.7.7 0 1 1-.8 1 .7.7 0 0 1 .8-1m1.4-.3a.4.4 0 1 1-.4.6.4.4 0 0 1 .4-.6" fill="#FFF"/><path d="M465.6 52.4a51 51 0 0 0-17-7.6l-30 12.9c-.8-3.7-4-5.3-7.1-3.5a9.7 9.7 0 0 0-4.6 9.7c.4 2.3 1.8 3.7 3.5 4.1a418.7 418.7 0 0 0-30.7 55.3c2.6 3.5 5.4 6.8 8.3 10 21.5-41.6 45.6-79.1 77.6-81" fill="#FFDEBA"/><path d="M415.2 64.5c1.3-3-.7-6.8-4.4-5 0-.2.2-.2.3-.3 2-1.1 4.5-.6 4.9 1.9 0-3.2-2.3-6.3-5.8-4.8 6.9-3.2 7.8 5.5 5 8.2M414.5 87c-12.6 5.6-17.2 13.2-16.4 21.2-2-9 2.3-18 16.4-24a137 137 0 0 0 8 11.9l-8-9.1zM463.2 125.7c6 1.6 12.1 2.4 18.5 2.4a27.2 27.2 0 0 1-23.1 17.2c9.1-1.4 17-6.2 21.4-15.8a60 60 0 0 1-16.8-3.8" fill="#D0A486"/><path d="M480 129.5a56.8 56.8 0 0 1-14-2.8c-3 0-6.2-.5-9.4-1.2l.1-2.6h-.2l-.6 2.4a58.8 58.8 0 0 1-25.7-13.6l1.2-2-1.6 1.6c-3.4-3.2-6-6.7-7.8-10.4l2.8-1.7-3.1 1c-1-2.3-1.7-4.7-1.9-7.1l-5.2-6.1c-13.9 6-18 14.7-16.1 23.4 2.5.6 5 1.4 7.4 2.4l-.3 3.7 1.1-3.4a54 54 0 0 1 30.5 30.2c4.4 1.3 9 2.1 13.2 2.3 12.5.7 23.9-3.8 29.6-16.1" fill="#732706"/><path d="M444.5 121.3a57 57 0 0 1-14.3-9.6l1.2-2-1.6 1.6c-3-3-5.5-6-7.3-9.4a27.5 27.5 0 0 0-17.4 10.6c.3 0 .6.2.8.3l-.3 3.7 1.1-3.4a58.3 58.3 0 0 1 26.9 22.3c1.6-1 3.1-2 4.5-3.4 3.4-3.2 5.5-7 6.4-10.7" fill="#550900"/><path d="M442.5 125.2c-1.3-1.5-2.8-3-4.5-4.4 2 3.2 3.2 6.5 3.5 9.3a35.3 35.3 0 0 0-8.9-13.4c-5.5-4.8-18.5-3-20.8-1.3-3.7 2.7 7.2 8.5 14.3 16.9 7.2 8.3 15.3 11.2 19 8.6 3.7-2.7 4.5-7.4-2.6-15.7" fill="#BE8077"/><path d="M406.7 113.1l-1.1 3.4.3-3.7c-2.4-1-4.9-1.8-7.4-2.4.4 2 1.2 4.1 2.2 6.2 6 11.4 21 22 36.5 26.7a54 54 0 0 0-30.5-30.2M420.9 94.3l-1-1.2c0 2.4.7 4.8 1.8 7.1l3-1-2.7 1.7c1.8 3.7 4.4 7.2 7.8 10.4l1.6-1.7-1.2 2c6.8 6.4 16 11.4 25.7 13.7l.6-2.4c-12.4-6.2-24.3-16.1-35.6-28.6M456.7 123v2.5c3 .7 6.2 1.1 9.3 1.2-3.1-1-6.2-2.3-9.3-3.8" fill="#F1F5F7"/><g><path d="M464.5 193.1l21-30.2c1.2 5.4 2.6 8.4 9.9 9.6a4819 4819 0 0 0-27.5 29.2l-36.9-17 6.1-10.8 27.4 19.2z" fill="#EBF5F2"/><path d="M467.3 200l18.6-17.4-18 19.1-29.4-13.6 28.8 12z" fill="#D7E1DE"/><path fill="#FFFFF5" d="M464.5 193.1l13-18.7-12.8 20.7-20-16z"/><path fill="#EFCAA6" d="M489.4 165.3l.6-9.2-6.2-8-1.2 14.9z"/><path fill="#EFCAA6" d="M492.9 139.4l3.2 5.5-4 9.6 9.6 18.2-10.8 7.3-9.5-16.1z"/></g><g transform="translate(0 40)"><rect stroke="#C6C6C6" fill="#FFF" x=".5" y=".5" width="389" height="229" rx="3"/><path d="M.5 25.5h389V3c0-1.4-1.1-2.5-2.5-2.5H3A2.5 2.5 0 0 0 .5 3v22.5z" stroke="#C6C6C6" fill="#EDEDED"/><rect stroke="#C3C3C3" fill="#FFF" x="69.5" y="5.5" width="251" height="15" rx="1"/><path d="M175 12.7h-.1l-.1.1h-.2a10.5 10.5 0 0 0-.4-.2h-.8l-.2.4.1.2.2.2.4.1a10.5 10.5 0 0 1 .7.3c.1 0 .2 0 .3.2l.2.3.1.4v.5l-.4.5-.5.3a2.2 2.2 0 0 1-1.1 0 2.4 2.4 0 0 1-.8-.2l-.2-.2.2-.4.1-.1H172.8a3.8 3.8 0 0 0 .5.2H174.2V15l.1-.2v-.3l-.3-.1-.3-.1a10.7 10.7 0 0 1-.8-.3l-.3-.2-.2-.4-.1-.4a1.2 1.2 0 0 1 .4-.9l.5-.3h1.4l.6.4-.2.4zm2-.8v2.6l.1.6.5.2.5-.1.4-.3v-3h1V16h-.6c-.1 0-.2 0-.2-.2l-.1-.3-.3.2a1.6 1.6 0 0 1-1 .4c-.2 0-.4 0-.6-.2l-.4-.3-.3-.5V12h1zm3.6 5.4V12h.7l.1.2.1.4.6-.5a1.5 1.5 0 0 1 1.3 0c.2 0 .4.2.5.4.2.1.3.4.3.6a3.3 3.3 0 0 1 0 1.8l-.3.6a1.6 1.6 0 0 1-2 .6l-.3-.3v1.6h-1zm1.9-4.7a1 1 0 0 0-.5.1l-.4.4v1.8a1 1 0 0 0 .8.4h.4l.3-.3.2-.5V14v-.6l-.2-.4-.3-.2-.3-.1zm4.3-.8c.3 0 .5 0 .7.2a1.6 1.6 0 0 1 1 .9 2.2 2.2 0 0 1 0 1v.2h-2.7c0 .4.1.7.3.9.2.2.5.3.8.3h.4l.3-.2.3-.1H188.2l.3.4-.3.3a2 2 0 0 1-1 .3H186l-.6-.5a2 2 0 0 1-.4-.7 2.7 2.7 0 0 1 0-1.7c0-.3.2-.5.3-.7l.7-.4.8-.2zm0 .7a1 1 0 0 0-.7.3l-.3.7h1.9V13l-.2-.3-.3-.2a1 1 0 0 0-.4 0zm2.6 3.5v-4.1h.8v.2l.1.5.5-.6.7-.2c.2 0 .4 0 .5.2l-.1.7v.1h-.2-.2-.2l-.6.1-.3.5V16h-1zm5.7-3.3h-.1l-.1.1h-.2a10.5 10.5 0 0 0-.4-.2h-.8l-.2.4.1.2.3.2.3.1a10.5 10.5 0 0 1 .7.3c.1 0 .2 0 .3.2l.3.3v.9l-.4.5-.5.3a2.2 2.2 0 0 1-1.1 0 2.4 2.4 0 0 1-.7-.2l-.3-.2.2-.4.1-.1H193a3.8 3.8 0 0 0 .5.2H194.3V15l.1-.2v-.3l-.3-.1-.3-.1a10.7 10.7 0 0 1-.8-.3l-.3-.2-.2-.4-.1-.4a1.2 1.2 0 0 1 .4-.9l.5-.3h1.4l.6.4-.2.4zm2-.8V16h-.9v-4.1h1zm.2-1.2v.2a.7.7 0 0 1-.4.4.6.6 0 0 1-.6-.2l-.2-.2v-.2a.6.6 0 0 1 .2-.4.6.6 0 0 1 .4-.2h.2a.7.7 0 0 1 .4.4v.2zm2.4 5.4c-.4 0-.7-.1-.9-.3-.2-.2-.3-.5-.3-.9v-2.3h-.4-.1V12h.6l.2-1.2v-.1h.7v1.2h1.1v.7h-1V15.2h.4a.8.8 0 0 0 .2 0h.2l.3.5-.5.3h-.5zm3.4-4.3c.3 0 .5 0 .7.2a1.6 1.6 0 0 1 1 .9 2.2 2.2 0 0 1 0 1v.2H202c0 .4.2.7.3.9.2.2.5.3.8.3h.4l.3-.2.3-.1H204.5l.3.4-.3.3a2 2 0 0 1-1 .3H202.4l-.6-.5a2 2 0 0 1-.4-.7 2.7 2.7 0 0 1 0-1.7c0-.3.2-.5.3-.7l.7-.4.8-.2zm0 .7a1 1 0 0 0-.7.3l-.3.7h1.9V13l-.2-.3-.3-.2a1 1 0 0 0-.4 0zm2.3 3a.6.6 0 0 1 .2-.5.6.6 0 0 1 .4-.1.6.6 0 0 1 .5.1.6.6 0 0 1 .1.7l-.1.2-.2.1h-.3a.6.6 0 0 1-.4-.1l-.1-.2v-.2zm2 .5v-4.1h.7c.1 0 .2 0 .2.2l.1.3a2.3 2.3 0 0 1 .6-.4 1.5 1.5 0 0 1 .7-.2l.6.1.4.4.3.5V16h-1v-2.6l-.1-.6-.5-.2a1 1 0 0 0-.5.1c-.2 0-.3.2-.4.3v3h-1zm6.3-4.2c.3 0 .5 0 .7.2a1.6 1.6 0 0 1 1 .9 2.2 2.2 0 0 1 0 1v.2h-2.7c0 .4.2.7.4.9.2.2.4.3.8.3h.4l.3-.2.2-.1H215.1l.4.4-.4.3a2 2 0 0 1-.9.3H213l-.7-.5a2 2 0 0 1-.4-.7 2.7 2.7 0 0 1 0-1.7c0-.3.2-.5.4-.7.1-.2.3-.3.6-.4l.8-.2zm0 .7a1 1 0 0 0-.6.3c-.2.1-.3.4-.3.7h1.8V13l-.2-.3-.3-.2a1 1 0 0 0-.4 0zm4 3.6c-.4 0-.7-.1-.9-.3-.2-.2-.3-.5-.3-.9v-2.3h-.4-.1V12h.6l.2-1.2v-.1h.7v1.2h1.1v.7h-1V15.2h.4a.8.8 0 0 0 .2 0h.2l.3.5-.5.3h-.6z" fill="#2D2D2D"/><circle fill="#FF6059" cx="30" cy="13" r="3"/><circle fill="#FFC02F" cx="20" cy="13" r="3"/><circle fill="#2AD043" cx="10" cy="13" r="3"/></g><g transform="translate(135 220)"><rect fill="#00B7B2" width="120" height="30" rx="2"/><path d="M38.4 18.1c1.3 0 2.3-.5 3-1V14h-3v1.3h1.5v1c-.4.3-.9.4-1.5.4-1.2 0-2-1-2-2.2 0-1.2.8-2.2 2-2.2.7 0 1.2.3 1.8.7l1-1.2c-.8-.6-1.6-1-2.8-1a3.6 3.6 0 0 0-3.7 3.7c0 2 1.5 3.6 3.7 3.6zm4.5-.1h5.3v-1.4h-3.8v-1.4h3.3v-1.4h-3.3v-1.4H48V11H43v7zm8.3 0h1.5v-5.6H55V11H49v1.4h2V18zm7.8 0h1.6v-4.4L64 18h1.3v-7h-1.6v4.3L60.5 11H59v7zm11.3.1a3.6 3.6 0 1 1 0-7.2c2.2 0 3.8 1.6 3.8 3.6s-1.6 3.6-3.8 3.6zm0-1.4c1.3 0 2.2-1 2.2-2.2 0-1.2-1-2.2-2.2-2.2-1.2 0-2 1-2 2.2 0 1.2.8 2.2 2 2.2zm7 1.4h1.3l1.6-4.6 1.6 4.6H83l2.4-7.1H84l-1.4 4.7-1.6-4.7h-1.3L78 15.7 76.5 11H75l2.4 7z" fill="#FFF"/></g><g><path fill="#D1D1D1" d="M20 88h60v10H20z"/><path fill="#D2D2D2" d="M20 107h78v60H20z"/><path fill="#D1D1D1" d="M290 107h78v22h-78z"/><path fill="#D1D1D1" opacity=".6" d="M290 137h78v22h-78z"/><path fill="#D1D1D1" opacity=".4" d="M290 167h78v22h-78z"/><path fill="#D1D1D1" opacity=".8" d="M20 170h24v14H20z"/><path fill="#D1D1D1" opacity=".6" d="M47 170h24v14H47z"/><path fill="#D1D1D1" opacity=".4" d="M74 170h24v14H74z"/><path fill="#D1D1D1" d="M118 107h154v10H118z"/><path fill="#D1D1D1" opacity=".8" d="M118 123h94v6h-94zM222 123h50v6h-50z"/><path fill="#D1D1D1" opacity=".7" d="M118 135h134v6H118z"/><path fill="#D1D1D1" opacity=".6" d="M118 147h74v6h-74z"/><path fill="#D1D1D1" opacity=".5" d="M118 159h84v6h-84z"/><path fill="#D1D1D1" opacity=".4" d="M118 171h124v6H118z"/><g stroke="#484A55" stroke-linecap="round" stroke-width="2"><path d="M262 249.8c117 88.2 207-.4 207-33.8M463.3 221l5.6-6.8 5.4 7"/></g></g><g><path fill="#EFCAA6" d="M393 42.8l.8 20-13 8.8-5.4-39z"/><path fill="#FFDEBA" d="M391.2 45.5l2.3 10.8-.4-13.5-17.7-10.2.6 4z"/></g></g></svg>