<svg width="390" height="230" xmlns="http://www.w3.org/2000/svg" xmlns:xlink="http://www.w3.org/1999/xlink"><defs><path id="a" d="M5.7 4.2V0H0v4h5.7z"/><path id="c" d="M0 0v4.2h5.7V0H0z"/></defs><g fill="none" fill-rule="evenodd"><g><rect stroke="#C6C6C6" fill="#FFF" x=".5" y=".5" width="389" height="229" rx="3"/><path d="M.5 25.5h389V3c0-1.4-1.1-2.5-2.5-2.5H3A2.5 2.5 0 0 0 .5 3v22.5z" stroke="#C6C6C6" fill="#EDEDED"/><rect stroke="#C3C3C3" fill="#FFF" x="69.5" y="5.5" width="251" height="15" rx="1"/><path d="M78 12.7h-.1l-.1.1h-.2a10.5 10.5 0 0 0-.4-.2h-.8l-.2.4.1.2.2.2.4.1a10.5 10.5 0 0 1 .7.3c.1 0 .2 0 .3.2l.2.3.1.4v.5l-.4.5-.5.3a2.2 2.2 0 0 1-1.1 0 2.4 2.4 0 0 1-.8-.2l-.2-.2.2-.4.1-.1H75.8a3.8 3.8 0 0 0 .5.2H77.2V15l.1-.2v-.3l-.3-.1-.3-.1a10.7 10.7 0 0 1-.8-.3l-.3-.2-.2-.4-.1-.4a1.2 1.2 0 0 1 .4-.9l.5-.3h1.4l.6.4-.2.4zm1 3.3v-6h1v2.3l.5-.3.7-.2.6.1.4.4c.2.1.2.3.3.5l.1.6V16h-1v-2.6c0-.3 0-.5-.2-.6l-.5-.2a1 1 0 0 0-.5.1l-.4.3v3h-1zm6.3-4.2c.3 0 .6 0 .9.2a1.8 1.8 0 0 1 1 1l.1 1-.1.8c0 .3-.2.5-.4.7l-.6.4-.9.2c-.3 0-.6 0-.8-.2a1.8 1.8 0 0 1-1-1c-.2-.3-.2-.6-.2-1l.1-.8.4-.7.7-.4.8-.2zm0 3.5c.4 0 .6-.1.8-.3l.2-1c0-.5 0-.8-.2-1-.2-.3-.4-.4-.8-.4-.3 0-.6.1-.7.3-.2.3-.3.6-.3 1 0 .5 0 .8.3 1 .1.3.4.4.7.4zm2.8 2V12h.8v.2l.2.4.5-.5a1.5 1.5 0 0 1 1.4 0c.2 0 .3.2.5.4l.3.6a3.3 3.3 0 0 1 0 1.8c-.1.2-.2.5-.4.6a1.6 1.6 0 0 1-1.9.6l-.4-.3v1.6h-1zm2-4.7a1 1 0 0 0-.6.1l-.4.4v1.8a1 1 0 0 0 .8.4h.4l.3-.3.2-.5V14v-.6l-.1-.4-.3-.2-.4-.1zm2.4.6h2v.8h-2v-.8zm3 2.8v-6h1v2.4l.6-.4a1.6 1.6 0 0 1 1.3 0c.2 0 .3.2.5.4l.3.6a3.3 3.3 0 0 1 0 1.8c-.1.2-.2.5-.4.6a1.6 1.6 0 0 1-1.3.7 1.5 1.5 0 0 1-.6-.2s-.2 0-.2-.2c-.1 0-.2 0-.2-.2v.3l-.2.2H95.5zm2-3.4a1 1 0 0 0-.6.1l-.4.4v1.8a1 1 0 0 0 .8.4h.4l.3-.3.2-.5V14v-.6l-.1-.4-.3-.2-.4-.1zm3.6-2.5V16h-1v-6h1zm2.9 1.7c.3 0 .6 0 .8.2a1.8 1.8 0 0 1 1 1c.2.3.2.6.2 1l-.1.8-.4.7-.7.4-.8.2c-.3 0-.6 0-.8-.2a1.8 1.8 0 0 1-1-1c-.2-.3-.2-.6-.2-1l.1-.8.4-.7.7-.4.8-.2zm0 3.5c.3 0 .6-.1.8-.3l.2-1c0-.5 0-.8-.2-1-.2-.3-.5-.4-.8-.4-.4 0-.6.1-.8.3l-.2 1c0 .5 0 .8.2 1 .2.3.4.4.8.4zm4.2-3.5h.5l.4.2h1.2v.5l-.2.1h-.4a1.3 1.3 0 0 1 .1.6 1.2 1.2 0 0 1-.4 1l-.6.2a2 2 0 0 1-1 0c-.2.1-.2.2-.2.3v.2h.8a8.8 8.8 0 0 1 1 .2l.4.1.3.3.1.5-.1.5-.4.5a2 2 0 0 1-.6.3l-.9.1h-.8l-.6-.3a1 1 0 0 1-.3-.3l-.1-.4c0-.2 0-.4.2-.5 0-.2.2-.3.5-.3a.7.7 0 0 1-.3-.3V15v-.2-.2l.2-.2.3-.1-.5-.5c-.2-.2-.2-.4-.2-.6a1.2 1.2 0 0 1 .4-1l.6-.3h.6zm1.1 4.4V16l-.3-.1h-.3a5.3 5.3 0 0 0-.7-.1h-.4l-.3.1v.5l.2.2.3.1h.9l.3-.1.2-.2.1-.2zm-1-2.4h.2l.3-.1v-.3l.1-.2-.1-.5-.6-.2c-.2 0-.4 0-.5.2-.2.1-.2.3-.2.5v.2a.6.6 0 0 0 .4.4h.3zm2.4 1.7a.6.6 0 0 1 .2-.5.6.6 0 0 1 .4-.1.6.6 0 0 1 .4.1.6.6 0 0 1 .2.7l-.2.2-.2.1h-.2a.6.6 0 0 1-.4-.1l-.2-.2v-.2zm5-2.7h-.4a4.8 4.8 0 0 0-.5-.2h-.3a1 1 0 0 0-.4 0l-.4.3-.2.5v1.1l.2.5.4.2.4.1a1 1 0 0 0 .6-.2l.2-.1H115.6l.3.4a1.8 1.8 0 0 1-.7.5 3 3 0 0 1-.9.1h-.7l-.6-.5a2 2 0 0 1-.4-.7l-.1-.9v-.8l.5-.7c.1-.2.3-.3.6-.4l.8-.2c.4 0 .6 0 .9.2.2 0 .4.2.6.4l-.3.4zm2.6-1c.3 0 .6 0 .8.2a1.8 1.8 0 0 1 1 1c.2.3.2.6.2 1l-.1.8-.4.7-.7.4-.8.2c-.3 0-.6 0-.8-.2a1.8 1.8 0 0 1-1-1c-.2-.3-.2-.6-.2-1l.1-.8.4-.7.7-.4.8-.2zm0 3.5c.3 0 .6-.1.8-.3l.2-1c0-.5 0-.8-.2-1-.2-.3-.5-.4-.8-.4-.3 0-.6.1-.8.3l-.2 1c0 .5 0 .8.2 1 .2.3.5.4.8.4zm2.8.7v-4.1h.6c.1 0 .2 0 .3.2v.3l.2-.2a1.5 1.5 0 0 1 .6-.3h.3l.7.1.3.6a1.3 1.3 0 0 1 .6-.6l.4-.1a1.8 1.8 0 0 1 1 0l.4.3.3.5V16h-1v-2.6l-.1-.6-.5-.2h-.3a.7.7 0 0 0-.4.4v3h-1v-2.6c0-.3 0-.5-.2-.6l-.5-.2-.4.1-.3.3v3h-1z" fill="#2D2D2D"/><circle fill="#FF6059" cx="30" cy="13" r="3"/><circle fill="#FFC02F" cx="20" cy="13" r="3"/><circle fill="#2AD043" cx="10" cy="13" r="3"/></g><g transform="translate(135 180)"><rect fill="#D1D1D1" width="120" height="30" rx="2"/><path d="M28.6 18h5v-1.4h-3.5V11h-1.5v7zm9.6.1a3.6 3.6 0 1 1 0-7.2c2.1 0 3.7 1.6 3.7 3.6s-1.6 3.6-3.7 3.6zm0-1.4c1.2 0 2-1 2-2.2 0-1.2-.8-2.2-2-2.2-1.3 0-2.1 1-2.1 2.2 0 1.2.9 2.2 2 2.2zm4.5 1.3l3-7H47l3 7h-1.6l-.7-1.6h-3l-.6 1.6h-1.5zm2.7-3h1.9l-1-2.2-.9 2.3zm5.8 3v-7h2.7c2.2 0 3.7 1.5 3.7 3.5S56.1 18 54 18h-2.7zm1.5-1.4H54a2 2 0 0 0 2.1-2.1 2 2 0 0 0-2.1-2.1h-1.2v4.2zM62 18h1.5v-4.5l2 3 2-3V18H69v-7h-1.7l-1.8 3-1.9-3H62v7zm12 .1a3.6 3.6 0 1 1 0-7.2c2.3 0 3.8 1.6 3.8 3.6s-1.6 3.6-3.7 3.6zm0-1.4c1.3 0 2.2-1 2.2-2.2 0-1.2-.9-2.2-2.1-2.2-1.3 0-2.1 1-2.1 2.2 0 1.2.8 2.2 2 2.2zm5.2 1.3v-7h3.2c.9 0 1.5.3 2 .7.4.4.6 1 .6 1.6 0 1.2-.6 1.9-1.5 2.2l1.7 2.5h-1.8L82 15.8h-1.2V18h-1.5zm1.5-3.6h1.6c.7 0 1.2-.4 1.2-1 0-.7-.5-1-1.3-1h-1.5v2zm5.7 3.6h5.3v-1.4H88v-1.4h3.3v-1.4H88v-1.4h3.8V11h-5.3v7z" fill="#FFF"/></g><path fill="#D1D1D1" d="M20 48h60v10H20zM20 67h78v60H20z"/><path fill="#38B0E4" d="M292 137h78v28h-78z"/><path fill="#484A55" d="M292 67h78v60h-78z"/><path d="M342.7 135.6l-2.6-.9-1.3 2.6c2.2 1.3 5 2.4 7.5 2.7 0-1.9-.9-3-3.6-4.4M317.4 135.6c-2.8 1.3-3.7 2.5-3.6 4.4 2.4-.3 5.3-1.4 7.5-2.7l-1.3-2.6-2.6.9" fill="#CECECE"/><path d="M317.6 117.3v18s.6.5 1.5.5c.8 0 1.4-.5 1.4-.5V121c7.2 3 12.7 3 19 .1v14.2s.7.4 1.8.4c1 0 1.4-.4 1.4-.4v-18h-25.1" fill="#EBF5F2"/><path d="M317.6 93v24.3c8.4 2 16.7 2.1 25.1 0V93h-25.1z" fill="#EBF5F2"/><path fill="#754D33" d="M339 67.8h2.2l3.5 3-.4 5.7z"/><path d="M325.6 118.6c3.5.3 7 .3 10.3 0V100h-10.3v18.6z" fill="#EFCAA6"/><path d="M345.8 79c-.3-.7-.7-1-1.3-1-1.2-7.3-5.1-12.8-15.1-12.8-10.5 0-14.1 6-14.7 14.2-.8-.8-2-.6-2.4.4a3 3 0 0 0 .7 3.3c.6.5 1.2.6 1.7.4.2 6 1.5 12.8 2.9 19.4 8.6 2.4 17 2 25.1 0 1-6 2.5-13.7 2.2-20.6l.2-.1a3 3 0 0 0 .7-3.3" fill="#EFCAA6"/><path fill="#754D33" d="M323.6 73.6l4.4-1.3-.2 1.4-5.6 2.7zM337.9 73.7l-4.4-1.6.1 1.4 5.5 3.1z"/><path d="M334.6 85.9a2 2 0 0 1-3 1.2 3.3 3.3 0 0 0 3-1.2" fill="#D0A486"/><path d="M334.6 85.9s-.7.6-1.5.9c-.8.3-1.4.3-1.4.3a3.3 3.3 0 0 0 3-1.2" fill="#FFDEBA"/><path d="M332.7 102c.2-.3.4-.7.3-1.1 0-.7-.4-.5-.4 0l.1 1.1m-5-3.3c.3 1.6.6 3.3 1.8 4.5.9.8 2 .3 2.6-.4l.3-.3v-.1c-.3-.6-.7-2.3.3-2.5 1.4-.2.6 2.2.2 2.7l.6.7c1 .7 2-.7 2.4-1.4.7-1 1-2 1-3.2.4 1.3-.9 5.5-3 5.1-.4 0-.6-.2-.9-.4l-.4-.5-.1.2c-.5.4-1 .8-1.7.9-1.4.2-2.3-1.3-2.6-2.3-.3-1-.6-2-.5-3" fill="#C5997C"/><path d="M340.6 64.6a7 7 0 0 0 .6-4.6C333 67 317 53.5 316 72l-1.6 1.7.4 5.7 5-9c9.2-4.2 23.2 3.7 27.5-6.7-1.8.8-4.1 1-6.6.9" fill="#754D33"/><path d="M325.4 69.1c-2 .2-4 .6-5.7 1.4l-5 8.9c-.8-.8-2-.6-2.4.4a3 3 0 0 0 .7 3.3c.6.5 1.2.6 1.7.4.2 6 1.5 12.8 2.9 19.4l3.9 1c-2.6-14.4-3.7-28.3 3.9-34.8" fill="#FFDEBA"/><path d="M315.2 81.7c-.3-1-1.5-1.6-2-.4V81c.3-.6 1-1 1.5-.4-.5-.8-1.7-1.1-2.3-.1 1.1-2.1 3-.1 2.8 1" fill="#D0A486"/><path d="M325.9 94.8l.4 1v-1.1l1.7-.3a13 13 0 0 1-4-1l.1-1.4-.6 1.3c-2.2-1.2-3.1-3-1.6-5.7a30.5 30.5 0 0 0 20 .2c-.2 2.2-1.8 3.8-4 5l-1-1.5.5 1.7-2.5.9-.3-.7v.7l-2.6.5c2.5.2 4.7.8 6.2 1.8-5.3 3-13.5 3.2-17.9.6 1.6-1 3.5-1.6 5.6-2" fill="#F1F5F7"/><path d="M321.5 88.5l.4-1a30.5 30.5 0 0 0 20 .3 26.5 26.5 0 0 1-20.4.7" fill="#DDE1E3"/><path d="M319 86.7c-2.4 3.6-2.3 6.3-.8 8.3-2-2-2.3-5 .4-9l4 1.8-3.5-1.1zM338.3 88.9c1.8-.6 3.6-1.4 5.3-2.4.5 3.6-.9 6.4-3.3 8.3a8.4 8.4 0 0 0 3-7.7c-1.5.8-3.2 1.4-5 1.8" fill="#D0A486"/><path d="M343.4 87l-1.5.8c-.2 2.2-1.8 3.8-4 5l-1-1.5.5 1.7-2.5.9-.3-.7v.7l-2.6.5c2.5.2 4.7.8 6.2 1.8 3.4-1.9 5.7-4.9 5.2-9.1m-19.5 6.4l.2-1.5-.6 1.3c-2.2-1.2-3.1-3-1.6-5.7l-2.8-1v.1c-3.3 4.8-2 8.2 1.2 10 1.6-.9 3.5-1.5 5.6-2l.4 1v-1l1.7-.3a13 13 0 0 1-4-1" fill="#732706"/><path fill="#EBF5F2" d="M351.3 110.5l-8.6-7.6-2.4 2.7 10 6.8 10.5-2.7-1.3-3z"/><path fill="#D7E1DE" d="M350.3 112.1l-7.5-4.8 7.5 5 6.3-1.5z"/><path fill="#EBF5F2" d="M309 110.5l8.6-7.6 2.4 2.7-10 6.8-10.5-2.7 1.3-3z"/><path fill="#D7E1DE" d="M303.7 110.8l6.3 1.6 7.5-5.1-7.5 4.8z"/><path d="M349.6 78.8c0-.3-.8-.5-1.1-.5-1.5-.3-4.2-.6-6.2-.6-2.5 0-5 .6-7.5 1.2-1.3.3-2.5.5-3.8.1-1-.3-2.1-.8-3.3-1a37.9 37.9 0 0 0-10-.5c-.4 0-1.2.1-1.5.4h-1.7l.2 1.5 1.3-.1.1.5.2.6c.2.3.5.5.6.8.6 1.5.8 3 1.3 4.4a5 5 0 0 0 2.9 3 8 8 0 0 0 7.1-1 10 10 0 0 0 3.2-5.2c.1-.5.3-1 .8-1 .5-.1 1-.1 1.3.3l.7 1.8.7 1.6a7 7 0 0 0 5.5 3.8 9 9 0 0 0 4-.6c1.2-.4 2-1.1 2.6-2.3.6-1.2 1-2.5 1.3-3.8.1-.3.2-.6.5-.9l.6-.5c.3-.7.6-1.4.2-2" fill="#000"/><path d="M322.3 88.2h2l3.7-9.5-.8-.2-4.9 9.7zm2.5-10.1l-5.4 8.4a4.2 4.2 0 0 0 2 1.5l5-9.7-1.6-.2zm17.2.1h-1l-4.3 8.4a6 6 0 0 0 2.1 1.3l3.9-9.7h-.7zm1.5 0l-3.8 10a6.2 6.2 0 0 0 1.8 0l2.8-9.9h-.8z" fill="#FFF" opacity=".6"/><path fill="#D7E1DE" d="M322.4 107.8l.5 3.8 2.4 2.3-2-2.8zM338.4 111.1l-2 2.8 2.4-2.3.5-3.8z"/><path d="M317.6 103l-8.6 7.5-8.2-3.9 8.5 4.5 8.3-7.2v13.4l2.4.5 1.5-14-4-.9M351.3 110.5l-8.6-7.6v.8l8.6 7.2 8.2-4.3z" fill="#FFFFF5"/><path d="M337.6 110.6l-1.7-5.1-5 4.2-5.3-4.3-1.6 5 1.6-1v9.2c3.5.3 7 .3 10.3 0v-9l1.7 1z" fill="#38B0E4"/><path d="M331.3 114c.3 0 .6-.3.5-.6 0-.3-.3-.5-.7-.4-.3 0-.5.3-.5.6s.4.5.7.5M331.1 115.8c-.3 0-.5.3-.5.6 0 .4.4.6.7.5.3 0 .6-.3.5-.6 0-.3-.3-.5-.7-.5" fill="#FFF"/><path d="M358.3 111.3l-1.5-4.4 2.3-2.8 3.9 8.3z" fill="#EFCAA6"/><g transform="translate(357.3 108.3)"><mask id="b" fill="#fff"><use xlink:href="#a"/></mask><path fill="#FFDEBA" mask="url(#b)" d="M1.3 2.3L0 .1l1 3 4.7 1-.4-.8z"/></g><path fill="#EFCAA6" d="M357.2 107.4l-.6-1.6.8-1.8 1.1 2.3zM301.7 111.3l1.4-4.4-2.3-2.8-3.8 8.3z"/><g transform="translate(297 108.3)"><mask id="d" fill="#fff"><use xlink:href="#c"/></mask><path fill="#FFDEBA" mask="url(#d)" d="M4.4 2.3L5.7.1l-1 3L0 4l.4-.8z"/></g><path fill="#EFCAA6" d="M302.8 107.4l.5-1.6-.7-1.8-1.1 2.3z"/><path d="M336 105l-4.4 2a1 1 0 0 0-1.6 0l-4.4-2v.1l4.3 2a1 1 0 0 0 1 1.5 1 1 0 0 0 .8-1.5l4.2-2v-.2z" fill="#F5E2B6"/><g><path fill="#38B0E4" d="M358 116h12v8h-12z"/><path d="M364.4 122h-.6a.3.3 0 0 1-.3-.2l-.3-.9h-1.8l-.3 1a.3.3 0 0 1-.3.1h-.6l1.7-4.3h.8l1.7 4.3zm-2.8-1.6h1.4l-.5-1.5a6.6 6.6 0 0 1-.2-.5 10 10 0 0 1-.2.5l-.5 1.5zm5.4 1.6l-.2-.1v-.3l-.3.2a1.3 1.3 0 0 1-.5.2h-.3a1 1 0 0 1-.8-.4l-.2-.5a2.5 2.5 0 0 1 0-1.3c0-.2.1-.3.3-.5l.4-.3.5-.1a1 1 0 0 1 .8.3v-1.7h.7v4.5h-.4zm-1-.5l.4-.1.3-.3v-1.4a.7.7 0 0 0-.6-.3h-.3l-.2.3-.2.3v.9l.1.3.2.2h.3z" fill="#FFF"/></g><g><path fill="#484A55" d="M358 154h12v8h-12z"/><path d="M364.4 160h-.6a.3.3 0 0 1-.3-.2l-.3-.9h-1.8l-.3 1a.3.3 0 0 1-.3.1h-.6l1.7-4.3h.8l1.7 4.3zm-2.8-1.6h1.4l-.5-1.5a6.6 6.6 0 0 1-.2-.5 10 10 0 0 1-.2.5l-.5 1.5zm5.4 1.6l-.2-.1v-.3l-.3.2a1.3 1.3 0 0 1-.5.2h-.3a1 1 0 0 1-.8-.4l-.2-.5a2.5 2.5 0 0 1 0-1.3c0-.2.1-.3.3-.5l.4-.3.5-.1a1 1 0 0 1 .8.3v-1.7h.7v4.5h-.4zm-1-.5l.4-.1.3-.3v-1.4a.7.7 0 0 0-.6-.3h-.3l-.2.3-.2.3v.9l.1.3.2.2h.3z" fill="#FFF"/></g><path fill="#D1D1D1" opacity=".8" d="M20 130h24v14H20z"/><path fill="#D1D1D1" opacity=".6" d="M47 130h24v14H47z"/><path fill="#D1D1D1" opacity=".4" d="M74 130h24v14H74z"/><path fill="#D1D1D1" d="M118 67h154v10H118z"/><path fill="#D1D1D1" opacity=".8" d="M118 83h94v6h-94zM222 83h50v6h-50z"/><path fill="#D1D1D1" opacity=".7" d="M118 95h134v6H118z"/><path fill="#D1D1D1" opacity=".6" d="M118 107h74v6h-74z"/><path fill="#D1D1D1" opacity=".5" d="M118 119h84v6h-84z"/><path fill="#D1D1D1" opacity=".4" d="M118 131h124v6H118z"/></g></svg>