<svg width="146" height="106" xmlns="http://www.w3.org/2000/svg"><g fill="none" fill-rule="evenodd"><g transform="translate(3 3)"><rect stroke="#FFF" stroke-width="3" fill="#D1D1D1" x="-1.5" y="-1.5" width="143" height="103" rx="5"/><path d="M7 14h126a3 3 0 0 1 3 3v76a3 3 0 0 1-3 3H7a3 3 0 0 1-3-3V17a3 3 0 0 1 3-3zM23 4h110a3 3 0 0 1 0 6H23a3 3 0 0 1 0-6zM7 4a3 3 0 1 1 0 6 3 3 0 1 1 0-6zM15 4a3 3 0 0 1 0 6 3 3 0 0 1 0-6z" fill="#FFF"/></g><path fill="#484A55" d="M15 67h75V39H15z"/><path fill="#91929B" d="M97 72h34V59H97zM97 90h34V77H97zM15 75h34v-3H15z"/><path fill="#D1D1D1" d="M15 80h34v-3H15z"/><path fill="#91929B" d="M15 85h34v-3H15z"/><path fill="#D1D1D1" d="M15 90h14v-3H15z"/><path fill="#484A55" d="M15 34h34v-3H15z"/><path fill="#D1D1D1" d="M15 29h14v-3H15z"/><path fill="#91929B" d="M56 75h34v-3H56z"/><path fill="#D1D1D1" d="M56 80h34v-3H56z"/><path fill="#91929B" d="M56 85h34v-3H56z"/><path fill="#D1D1D1" d="M56 90h24v-3H56z"/><g><path fill="#91929B" d="M97 29h34v-3H97z"/><path fill="#D1D1D1" d="M97 34h34v-3H97z"/><path fill="#91929B" d="M97 39h34v-3H97z"/><path fill="#D1D1D1" d="M97 44h34v-3H97z"/><path fill="#91929B" d="M97 49h34v-3H97z"/><path fill="#D1D1D1" d="M97 54h14v-3H97z"/></g><path d="M10 17h126a3 3 0 0 1 3 3v76a3 3 0 0 1-3 3H10a3 3 0 0 1-3-3V20a3 3 0 0 1 3-3z" fill="#000" opacity=".5"/><path d="M35 33h76a2 2 0 0 1 2 2v46a2 2 0 0 1-2 2H35a2 2 0 0 1-2-2V35c0-1.1.9-2 2-2z" fill="#FFF"/><g><path d="M57.5 57.8l-1-4 3.2-2.8-4.2-.2-1.5-4-1.6 4-4.2.2 3.3 2.7-1 4.1 3.5-2.3 3.5 2.3zM62 53c0 1 .9 2 2 2v4c0 1-1 2-2 2H46c-1.1 0-2-1-2-2v-4c1.1 0 2-1 2-2s-1-2-2-2v-4c0-1 .9-2 2-2h16c1 0 2 1 2 2v4c-1.1 0-2 1-2 2z" fill="#484A55" fill-rule="nonzero"/><path fill="#484A55" d="M69 50h34v-3H69z"/><path fill="#91929B" d="M69 55h24v-3H69z"/><path fill="#484A55" d="M69 60h14v-3H69z"/></g><path fill="#38B0E4" d="M58 70h30v8H58z"/><path d="M130.7 23.2l2-2 1.5 1.3-2.1 2.2 2 2-1.3 1.5-2.1-2.1-2.2 2-1.4-1.3 2.1-2.1-2-2.2 1.3-1.4 2.2 2.1z" fill="#FFF"/></g></svg>