<svg width="160" height="131" xmlns="http://www.w3.org/2000/svg"><g fill="none" fill-rule="evenodd"><g transform="translate(20)"><rect fill="#484A55" width="140" height="100" rx="5"/><path d="M7 14h126a3 3 0 0 1 3 3v76a3 3 0 0 1-3 3H7a3 3 0 0 1-3-3V17a3 3 0 0 1 3-3z" fill="#38B0E4"/><path d="M23 4h110a3 3 0 0 1 0 6H23a3 3 0 0 1 0-6zM7 4a3 3 0 1 1 0 6 3 3 0 1 1 0-6zM15 4a3 3 0 0 1 0 6 3 3 0 0 1 0-6z" fill="#FFF"/></g><g transform="translate(3 28)"><rect stroke="#FFF" stroke-width="3" fill="#D1D1D1" x="-1.5" y="-1.5" width="143" height="103" rx="5"/><path d="M7 14h126a3 3 0 0 1 3 3v76a3 3 0 0 1-3 3H7a3 3 0 0 1-3-3V17a3 3 0 0 1 3-3zM23 4h110a3 3 0 0 1 0 6H23a3 3 0 0 1 0-6zM7 4a3 3 0 1 1 0 6 3 3 0 1 1 0-6zM15 4a3 3 0 0 1 0 6 3 3 0 0 1 0-6z" fill="#FFF"/></g><path fill="#484A55" d="M15 92h75V64H15z"/><path fill="#91929B" d="M97 97h34V84H97zM97 115h34v-13H97zM15 100h34v-3H15z"/><path fill="#D1D1D1" d="M15 105h34v-3H15z"/><path fill="#91929B" d="M15 110h34v-3H15z"/><path fill="#D1D1D1" d="M15 115h14v-3H15z"/><path fill="#484A55" d="M15 59h34v-3H15z"/><path fill="#D1D1D1" d="M15 54h14v-3H15z"/><g><path fill="#91929B" d="M56 100h34v-3H56z"/><path fill="#D1D1D1" d="M56 105h34v-3H56z"/><path fill="#91929B" d="M56 110h34v-3H56z"/><path fill="#D1D1D1" d="M56 115h24v-3H56z"/></g><g><path fill="#91929B" d="M97 54h34v-3H97z"/><path fill="#D1D1D1" d="M97 59h34v-3H97z"/><path fill="#91929B" d="M97 64h34v-3H97z"/><path fill="#D1D1D1" d="M97 69h34v-3H97z"/><path fill="#91929B" d="M97 74h34v-3H97z"/><path fill="#D1D1D1" d="M97 79h14v-3H97z"/></g></g></svg>