<svg width="360" height="315" xmlns="http://www.w3.org/2000/svg" xmlns:xlink="http://www.w3.org/1999/xlink"><defs><path id="a" d="M.1 0h8.6v18.8H.1z"/></defs><g fill="none" fill-rule="evenodd"><path stroke="#D1D1D1" stroke-width="1.5" fill="#F5F5F5" d="M144.8 281.8h70.5v32.3h-70.5z"/><path fill="#91929B" d="M117 310h126v5H117z"/><path stroke="#D1D1D1" stroke-width="1.5" fill="#FFF" d="M.8 34.8h358.5v214.7H.8z"/><path stroke="#D1D1D1" stroke-width="1.5" fill="#F5F5F5" d="M14.3 46h331.5v183.1H14.3z"/><g transform="translate(35 61)"><rect stroke="#C6C6C6" stroke-width=".6" fill="#FFF" x=".3" y=".3" width="289.4" height="151.4" rx="1.8"/><path d="M.3 15.3h233.4V1.8c0-.8-.7-1.5-1.5-1.5H1.8C1 .3.3 1 .3 1.8v13.5z" stroke="#C6C6C6" stroke-width=".6" fill="#EDEDED"/><rect stroke="#C3C3C3" stroke-width=".6" fill="#FFF" x="41.7" y="3.3" width="150.6" height="9" rx=".6"/><path d="M46.8 7.6h-.1-.1a6.3 6.3 0 0 0-.3 0h-.5V8l.1.1.2.1a6.3 6.3 0 0 1 .5.2h.2v.3l.1.2v.3l-.2.3-.3.2a1.3 1.3 0 0 1-.7 0 1.5 1.5 0 0 1-.4-.1l-.2-.2.1-.2H45.5a2.3 2.3 0 0 0 .3 0l.2.1h.2l.2-.2v-.2l-.2-.1H46a6.4 6.4 0 0 1-.4-.2l-.2-.2-.2-.2V8a.7.7 0 0 1 .2-.6l.3-.1.4-.1h.5l.3.3-.1.2zm.6 2V6h.6v1.4l.3-.2.4-.1h.4l.2.3c.1 0 .2.1.2.3V9.6H49V8l-.1-.3-.4-.1h-.2l-.3.2v1.8h-.6zm3.8-2.5h.5a1 1 0 0 1 .6.7l.1.6v.5l-.3.4a1 1 0 0 1-.4.2l-.5.1h-.5a1 1 0 0 1-.6-.7l-.1-.5v-.6l.3-.4.4-.2.5-.1zm0 2l.4-.1.2-.6c0-.3 0-.5-.2-.6 0-.2-.2-.2-.4-.2s-.4 0-.5.2a1 1 0 0 0-.1.6l.1.6.5.2zm1.7 1.3V7.1h.4v.1l.1.3.4-.3a1 1 0 0 1 .8 0l.3.2.2.4a2 2 0 0 1 0 1l-.2.5a1 1 0 0 1-1.2.3.9.9 0 0 1-.2-.2v1h-.6zM54 7.6h-.3l-.2.3v1a.6.6 0 0 0 .4.3h.3l.2-.2v-.3l.1-.4V8l-.1-.3-.2-.1H54zm1.5.3h1.3v.5h-1.3v-.5zm1.8 1.7V6h.6v1.4l.3-.2a1 1 0 0 1 .8 0c.2 0 .2.1.3.2l.2.4a2 2 0 0 1 0 1l-.2.5a1 1 0 0 1-.8.3.9.9 0 0 1-.4 0l-.1-.2h-.1l-.1.2h-.5zm1.2-2h-.3l-.3.3v1a.6.6 0 0 0 .5.3h.2l.2-.2.1-.3v-.4V8v-.3l-.2-.1h-.2zM60.7 6v3.6H60V6h.6zm1.7 1.1h.5a1 1 0 0 1 .6.7l.1.6v.5l-.3.4a1 1 0 0 1-.4.2l-.5.1h-.5a1 1 0 0 1-.6-.7l-.1-.5v-.6l.3-.4.4-.2.5-.1zm0 2l.5-.1.1-.6-.1-.6c-.1-.2-.3-.2-.5-.2s-.4 0-.5.2a1 1 0 0 0-.1.6l.1.6.5.2zm2.5-2h.3l.3.1h.7V7.5H66l-.3.1a.8.8 0 0 1 0 .3.7.7 0 0 1-.2.6l-.3.1a1.3 1.3 0 0 1-.6 0l-.2.2.1.1h.4a5.3 5.3 0 0 1 .6.2h.3l.2.2v.6l-.3.3-.4.2H65a2 2 0 0 1-.5 0l-.3-.1-.2-.2v-.3-.3l.3-.2-.1-.1V9v-.1-.1l.1-.2h.2a.7.7 0 0 1-.4-.7.7.7 0 0 1 .2-.6l.3-.2h.4zm.7 2.6v-.1h-.2l-.2-.1a3.2 3.2 0 0 0-.4 0h-.4v.4l.3.1h.7l.1-.2zm-.7-1.4h.2l.2-.1v-.1-.2-.3h-.7l-.1.3v.2a.4.4 0 0 0 .2.2h.2zm1.5 1a.4.4 0 0 1 .1-.3.4.4 0 0 1 .3 0 .4.4 0 0 1 .2 0 .4.4 0 0 1 .1.4v.1l-.2.1h-.1a.4.4 0 0 1-.3 0v-.2-.1zm3-1.6h-.2a2.9 2.9 0 0 0-.3-.1h-.5l-.2.2V8l-.1.4v.3l.1.3.2.1h.3a.6.6 0 0 0 .4 0V9h.2l.2.2a1 1 0 0 1-.4.4h-.3-.2a1 1 0 0 1-.4 0 1 1 0 0 1-.4-.3l-.2-.4-.1-.5v-.5l.3-.4c0-.2.2-.2.4-.3l.5-.1h.5l.3.3-.1.3zM71 7h.5a1 1 0 0 1 .6.7V9l-.2.4a1 1 0 0 1-.4.2l-.5.1h-.5a1 1 0 0 1-.7-.7v-.5-.6l.3-.4.4-.2.5-.1zm0 2l.4-.1.2-.6c0-.3 0-.5-.2-.6 0-.2-.2-.2-.4-.2s-.4 0-.5.2a1 1 0 0 0-.1.6l.1.6.5.2zm1.7.5V7.1h.3l.2.1v.2l.1-.1a.9.9 0 0 1 .4-.2h.2l.4.1.2.4a.8.8 0 0 1 .3-.4h.2a1 1 0 0 1 .6 0l.3.1.2.3v2h-.6V8v-.3l-.4-.1H75a.4.4 0 0 0-.2.2v1.8H74V8l-.1-.3-.3-.1h-.2l-.2.2v1.8h-.6z" fill="#2D2D2D"/><circle fill="#FF6059" cx="18" cy="7.8" r="1.8"/><circle fill="#FFC02F" cx="12" cy="7.8" r="1.8"/><circle fill="#2AD043" cx="6" cy="7.8" r="1.8"/></g><g fill="#D1D1D1"><path d="M54 95h60v10H54zM54 114h78v60H54z"/><path opacity=".8" d="M54 177h24v14H54z"/><path opacity=".6" d="M81 177h24v14H81z"/><path opacity=".4" d="M108 177h24v14h-24z"/><path d="M152 114h154v10H152z"/><path opacity=".8" d="M152 130h94v6h-94zM256 130h50v6h-50z"/><path opacity=".7" d="M152 142h134v6H152z"/><path opacity=".6" d="M152 154h74v6h-74z"/><path opacity=".5" d="M152 166h84v6h-84z"/><path opacity=".4" d="M152 178h124v6H152z"/></g><path stroke="#D1D1D1" stroke-width="1.5" fill="#FFF" d="M.8 246.4h358.5v36.8H.8z"/><g><path fill="#EBF5F2" d="M217.2 86.3l-12.4-.4-5.6 3.8 18.5.5L237.6 78l-5.4-4.9z"/><path fill="#D7E1DE" d="M217.3 89.4l-9.5.5 9.9.3 12.1-7.4z"/><path fill="#FFFFF5" d="M217.4 87.3l9.4-9.4-9.6 8.4-7.7-.2z"/><g transform="translate(219 58)"><rect stroke-opacity=".3" stroke="#797979" stroke-width="2" fill="#FFF" x="-1" y="-1" width="117" height="36" rx="3"/><rect fill="#38B0E4" x="6" y="6" width="23" height="23" rx="1"/><path d="M13.7 16.8h5.8l-1.7-2 1.7-2h-5.8v4zM23 11l-2.8 3.8 2.8 3.8h-9.3V25H12V11h11z" fill="#FFF"/><path fill="#91929B" d="M36 12.5h64V8H36z"/><path fill="#D1D1D1" d="M36 19.5h36V15H36zM36 26.5h56V22H36z"/></g><path d="M213.3 148.3l-5.1-1.7c-1 1.6-1.8 3.6-2.7 5.2a39 39 0 0 0 14.9 5.3c.1-3.7-1.6-6-7.1-8.8M166 148.4c4.8 3.9 5.9 6.6 4.9 10.1a39 39 0 0 1-13.2-8.5l3.7-4.5 4.6 2.9" fill="#000"/><path d="M161 114.6l7 18.6-8.4 13.8s1.4 1.2 3 1.2c1.8 0 2.8-1.1 2.8-1.1l9.4-14.4-6.5-13.3c14.3 6.1 24.6 3.8 37.4-2l5.3 12-4 18.3s1.3 1 3.5 1c2 0 2.8-1 2.8-1l4-18.7-6.7-19.8c0-.2-49.7 5.4-49.7 5.4" fill="#567483"/><path d="M154.7 92.6l6.2 22c14.3 1.4 35 3.7 49.7-5.4-1.9-6-3.9-17.4-6.2-24.7l-49.7 8z" fill="#EBF5F2"/><path d="M162.8 93.3l7.9-3.3-16 2.6 6.2 22c.7 0 1.3 0 2 .2l-.1-21.5z" fill="#FFFFF5"/><path fill="#38B0E4" d="M185.6 94.4l1.3-5.7-7.3 2.3 5.3 4.8 4 16.3 7.1 3 2.1-6z"/><path fill="#000" d="M188.7 16.5l4.4-.5 7.8 5.1.6 11.5z"/><path d="M205.3 37c-.7-1.2-1.8-1.7-2.8-1.6-4.3-14.2-13.8-24.2-33.9-21.6-21 2.7-26.7 15.4-25.7 32.2-2-1.4-4-.7-4.7 1.5-.7 2.2.4 5 2.3 6.4 1.2.8 2.4.9 3.4.3 2 12 6.5 25.4 10.8 38.4a93.1 93.1 0 0 0 50.1-6.7c.3-12.1 1.8-28-.4-41.9l.3-.3a6.1 6.1 0 0 0 .6-6.7" fill="#EFCAA6"/><path d="M161.6 22.6c-4 .9-7.7 2.1-11 4.2L143 46c-2-1.4-4-.7-4.7 1.5-.7 2.2.4 5 2.3 6.4 1.2.8 2.4.9 3.4.3 2 12 6.5 25.4 10.8 38.4 2.8.3 5.5.6 8.2.7-8.9-28.1-14.8-55.6-1.3-70.7" fill="#FFDEBA"/><path d="M144.4 50.5c-.7-2-3.3-2.8-4.2-.3v-.3c.4-1.3 1.8-2.2 3-1.3-1.3-1.4-3.7-1.8-4.6.4 1.6-4.4 6-1 5.8 1.5M191 9.5c1-2.4 1.2-5.5.2-9.3-14.9 16.2-50.4-6.8-47.9 30.6l-2.8 4L143 46l7.8-19.2c17.2-11 47.5 1.2 53.3-20.7-3.4 2.1-8 3-13 3.4" fill="#000"/><path d="M143.3 30.8l-2.8 4L143 46 142 35l3.6-3.7c-1.3-19 7-22.8 17.3-24-11.4.7-20.8 3.5-19.5 23.4" fill="#FFF" opacity=".4"/><path d="M169.7 73.8l1 1.8-.3-2 3.5-1c-3 .1-6-.1-8.4-.9l.1-2.8-.9 2.5c-4.5-1.6-6.9-5.1-4.5-10.7 15.2 2.2 28.8 1.4 39.2-4.7.2 4.4-2.5 8-6.6 10.8l-2.2-2.6 1.3 3.2a31 31 0 0 1-4.7 2.4l-.8-1.3.3 1.4c-1.6.7-3.3 1.2-5 1.6 5-.3 9.5.4 12.6 2-9.7 7.3-25.6 9.6-35 5.7 2.9-2.3 6.5-4.1 10.4-5.4" fill="#F1F5F7"/><path d="M159.5 62.6l.7-2c15.2 2.3 28.8 1.5 39.2-4.6a52.5 52.5 0 0 1-39.9 6.6" fill="#DDE1E3"/><path d="M154.3 59.7c-3.8 7.6-3 13 .5 16.5-4.5-3.5-6-9.4-1.6-17.8 3 1 5.8 1.8 8.5 2.5l-7.4-1.2zM192.6 59.1c3.5-1.6 6.7-3.6 9.8-6.1 2 7 0 12.8-4.3 17.2 3.8-4.2 5.6-9.6 4-15.9a37 37 0 0 1-9.5 4.8" fill="#000"/><path d="M202.1 54.3l-2.7 1.7c.2 4.4-2.5 8-6.6 10.8l-2.2-2.6 1.3 3.2a31 31 0 0 1-4.7 2.4l-.8-1.3.3 1.4c-1.6.7-3.3 1.2-5 1.6 5-.3 9.5.4 12.6 2 6.2-4.5 10-11 7.8-19.2m-36.6 17.4l.1-2.8-.9 2.5c-4.5-1.6-6.9-5.1-4.5-10.7l-5.9-1c-5.2 10.3-1.8 16.6 5 19.5 2.9-2.3 6.5-4.1 10.4-5.4l1 1.8-.3-2 3.5-1c-3 .1-6-.1-8.4-.9" fill="#732706"/><path d="M180.1 84.4c-3.8.5-7.5.2-10.6-.8 3 2 7.2 2.9 11.8 2.3 6.4-.9 11.4-4.3 12.8-8.5-2.8 3.6-8 6.3-14 7M192.3 40.8a10 10 0 0 0-10.7 7c2.6-3.6 6.8-5.6 11.5-5a15 15 0 0 1 8 3.7c-2-3-5.2-5.3-8.8-5.7M160.3 45.7a20 20 0 0 0-8.6 5.8c1.9-3.6 5.2-6.7 9.2-8 5.6-1.9 11 0 13.4 4.4-3.5-3-8.6-4-14-2.2M184.7 53.8a4.1 4.1 0 0 1-5.6 3.2h.8c2-.3 3.8-1.5 4.8-3.2" fill="#000"/><path d="M184.7 53.8s-1.2 1.5-2.7 2.3c-1.6.8-3 1-3 1l.9-.1c2-.3 3.8-1.5 4.8-3.2" fill="#FFDEBA"/><path d="M192.2 29.8c2.2 1.2 3.8 3 4.9 5.2-.5-2.8-2.1-5.4-4.8-7a9.5 9.5 0 0 0-11.1 1.6c3.4-1.7 7.5-1.8 11 .2M157.3 33.9c-2.4 1.7-4 4-5 6.4.2-3 1.9-6.1 4.7-8.2 4-2.8 9-3 12.4-.7-3.9-1-8.4-.3-12 2.5" fill="#000"/><path d="M194.1 77.4c-2.8 3.6-10 5.4-13.7 6.1-2.6.6-7.8 1-11 0 3.2 1 6.9 1.4 10.7 1 6-.8 11.2-3.5 14-7" fill="#FFDEBA"/><path fill="#EBF5F2" d="M195.2 100.4l-12.1-2.8-6.2 2.6 18 4 21.9-8-4.4-5.9z"/><path fill="#D7E1DE" d="M194.7 103.4l-9.5-1.3 9.7 2.2 13.3-5z"/><path fill="#FFFFF5" d="M195.2 101.4l11-7.4-11 6.4-7.6-1.7z"/><path fill="#EFCAA6" d="M215.5 86l5.1-4.7 2.7 2.3-6.1 4.5z"/><path fill="#EFCAA6" d="M211.2 89.1l2.8 9 7.1 2-3.6-18.3z"/><path fill="#FFDEBA" d="M212.4 90l.7 5.2-1.9-6 6.3-7.4.4 1.9z"/><g><g transform="translate(331.1 71.3)"><mask id="b" fill="#fff"><use xlink:href="#a"/></mask><path fill="#EFCAA6" mask="url(#b)" d="M1 5l-.9 9.5 5 4.3L8.8.1z"/></g><path fill="#FFDEBA" d="M332.8 77.5l-1.3 5.2.7-6.5 7.6-4.8-.3 1.9z"/></g></g></g></svg>