<svg xmlns="http://www.w3.org/2000/svg" width="1502" height="166" viewBox="0 0 1502 166">
  <g fill="none" fill-rule="evenodd">
    <g transform="translate(0 2.126)">
      <path fill="#2E2F39" d="M656.626549 83.7209302C606.116814 28.1727575 553.304592 87.2576834 532.213097 100.199336 511.121603 113.140108 408.843675 104.843173 372.204234 75.9520844 335.565672 47.0609962 307.173006 66.8293237 284.323887 80.9137402 261.474769 94.997277 162.168984 125.805289 134.400274 79.6662884 106.631564 33.5272883 59.3488282 43.9432466 33.8632727 65.0689916 22.4228948 74.55244 12.2198844 84.7414289 0 89.8315247L0 157.493906 825.20471 157.493906 825.20471 57.1470571C804.526258 56.2673309 772.941745 80.0331343 761.517186 90.3338484 750.092626 100.633683 707.136283 139.269103 656.626549 83.7209302zM1128.00122 88.2189124C1037.4528 13.7307355 932.904897 90.858091 932.904897 90.858091L1090.21229 130.44577C1090.21229 130.44577 1218.54964 162.707089 1128.00122 88.2189124M1480.26539 132.386927C1475.8288 131.435534 1473.06051 130.739642 1473.06051 130.739642L1315.75311 91.1519624C1315.75311 91.1519624 1398.32838 30.2343126 1480.26539 68.9635564L1480.26539 132.386927z"/>
      <path fill="#2E2F39" d="M1276.34819,88.8523654 C1273.60718,87.7096011 1217.24517,100.827987 1216.48708,99.1362126 C1178.10121,13.4732164 1100.58574,88.8523644 1100.58574,84.4475763 L1090.9188,110.839362 L1200.77034,128.433886 C1200.77034,128.433886 1244.21178,129.67518 1276.34819,125.768316 L1276.34819,88.8523654 Z"/>
      <path fill="#484A55" d="M440.498053,63.255814 C339.744425,32.9568106 363.404248,153.700767 253.565722,78.0451929 C178.032371,26.0186476 158.654877,32.2281726 119.108325,47.2538961 C79.6478974,62.2470698 39.1082879,86.5072792 0.000263643677,73.8673732 L0.000263643677,153.700767 L825.204974,153.700767 L825.204974,97.3982896 C753.611654,24.3810148 679.788788,43.7349913 601.574497,86.5794168 C544.69601,117.73668 519.004306,86.8645045 440.498053,63.255814 Z"/>
      <path fill="#FFFFFF" d="M441.631282,86.3090869 C414.694807,102.936792 354.921512,129.64264 308.051818,80.4527496 C249.488648,18.9897988 207.744187,46.0792077 162.75603,67.4328018 C120.087059,87.684099 105.670421,105.061994 37.5000879,73.2513109 C23.0000879,66.4850992 15.5000879,59.9837395 8.78812263e-05,48.9837395 L0,156.578977 L825.20471,156.578977 L831,30.8737542 C753,25.8737542 700.062723,132.743675 599.816609,73.2513109 C525.117567,28.9201482 472.934574,66.9850212 441.631282,86.3090869 Z"/>
      <path fill="#484A55" d="M1053.95589 91.3230154C980.495969 18.8520506 863.253626 59.6528721 863.253626 59.6528721 863.253626 59.6528721 930.335123 132.508277 977.499219 137.068778 1024.66332 141.629279 1127.4158 163.79398 1053.95589 91.3230154M1291.85402 79.2203011C1239.16307 33.505329 1130.15256 92.4161941 1130.15256 92.4161941 1130.15256 92.4161941 1216.18653 119.299747 1219.79141 119.687706 1223.3963 120.075666 1344.54497 124.935273 1291.85402 79.2203011"/>
      <path fill="#FFFFFF" d="M1055.38761,67.6150214 C1002.83903,113.74693 980.589702,93.224364 898.275752,49.1694352 C835.744745,15.7020113 788.42422,38.6127208 788.42422,38.6127208 L785.675735,156.467368 L1307.67264,156.467368 L1307.67264,108.082427 L1274.27777,67.6150214 C1223.96577,118.917135 1190.96637,93.7142514 1171.87083,77.3878672 C1126.89876,34.551495 1107.93619,21.4831126 1055.38761,67.6150214 Z"/>
      <path fill="#FFFFFF" d="M552.86649,29.7984071 L535.466886,29.7984071 L540.348688,23.6183305 L535.466886,17.4954361 L552.86649,17.4954361 L552.86649,29.7984071 Z M524.763831,12.2056425 L533.270734,23.6183305 L524.763831,35.0345374 L552.86649,35.0345374 L552.86649,54.4325002 L558.156061,54.4325002 L558.156061,12.2056425 L524.763831,12.2056425 Z" transform="matrix(-1 0 0 1 1082.92 0)"/>
      <path fill="#FFFFFF" d="M851.926647,13.6611154 L838.584221,13.6611154 L842.327702,8.92208738 L838.584221,4.22690798 L851.926647,4.22690798 L851.926647,13.6611154 Z M830.376867,0.170569809 L836.90016,8.92208738 L830.376867,17.6763033 L851.926647,17.6763033 L851.926647,32.5511174 L855.982814,32.5511174 L855.982814,0.170569809 L830.376867,0.170569809 Z" transform="matrix(-1 0 0 1 1686.36 0)"/>
      <path fill="#484A55" d="M168.333674,25.4491626 L159.641342,25.4491626 L162.080046,22.3586844 L159.641342,19.2981169 L168.333674,19.2981169 L168.333674,25.4491626 Z M154.293769,16.6527803 L158.543705,22.3586844 L154.293769,28.066348 L168.333674,28.066348 L168.333674,37.7662091 L170.976262,37.7662091 L170.976262,16.6527803 L154.293769,16.6527803 Z" transform="matrix(-1 0 0 1 325.27 0)"/>
      <path fill="#494B56" d="M1243.3747,50.9898672 L1234.68237,50.9898672 L1237.12107,47.8993891 L1234.68237,44.8388216 L1243.3747,44.8388216 L1243.3747,50.9898672 Z M1229.3348,42.1934849 L1233.58473,47.8993891 L1229.3348,53.6070527 L1243.3747,53.6070527 L1243.3747,63.3069138 L1246.01729,63.3069138 L1246.01729,42.1934849 L1229.3348,42.1934849 Z" transform="matrix(-1 0 0 1 2475.352 0)"/>
      <path fill="#494B56" d="M713.517128,40.0850407 L704.824796,40.0850407 L707.2635,36.9954423 L704.824796,33.9339951 L713.517128,33.9339951 L713.517128,40.0850407 Z M699.477224,31.2886584 L703.72716,36.9954423 L699.477224,42.7031059 L713.517128,42.7031059 L713.517128,52.4020872 L716.159717,52.4020872 L716.159717,31.2886584 L699.477224,31.2886584 Z" transform="matrix(-1 0 0 1 1415.637 0)"/>
      <path fill="#494B56" d="M412.398504,47.8337375 L403.706172,47.8337375 L406.144876,44.744139 L403.706172,41.6826918 L412.398504,41.6826918 L412.398504,47.8337375 Z M398.358599,39.0373552 L402.608536,44.744139 L398.358599,50.4518026 L412.398504,50.4518026 L412.398504,60.150784 L415.041093,60.150784 L415.041093,39.0373552 L398.358599,39.0373552 Z" transform="matrix(-1 0 0 1 813.4 0)"/>
      <path fill="#2E2F39" d="M341.424798,52.3425843 L334.093191,52.3425843 L336.150133,49.7655556 L334.093191,47.2120079 L341.424798,47.2120079 L341.424798,52.3425843 Z M329.582744,45.0055371 L333.167382,49.7655556 L329.582744,54.526308 L341.424798,54.526308 L341.424798,62.6162115 L343.653708,62.6162115 L343.653708,45.0055371 L329.582744,45.0055371 Z" transform="matrix(-1 0 0 1 673.236 0)"/>
      <path fill="#2E2F39" d="M1052.62735,44.8561289 L1043.93502,44.8561289 L1046.37373,41.7665305 L1043.93502,38.7050833 L1052.62735,38.7050833 L1052.62735,44.8561289 Z M1038.58745,36.0597466 L1042.83739,41.7665305 L1038.58745,47.4741941 L1052.62735,47.4741941 L1052.62735,57.1731755 L1055.26994,57.1731755 L1055.26994,36.0597466 L1038.58745,36.0597466 Z" transform="matrix(-1 0 0 1 2093.857 0)"/>
      <path fill="#2E2F39" d="M1435.47557,45.1500003 L1426.78324,45.1500003 L1429.22194,42.0604019 L1426.78324,38.9989547 L1435.47557,38.9989547 L1435.47557,45.1500003 Z M1421.43567,36.353618 L1425.6856,42.0604019 L1421.43567,47.7680655 L1435.47557,47.7680655 L1435.47557,57.4670469 L1438.11816,57.4670469 L1438.11816,36.353618 L1421.43567,36.353618 Z" transform="matrix(-1 0 0 1 2859.554 0)"/>
    </g>
    <g transform="translate(1259.351 .095)">
      <path fill="#484A55" d="M196.289944,94.5737937 C187.279126,91.668353 178.344759,86.8081036 169.516723,79.4303907 C126.458296,43.4415476 85.5264715,53.5561681 44.7334914,95.2303707 C16.8969686,123.667701 35.0794627,136.883932 14.8679519,115.817292 L14.8679519,154.506312 L196.289944,154.506315 L196.289944,94.5737937 Z"/>
      <path fill="#FFFFFF" d="M242.649994,158.161152 L242.649994,51.200605 C194.532578,12.3966183 163.871233,98.9851626 119.775573,84.6747215 C97.3542712,77.3982973 97.2770423,68.5152221 64.776235,57.4043156 C39.5225726,48.7709583 10.1356855,67.5965451 0,87.6590085 L0,158.161152 L242.649994,158.161152 Z"/>
      <path fill="#FFFFFF" d="M238.423711,17.5671199 L221.025115,17.5671199 L225.906634,11.4007388 L221.025115,5.29141327 L238.423711,5.29141327 L238.423711,17.5671199 Z M210.32268,0.0133422053 L218.829969,11.4007388 L210.32268,22.7916466 L238.423711,22.7916466 L238.423711,42.146622 L243.712975,42.146622 L243.712975,0.0133422053 L210.32268,0.0133422053 Z" transform="matrix(-1 0 0 1 454.036 0)"/>
    </g>
    <path fill="#FFFFFF" d="M1321.54964,44.2077421 L1312.85731,44.2077421 L1315.29601,41.1172639 L1312.85731,38.0566965 L1321.54964,38.0566965 L1321.54964,44.2077421 Z M1307.50973,35.4113598 L1311.76055,41.1172639 L1307.50973,46.8249275 L1321.54964,46.8249275 L1321.54964,56.5247886 L1324.19223,56.5247886 L1324.19223,35.4113598 L1307.50973,35.4113598 Z" transform="matrix(-1 0 0 1 2631.702 0)"/>
    <path fill="#FFFFFF" d="M1123.15404,29.0432559 L1114.46171,29.0432559 L1116.90041,25.9527777 L1114.46171,22.8922103 L1123.15404,22.8922103 L1123.15404,29.0432559 Z M1109.11414,20.2468736 L1113.36495,25.9527777 L1109.11414,31.6604413 L1123.15404,31.6604413 L1123.15404,41.3603024 L1125.79663,41.3603024 L1125.79663,20.2468736 L1109.11414,20.2468736 Z" transform="matrix(-1 0 0 1 2234.91 0)"/>
    <rect width="1502" height="20" y="146" fill="#FFFFFF"/>
  </g>
</svg>
