<svg width="588" height="282" xmlns="http://www.w3.org/2000/svg" xmlns:xlink="http://www.w3.org/1999/xlink"><defs><path id="a" d="M25.4 30.7V.2H.2v30.5h25.2z"/><rect id="c" width="180.2" height="87" rx="4"/><rect id="d" width="195.2" height="132" rx="4"/></defs><g fill="none" fill-rule="evenodd"><path stroke="#D1D1D1" stroke-width="1.5" fill="#F5F5F5" d="M294 207.6h58.7v26.6H294z"/><path fill="#91929B" d="M270.8 231.3h105v3.8h-105z"/><path stroke="#D1D1D1" stroke-width="1.5" fill="#FFF" d="M175.9 1.8h298.8v178.5H175.9z"/><path stroke="#D1D1D1" stroke-width="1.5" fill="#FFF" d="M187 11.1h276.4v152.3H187z"/><path fill="#484A55" d="M208 87.5h173v-42H208z"/><path fill="#38B0E4" d="M208 148h173v-17H208z"/><path d="M364.8 140.8h5.8l-1.7-2 1.7-2h-5.8v4zm9.3-5.8l-2.8 3.8 2.8 3.8h-9.3v6.4h-1.7v-14h11z" fill="#FFF"/><path fill="#91929B" d="M208 99.5h51V95h-51z"/><path fill="#D1D1D1" d="M208 107h51v-4.5h-51z"/><path fill="#91929B" d="M208 114.5h51V110h-51z"/><path fill="#D1D1D1" d="M208 122h21v-4.5h-21z"/><path fill="#484A55" d="M208 39h141v-5H208z"/><path fill="#D1D1D1" d="M208 31h21v-4.5h-21z"/><g><path fill="#91929B" d="M269 99.5h51V95h-51z"/><path fill="#D1D1D1" d="M269 107h51v-4.5h-51z"/><path fill="#91929B" d="M269 114.5h51V110h-51z"/><path fill="#D1D1D1" d="M269 122h36v-4.5h-36z"/></g><g><path fill="#91929B" d="M330 99.5h51V95h-51z"/><path fill="#D1D1D1" d="M330 107h51v-4.5h-51z"/><path fill="#91929B" d="M330 114.5h51V110h-51z"/><path fill="#D1D1D1" d="M330 122h36v-4.5h-36z"/></g><g><path fill="#38B0E4" d="M391 95h51V59h-51z"/><path d="M412.4 75h8l-2.3-2.8 2.2-2.8h-7.9V75zm12.8-8l-3.8 5.2 3.8 5.2h-12.8v8.8H410V67h15.2z" fill="#FFF"/><path fill="#91929B" d="M391 137h51v-36h-51zM391 30.5h51V26h-51z"/><path fill="#D1D1D1" d="M391 38h51v-4.5h-51zM391 147.5h51V143h-51z"/><path fill="#91929B" d="M391 45.5h51V41h-51z"/><path fill="#D1D1D1" d="M391 53h31v-4.5h-31z"/></g><path stroke="#D1D1D1" stroke-width="1.5" fill="#FFF" d="M175.9 178h298.8v30.4H175.9z"/><g><path d="M101 165.3" fill="#212120"/><path d="M125.7 182.3l28.4-37-10.3-37.5L61 130.6l10.5 38 54.3 13.7z" fill="#EBF5F2"/><path d="M121.8 193.8l1.6.8 14-4 .5-1.2-20.2-26 2.5-9.5-12.6 3.4 8.7 8.6 5.5 28z" fill="#38B0E4"/><path fill="#754D33" d="M108.8 28.5l7.2-2 14.3 6.8 3.6 19z"/><path d="M141.3 58.8c-1.5-1.8-3.3-2.4-5-2-10.6-22.7-28.7-37.3-61.6-28.2-34.4 9.5-41 32.1-35.4 59.8-3.5-1.8-6.9-.1-7.5 3.7-.6 3.8 1.8 8.4 5.4 10.1 2.2 1.1 4.3 1 5.7-.3 6.2 19.6 16.8 41 27 61.5 30.8 0 57.9-8.9 83-22.7-2.3-20.4-4.4-47.3-11.4-70l.4-.5c2.1-3.3 1.8-8.5-.6-11.4" fill="#EFCAA6"/><path d="M76.5 69.4A15.2 15.2 0 0 1 96 82.6c1.3 9.9-5.4 20-15 22.6a15.2 15.2 0 0 1-19.4-13.1C60.3 82 67 72 76.5 69.4" fill="#F1F5F7"/><path d="M83.5 101.4a15.2 15.2 0 0 1-19.6-13.1c-.5-4 .3-8.1 2-11.7-3.3 4.4-5 10-4.3 15.5 1.2 9.9 10 15.8 19.5 13.1a20.9 20.9 0 0 0 12.9-11c-2.7 3.4-6.3 6-10.5 7.2" fill="#DDE1E3"/><path d="M85.3 95.8c-2.8.7-5.3-1-5.7-4a6.2 6.2 0 0 1 4.4-6.6c2.2-.6 4.3.4 5.2 2.3a6.8 6.8 0 0 0-8.8-6 9.6 9.6 0 0 0-6.7 10.2 6.8 6.8 0 0 0 8.8 6 8.9 8.9 0 0 0 4-2.4l-1.2.5" fill="#95A6B1"/><path d="M113.8 67.8a10.3 10.3 0 0 0-6.9 14.5 14.5 14.5 0 0 0 16.7 8.1c6.4-1.8 9.5-8.3 6.8-14.5a14.5 14.5 0 0 0-16.6-8" fill="#F1F5F7"/><path d="M130.4 75.9a14.6 14.6 0 0 0-10.3-8.2c3.4 1.3 6.4 4 7.9 7.5 2.7 6.2-.4 12.7-6.9 14.5-2 .5-4.2.6-6.3.1 2.8 1.1 5.9 1.4 8.8.6 6.4-1.8 9.5-8.3 6.8-14.5" fill="#DDE1E3"/><path d="M119.5 85.8c-1.2.3-2.7-.4-3.2-1.6a2 2 0 0 1 1.3-2.8 2.8 2.8 0 0 1 3.4 1.8l-.3-1c-.8-2-3-3-5-2.5a3 3 0 0 0-2 4.3c.8 1.9 3 3 5 2.4.6-.2 1.2-.5 1.5-1l-.7.4" fill="#95A6B1"/><path fill="#754D33" d="M63.2 61.4l13.6-8.5.5 5L61.2 72zM110.4 48.8l-16-1.5 1.8 4.8 20.8 5.2z"/><path d="M110.7 91.8a6.9 6.9 0 0 1-8.6 6.6 11.2 11.2 0 0 0 8.6-6.6" fill="#D0A486"/><path d="M110.7 91.8s-1.6 2.7-4 4.4a15.8 15.8 0 0 1-4.6 2.2 11.2 11.2 0 0 0 8.6-6.6" fill="#FFDEBA"/><path d="M131.6 77c-.9-2.2-2.4-4-4.2-5.5 1.3 1.3 2.3 2.7 3 4.4 2.7 6.2-.4 12.7-6.8 14.5-4.3 1.2-9 0-12.4-2.6 3.5 3.4 8.8 5 13.6 3.7 6.5-1.8 9.5-8.3 6.8-14.6M96 82.6c1.3 9.9-5.4 20-15 22.6a15.2 15.2 0 0 1-19.4-13.1c-.8-5.6 1-11.2 4.4-15.6-4 4.7-6.2 11-5.4 17.2a16 16 0 0 0 20.5 13.9c10-2.8 17-13.4 15.7-23.8-.5-3.6-1.8-6.7-3.9-9 1.6 2 2.7 4.7 3.1 7.8" fill="#DBB692"/><path d="M119.1 146.9c.4-1.4.5-2.8 0-4.1-1-2.2-1.9-1.4-1.6.5.2 1.3.9 2.5 1.6 3.6m-19.5-6.4c2.2 4.8 4.8 10.3 9.9 13 3.6 2 6.7-.6 8.4-3.6l.6-1.3-.2-.3c-1.3-1.6-4.3-6.8-1.2-8.3 4.4-2.2 4 6.4 3.1 8.3a7 7 0 0 0 2.7 2c4 1.4 5.9-4.2 6.6-6.7a26 26 0 0 0 .5-11.7c2.3 4.2 2 19-5.7 19.8-1 0-2-.3-3-.7-.6-.3-1.2-.8-1.7-1.3l-.4.8c-1.1 1.7-2.7 3.6-4.7 4.5-4.5 1.8-8.6-2.2-10.7-5.2-2-3-3.5-5.8-4.2-9.3" fill="#C5997C"/><path d="M111 16.2A24 24 0 0 0 109.2.6C88.1 31 23.5 1 36.5 63l-3.8 7.2 6.6 18.2 8.5-33.9c26.2-22.4 79.6-9 84.1-47.1a48 48 0 0 1-20.8 8.8" fill="#754D33"/><path d="M72.6 96.4a1.6 1.6 0 1 1 .9 3.1 1.6 1.6 0 0 1-.9-3.1m1.5-3.2a1 1 0 1 1 .5 1.8 1 1 0 0 1-.5-1.8M114 86.5a.7.7 0 1 1 .3 1.4.7.7 0 0 1-.3-1.4m.6-1.4a.4.4 0 1 1 .2.8.4.4 0 0 1-.2-.8" fill="#FFF"/><path d="M65 45a54.1 54.1 0 0 0-17.2 9.5l-8.5 33.9c-3.5-1.8-6.9-.1-7.5 3.7-.6 3.8 1.8 8.4 5.4 10.1 2.2 1.1 4.3 1 5.7-.3 6.2 19.6 16.8 41 27 61.5 4.8 0 9.4-.2 13.9-.6C62.4 117.8 46 73.4 65 45" fill="#FFDEBA"/><path d="M43 95.6c-1.7-3.1-6.3-3.8-7.2.5v-.5c.4-2.3 2.4-4 4.8-2.9-2.7-2-6.8-2-7.8 1.9 1.7-8 9.7-3.1 10.2 1M61.6 111c-3.4 14.3.1 23.1 7.4 27.6-9-4.2-13.7-13.5-9.8-29.4 5.3.5 10.4.8 15.2.8l-12.9 1zM125.6 94.6c5.2-4 9.8-8.7 13.9-14.1a29 29 0 0 1-.3 30.6c4.7-8.6 5.6-18.4.3-28.3-4 4.6-8.6 8.5-13.9 11.8" fill="#D0A486"/><path d="M139.5 82.8a60.2 60.2 0 0 1-11.3 10c-2 2.7-4.4 5-7 7.3l-2.1-1.8-.2.1 1.7 2.2a62.4 62.4 0 0 1-28 13l-1-2.4.4 2.5c-5 .8-9.6.8-13.8 0l.3-3.5-1.1 3.2c-2.7-.6-5.2-1.6-7.3-3l-8.6.5v.1c-3.7 15.6 1 24.6 9.5 28.6 2.2-1.7 4.5-3.3 6.9-4.7l3 2.6-2.2-3a57.3 57.3 0 0 1 45.1-6.6c4-2.9 7.5-6.1 10.5-9.7 8.5-10.1 12-22.6 5.2-35.4" fill="#732706"/><path d="M109.8 107.6c-5.5 3-11.5 5-17.3 6l-1-2.4.5 2.5c-4.5.7-8.8.8-12.7.1a29.3 29.3 0 0 0-2.2 21.6l.8-.5 3 2.6-2.2-3a62 62 0 0 1 36.1-8.5c.2-2 .2-4 0-6a23 23 0 0 0-5-12.4" fill="#550900"/><path d="M111.8 111.9a45 45 0 0 0-6.5.9c4 .5 7.5 1.5 10.1 3-5-1.4-11.4-2.2-17-1-7.7 1.5-14.4 13.8-14.5 16.8-.1 4.8 11.8-.6 23.4-1.3 11.7-.8 19.4-5.7 19.5-10.6.1-4.8-3.3-8.6-15-7.8" fill="#BE8077"/><path d="M78.7 134.4l2.1 3.1-3-2.6c-2.3 1.4-4.6 3-6.8 4.7a26.1 26.1 0 0 0 6.8 2c13.4 2.3 32-3.4 46-13.7a57.3 57.3 0 0 0-45.1 6.5M71.8 110.3l-1.7.1c2.1 1.4 4.6 2.4 7.3 3l1.1-3.2-.3 3.4c4.2.9 8.9.9 13.8 0l-.4-2.4 1 2.4a62.4 62.4 0 0 0 28-13l-1.7-2.2a131 131 0 0 1-47.1 11.9M119 98.3l2.2 1.8c2.6-2.2 5-4.6 7-7.2-2.8 2-5.9 3.8-9.1 5.4" fill="#F1F5F7"/><path fill="#567483" d="M172.6 129.1l11-34 11.4 4.7-16.6 32.8-25.3 19.6-.2-11.5z"/><path fill="#193540" d="M95.5 165l5.2 12 9.8 5.6-8.9-7.6zM138 165l-3.8 11.1 5.7-9.9-1.7-13z"/><path fill="#EFCAA6" d="M181.8 97.7l-3.4-4.9.8-6.4 6 6.3z"/><path fill="#FFF" opacity=".2" d="M172.6 129.1l-19.7 11.6.5 1.7 20.2-12.5 4.7-18.4z"/><path d="M154.7 147.3l-1.8-6.6c-6 3.3-12.2 6.3-18.5 9l-9.2 31.6L97.6 161c-8.9 1.6-18 2.4-27.6 2.4l17.7 63C117 210.2 147 217.7 170 205l-15.3-57.7z" fill="#567483"/><g transform="rotate(-9 571.4 -1084.2)"><mask id="b" fill="#fff"><use xlink:href="#a"/></mask><path fill="#EFCAA6" mask="url(#b)" d="M11.8 30.7L.2 24.4 10.5.2l14.9 20.6z"/></g><path fill="#FFDEBA" d="M187 74.6l-6.4 25.5 12.5 4.5-10.3-6z"/><g><path fill="#567483" d="M47.3 164l-27-23.7-7.3 9.9 31 19.7 31.8 3.9-5.7-10z"/><path fill="#EFCAA6" d="M16.9 153.3l8.4-10.2-18.6-18.6-6.1 24.6z"/><path fill="#EFCAA6" d="M23 141.7l.5-6-4-5-1.9 8.4z"/><path fill="#FFDEBA" d="M6.7 124.5l18.6 18.6-8.4 10.2 5.8-10.3z"/><path d="M70.5 165.2l17 61.5 8.7-4.8L83.9 163c-4.5.4-9.1.7-13.8.7l-22.8.1L28 147.1l19.4 18.5 23-.4z" fill="#FFF" opacity=".3"/></g></g><g transform="translate(44 190)"><use fill="#FFF" xlink:href="#c"/><rect stroke="#FFF" stroke-width="3" x="-1.5" y="-1.5" width="183.2" height="90" rx="4"/><rect stroke="#D1D1D1" stroke-width="1.5" stroke-linejoin="square" x=".8" y=".8" width="178.7" height="85.5" rx="4"/><ellipse stroke="#D1D1D1" stroke-width="3" cx="12" cy="43.5" rx="6" ry="6"/><path stroke="#D1D1D1" stroke-width="1.5" fill="#FFF" d="M21.9 4.8h136.5v76.5H21.9z"/><path fill="#38B0E4" d="M95 69h52V32H95z"/><path d="M117.3 49h8l-2.3-2.8 2.2-2.8h-7.9V49zm12.8-8l-3.8 5.2 3.8 5.2h-12.8v8.8H115V41h15.2z" fill="#FFF"/><path fill="#484A55" d="M34 26.5h113V16H34z"/><g><path fill="#91929B" d="M34.2 37h52v-5h-52z"/><path fill="#D1D1D1" d="M34.2 45h52v-5h-52z"/><path fill="#91929B" d="M34.2 53h52v-5h-52zM34.2 69h22v-5h-22z"/><path fill="#D1D1D1" d="M34.2 61h36.7v-5H34.2z"/></g><g transform="rotate(90 74.4 101.3)" fill="#91929B"><rect x="7.6" y="7.5" width="18" height="1.5" rx=".8"/><ellipse cx="1.5" cy="7.5" rx="1.5" ry="1.5"/><ellipse cx="16.6" cy="3" rx="1.5" ry="1.5"/></g></g><g><g transform="rotate(-90 364 -87)"><use fill="#FFF" xlink:href="#d"/><rect stroke="#FFF" stroke-width="4" x="-2" y="-2" width="199.2" height="136" rx="4"/><rect stroke="#D1D1D1" stroke-width="1.5" stroke-linejoin="square" x=".8" y=".8" width="193.7" height="130.5" rx="4"/><ellipse stroke="#D1D1D1" stroke-width="3" cx="12" cy="66" rx="6" ry="6"/><path stroke="#D1D1D1" stroke-width="1.5" fill="#FFF" d="M23.3 5.3H175v121.5H23.3z"/><g transform="rotate(90 64.6 123)" fill="#91929B"><rect x="6.1" y="1.5" width="9" height="3" rx="1.5"/><ellipse cx="1.5" cy="3" rx="1.5" ry="1.5"/></g></g><path fill="#484A55" d="M467 152h100v-30H467z"/><path fill="#91929B" d="M467 165h45v-5h-45z"/><path fill="#D1D1D1" d="M467 173h45v-5h-45z"/><path fill="#91929B" d="M467 204h45v-5h-45zM467 220h24v-5h-24z"/><path fill="#D1D1D1" d="M467 212h45v-5h-45z"/><path fill="#91929B" d="M522 204h45v-5h-45zM522 220h24v-5h-24z"/><path fill="#D1D1D1" d="M522 212h45v-5h-45z"/><path fill="#91929B" d="M467 181h45v-5h-45z"/><path fill="#D1D1D1" d="M467 189h32v-5h-32z"/><path fill="#38B0E4" d="M467 243h100v-15H467z"/><path d="M516.4 237h4.7l-1.3-1.8 1.3-1.7h-4.7v3.5zm7.6-5l-2.3 3.3 2.3 3.2h-7.6v5.5H515v-12h9z" fill="#FFF"/><path fill="#38B0E4" d="M522 190h45v-30h-45z"/><path d="M541 173.7h6.8l-1.9-2.4 2-2.3H541v4.7zm11-6.7l-3.3 4.3 3.3 4.4h-11v7.3h-2v-16h13z" fill="#FFF"/><path fill="#D1D1D1" d="M467 117h31v-5h-31z"/></g></g></svg>