<svg width="450" height="219" xmlns="http://www.w3.org/2000/svg" xmlns:xlink="http://www.w3.org/1999/xlink"><defs><path id="a" d="M0 10.9V0h19.6V11H0z"/><path id="c" d="M0 16.8V.1h62v16.7z"/><path id="e" d="M0 13V.2h33.4V13z"/><path id="g" d="M67.9 119.7H0V.1h135.7v119.6z"/><path id="i" d="M93 156.3h93V0H0v156.2z"/></defs><g fill="none" fill-rule="evenodd"><rect stroke="#D1D1D1" fill="#FFF" x=".5" y=".5" width="449" height="218" rx="10"/><path d="M28 124.4a15.6 15.6 0 1 1 0-31.2 15.6 15.6 0 0 1 0 31.2zm0-1.8A13.8 13.8 0 1 0 28 95a13.8 13.8 0 0 0 0 27.6z" fill="#D1D1D1"/><path fill="#484A55" d="M52 12h347v195H52z"/><path d="M176.7 206.8a2682 2682 0 0 0 49-8l1.5-4.3-8.6-8a2791 2791 0 0 1-58.7 9.2l-1.4 4.2 7 7h11.2z" fill="#7B6152"/><g transform="translate(52 58.9)"><mask id="b" fill="#fff"><use xlink:href="#a"/></mask><path d="M19.6 5L13 0 0 1.8v9l18.5-2.3L19.6 5" fill="#7B6152" mask="url(#b)"/></g><path d="M128.9 108.1l-7.3-5.9c-19.3 2.7-38.7 5.2-58 7.5l-1.1 3.8 7.2 6c19.3-2.3 38.6-4.8 58-7.5l1.2-3.9" fill="#7B6152"/><g transform="translate(52 90.5)"><mask id="d" fill="#fff"><use xlink:href="#c"/></mask><path d="M62 5.7L55 0 0 7v7.3l3 2.4a4088 4088 0 0 0 57.8-7.3L62 5.7" fill="#7B6152" mask="url(#d)"/></g><path d="M99.5 84.9l-7-5.4L52 84.7v9.7c15.5-1.8 31-3.8 46.4-5.8l1.1-3.7" fill="#7B6152"/><g transform="translate(52 68.8)"><mask id="f" fill="#fff"><use xlink:href="#e"/></mask><path d="M33.4 5.2l-6.8-5A4945 4945 0 0 1 0 3.5V13a4675 4675 0 0 0 32.3-4.1l1-3.7" fill="#7B6152" mask="url(#f)"/></g><path d="M144.2 120.7l-7.5-6.2c-19.4 2.7-38.8 5.3-58.2 7.7l-1.1 3.8 7.4 6.4c19.4-2.4 38.7-5 58.1-7.8l1.3-3.9M209.7 178.1a1796 1796 0 0 0-8.4-7.6c-19.6 3.1-39 6-58.6 8.8l-1.4 4.2 8.3 7.9c19.5-2.8 39-5.8 58.6-9l1.5-4.3M176 147.9l-8-7c-19.4 3-38.8 5.7-58.3 8.3l-1.3 4 7.9 7c19.4-2.5 38.9-5.3 58.4-8.2l1.3-4.1M159.9 134l-7.7-6.6c-19.5 2.8-38.9 5.4-58.3 7.9l-1.2 4 7.6 6.6c19.4-2.4 38.8-5.1 58.3-8l1.3-4M192.6 162.6a1758 1758 0 0 0-8.1-7.3c-19.6 3-39 5.9-58.5 8.5l-1.4 4.1 8.1 7.5c19.5-2.7 39-5.6 58.5-8.6l1.4-4.2" fill="#7B6152"/><path d="M52 66.3l19.6-2.5L65 59l-13 1.7v5.6zM106.9 90.6c-18.3 2.4-36.6 4.8-54.9 7v2.7l4.1 3.3c19.3-2.3 38.6-4.8 58-7.4l-7.2-5.6M52 78.3l33.4-4.2-6.8-5A4945 4945 0 0 1 52 72.3v6zM52 90.9l47.5-6-7-5.4A4600 4600 0 0 1 52 84.7v6.2z" fill="#957C67"/><path d="M70.8 115.7l-1.1 3.8-7.2-6 1.1-3.8 7.2 6" fill="#665948"/><path d="M121.6 102.2l7.3 6-58 7.5-7.3-6c19.3-2.3 38.7-4.8 58-7.5" fill="#957C67"/><path d="M86 128.5l-1.2 3.9-7.4-6.4 1.1-3.8 7.5 6.3" fill="#665948"/><path d="M136.7 114.5l7.5 6.2c-19.4 2.8-38.8 5.4-58.2 7.8l-7.5-6.3c19.4-2.4 38.8-5 58.2-7.7" fill="#957C67"/><path d="M101.6 142l-1.3 4-7.6-6.8 1.2-3.9 7.7 6.7" fill="#665948"/><path d="M152.2 127.4l7.7 6.5c-19.5 2.9-39 5.6-58.3 8l-7.7-6.6c19.4-2.5 38.8-5.1 58.3-8" fill="#957C67"/><path d="M117.6 156.2l-1.3 4-7.9-7 1.3-4 7.9 7" fill="#665948"/><path d="M168 141l8 6.9c-19.5 3-39 5.7-58.4 8.3l-7.9-7c19.5-2.6 39-5.3 58.4-8.2" fill="#957C67"/><path d="M134 171.3l-1.3 4.1-8-7.5 1.3-4 8 7.4" fill="#665948"/><path d="M184.5 155.3l8.1 7.3c-19.5 3.1-39 6-58.5 8.7l-8.1-7.5c19.4-2.6 39-5.4 58.5-8.5" fill="#957C67"/><path d="M151 187.2l-1.4 4.2-8.3-8 1.4-4 8.3 7.8" fill="#665948"/><path d="M201.3 170.5l8.4 7.6a2877 2877 0 0 1-58.7 9l-8.3-7.8c19.5-2.7 39-5.7 58.6-8.8M218.6 186.4l8.6 8.1c-19.6 3.4-39.1 6.6-58.7 9.5l-8.6-8.3c19.6-2.9 39.1-6 58.7-9.3" fill="#957C67"/><g transform="translate(52 87.1)"><mask id="h" fill="#fff"><use xlink:href="#g"/></mask><path d="M135.7 119.7C90.7 75.6 45.4 35.7 0 .1v4.3c43.5 34.5 87 73 130 115.3h5.7z" fill="#BABEBA" mask="url(#h)"/></g><path d="M182 206.8A1643.7 1643.7 0 0 0 52 91.6V96a1646 1646 0 0 1 124.2 110.7h5.9zM232.6 206.8C172.7 148.8 112.6 98 52 54.4v4.2c58.5 42.7 116.7 92 174.5 148.2h6z" fill="#9C9E9F"/><g transform="translate(52 50.6)"><mask id="j" fill="#fff"><use xlink:href="#i"/></mask><path d="M186 156.3A1625.9 1625.9 0 0 0 0 0v3.7a1627.2 1627.2 0 0 1 180.6 152.5h5.4z" fill="#BABEBA" mask="url(#j)"/></g><path d="M116 122.1c-4.3-2.2-8.6.1-9.6 5.2-1 5.1 1.5 11 5.7 13.3 4.2 2.2 8.5 0 9.5-5.2 1.1-5-1.5-11-5.7-13.3M143.6 146.4c-4.2-2.2-8.5.1-9.5 5.2-1 5.1 1.5 11 5.7 13.3 4.3 2.2 8.5 0 9.6-5.2 1-5-1.5-11-5.8-13.3" fill="#3E3D40"/><path d="M224.6 131.7a26.7 26.7 0 0 0-3.9-15.3 17.5 17.5 0 0 0-5.2-5.2l-48.7-30.8-55.6-5.5 48 34.6a19 19 0 0 1 5.1 6c1.4 2.3 2.5 5.1 3.2 8.1a35 35 0 0 1-1.1 18.8L156 170.7l56.5-6.1 10.3-24.7c1-2.6 1.7-5.4 1.8-8.2" fill="#38B0E4"/><path d="M159.1 109.5a19 19 0 0 1 5.2 6c1.4 2.3 2.5 5.1 3.2 8.1a35 35 0 0 1-1.1 18.8L156 170.7l-58-51.5 13.2-44.3 48 34.6z" fill="#23799F"/><path fill="#1A171B" d="M120.5 77.8l45.8 4.6 40 25.3-46.3-1.4z"/><path d="M160 106.3l28.6.8 3-14.8-41.8-15.7-4.6 19 14.8 10.7z" fill="#EBF5F2"/><path fill="#EBF5F2" d="M203.7 88.5l-12 3.8-4.2 6.7 17.7-8.4L215.5 78l-4.3-3.9z"/><path fill="#D7E1DE" d="M204.7 90.1l-8 4.5 8.5-4 4.3-5.3z"/><path fill="#FFFFF5" d="M207.6 81l-3.9 7.5-12 3.8 12.1-3z"/><path fill="#EFCAA6" d="M215.4 81.5l-7.2-3.8-.5-6.4 15 6z"/><path fill="#FFDEBA" d="M214.8 80.3l-4.3-1.3 4.9 2.5 7.2-4.2-1.5-.6z"/><path fill="#EFCAA6" d="M209.2 78l-2.7-1.5-1.2-3 4.2 1.4z"/><path fill="#EBF5F2" d="M142.8 68.3l7 8.3-.4 7.8-9-15.3-2.7-18 6.4-.6z"/><path fill="#D7E1DE" d="M141.1 69.1l-2.4-11.5 1.7 11.5 6.1 10.5z"/><path fill="#FFFFF5" d="M141.9 68.6l7.8 8.9v-1l-6.9-8.2.7-8.6z"/><path fill="#EFCAA6" d="M137 52.7l8 1 4-5-15.6-3.6z"/><path fill="#FFDEBA" d="M138 52l4.4 1.4-5.5-.7-3.5-7.6 1.6.4z"/><path fill="#EFCAA6" d="M144 53.3l3 .3 2.8-1.8-4.3-1.2z"/><path fill="#38B0E4" d="M171.3 92.5l5-2.6-5.3-3.5-.5 5.3L159 93l-4 5.7 4.8 3z"/><path fill="#754D33" d="M209 33.7l3.6 1.5 3.8 7.4-4.6 9z"/><path d="M212.7 56.5c0-1.2-.6-2-1.5-2.4 3-12.7.3-24.4-16.2-31.3-17.2-7.2-27.2 0-33.7 13.2-1-1.9-2.8-2.3-4.3-1-1.5 1.5-2 4.1-1 6 .5 1.1 1.4 1.7 2.4 1.7-3.8 10-6.2 22.2-8.6 33.9a88.2 88.2 0 0 0 41.4 17.2c5.6-9 13.3-20.8 17.7-32.3h.4c2-.8 3.5-3 3.4-5" fill="#EFCAA6"/><path fill="#754D33" d="M179.8 32.6l8.3.8-1.4 2.3-11.2.6zM203.2 42.5l-6-5.7-.9 2.5 6.9 8.8z"/><path d="M189.6 60.3a3.6 3.6 0 0 1-5.7 0 5.8 5.8 0 0 0 5.7 0" fill="#D0A486"/><path d="M189.6 60.3s-1.6.5-3.1.5-2.6-.6-2.6-.6a5.8 5.8 0 0 0 5.7 0" fill="#FFDEBA"/><path d="M175.3 85.5c.6-.4 1.1-1 1.3-1.6.3-1.2-.3-1.2-.8-.3-.3.6-.4 1.3-.5 2m-6-9c-.6 2.8-1.3 5.8-.1 8.6.9 2 3 1.9 4.6 1.2l.7-.3v-.3c0-1 .4-4 2.2-3.7 2.5.5-.5 3.9-1.4 4.4 0 .6.2 1.1.5 1.6 1.1 2 3.7.2 4.8-.6 1.8-1.3 3-2.7 4-4.6-.4 2.5-5.3 8.5-8.7 6.3-.4-.3-.8-.8-1-1.2l-.3-1.1-.4.1c-1 .4-2.3.7-3.4.4-2.4-.7-2.8-3.7-2.7-5.6.1-1.8.4-3.5 1.2-5.1" fill="#C5997C"/><path d="M214 29.4c1.8-1.4 3.2-3.7 4.2-7-18.5 5.7-35.4-27.3-50 2.2l-3.8 1.8-3.1 9.6 14.3-11.2c18-.8 35.7 21.8 49.8 7.7-3.6.1-7.5-1.2-11.4-3.1" fill="#754D33"/><path d="M185.8 26.5a28.3 28.3 0 0 0-10.2-1.7L161.3 36c-1-1.9-2.8-2.3-4.3-1-1.5 1.5-2 4.1-1 6 .5 1.1 1.4 1.7 2.4 1.7-3.8 10-6.2 22.2-8.6 33.9a82 82 0 0 0 5.9 4.2c5.6-25.3 13.2-48.8 30-54.3" fill="#FFDEBA"/><path d="M160.5 40.1c.3-1.8-1.4-3.6-3.1-2.1l.1-.2c1-.8 2.3-.9 2.9.3-.4-1.7-2.1-3-3.8-1.7 3.3-2.7 5 1.9 3.9 3.7" fill="#D0A486"/><path d="M182.6 40c4.8 2 6.5 7.2 3.8 11.7a11.1 11.1 0 0 1-13.4 4.5 8 8 0 0 1-3.8-11.7c2.6-4.4 8.6-6.5 13.4-4.5" fill="#F1F5F7"/><path d="M175.2 55.4a7.9 7.9 0 0 1-3.8-11.7c1-1.8 2.7-3.2 4.5-4a11 11 0 0 0-6.7 4.8 8 8 0 0 0 3.8 11.7 11 11 0 0 0 8.8-.4c-2.2.6-4.5.5-6.6-.4" fill="#DDE1E3"/><path d="M177.8 53.7a2.3 2.3 0 0 1-1.2-3.4c.8-1.4 2.6-2 4-1.4 1.1.5 1.6 1.6 1.4 2.7 1.2-2 .5-4.4-1.7-5.3a5 5 0 0 0-6 2c-1.2 2-.4 4.4 1.7 5.3.7.3 1.6.4 2.4.3l-.6-.2" fill="#95A6B1"/><path d="M198.5 51.3a5.4 5.4 0 0 0-7.5 3.8c-1 3.4 1 7.3 4.2 8.7a5.4 5.4 0 0 0 7.5-3.8c1-3.4-1-7.3-4.2-8.7" fill="#F1F5F7"/><path d="M202.7 60c.6-2.3 0-4.9-1.6-6.7 1 1.7 1.4 3.7.9 5.6a5.4 5.4 0 0 1-7.5 3.8 7 7 0 0 1-2.7-2c.8 1.4 2 2.5 3.4 3a5.4 5.4 0 0 0 7.5-3.7" fill="#DDE1E3"/><path d="M195 60.6c-.6-.3-1-1-.8-1.7.2-.7.9-1 1.5-.7a1.5 1.5 0 0 1 .8 1.8l.2-.6c.3-1-.3-2.1-1.3-2.5-1-.5-2 0-2.2 1-.2 1.1.3 2.2 1.3 2.7h1-.4" fill="#95A6B1"/><path d="M202.9 60.8c.3-1.2.3-2.4 0-3.6a7 7 0 0 1-.2 2.8 5.4 5.4 0 0 1-7.5 3.8 7.5 7.5 0 0 1-4.2-5.1c.4 2.5 2 5 4.4 5.9a5.4 5.4 0 0 0 7.5-3.8M186.4 51.7a11.1 11.1 0 0 1-13.4 4.5 8 8 0 0 1-3.8-11.7 11 11 0 0 1 6.8-4.9c-3.2.6-6.1 2.5-7.8 5.3a8.3 8.3 0 0 0 4 12.3c5 2 11.4 0 14.1-4.7a9 9 0 0 0 1.4-5c0 1.4-.5 2.8-1.3 4.2" fill="#DBB692"/><path d="M172.3 49.9a.9.9 0 1 1-.6 1.6.9.9 0 0 1 .6-1.6m1.7-.9a.5.5 0 1 1-.4 1 .5.5 0 0 1 .4-1M192.5 59a.4.4 0 1 1-.2.8.4.4 0 0 1 .2-.7m.7-.4a.2.2 0 1 1-.1.4.2.2 0 0 1 .1-.4" fill="#FFF"/><path d="M163.2 51c-6.4 4.2-8 8.9-6.9 13.1-2-4.7-.5-10 6.6-14.7a76 76 0 0 0 5.6 5.7l-5.3-4.2zM193.6 67.3c3.4.2 6.9 0 10.4-.6a15 15 0 0 1-11 11.7 15 15 0 0 0 10.2-10.8c-3.2.4-6.4.2-9.6-.3" fill="#D0A486"/><path d="M203.2 67.6a31.6 31.6 0 0 1-8 0c-1.6.2-3.4.3-5.2.2l-.2-1.4h-.1l-.1 1.4c-5.5-.3-11-2.2-15.4-5l.5-1.2-.7 1c-2.2-1.3-4-3-5.3-4.8l1.3-1.2-1.6.8c-.8-1.1-1.4-2.4-1.7-3.7l-3.5-2.8c-7 4.7-8.4 9.8-6.5 14.4 1.5 0 3 .3 4.3.6l.2 2 .3-2a30 30 0 0 1 19.7 13.5c2.5.3 5 .3 7.4 0 7-1 12.7-4.4 14.6-11.8" fill="#732706"/><path d="M183 66.7c-3.2-.9-6.2-2.2-8.8-3.8l.5-1.3-.7 1c-2-1.2-3.7-2.7-5-4.3a15.3 15.3 0 0 0-8.4 7.5h.4l.2 2.1.3-2c6.8 1.6 13 5.2 16.9 9.6.8-.7 1.5-1.5 2.1-2.3a12 12 0 0 0 2.5-6.5" fill="#550900"/><path d="M182.3 69l-2.9-2a14 14 0 0 1 2.8 4.8 19.6 19.6 0 0 0-6.2-6.4c-3.5-2.1-10.4.2-11.5 1.3-1.7 1.8 4.8 4 9.5 7.8 4.8 3.8 9.5 4.6 11.2 2.8 1.8-1.8 1.8-4.5-3-8.3" fill="#BE8077"/><path d="M161.5 66l-.3 2-.2-2.1a32 32 0 0 0-4.3-.6 13.6 13.6 0 0 0 1.9 3.1 35 35 0 0 0 22.6 11A30 30 0 0 0 161.5 66M167.4 54.3l-.7-.6c.3 1.3 1 2.6 1.7 3.7l1.6-.8-1.3 1.2c1.3 1.8 3.1 3.5 5.3 4.9l.7-1-.5 1.2c4.3 2.7 9.9 4.6 15.4 4.9l.1-1.5a68.5 68.5 0 0 1-22.3-12M189.8 66.4l.2 1.4c1.8 0 3.6 0 5.3-.3a39 39 0 0 1-5.5-1.1" fill="#F1F5F7"/><path d="M146.8 96.8l8.9-16-.2-.1a91.3 91.3 0 0 1-2-1.4l-.3-.2-.8-.6-.3-.2-1-.7-.3-.2-1-.8-4.6 19 1.6 1.2z" fill="#FFFFF5"/><path d="M181.4 143.6c-4.8-1.6-10.1 1.4-12 6.8-1.7 5.4.7 11 5.5 12.6 4.7 1.6 10-1.4 11.9-6.8 1.8-5.4-.6-11-5.4-12.6" fill="#8A9092"/><path d="M181.5 144.8c-4.2-1.5-9 1.3-10.5 6-1.6 4.8.5 9.8 4.8 11.2 4.2 1.5 9-1.3 10.5-6 1.6-4.8-.5-9.8-4.8-11.2" fill="#E4D6A3"/><path d="M178.7 155c2.7.6 5.4 0 7.5-1.3.2-1.5 0-3-.6-4.4a7 7 0 0 0-5-4.2c-3.4-.7-6.9 1.3-8.5 4.7l.3.8a9.1 9.1 0 0 0 6.3 4.5" fill="#FFF" opacity=".5"/><path d="M179.9 145.2c-.9-.3-1.9.2-2.2 1.2-.3 1 .1 2 1 2.3.9.3 1.9-.3 2.2-1.2.3-1-.1-2-1-2.3M177.5 146.6l-.6 2.6-.3 1.2a38.3 38.3 0 0 1-.8 2.6l-.4 1.2a38 38 0 0 1-1 2.4 15.9 15.9 0 0 0 2.1-4.8 28.3 28.3 0 0 0 1-5.2M175.8 146.4l-.5 2c0 .4-.2.7-.3 1a31 31 0 0 1-.6 2c0 .4-.2.7-.3 1l-.8 2a11.8 11.8 0 0 0 1.4-2.9 21.1 21.1 0 0 0 1.1-5.1M181.8 146.4l-.8 3.6-.5 1.7a47 47 0 0 1-3.1 8.6 23.8 23.8 0 0 0 3-6.7 41 41 0 0 0 1.4-7.2M183.5 147.5l-.7 3.1-.4 1.6a41.4 41.4 0 0 1-2.7 7.4 20.1 20.1 0 0 0 2.6-5.8 34.8 34.8 0 0 0 1.2-6.3M184.8 151.6l.4-2.6-.6 2.6-.3 1.3a35.7 35.7 0 0 1-2.3 6.2 15.8 15.8 0 0 0 2.2-4.9 29.2 29.2 0 0 0 .6-2.6" fill="#FFF"/><path d="M179.7 146.5l-.7 3.1c0 .5-.2 1-.4 1.6a41 41 0 0 1-2.7 7.4 20.1 20.1 0 0 0 2.6-5.8 35 35 0 0 0 1.2-6.3" fill="#FFF"/><path d="M176.8 148.8c-1.8-.6-3.9.6-4.6 2.6-.6 2.1.3 4.2 2.1 4.9 1.8.6 3.9-.6 4.5-2.6.7-2-.2-4.2-2-4.9" fill="#FFF"/><path d="M175.8 161.3a8.2 8.2 0 0 1-5.3-6.5 8 8 0 0 0 5.3 7.2c4 1.4 8.4-1 10.2-5.2-2.1 3.8-6.3 5.8-10.2 4.5" fill="#D2B468"/><path d="M209.1 143.7c-4.4-1.5-9.4 1.4-11 6.4-1.8 5 .5 10.3 5 11.8 4.4 1.4 9.4-1.4 11-6.4 1.8-5-.5-10.3-5-11.8" fill="#8A9092"/><path d="M209.3 144.8c-4-1.3-8.4 1.2-9.9 5.7-1.5 4.4.5 9 4.5 10.4 4 1.3 8.4-1.2 9.9-5.6 1.5-4.5-.5-9.2-4.5-10.5" fill="#E4D6A3"/><path d="M206.7 154.4c2.5.5 5 0 7-1.3 0-1.4-.1-2.8-.6-4a6.6 6.6 0 0 0-4.7-4c-3.1-.6-6.4 1.2-8 4.4l.4.7a8.5 8.5 0 0 0 5.9 4.2" fill="#FFF" opacity=".5"/><path d="M207.7 145.2c-.8-.3-1.7.2-2 1.1-.3 1 .1 2 1 2.2.8.3 1.7-.3 2-1.2.3-.9-.1-1.9-1-2.1" fill="#FFF"/><path d="M205.5 146.5l-.5 2.4-.3 1.2a34 34 0 0 1-.8 2.4c0 .3-.2.7-.4 1.1l-1 2.3a14.8 14.8 0 0 0 2.1-4.5 25.8 25.8 0 0 0 1-4.9M204 146.3l-.5 2-.3.9a27.8 27.8 0 0 1-.6 1.8l-.3 1-.7 1.8a11 11 0 0 0 1.3-2.7 19 19 0 0 0 1-4.8M209.5 146.3a97 97 0 0 1-.7 3.3l-.5 1.7a43.9 43.9 0 0 1-2.9 8 22.2 22.2 0 0 0 2.8-6.3 37.8 37.8 0 0 0 1.3-6.7M211.1 147.4l-.6 2.9-.4 1.4a39.1 39.1 0 0 1-2.5 7 18.7 18.7 0 0 0 2.4-5.5 32.1 32.1 0 0 0 1.1-5.8M212.4 151.2l.3-2.4-.6 2.4-.3 1.2a33.6 33.6 0 0 1-.7 2.3l-.4 1.2-1 2.2a14.8 14.8 0 0 0 2-4.5 26.7 26.7 0 0 0 .7-2.4M207.6 146.4l-.7 3-.3 1.4a38.2 38.2 0 0 1-2.6 7 18.8 18.8 0 0 0 2.5-5.5 31.5 31.5 0 0 0 1-5.9" fill="#FFF"/><path d="M204.9 148.6c-1.7-.6-3.6.5-4.3 2.4-.6 2 .2 4 2 4.5 1.6.6 3.5-.5 4.2-2.4.6-2-.2-4-2-4.5" fill="#FFF"/><path d="M204 160.2a7.7 7.7 0 0 1-5-6c.2 3 2 5.8 4.9 6.7 3.7 1.3 7.8-.9 9.6-4.8-2 3.5-6 5.3-9.5 4.1" fill="#D2B468"/><path d="M52 100.3v4.6l3 2.5 1.1-3.8a1451 1451 0 0 0-4.1-3.3" fill="#665948"/><path fill="#FFFFF5" opacity=".5" d="M102.3 38L122 57l-26-16.8zM103.8 25.6l4.3-1.5 13.8 13.2zM138.9 36.8l-17.3-11.2 4.1-1.5z"/><path d="M167.6 206.8l1-2.8-8.7-8.3-1.4 4.2 7 7h2z" fill="#665948"/><g><path fill="#000" opacity=".6" d="M319 152h80v24h-80z"/><path fill="#38B0E4" d="M319 152h3v24h-3z"/><path d="M341.6 162l-.1.2h-.2-.2a7.6 7.6 0 0 0-.7-.3l-.5-.1h-.5a1 1 0 0 0-.4.2l-.2.3v.8l.5.3.5.2a26.2 26.2 0 0 1 1.2.5l.6.3a1.6 1.6 0 0 1 .5 1.3c0 .4 0 .7-.2 1a2.1 2.1 0 0 1-1.3 1.2l-1 .2a3.4 3.4 0 0 1-2.4-1l.4-.6.1-.1h.5a8.2 8.2 0 0 0 .8.5h.6c.4 0 .7 0 .9-.2.2-.2.3-.4.3-.8l-.1-.4c-.1-.2-.3-.3-.4-.3l-.5-.3a17.7 17.7 0 0 1-1.3-.4 2 2 0 0 1-.5-.3l-.4-.6a2.1 2.1 0 0 1 .5-2.3l.7-.4c.3-.2.7-.2 1-.2.5 0 .9 0 1.2.2l1 .5-.4.7zm2.7-1.4v4.2h.4l.2-.1 1.2-1.6.2-.2H347.7l-1.6 1.9-.2.2-.2.1.2.2.2.2 1.7 2.5H346.4l-.2-.2-1.3-2-.1-.1h-.5v2.3H343v-7.4h1.2zm5.6 2.3v5.1h-1.3v-5.1h1.3zm.2-1.5l-.1.3a.8.8 0 0 1-.4.4.8.8 0 0 1-.9-.2l-.2-.2v-.3a.8.8 0 0 1 .2-.6.8.8 0 0 1 .6-.2h.3a.8.8 0 0 1 .4.5v.3zm1.2 8.3v-6.8H352.2l.1.2.1.5.7-.6a2 2 0 0 1 1.8 0c.2 0 .4.2.6.5.1.2.3.5.3.8a4.1 4.1 0 0 1 0 2.2c0 .3-.2.6-.4.8a2 2 0 0 1-2.4.6c-.2 0-.3-.2-.5-.3v2h-1.2zm2.4-6l-.7.2-.5.5v2.3a1.2 1.2 0 0 0 1 .4h.5l.4-.4.2-.5.1-.8v-.8l-.3-.5-.3-.3a1 1 0 0 0-.4 0zm11.6 4.3h-1a.5.5 0 0 1-.5-.3l-.6-1.5h-3l-.5 1.5a.5.5 0 0 1-.4.3h-1l2.8-7.2h1.3l2.9 7.2zm-4.7-2.7h2.3l-.9-2.4a11 11 0 0 1-.3-.9 16.7 16.7 0 0 1-.2.9l-1 2.4zm9 2.7c-.2 0-.3 0-.4-.2v-.5a3 3 0 0 1-.4.3 2.1 2.1 0 0 1-.8.4 2 2 0 0 1-.5 0 1.7 1.7 0 0 1-1.4-.6l-.4-.8a4.2 4.2 0 0 1 0-2.2l.5-.9.7-.5a2 2 0 0 1 .9-.2 1.8 1.8 0 0 1 1.3.5v-2.7h1.2v7.4h-.7zm-1.7-.9c.3 0 .5 0 .7-.2l.5-.4v-2.3a1.2 1.2 0 0 0-1-.5l-.5.1a1 1 0 0 0-.4.3l-.2.6-.1.7v.8l.2.5c.1.2.2.2.4.3h.4z" fill="#FFF"/><g fill="#FFF"><path d="M381 162h1v6h-1zM380 165l-4 3v-6z"/></g></g><path d="M67.7 180h-.9a.4.4 0 0 1-.3-.2l-.5-1.2h-2.4l-.4 1.2a.4.4 0 0 1-.3.2H62l2.3-5.8h1.1l2.3 5.8zm-3.8-2.2h1.9l-.7-2a8.8 8.8 0 0 1-.3-.6 13.3 13.3 0 0 1-.2.7l-.7 2zm7.2 2.2c-.1 0-.2 0-.3-.2v-.4l-.3.3a1.7 1.7 0 0 1-.7.3h-.4a1.4 1.4 0 0 1-1-.5 2 2 0 0 1-.4-.6 3.3 3.3 0 0 1 0-1.8l.4-.7.6-.4.7-.2a1.4 1.4 0 0 1 1 .4v-2.1h1v5.9h-.6zm-1.3-.7c.2 0 .4 0 .5-.2l.4-.3v-1.9a1 1 0 0 0-.8-.3 1 1 0 0 0-.4 0l-.3.3-.2.4V178.6l.2.4.2.2h.4zm10-2.2c0 .5 0 1-.2 1.3l-.4 1-.7.5a2 2 0 0 1-.9.2 1.8 1.8 0 0 1-1.5-.7l-.4-1-.2-1.3c0-.5 0-1 .2-1.3 0-.4.2-.7.4-1a1.8 1.8 0 0 1 1.5-.6l.9.1.7.6.4.9.2 1.3zm-1 0l-.1-1a2 2 0 0 0-.3-.7.9.9 0 0 0-.3-.3 1 1 0 0 0-.9 0l-.3.3-.3.7v2l.3.7c0 .2.2.3.3.3a1 1 0 0 0 .9 0l.3-.3.3-.7v-1zm1.6 2.4a.6.6 0 0 1 .2-.5.6.6 0 0 1 .4-.1.6.6 0 0 1 .5.1.6.6 0 0 1 0 .7v.2l-.2.1H81a.6.6 0 0 1-.4-.1l-.1-.2v-.2zm0-2.9a.6.6 0 0 1 .2-.4.6.6 0 0 1 .4-.2.6.6 0 0 1 .5.2.6.6 0 0 1 0 .6v.2l-.2.2H81a.6.6 0 0 1-.4-.2l-.1-.2v-.2zm6.1.5l-.1 1.3-.5 1-.7.5a2 2 0 0 1-.8.2 1.8 1.8 0 0 1-1.5-.7l-.5-1-.1-1.3.1-1.3.5-1a1.8 1.8 0 0 1 1.5-.6l.8.1c.3.1.5.3.7.6.2.2.4.5.5.9l.1 1.3zm-1 0v-1a2 2 0 0 0-.3-.7.9.9 0 0 0-.4-.3 1 1 0 0 0-.8 0l-.4.3-.2.7v2l.2.7c.1.2.3.3.4.3a1 1 0 0 0 .8 0l.4-.3.2-.7.1-1zm3.5 3c-.3 0-.5 0-.8-.2l-.6-.3a1.5 1.5 0 0 1-.6-1.2c0-.4.1-.7.3-.9.2-.2.4-.4.8-.5l-.7-.5-.2-.8a1.4 1.4 0 0 1 .5-1.1l.6-.3.7-.1h.8l.6.4.3.5.2.6-.2.8-.7.5c.4.1.6.3.8.5.2.2.3.5.3.9 0 .2 0 .5-.2.7 0 .2-.2.4-.4.5l-.6.3-.9.2zm0-.8h.5l.3-.3.2-.3v-.3c0-.4 0-.6-.2-.8a1 1 0 0 0-.8-.2 1 1 0 0 0-.7.2c-.2.2-.2.4-.2.8v.3a.8.8 0 0 0 .5.5h.4zm0-2.7h.5a.7.7 0 0 0 .4-.5v-.4-.3l-.2-.3-.3-.1a1 1 0 0 0-.4-.1 1 1 0 0 0-.3 0l-.3.2-.2.3v.7l.2.2.2.2.4.1z" fill="#FFF"/><path d="M101.4 177.1l-.1 1.3-.5 1-.6.5a2 2 0 0 1-.9.2 1.8 1.8 0 0 1-1.5-.7l-.4-1-.2-1.3c0-.5 0-1 .2-1.3 0-.4.2-.7.4-1a1.8 1.8 0 0 1 1.5-.6l.9.1.6.6c.2.2.4.5.5.9l.1 1.3zm-1 0v-1a2 2 0 0 0-.3-.7.9.9 0 0 0-.4-.3 1 1 0 0 0-.8 0l-.3.3-.3.7v2c0 .3.2.5.3.7 0 .2.2.3.3.3a1 1 0 0 0 .8 0c.2 0 .3-.1.4-.3l.2-.7.1-1zm1.7 2.4a.6.6 0 0 1 .2-.5.6.6 0 0 1 .4-.1.6.6 0 0 1 .4.1.6.6 0 0 1 .2.7l-.2.2-.2.1h-.2a.6.6 0 0 1-.4-.1l-.2-.2v-.2zm0-2.9a.6.6 0 0 1 .2-.4.6.6 0 0 1 .4-.2.6.6 0 0 1 .4.2.6.6 0 0 1 .2.6l-.2.2-.2.2h-.2a.6.6 0 0 1-.4-.2l-.2-.2v-.2zm4-2.4h.8l.6.4.3.5.2.7-.1.6c0 .2-.2.3-.3.5 0 .2-.2.3-.3.5l-.5.5-1.3 1.3a3.2 3.2 0 0 1 .7-.1h1.8V180h-3.9v-.3a.6.6 0 0 1 .2-.4l1.7-1.8a8.3 8.3 0 0 0 .7-.8l.2-.4v-.5-.3a.7.7 0 0 0-.4-.5 1 1 0 0 0-.4 0 1 1 0 0 0-.6.2 1 1 0 0 0-.3.4l-.1.3H104.2l.2-.8a1.8 1.8 0 0 1 1-.8l.8-.1zm6 3.6h.8v.7h-.7v1.5h-.9v-1.4h-2.6l-.1-.2-.1-.5 2.7-3.7h1v3.6zm-.8-1.9a5.1 5.1 0 0 1 0-.6l-1.8 2.5h1.8V176z" fill="#FFF" opacity=".7"/><path fill="#F5F5F5" opacity=".5" d="M62 185h327v3H62z"/><path fill="#38B0E4" d="M62 185h100v3H62z"/><g fill="#FFF"><path d="M99 194h1v6h-1zM98 197l-4 3v-6zM80 197.5l-6 4.5v-9z"/></g><g transform="rotate(90 183.5 251.5)" fill="#484A55"><rect x="20.9" y="14.3" width="41.1" height="3.6" rx="1.6"/><ellipse cx="3.2" cy="15.9" rx="3.1" ry="3.1"/><ellipse cx="41.4" cy="2.6" rx="2.3" ry="2.3"/></g></g></svg>