<svg xmlns="http://www.w3.org/2000/svg" width="120" height="120" viewBox="0 0 120 120">
  <defs>
    <linearGradient id="a" x1="54.232%" x2="83.826%" y1="108.197%" y2="0%">
      <stop stop-color="#00B7B3" offset="0%"/>
      <stop stop-color="#2EAFE6" offset="100%"/>
    </linearGradient>
  </defs>
  <g fill="none" fill-rule="evenodd" transform="translate(6 9)">
    <path fill="#38B0E4" d="M85.4024684,52.8655285 C85.1532278,56.2160325 84.3693038,59.5050081 83.0792405,62.6052033 L82.8933544,63.0456911 L73.2091772,63.0456911 L73.3929747,62.1856911 C74.0383544,59.0889919 74.4240506,55.9433496 74.5458861,52.781626 L74.569557,52.0964228 L85.4623418,52.0964228 L85.4024684,52.8655285 Z M80.5429747,67.4785366 C77.3710759,72.4574472 72.8777848,76.4477073 67.5699367,79.0011382 L64.9501266,80.2666667 L66.6948101,77.9313821 C69.1162025,74.5766829 70.9653165,70.8409268 72.166962,66.8772358 L72.3243038,66.380813 L81.2405696,66.380813 L80.5429747,67.4785366 Z M59.9493038,80.0219512 C58.915443,80.7749756 57.7618354,81.3469106 56.5379114,81.7139837 L55.6328481,81.9796748 L55.6328481,66.380813 L68.8606962,66.380813 L68.523038,67.3386992 C67.7544304,69.5145691 66.7783544,71.6100325 65.6073418,73.5964228 C64.181519,76.1058049 62.2558228,78.2928618 59.9506962,80.0219512 L59.9493038,80.0219512 Z M55.6258861,52.0964228 L71.2528481,52.0964228 L71.2208228,52.8445528 C71.0892405,56.094374 70.6562025,59.3246179 69.9286709,62.4933333 L69.7991772,63.0456911 L55.6272785,63.0456911 L55.6272785,52.0964228 L55.6258861,52.0964228 Z M55.6258861,37.8120325 L69.7970886,37.8120325 L69.9272785,38.3643902 C70.6548101,41.5359024 71.0871519,44.7682439 71.2194304,48.0201626 L71.2514557,48.7682927 L55.6265823,48.7682927 L55.6265823,37.8120325 L55.6258861,37.8120325 Z M55.6258861,18.8780488 L56.5379114,19.1507317 C57.760443,19.5206016 58.9133544,20.0925366 59.9493038,20.8427642 C62.2481646,22.573252 64.1696835,24.7575122 65.5968987,27.2613008 C66.77,29.2504878 67.7439873,31.3515447 68.5049367,33.5330081 L68.8425949,34.4839024 L55.6272785,34.4839024 L55.6272785,18.8780488 L55.6258861,18.8780488 Z M67.5699367,21.8565854 C70.7968354,23.4080813 73.7375949,25.500748 76.2641139,28.0443902 C77.876519,29.6637073 79.3106962,31.4522276 80.5422785,33.379187 L81.245443,34.4839024 L72.325,34.4839024 L72.1676582,33.9804878 C70.9750633,30.0153984 69.124557,26.2803415 66.6955063,22.9333333 L64.9501266,20.5980488 L67.5699367,21.8565854 Z M83.0806329,38.2525203 C84.3720886,41.354813 85.1560127,44.6458862 85.4031646,47.999187 L85.4637342,48.7682927 L74.5751266,48.7682927 L74.5472785,48.0760976 C74.4247468,44.9171707 74.0390506,41.773626 73.3943671,38.6790244 L73.2098734,37.8120325 L82.8940506,37.8120325 L83.0806329,38.2525203 Z M52.3126582,34.4839024 L39.0882911,34.4839024 L39.4259494,33.5260163 C40.1931646,31.3494472 41.1671519,29.251187 42.3332911,27.2613008 L42.5518987,26.9117073 C43.9463924,24.5449593 45.7955063,22.479561 47.9913291,20.8357724 C49.0279747,20.0911382 50.1787975,19.522 51.3985443,19.1507317 L52.3105696,18.8780488 L52.3105696,34.4839024 L52.3126582,34.4839024 Z M52.3126582,48.7682927 L36.6933544,48.7682927 L36.7253797,48.0201626 C36.8520886,44.7682439 37.2844304,41.5352033 38.0161392,38.3643902 L38.1463291,37.8120325 L52.3161392,37.8120325 L52.3161392,48.7682927 L52.3126582,48.7682927 Z M52.3126582,63.0456911 L38.1463291,63.0456911 L38.0168354,62.4933333 C37.2844304,59.3225203 36.8520886,56.0894797 36.7260759,52.837561 L36.6933544,52.0964228 L52.3161392,52.0964228 L52.3161392,63.0456911 L52.3126582,63.0456911 Z M52.3126582,81.9796748 L51.4075949,81.7139837 C50.1829747,81.3441138 49.0279747,80.7721789 47.9906329,80.0219512 C45.6931646,78.2872683 43.7716456,76.1009106 42.343038,73.5964228 C41.1727215,71.6100325 40.1973418,69.5145691 39.4308228,67.3386992 L39.0931646,66.380813 L52.3161392,66.380813 L52.3161392,81.9796748 L52.3126582,81.9796748 Z M40.3727848,79.0081301 C37.1458861,77.4566341 34.2058228,75.3639675 31.6786076,72.8203252 C30.0662025,71.1989106 28.6320253,69.4075935 27.4011392,67.4785366 L26.7049367,66.380813 L35.6212025,66.380813 L35.7792405,66.8772358 C36.9683544,70.8458211 38.8181646,74.5836748 41.2513924,77.9313821 L43.0058228,80.2666667 L40.3727848,79.0081301 Z M24.86,62.6052033 C23.5720253,59.5043089 22.7887975,56.2160325 22.5402532,52.8655285 L22.4810759,52.0964228 L33.374557,52.0964228 L33.3968354,52.781626 C33.5172785,55.9433496 33.9015823,59.0889919 34.5455696,62.1856911 L34.7307595,63.0456911 L25.0444937,63.0456911 L24.86,62.6052033 Z M22.539557,47.999187 C22.7887975,44.6465854 23.5727215,41.3562114 24.86,38.2525203 L25.0410127,37.8120325 L34.7300633,37.8120325 L34.5448734,38.6790244 C33.9001899,41.773626 33.5158861,44.9171707 33.3961392,48.0760976 L33.3738608,48.7682927 L22.4803797,48.7682927 L22.539557,47.999187 Z M27.4011392,33.379187 C30.5779114,28.4051707 35.0691139,24.4156098 40.3727848,21.8565854 L42.9939873,20.5980488 L41.2479114,22.9333333 C38.8181646,26.2803415 36.9683544,30.0153984 35.7757595,33.9804878 L35.6184177,34.4839024 L26.6958861,34.4839024 L27.4011392,33.379187 Z M53.9703165,15.4380488 C34.7279747,15.4380488 19.1288608,31.1040325 19.1288608,50.4288618 C19.1288608,69.7536911 34.7279747,85.4196748 53.9703165,85.4196748 C73.2112658,85.4196748 88.8096835,69.7557886 88.8117722,50.4323577 C88.7922785,31.1152195 73.2056962,15.4597236 53.9710127,15.4380488 L53.9703165,15.4380488 Z"/>
    <path fill="#D9D9D9" d="M18.8517722,32.0856911 L10.7932278,37.2946341 L11.1413291,33.1973984 L7.2878481,31.8130081 L15.3456962,26.6110569 L17.3020253,29.6665041 L18.8517722,32.0856911 Z M0,32.6869919 L7.66518987,35.4417886 L6.97455696,43.5873171 L20.5853165,34.7985366 L26.4125316,43.8949593 L29.1973418,42.0980488 L23.3701266,32.9946341 L20.0840506,27.8626016 L16.3941772,22.1013008 L0,32.6869919 Z"/>
    <path stroke="#FFFFFF" stroke-width="4.19" d="M18.8517722,32.0856911 L10.7932278,37.2946341 L11.1413291,33.1973984 L7.2878481,31.8130081 L15.3456962,26.6110569 L17.3020253,29.6665041 L18.8517722,32.0856911 L18.8517722,32.0856911 Z M0,32.6869919 L7.66518987,35.4417886 L6.97455696,43.5873171 L20.5853165,34.7985366 L26.4125316,43.8949593 L29.1973418,42.0980488 L23.3701266,32.9946341 L20.0840506,27.8626016 L16.3941772,22.1013008 L0,32.6869919 L0,32.6869919 Z" stroke-linejoin="round"/>
    <path fill="#FFFFFF" d="M83.9843038,14.137561 L96.2841139,18.9619512 L94.6877215,13.5292683 L99.5033544,10.6136585 L87.2035443,5.79626016 L85.4094304,10.4458537 L83.9843038,14.137561 Z M109.569747,9.8095935 L99.9927848,15.6128455 L103.168861,26.4152846 L82.3920886,18.2697561 L77.0452532,32.1346341 L72.7914557,30.4705691 L78.1396835,16.5986992 L81.1542405,8.78178862 L84.5412658,0 L109.569747,9.8095935 Z"/>
    <path stroke="#FFFFFF" stroke-width="4.19" d="M84.9843038,14.137561 L97.2841139,18.9619512 L95.6877215,13.5292683 L100.503354,10.6136585 L88.2035443,5.79626016 L86.4094304,10.4458537 L84.9843038,14.137561 L84.9843038,14.137561 Z M110.569747,9.8095935 L100.992785,15.6128455 L104.168861,26.4152846 L83.3920886,18.2697561 L78.0452532,32.1346341 L73.7914557,30.4705691 L79.1396835,16.5986992 L82.1542405,8.78178862 L85.5412658,0 L110.569747,9.8095935 L110.569747,9.8095935 Z" stroke-linejoin="round"/>
    <path fill="#2E2F39" d="M18.8517722,32.0856911 L10.7932278,37.2946341 L11.1413291,33.1973984 L7.2878481,31.8130081 L15.3456962,26.6110569 L17.3020253,29.6665041 L18.8517722,32.0856911 Z M0,32.6869919 L7.66518987,35.4417886 L6.97455696,43.5873171 L20.5853165,34.7985366 L26.4125316,43.8949593 L28.8999939,44.6900024 L29.1973418,42.0980488 L23.3701266,32.9946341 L20.0840506,27.8626016 L16.3941772,22.1013008 L0,32.6869919 Z"/>
    <path fill="url(#a)" d="M84.9843038,14.137561 L97.2841139,18.9619512 L95.6877215,13.5292683 L100.503354,10.6136585 L88.2035443,5.79626016 L86.4094304,10.4458537 L84.9843038,14.137561 Z M110.569747,9.8095935 L100.992785,15.6128455 L104.168861,26.4152846 L83.3920886,18.2697561 L78.0452532,32.1346341 L75,33 L73.7914557,30.4705691 L79.1396835,16.5986992 L82.1542405,8.78178862 L85.5412658,0 L110.569747,9.8095935 Z"/>
  </g>
</svg>
