<svg xmlns="http://www.w3.org/2000/svg" width="120" height="120" viewBox="0 0 120 120">
  <g fill="none" fill-rule="evenodd" transform="translate(5 36)">
    <polygon fill="#38B0E4" points="74.708 39.748 58.625 28.129 75.076 48 110 7.279"/>
    <path fill="#2E2F39" d="M47.6266667,15.9912329 L41.74,15.9912329 L41.74,6.39780822 L48.4333333,6.39780822 C52.1066667,6.39780822 54.2166667,8.08109589 54.2166667,11.0531507 C54.2166667,14.1764384 51.8193333,15.9912329 47.6253333,15.9912329 L47.6266667,15.9912329 Z M12.6353333,22.8230137 L17.4553333,7.69972603 L17.6366667,7.69972603 L22.4566667,22.8230137 L12.6346667,22.8230137 L12.6353333,22.8230137 Z M79.5186667,0 C68.6293333,0 61.7253333,7.18684932 61.7253333,19.0882192 C61.7253333,19.9167123 61.762,20.7123288 61.8266667,21.4947945 C60.0993333,19.4505205 57.5873333,18.2071233 54.8933333,18.0624658 L54.8933333,17.8586301 C58.9273333,17.2714521 61.9246667,13.8713425 61.9533333,9.84986301 C61.9533333,4.19506849 57.524,0.637808219 50.4646667,0.637808219 L33.8713333,0.637808219 L33.8713333,33.3106849 L22.3,0.637808219 L13.052,0.637808219 L0,37.5649315 L8.076,37.5649315 L10.9426667,28.6093151 L24.1506667,28.6093151 L27.0173333,37.5649315 L50.7546667,37.5649315 C55.032,37.5649315 58.428,36.3945205 60.678,34.329863 L55.53,27.9715068 C54.87,30.4767123 52.542,31.8049315 48.75,31.8049315 L41.7386667,31.8049315 L41.7386667,21.0805479 L48.5633333,21.0805479 C50.8266667,21.0805479 52.5833333,21.5276712 53.7926667,22.3758904 L53.8953333,22.4482192 L59.462,26.1830137 L63.9286667,29.1813699 L66.8326667,31.1342466 L74.5446667,36.3090411 L79.4446667,31.7983562 C73.4846667,31.7457534 69.7466667,26.899726 69.7466667,19.0619178 C69.7466667,11.2832877 73.5766667,6.39780822 79.5166667,6.39780822 C83.9833333,6.28142466 87.8126667,9.52175342 88.374,13.8936986 L96.034,13.8936986 C95.4346667,5.62849315 88.5573333,0 79.518,0 L79.5186667,0 Z"/>
  </g>
</svg>
