<svg xmlns="http://www.w3.org/2000/svg" width="120" height="120" viewBox="0 0 120 120">
  <defs>
    <linearGradient id="a" x1="54.232%" x2="83.826%" y1="108.197%" y2="0%">
      <stop stop-color="#00B7B3" offset="0%"/>
      <stop stop-color="#2EAFE6" offset="100%"/>
    </linearGradient>
  </defs>
  <g fill="none" fill-rule="evenodd" transform="translate(5 25)">
    <path fill="#2E2F39" d="M14.6515217,0 C13.6105072,0.00160465116 12.7687681,0.852069767 12.7703623,1.89990698 L12.7703623,49.3648837 L12.7703623,49.3648837 C12.7703623,50.4694532 13.6657928,51.3648837 14.7703623,51.3648837 L89.2921014,51.3648837 L89.2921014,1.90151163 C89.2944928,0.853674419 88.4535507,0.00240697674 87.4125362,0 L51.0300362,0 L14.6515217,0 Z M86.0726087,48.1716279 L86.0726087,5.21732558 L86.0726087,5.21732558 C86.0726087,4.11275608 85.1771782,3.21732558 84.0726087,3.21732558 L17.9276812,3.21732558 L17.9276812,3.21732558 C16.8231117,3.21732558 15.9276812,4.11275608 15.9276812,5.21732558 L15.9276812,46.1716279 L15.9276812,46.1716279 C15.9276812,47.2761974 16.8231117,48.1716279 17.9276812,48.1716279 L86.0726087,48.1716279 Z"/>
    <path fill="#91929B" d="M56.0155072,54.5340698 C55.9852174,54.5348721 45.3136232,54.5340698 45.3136232,54.5340698 C44.4671014,54.5581395 43.7608696,53.8873953 43.7369565,53.0353256 C43.7361594,53.0048372 43.7361594,52.9751512 43.7369565,52.9454651 L0,52.9454651 L0,55.7696512 C0,55.7696512 1.16057971,57.7834884 4.97630435,57.7834884 L96.2627536,57.7834884 C100.077681,57.7834884 101.239058,55.7696512 101.239058,55.7696512 L101.239058,52.9454651 L57.5013043,52.9454651 C57.5268116,53.7975349 56.8612319,54.5083953 56.0155072,54.5340698 Z"/>
    <g transform="translate(27 13)">
      <path fill="url(#a)" d="M1.6,5.55111512e-17 L46.4,5.55111512e-17 C47.28,5.55111512e-17 48,0.73125 48,1.625 L48,24.375 C48,25.26875 47.28,26 46.4,26 L1.6,26 C0.72,26 0,25.26875 0,24.375 L0,1.625 C0,0.73125 0.72,5.55111512e-17 1.6,5.55111512e-17"/>
      <path fill="#FFFFFF" d="M31.4,11.6 L23.48,11.6 L25.72,8.8 L23.48,6 L31.4,6 L31.4,11.6 Z M18.6,3.6 L22.44,8.8 L18.6,14 L31.4,14 L31.4,22.8 L33.8,22.8 L33.8,3.6 L18.6,3.6 Z" transform="matrix(-1 0 0 1 52.4 0)"/>
    </g>
    <polygon fill="#FFFFFF" points="82.905 60.985 106.818 60.985 106.818 28.892 82.905 28.892"/>
    <path fill="#FFFFFF" d="M106.813188,60.9606977 L82.9128986,60.9606977 L82.9128986,28.8837209 L106.811594,28.8837209 L106.811594,60.9606977 L106.813188,60.9606977 Z M94.8614493,67.4354651 C93.5167391,67.4330581 92.4278986,66.3338721 92.4302899,64.9803488 C92.4326812,63.6268256 93.5247101,62.5308488 94.8694203,62.5332558 C96.2141304,62.5356628 97.302971,63.6348488 97.3005797,64.9883721 C97.2973913,66.3418953 96.2061594,67.4370698 94.8614493,67.4354651 L94.8614493,67.4354651 Z M89.2817391,26.4687209 L91.6650725,26.4687209 L91.6650725,24.904186 L89.2817391,24.904186 L89.2817391,26.4687209 Z M93.2672464,26.4687209 L98.8469565,26.4687209 L98.8469565,24.904186 L93.2672464,24.904186 L93.2672464,26.4687209 Z M106.59,22.4811628 L83.1336957,22.4811628 C81.6885507,22.4803605 80.5160145,23.6581744 80.5136232,25.1127907 L80.5136232,66.3683721 C80.5160145,67.8229884 81.6885507,69.0008023 83.1336957,69 L106.59,69 C108.035145,69.0008023 109.206884,67.8229884 109.209275,66.3683721 L109.209275,25.1127907 C109.206884,23.6581744 108.035145,22.4803605 106.59,22.4811628 L106.59,22.4811628 Z"/>
    <path stroke="#FFFFFF" stroke-width="4.8" d="M106.813188,60.9606977 L82.9128986,60.9606977 L82.9128986,28.8837209 L106.811594,28.8837209 L106.811594,60.9606977 L106.813188,60.9606977 L106.813188,60.9606977 Z M94.8614493,67.4354651 C93.5167391,67.4330581 92.4278986,66.3338721 92.4302899,64.9803488 C92.4326812,63.6268256 93.5247101,62.5308488 94.8694203,62.5332558 C96.2141304,62.5356628 97.302971,63.6348488 97.3005797,64.9883721 C97.2973913,66.3418953 96.2061594,67.4370698 94.8614493,67.4354651 L94.8614493,67.4354651 Z M89.2817391,26.4687209 L91.6650725,26.4687209 L91.6650725,24.904186 L89.2817391,24.904186 L89.2817391,26.4687209 Z M93.2672464,26.4687209 L98.8469565,26.4687209 L98.8469565,24.904186 L93.2672464,24.904186 L93.2672464,26.4687209 Z M106.59,22.4811628 L83.1336957,22.4811628 C81.6885507,22.4803605 80.5160145,23.6581744 80.5136232,25.1127907 L80.5136232,66.3683721 C80.5160145,67.8229884 81.6885507,69.0008023 83.1336957,69 L106.59,69 C108.035145,69.0008023 109.206884,67.8229884 109.209275,66.3683721 L109.209275,25.1127907 C109.206884,23.6581744 108.035145,22.4803605 106.59,22.4811628 L106.59,22.4811628 Z" stroke-linejoin="round"/>
    <path fill="#91929B" d="M106.813188,60.9606977 L82.9128986,60.9606977 L82.9128986,28.8837209 L106.811594,28.8837209 L106.811594,60.9606977 L106.813188,60.9606977 Z M94.8614493,67.4354651 C93.5167391,67.4330581 92.4278986,66.3338721 92.4302899,64.9803488 C92.4326812,63.6268256 93.5247101,62.5308488 94.8694203,62.5332558 C96.2141304,62.5356628 97.302971,63.6348488 97.3005797,64.9883721 C97.2973913,66.3418953 96.2061594,67.4370698 94.8614493,67.4354651 L94.8614493,67.4354651 Z M89.2817391,26.4687209 L91.6650725,26.4687209 L91.6650725,24.904186 L89.2817391,24.904186 L89.2817391,26.4687209 Z M93.2672464,26.4687209 L98.8469565,26.4687209 L98.8469565,24.904186 L93.2672464,24.904186 L93.2672464,26.4687209 Z M106.59,22.4811628 L83.1336957,22.4811628 C81.6885507,22.4803605 80.5160145,23.6581744 80.5136232,25.1127907 L80.5136232,66.3683721 C80.5160145,67.8229884 81.6885507,69.0008023 83.1336957,69 L106.59,69 C108.035145,69.0008023 109.206884,67.8229884 109.209275,66.3683721 L109.209275,25.1127907 C109.206884,23.6581744 108.035145,22.4803605 106.59,22.4811628 L106.59,22.4811628 Z"/>
    <path fill="url(#a)" d="M86.1145151,32.5080233 L103.883746,32.5080233 C104.776246,32.5080233 105.49913,33.3341771 105.49913,34.3541771 L105.49913,54.6618694 C105.49913,55.6818694 104.776246,56.5080233 103.883746,56.5080233 L86.1145151,56.5080233 C85.2220151,56.5080233 84.4991304,55.6818694 84.4991304,54.6618694 L84.4991304,34.3541771 C84.4991304,33.3341771 85.2220151,32.5080233 86.1145151,32.5080233"/>
    <path fill="#FFFFFF" d="M99.2471739,44.1439535 L93.6674638,44.1439535 L95.3796377,41.7610465 L93.6682609,39.3139535 L99.247971,39.3139535 L99.247971,44.1439535 L99.2471739,44.1439535 Z M90.4846377,37.7173256 L93.3302899,41.680814 L90.4846377,45.7165116 L99.2471739,45.7165116 L99.2471739,52.159186 L100.857319,52.159186 L100.857319,37.7173256 L90.4846377,37.7173256 Z" transform="matrix(-1 0 0 1 191.342 0)"/>
  </g>
</svg>
