<svg xmlns="http://www.w3.org/2000/svg" width="120" height="120" viewBox="0 0 120 120" xmlns:xlink="http://www.w3.org/1999/xlink">
  <defs>
    <path id="a" d="M84.8,20.56 C84.8,21.36 84.16,22.08 83.28,22.08 L42.32,22.08 C41.52,22.08 40.8,21.44 40.8,20.56 L40.8,18.72 C40.8,17.92 41.44,17.2 42.32,17.2 L83.36,17.2 C84.16,17.2 84.8,17.84 84.8,18.72 L84.8,20.56 Z M33.6,19.6 C33.6,18.24 34.64,17.2 36,17.2 C37.36,17.2 38.4,18.24 38.4,19.6 C38.4,20.96 37.36,22 36,22 C34.64,22 33.6,20.96 33.6,19.6 Z M27.2,19.6 C27.2,18.24 28.24,17.2 29.6,17.2 C30.96,17.2 32,18.24 32,19.6 C32,20.96 30.96,22 29.6,22 C28.24,22 27.2,20.96 27.2,19.6 Z M79.3137085,62 L84.8,62 C86.56,62 88,60.56 88,58.8 L88,17.2 C88,15.44 86.56,14 84.8,14 L27.2,14 C25.44,14 24,15.44 24,17.2 L24,24 L64,24 L83.2,24 C84.08,24 84.8,24.72 84.8,25.6 L84.8,57.2 C84.8,58.08 84.08,58.8 83.2,58.8 L79.9635609,58.8 C79.8824279,59.7311822 79.6658104,60.7978489 79.3137085,62 Z"/>
    <linearGradient id="b" x1="54.232%" x2="83.826%" y1="108.197%" y2="0%">
      <stop stop-color="#00B7B3" offset="0%"/>
      <stop stop-color="#2EAFE6" offset="100%"/>
    </linearGradient>
  </defs>
  <g fill="none" fill-rule="evenodd" transform="translate(4 19)">
    <path fill="#D1D1D1" d="M60.8,7.35 C60.8,8.15 60.16,8.87 59.28,8.87 L18.32,8.87 C17.52,8.87 16.8,8.23 16.8,7.35 L16.8,5.51 C16.8,4.71 17.44,3.99 18.32,3.99 L59.36,3.99 C60.16,3.99 60.8,4.63 60.8,5.51 L60.8,7.35 Z M9.6,6.39 C9.6,5.03 10.64,3.99 12,3.99 C13.36,3.99 14.4,5.03 14.4,6.39 C14.4,7.75 13.36,8.79 12,8.79 C10.64,8.79 9.6,7.75 9.6,6.39 Z M3.2,6.39 C3.2,5.03 4.24,3.99 5.6,3.99 C6.96,3.99 8,5.03 8,6.39 C8,7.75 6.96,8.79 5.6,8.79 C4.24,8.79 3.2,7.75 3.2,6.39 Z M55.6175654,48.79 C55.8406789,48.0162047 55.9661685,46.949538 55.9940344,45.59 L59.2,45.59 C60.08,45.59 60.8,44.87 60.8,43.99 L60.8,13.59 C60.8,12.71 60.08,11.99 59.2,11.99 L40,11.99 L0,11.99 L0,3.99 C0,2.23 1.44,0.79 3.2,0.79 L60.8,0.79 C62.56,0.79 64,2.23 64,3.99 L64,45.59 C64,47.35 62.56,48.79 60.8,48.79 L55.6175654,48.79 Z M41,48.79 L40,48.79 L40,45.59 L41,45.59 L41,48.79 Z" transform="translate(48 .01)"/>
    <rect width="8" height="3.2" x="89.6" y="48.6" fill="#FFFFFF"/>
    <path fill="#38B0E4" d="M100.24,39.4 C103.6,47.72 99.6,57.24 91.28,60.6 C89.2,61.48 86.96,61.88 84.72,61.8 L84.88,57.72 C89.92,57.88 94.48,54.92 96.4,50.2 C97.6,47.24 97.68,43.88 96.48,40.92 L90.56,43.4 L95.2,32.2 L106.32,36.84 L100.24,39.4 Z"/>
    <use fill="#91929B" xlink:href="#a"/>
    <path stroke="#FFFFFF" stroke-width="2" d="M83.8,20.56 L83.8,18.72 C83.8,18.3963246 83.6109467,18.2 83.36,18.2 L42.32,18.2 C42.0277286,18.2 41.8,18.436163 41.8,18.72 L41.8,20.56 C41.8,20.8522714 42.036163,21.08 42.32,21.08 L83.28,21.08 C83.5722714,21.08 83.8,20.843837 83.8,20.56 Z M34.6,19.6 C34.6,20.4077153 35.1922847,21 36,21 C36.8077153,21 37.4,20.4077153 37.4,19.6 C37.4,18.7922847 36.8077153,18.2 36,18.2 C35.1922847,18.2 34.6,18.7922847 34.6,19.6 Z M28.2,19.6 C28.2,20.4077153 28.7922847,21 29.6,21 C30.4077153,21 31,20.4077153 31,19.6 C31,18.7922847 30.4077153,18.2 29.6,18.2 C28.7922847,18.2 28.2,18.7922847 28.2,19.6 Z M78.3540255,61.7189154 C78.6886876,60.5763077 78.8924091,59.5731429 78.9673352,58.7131998 L79.0469014,57.8 L83.2,57.8 C83.5277153,57.8 83.8,57.5277153 83.8,57.2 L83.8,25.6 C83.8,25.2722847 83.5277153,25 83.2,25 L23,25 L23,17.2 C23,14.8877153 24.8877153,13 27.2,13 L84.8,13 C87.1122847,13 89,14.8877153 89,17.2 L89,58.8 C89,61.1122847 87.1122847,63 84.8,63 L77.9788045,63 L78.3540255,61.7189154 Z"/>
    <rect width="8" height="3.2" x="64.8" y="59.8" fill="#FFFFFF"/>
    <path fill="#38B0E4" d="M76.24,51.8 C79.6,60.12 75.6,69.64 67.28,73 C65.2,73.88 62.96,74.28 60.72,74.2 L60.88,70.12 C65.92,70.28 70.48,67.32 72.4,62.6 C73.6,59.64 73.68,56.28 72.48,53.32 L66.64,55.8 L71.28,44.6 L82.4,49.24 L76.24,51.8"/>
    <path fill="#FFFFFF" d="M60.8,32.68 C60.8,33.48 60.16,34.2 59.28,34.2 L18.32,34.2 C17.52,34.2 16.8,33.56 16.8,32.68 L16.8,30.84 C16.8,30.04 17.44,29.32 18.32,29.32 L59.36,29.32 C60.16,29.32 60.88,29.96 60.88,30.84 L60.8,32.68 Z M60.8,69.4 C60.8,70.28 60.08,71 59.2,71 L4.8,71 C3.92,71 3.2,70.28 3.2,69.4 L3.2,39 C3.2,38.12 3.92,37.4 4.8,37.4 L59.2,37.4 C60.08,37.4 60.8,38.12 60.8,39 L60.8,69.4 Z M5.6,29.4 C6.96,29.4 8,30.44 8,31.8 C8,33.16 6.96,34.2 5.6,34.2 C4.24,34.2 3.2,33.16 3.2,31.8 C3.2,30.44 4.24,29.4 5.6,29.4 L5.6,29.4 Z M12,29.4 C13.36,29.4 14.4,30.44 14.4,31.8 C14.4,33.16 13.36,34.2 12,34.2 C10.64,34.2 9.6,33.16 9.6,31.8 C9.6,30.44 10.64,29.4 12,29.4 L12,29.4 Z M60.8,26.2 L3.2,26.2 C1.44,26.2 0,27.64 0,29.4 L0,71 C0,72.76 1.44,74.2 3.2,74.2 L60.8,74.2 C62.56,74.2 64,72.76 64,71 L64,29.4 C64,27.64 62.56,26.2 60.8,26.2 L60.8,26.2 Z"/>
    <path stroke="#FFFFFF" stroke-width="3.2" d="M60.8,32.68 C60.8,33.48 60.16,34.2 59.28,34.2 L18.32,34.2 C17.52,34.2 16.8,33.56 16.8,32.68 L16.8,30.84 C16.8,30.04 17.44,29.32 18.32,29.32 L59.36,29.32 C60.16,29.32 60.88,29.96 60.88,30.84 L60.8,32.68 L60.8,32.68 Z M60.8,69.4 C60.8,70.28 60.08,71 59.2,71 L4.8,71 C3.92,71 3.2,70.28 3.2,69.4 L3.2,39 C3.2,38.12 3.92,37.4 4.8,37.4 L59.2,37.4 C60.08,37.4 60.8,38.12 60.8,39 L60.8,69.4 L60.8,69.4 Z M5.6,29.4 C6.96,29.4 8,30.44 8,31.8 C8,33.16 6.96,34.2 5.6,34.2 C4.24,34.2 3.2,33.16 3.2,31.8 C3.2,30.44 4.24,29.4 5.6,29.4 L5.6,29.4 Z M12,29.4 C13.36,29.4 14.4,30.44 14.4,31.8 C14.4,33.16 13.36,34.2 12,34.2 C10.64,34.2 9.6,33.16 9.6,31.8 C9.6,30.44 10.64,29.4 12,29.4 L12,29.4 Z M60.8,26.2 L3.2,26.2 C1.44,26.2 0,27.64 0,29.4 L0,71 C0,72.76 1.44,74.2 3.2,74.2 L60.8,74.2 C62.56,74.2 64,72.76 64,71 L64,29.4 C64,27.64 62.56,26.2 60.8,26.2 L60.8,26.2 Z" stroke-linejoin="round"/>
    <path fill="#2E2F39" d="M60.8,32.68 C60.8,33.48 60.16,34.2 59.28,34.2 L18.32,34.2 C17.52,34.2 16.8,33.56 16.8,32.68 L16.8,30.84 C16.8,30.04 17.44,29.32 18.32,29.32 L59.36,29.32 C60.16,29.32 60.88,29.96 60.88,30.84 L60.8,32.68 Z M60.8,69.4 C60.8,70.28 60.08,71 59.2,71 L4.8,71 C3.92,71 3.2,70.28 3.2,69.4 L3.2,39 C3.2,38.12 3.92,37.4 4.8,37.4 L59.2,37.4 C60.08,37.4 60.8,38.12 60.8,39 L60.8,69.4 Z M8,31.8 C8,33.16 6.96,34.2 5.6,34.2 C4.24,34.2 3.2,33.16 3.2,31.8 C3.2,30.44 4.24,29.4 5.6,29.4 C6.96,29.4 8,30.44 8,31.8 Z M14.4,31.8 C14.4,33.16 13.36,34.2 12,34.2 C10.64,34.2 9.6,33.16 9.6,31.8 C9.6,30.44 10.64,29.4 12,29.4 C13.36,29.4 14.4,30.44 14.4,31.8 Z M3.2,26.2 C1.44,26.2 0,27.64 0,29.4 L0,71 C0,72.76 1.44,74.2 3.2,74.2 L60.8,74.2 C62.56,74.2 64,72.76 64,71 L64,29.4 C64,27.64 62.56,26.2 60.8,26.2 L3.2,26.2 Z"/>
    <g transform="translate(13 17)">
      <path fill="url(#b)" d="M1.26666667 25L36.7333333 25C37.43 25 38 25.703125 38 26.5625L38 48.4375C38 49.296875 37.43 50 36.7333333 50L1.26666667 50C.57 50 0 49.296875 0 48.4375L0 26.5625C0 25.703125.57 25 1.26666667 25M55.4333333 12L67.5666667 12C67.805 12 68 12.225 68 12.5L68 19.5C68 19.775 67.805 20 67.5666667 20L55.4333333 20C55.195 20 55 19.775 55 19.5L55 12.5C55 12.225 55.195 12 55.4333333 12M79.4333333 0L91.5666667 0C91.805 0 92 .225 92 .5L92 7.5C92 7.775 91.805 8 91.5666667 8L79.4333333 8C79.195 8 79 7.775 79 7.5L79 .5C79 .225 79.195 0 79.4333333 0"/>
      <path fill="#FFFFFF" d="M26.2315789,36.5166667 L18.4157895,36.5166667 L20.6263158,33.7458333 L18.4157895,30.975 L26.2315789,30.975 L26.2315789,36.5166667 Z M13.6,28.6 L17.3894737,33.7458333 L13.6,38.8916667 L26.2315789,38.8916667 L26.2315789,47.6 L28.6,47.6 L28.6,28.6 L13.6,28.6 Z" transform="matrix(-1 0 0 1 42.2 0)"/>
    </g>
    <polygon fill="#91929B" points="84.8 53.4 88 53.4 88 38.92 84.8 38.92"/>
  </g>
</svg>
