<svg xmlns="http://www.w3.org/2000/svg" width="120" height="120" viewBox="0 0 120 120">
  <g fill="none" fill-rule="evenodd" transform="matrix(-1 0 0 1 99 24)">
    <path fill="#36B1E7" d="M55.5961875,33.8256075 L66.2324375,33.8256075 L66.2324375,40.7134579 L55.5961875,40.7134579 L55.5961875,33.8256075 L55.5961875,33.8256075 Z M55.5961875,56.3614019 L66.1936875,56.3614019 L66.1936875,63.2242056 L55.5961875,63.2242056 L55.5961875,56.3614019 L55.5961875,56.3614019 Z M55.6349375,10.0061682 L66.2324375,10.0061682 L66.2324375,16.3304673 L55.6355625,16.3304673 L55.6355625,10.0061682 L55.6349375,10.0061682 L55.6349375,10.0061682 Z M54.9786875,19.9872897 L66.6399375,19.9872897 C68.2430625,19.9872897 69.9949375,19.5427103 69.9949375,17.9459813 L69.9949375,9.84336449 C69.9949375,8.24663551 68.2449375,6.26794393 66.6399375,6.26794393 L54.9786875,6.26794393 C53.3749375,6.26794393 51.8724375,8.24663551 51.8724375,9.84336449 L51.8724375,11.8533645 L46.5149375,11.8533645 C42.1661875,11.8533645 39.3755625,15.0718692 39.3755625,19.3924299 L39.3755625,34.4517757 L28.7386875,34.4517757 L28.7386875,38.19 L39.3761875,38.19 L39.3761875,53.5373832 C39.3761875,57.8642056 42.1661875,60.713271 46.5149375,60.713271 L51.8993125,60.713271 L51.8993125,63.6813084 C51.8993125,65.2717757 53.3743125,67 54.9786875,67 L66.6399375,67 C68.2430625,67 69.9949375,65.2717757 69.9949375,63.6813084 L69.9949375,54.9337383 C69.9949375,53.343271 68.2449375,52.6419626 66.6399375,52.6419626 L54.9786875,52.6419626 C53.3749375,52.6419626 51.8993125,53.343271 51.8993125,54.9337383 L51.8993125,56.9374766 L46.5149375,56.9374766 C44.7774375,57.065215 43.2655625,55.7571495 43.1386875,54.0164019 C43.1268125,53.856729 43.1274375,53.6970561 43.1399375,53.5373832 L43.1399375,38.19 L51.8761875,38.19 L51.8761875,40.8136449 C51.8761875,42.4041121 53.3761875,44.5142991 54.9811875,44.5142991 L66.6424375,44.5142991 C68.2455625,44.5142991 69.9974375,42.4041121 69.9974375,40.8136449 L69.9974375,32.1224299 C69.9974375,30.5257009 68.2474375,29.4299065 66.6424375,29.4299065 L54.9786875,29.4299065 C53.3749375,29.4299065 51.8724375,30.5257009 51.8724375,32.1224299 L51.8724375,34.4517757 L43.1386875,34.4517757 L43.1386875,19.3924299 C43.1386875,17.3260748 44.4349375,15.666729 46.5136875,15.666729 L51.8699375,15.666729 L51.8699375,17.9459813 C51.8730625,19.5427103 53.3749375,19.9872897 54.9786875,19.9872897 L54.9786875,19.9872897 Z"/>
    <path fill="#2E2F39" d="M16.245,38.8349533 L26.245,38.8349533 L26.245,32.5482243 L16.245,32.5482243 L16.245,38.8349533 Z M7.845,12.4670093 L10.811875,8.01495327 L7.844375,3.77579439 L19.350625,3.77579439 L19.350625,12.4670093 L7.845,12.4670093 Z M27.028125,28.8037383 L23.125,28.8037383 L23.125,0 L0,0 L5.90125,8.01495327 L0,16.2928972 L19.35125,16.2928972 L19.35125,24.3141121 L19.35125,28.8037383 L15.45125,28.8037383 C13.839375,28.7924673 12.520625,30.0880093 12.50125,31.7028972 L12.50125,39.6928037 C12.520625,41.3076916 13.839375,42.6032336 15.45125,42.5919626 L27.028125,42.5919626 C28.64,42.6038598 29.95875,41.3076916 29.978125,39.6928037 L29.978125,31.7028972 C29.95875,30.0880093 28.64,28.7918411 27.028125,28.8037383 L27.028125,28.8037383 Z"/>
  </g>
</svg>
