<svg xmlns="http://www.w3.org/2000/svg" width="120" height="120" viewBox="0 0 120 120">
  <g fill="none" fill-rule="evenodd" transform="translate(18 36)">
    <rect width="40" height="48" fill="#38B0E4" rx="3"/>
    <rect width="24" height="2" x="8" y="32" fill="#FFFFFF" rx="1"/>
    <rect width="24" height="2" x="8" y="36" fill="#FFFFFF" rx="1"/>
    <rect width="24" height="2" x="8" y="40" fill="#FFFFFF" rx="1"/>
    <path fill="#FFFFFF" fill-rule="nonzero" d="M14.1388849,14.0238129 C13.5997517,13.3948242 12.6528017,13.3219819 12.0238129,13.8611151 C11.3948242,14.4002483 11.3219819,15.3471983 11.8611151,15.9761871 L19.107459,24.430255 L30.2206002,8.87185729 C30.7021137,8.19773841 30.5459762,7.26091328 29.8718573,6.77939979 C29.1977384,6.29788631 28.2609133,6.45402383 27.7793998,7.12814271 L18.892541,19.569745 L14.1388849,14.0238129 Z"/>
    <g transform="translate(45)">
      <rect width="40" height="48" fill="#2E2F39" rx="3"/>
      <path fill="#FFFFFF" d="M15.8078289,21.6063847 C16.9764094,22.4815965 18.4276649,23 20,23 C23.8659932,23 27,19.8659932 27,16 C27,14.4276649 26.4815965,12.9764094 25.6063847,11.8078289 L15.8078289,21.6063847 Z M14.3936153,20.1921711 L24.1921711,10.3936153 C23.0235906,9.51840355 21.5723351,9 20,9 C16.1340068,9 13,12.1340068 13,16 C13,17.5723351 13.5184035,19.0235906 14.3936153,20.1921711 Z M20,25 C15.0294373,25 11,20.9705627 11,16 C11,11.0294373 15.0294373,7 20,7 C24.9705627,7 29,11.0294373 29,16 C29,20.9705627 24.9705627,25 20,25 Z"/>
      <rect width="24" height="2" x="8" y="32" fill="#FFFFFF" rx="1"/>
      <rect width="24" height="2" x="8" y="36" fill="#FFFFFF" rx="1"/>
      <rect width="24" height="2" x="8" y="40" fill="#FFFFFF" rx="1"/>
    </g>
  </g>
</svg>
