<svg xmlns="http://www.w3.org/2000/svg" width="120" height="120" viewBox="0 0 120 120">
  <g fill="none" fill-rule="evenodd" transform="translate(18 27)">
    <path fill="#91929B" d="M81.8888889,6.22018868 C81.8888889,7.0049717 81.241,7.64150943 80.4422222,7.64150943 L17.78,7.64150943 C16.9812222,7.64150943 16.3333333,7.0049717 16.3333333,6.22018868 L16.3333333,4.47792453 C16.3333333,3.69314151 16.9812222,3.05660377 17.78,3.05660377 L80.4422222,3.05660377 C81.241,3.05660377 81.8888889,3.69314151 81.8888889,4.47792453 L81.8888889,6.22018868 Z M81.8888889,60.1886792 C81.8888889,61.033066 81.1927778,61.7169811 80.3333333,61.7169811 L4.66666667,61.7169811 C3.80722222,61.7169811 3.11111111,61.033066 3.11111111,60.1886792 L3.11111111,12.2264151 C3.11111111,11.3820283 3.80722222,10.6981132 4.66666667,10.6981132 L80.3333333,10.6981132 C81.1927778,10.6981132 81.8888889,11.3820283 81.8888889,12.2264151 L81.8888889,60.1886792 Z M7.77777778,5.3490566 C7.77777778,6.61525472 6.73322222,7.64150943 5.44444444,7.64150943 C4.15566667,7.64150943 3.11111111,6.61525472 3.11111111,5.3490566 C3.11111111,4.08285849 4.15566667,3.05660377 5.44444444,3.05660377 C6.73322222,3.05660377 7.77777778,4.08285849 7.77777778,5.3490566 Z M14,5.3490566 C14,6.61525472 12.9554444,7.64150943 11.6666667,7.64150943 C10.3778889,7.64150943 9.33333333,6.61525472 9.33333333,5.3490566 C9.33333333,4.08285849 10.3778889,3.05660377 11.6666667,3.05660377 C12.9554444,3.05660377 14,4.08285849 14,5.3490566 Z M3.11111111,0 C1.393,0 0,1.36859434 0,3.05660377 L0,61.7169811 C0,63.4049906 1.393,64.7735849 3.11111111,64.7735849 L81.8888889,64.7735849 C83.607,64.7735849 85,63.4049906 85,61.7169811 L85,3.05660377 C85,1.36859434 83.607,4.97379915e-14 81.8888889,4.97379915e-14 L3.11111111,0 Z"/>
    <path fill="#2E2F39" d="M37.2284406,28.10112 C37.2185651,28.114496 37.2065733,28.126464 37.1931708,28.13632 C37.188233,28.14336 37.184706,28.14336 37.1804737,28.1504 C36.6944552,28.593216 35.9467346,28.580544 35.4755295,28.12224 C35.3739524,28.025088 35.2907156,27.91104 35.2300514,27.78432 C34.928847,27.171136 35.1827898,26.429824 35.7978959,26.129216 C35.9671911,26.046848 36.1534159,26.0032 36.3417568,26.0032 C36.4828362,26.005312 36.6225048,26.029248 36.7558248,26.0736 C36.9237092,26.136256 37.0781911,26.232 37.2086895,26.3552 C37.6975295,26.829696 37.7074051,27.609728 37.2319676,28.0976 C37.2305568,28.098304 37.2298514,28.099712 37.2284406,28.10112 L37.2284406,28.10112 Z M34.8632451,25.0176 C34.7080578,25.123904 34.5634514,25.244288 34.4301314,25.37664 C34.2770603,25.532928 34.1444457,25.708224 34.0351092,25.8976 L29.0564184,26.93952 L27.9221403,27.17888 C27.9277835,26.327744 28.0632197,25.482944 28.3242165,24.67264 C28.4434286,24.298816 28.5901511,23.934144 28.7636787,23.58144 C29.5650095,21.943936 30.874226,20.608448 32.4966387,19.7728 C32.8479263,19.596096 33.2112057,19.443328 33.5829498,19.3152 C34.3687619,19.041344 35.19196,18.887168 36.0236229,18.8576 L35.8120038,19.99104 L34.8632451,25.0176 Z M23.9839098,24.97536 C23.5656095,24.97536 23.227019,25.313984 23.2277244,25.731456 L23.2277244,25.74272 L23.2644051,29.0304 C23.2707537,29.447872 23.6114603,29.78368 24.0297606,29.78368 L24.0382254,29.78368 L25.1774413,29.84 C25.4800565,31.137472 26.0091041,32.372288 26.7406006,33.48672 L25.9942908,34.3456 C25.6994349,34.645504 25.7043727,35.12704 26.0048717,35.420608 C26.0055771,35.421312 26.0062825,35.422016 26.0069879,35.42272 L28.3658349,37.71776 C28.6656286,38.012032 29.14812,38.007808 29.4429759,37.708608 C29.4450921,37.7072 29.4465029,37.705088 29.4479137,37.70368 L30.2943898,36.94336 C31.3708254,37.610048 32.5509543,38.092992 33.7861041,38.37248 C33.8785111,38.219712 33.988553,38.078208 34.1127029,37.95008 C34.4893848,37.572032 35.0000921,37.357312 35.5340775,37.35168 L36.0419632,37.31648 C36.0447848,37.304512 36.0483117,37.292544 36.0525441,37.28128 C36.2133746,36.718784 36.4073587,36.166144 36.6344965,35.62688 L36.343873,35.62688 C35.4684756,35.62688 34.5987213,35.491712 33.7649422,35.2256 C33.3889657,35.107328 33.0228648,34.9616 32.6687556,34.78912 C31.0258863,33.995712 29.6863378,32.6912 28.8511479,31.072 C28.8109403,30.99456 28.7721435,30.91712 28.7347575,30.83968 L34.8822908,29.47392 C35.3175206,29.75552 35.8254063,29.904768 36.343873,29.90336 L36.4567365,29.90336 L37.2446648,30.67072 L39.8334711,28.08704 L39.017327,27.29152 C39.0293187,26.7072 38.846621,26.135552 38.4988603,25.66528 L39.7220184,19.55456 C39.820774,19.5968 39.9209403,19.64608 40.0182851,19.68832 C41.6597435,20.48736 42.9985867,21.79328 43.8373035,23.41248 C44.0178851,23.759552 44.1730724,24.12 44.3007492,24.4896 C44.6449829,25.48224 44.7994648,26.530496 44.7578463,27.58016 C45.2791346,27.36896 45.8110038,27.185216 46.3520432,27.03104 L46.3619187,26.86208 L46.3830806,26.52416 C46.3915454,25.991936 46.6088076,25.484352 46.9869003,25.10912 C47.1886438,24.90496 47.508894,24.63744 47.508894,24.63744 C47.2048679,23.34208 46.6758203,22.11008 45.9450292,20.99776 L46.6927498,20.13888 C46.9876057,19.838976 46.9826679,19.35744 46.6821689,19.063872 C46.6814635,19.063168 46.6807581,19.062464 46.6800527,19.06176 L44.3205003,16.75968 C44.175894,16.623808 43.9847314,16.547776 43.7858095,16.54848 C43.5798337,16.545664 43.3823225,16.626624 43.2384216,16.77376 L42.3919454,17.53408 C41.2562565,16.832896 40.0069987,16.335168 38.6998984,16.06272 L38.6180724,14.92928 C38.6117238,14.511808 38.2717225,14.176704 37.8534222,14.176 L37.8442521,14.176 L34.5458165,14.2112 C34.1232838,14.21824 33.7853987,14.563904 33.7896311,14.9856 L33.7331994,16.11904 C32.4324476,16.419648 31.1937708,16.94624 30.0757168,17.67488 L29.2151327,16.93568 C29.0726425,16.794176 28.8800692,16.716032 28.6790311,16.71744 C28.474466,16.71744 28.2776603,16.7984 28.1323486,16.94272 L25.825701,19.29408 C25.5308451,19.593984 25.5357829,20.07552 25.8362819,20.369088 L25.8383981,20.3712 L26.6023429,21.216 C25.8962406,22.344512 25.3947035,23.58848 25.1210095,24.89088 L23.9839098,24.97536 Z"/>
    <path fill="#36B1E7" d="M51.1106502,40.51264 C51.9394914,40.513344 52.6110292,41.183552 52.6103238,42.010752 L52.6103238,42.01216 L52.6103238,42.0896 C52.568,42.883008 51.9112756,43.505344 51.1148825,43.50464 C50.9455873,43.505344 50.7769975,43.477184 50.6175778,43.42016 C49.8367035,43.146304 49.4268679,42.292352 49.7012673,41.513728 C49.8352927,41.133568 50.1174514,40.823104 50.4835524,40.65344 C50.6803581,40.559808 50.8955041,40.511936 51.1134717,40.51264 L51.1106502,40.51264 Z M48.8576127,32.0928 C49.594047,31.928064 50.3474108,31.845696 51.1021854,31.8464 L51.1113556,31.8464 C52.205426,31.8464 53.2924425,32.020288 54.3314921,32.36032 C54.782946,32.513792 55.223819,32.696832 55.6505841,32.90944 C57.6285168,33.892224 59.2318838,35.491008 60.218734,37.46432 C60.4381124,37.887424 60.622221,38.327424 60.7689435,38.7808 C60.8803962,39.11168 60.974214,39.447488 61.0511022,39.78752 L59.9365752,39.78752 L53.4631486,39.79456 C52.9736032,39.28064 52.3295759,38.939904 51.6291168,38.82304 L48.2037098,33.58528 L47.8404305,33.02912 L47.4961968,32.50112 C47.6196413,32.45888 47.7430857,32.4096 47.8700571,32.36736 C47.9688127,32.33216 48.0703898,32.304 48.171967,32.27584 C48.4047479,32.20544 48.6283587,32.14912 48.8590235,32.0928 L48.8576127,32.0928 Z M41.450946,45.24352 C40.8541803,43.456064 40.7638895,41.538368 41.1899492,39.70304 C41.2435594,39.47072 41.3042235,39.24544 41.3733524,39.02016 C41.3966305,38.94976 41.420614,38.87232 41.4438921,38.79488 C41.5003238,38.62592 41.5609879,38.45696 41.6258844,38.29504 C41.735221,38.01344 41.8572546,37.74592 41.9898692,37.4784 C42.2677956,36.918016 42.5986267,36.385088 42.9774248,35.88736 C43.2052679,35.585344 43.4500406,35.296 43.7110375,35.02144 L43.816847,35.18336 L44.4890902,36.18304 L45.557061,37.77408 L45.8843651,38.26688 L46.2109638,38.75264 L47.9441238,41.33632 C47.8968622,41.558784 47.8735841,41.784768 47.8735841,42.01216 C47.8735841,42.275456 47.9060324,42.538048 47.9702235,42.7936 L44.5575137,47.90464 L43.7815771,49.06624 C43.0627778,48.326336 42.4617797,47.480832 41.998334,46.56 C41.7867149,46.13408 41.6047225,45.69408 41.4537676,45.24352 L41.450946,45.24352 Z M60.778819,45.2224 C60.6271587,45.675072 60.4458717,46.117184 60.2356635,46.54592 C59.2424648,48.515008 57.6419194,50.114496 55.6696298,51.10784 C55.2442756,51.321152 54.8034025,51.50208 54.3505378,51.64992 C53.3100775,51.9984 52.219534,52.176512 51.1219365,52.17792 L51.1134717,52.17792 C50.0186959,52.179328 48.930974,52.003328 47.8926298,51.65696 L47.5928362,51.55136 L51.7440965,45.18016 C52.4050533,45.047808 53.0081676,44.712704 53.4702025,44.22272 L59.9457454,44.21568 L61.0602724,44.21568 C60.9855003,44.556416 60.8909771,44.892224 60.7781137,45.2224 L60.778819,45.2224 Z M66.0340254,44.91264 C66.5440273,44.911232 66.9566844,44.499392 66.9580952,43.9904 L66.9510413,40.00576 C66.9496305,39.496768 66.5369733,39.084928 66.0269714,39.08352 L64.6514476,38.99904 C64.30016,37.424192 63.674473,35.923264 62.8033079,34.56384 L63.7203238,33.536 C64.0807816,33.17344 64.0786654,32.588416 63.715386,32.228672 C63.7146806,32.227968 63.7139752,32.227264 63.7132698,32.22656 L60.8916825,29.41056 C60.7167441,29.23808 60.4811416,29.142336 60.2356635,29.14304 C59.9901854,29.143744 59.7552883,29.243008 59.5838768,29.4176 L58.5525867,30.32576 C57.18976,29.461248 55.685854,28.841728 54.1085867,28.49536 L54.023939,27.12256 C54.0253498,26.614976 53.6141035,26.201728 53.1055124,26.20032 L53.0998692,26.20032 L49.1073232,26.20032 C48.5966159,26.20032 48.1832533,26.613568 48.1832533,27.12256 L48.1007219,28.5024 C47.7198076,28.58688 47.3438311,28.68544 46.972087,28.79808 C46.3823752,28.983936 45.8053606,29.207104 45.2438648,29.46688 C45.0181378,29.57248 44.7952324,29.68512 44.575854,29.8048 C44.3289651,29.93856 44.0856032,30.07232 43.8478844,30.22016 C43.8217848,30.239168 43.7942743,30.25536 43.765353,30.26944 C43.7300832,30.295488 43.6934025,30.31872 43.6553111,30.33984 L42.6219048,29.43168 C42.4497879,29.256384 42.21348,29.15712 41.9672965,29.15712 C41.9165079,29.158528 41.8664248,29.162752 41.8163416,29.1712 C41.6258844,29.205696 41.450946,29.296512 41.3126883,29.43168 L41.2858832,29.45984 L38.6900229,32.05056 L38.4925117,32.24768 C38.2230502,32.521536 38.1489835,32.931968 38.306287,33.28256 C38.3528432,33.38464 38.4163289,33.477568 38.4946279,33.55712 L39.4116438,34.58496 C39.3890711,34.62016 39.3679092,34.65536 39.3467473,34.69056 C39.198614,34.92288 39.0575346,35.16928 38.9235092,35.41568 C38.8050025,35.63392 38.6928444,35.85216 38.5849187,36.07744 C38.3112248,36.651904 38.0784438,37.244672 37.8879867,37.85152 C37.7666584,38.23168 37.6622597,38.62592 37.5740851,39.02016 L36.1985613,39.10464 C35.6864432,39.107456 35.2730806,39.522816 35.2730806,40.03392 L35.2730806,44.01856 C35.2744914,44.527552 35.6885594,44.940096 36.1985613,44.9408 L37.5740851,45.01824 C37.9232565,46.593792 38.5482381,48.09472 39.4201086,49.45344 L38.5030927,50.48832 C38.1426349,50.845952 38.1412241,51.42816 38.5002711,51.787904 C38.5009765,51.788608 38.5023873,51.790016 38.5030927,51.79072 L41.32468,54.60672 C41.6879594,54.963648 42.2699117,54.963648 42.6331911,54.60672 L43.6651867,53.69152 C45.0273079,54.558144 46.5319194,55.18048 48.1091867,55.52896 L48.1938343,56.90176 C48.1952451,57.411456 48.609313,57.823296 49.1200203,57.824 L53.1104502,57.81696 C53.6190413,57.818368 54.0331092,57.407936 54.03452,56.900352 L54.03452,56.89472 L54.116346,55.52192 C55.6950241,55.174144 57.200341,54.549696 58.560346,53.67744 L59.5937524,54.59264 C59.9563263,54.949568 60.5389841,54.949568 60.9015581,54.59264 L63.7231454,51.7696 C64.0828978,51.409856 64.0828978,50.826944 63.7231454,50.4672 L62.8061295,49.43232 C63.6730622,48.072192 64.2938114,46.571264 64.6401613,44.99712 L66.0340254,44.91264 Z"/>
  </g>
</svg>
