<svg xmlns="http://www.w3.org/2000/svg" width="120" height="120" viewBox="0 0 120 120">
  <g fill="none" fill-rule="evenodd" transform="translate(26 3)">
    <path fill="#91929B" d="M44,86.0590511 L44,76.8422628 L65.3333333,76.8422628 L65.3333333,34.1546715 L44,34.1546715 L44,28.2422628 L64.22,28.2422628 C66.3053333,28.2422628 67.996,29.9056204 68,31.9605109 L68,82.3408029 C67.996,84.3956934 66.3053333,86.0590511 64.22,86.0590511 L44,86.0590511 Z M49.3333333,84.0882482 C50.806,84.0882482 52,82.9116788 52,81.4605109 C52,80.0093431 50.806,78.8327737 49.3333333,78.8327737 C47.8606667,78.8327737 46.6666667,80.0093431 46.6666667,81.4605109 C46.6666667,82.9116788 47.8606667,84.0882482 49.3333333,84.0882482 Z M48,32.1838686 L52,32.1838686 L52,30.199927 L48,30.199927 L48,32.1838686 Z"/>
    <path fill="#00B7B2" d="M57.9866667,1.80722628 C60.7346667,2.96474453 63.2273333,4.63861314 65.3266667,6.73423358 L62.9933333,9.05978102 C55.3673333,1.4380292 42.916,1.35131387 35.1813333,8.86532847 C35.1146667,8.92970803 35.0493333,8.99474453 34.984,9.05978102 L32.6506667,6.73423358 C39.2706667,0.124817518 49.316,-1.82824818 57.988,1.80722628 L57.9866667,1.80722628 Z"/>
    <path fill="#00B7B2" d="M47.338,21.3510219 C47.3466667,20.4529927 48.0926667,19.7316788 49.0046667,19.740219 C49.916,19.7487591 50.648,20.4845255 50.6393333,21.3825547 C50.6306667,22.2746715 49.8946667,22.9927007 48.9893333,22.9933577 C48.0733333,22.9881022 47.3346667,22.2536496 47.3386667,21.3510219 L47.338,21.3510219 Z M37.318,11.3787591 C43.678,5.02686131 54.0593333,4.95854015 60.5046667,11.2256934 C60.5566667,11.2762774 60.6086667,11.3275182 60.66,11.3787591 L58.3266667,13.7043066 C53.2426667,8.62291971 44.9413333,8.56510949 39.7846667,13.5748905 C39.7406667,13.6175912 39.6966667,13.6609489 39.6533333,13.7043066 L37.32,11.3787591 L37.318,11.3787591 Z M48.9893333,13.1393431 C51.622,13.1380292 54.144,14.179927 55.9893333,16.029854 L53.656,18.3488321 C51.12,15.8091241 46.9753333,15.7756204 44.398,18.2745985 C44.3726667,18.2989051 44.3473333,18.3238686 44.3226667,18.3488321 L41.9893333,16.029854 C43.8346667,14.179927 46.3573333,13.1386861 48.9893333,13.1393431 L48.9893333,13.1393431 Z"/>
    <path fill="#2E2F39" d="M2.66666667,80.1269343 L38.6666667,80.1269343 L38.6666667,29.5561314 L2.66666667,29.5561314 L2.66666667,80.1269343 Z M21.3333333,87.3729197 C19.8606667,87.3729197 18.6666667,86.1963504 18.6666667,84.7451825 C18.6666667,83.2940146 19.8606667,82.1174453 21.3333333,82.1174453 C22.806,82.1174453 24,83.2940146 24,84.7451825 C24,86.1963504 22.806,87.3729197 21.3333333,87.3729197 L21.3333333,87.3729197 Z M20,27.5853285 L24,27.5853285 L24,25.6013869 L20,25.6013869 L20,27.5853285 Z M37.5533333,23.6437226 L3.78,23.6437226 C1.69466667,23.6437226 0.004,25.3070803 0,27.3619708 L0,85.6254745 C0.004,87.680365 1.69466667,89.3437226 3.78,89.3437226 L37.5533333,89.3437226 C39.6386667,89.3437226 41.3293333,87.680365 41.3333333,85.6254745 L41.3333333,27.3619708 C41.3293333,25.3070803 39.6386667,23.6437226 37.5533333,23.6437226 L37.5533333,23.6437226 Z"/>
    <path fill="#36B1E7" d="M26,47.6844739 L20.5208333,51.8984672 L20.6666667,51.8984672 L20.6666667,63.0663504 L18.6666667,63.0663504 L18.6666667,53.3244953 L13.3333333,57.426329 L13.3333333,63.0663504 L11.3333333,63.0663504 L11.3333333,58.9645166 L6,63.0663504 L33.3333333,63.0663504 L33.3333333,42.0444526 L28,46.1462863 L28,63.0663504 L26,63.0663504 L26,47.6844739 Z"/>
  </g>
</svg>
