<?xml version="1.0" encoding="UTF-8"?>
<svg width="18px" height="14px" viewBox="0 0 18 14" version="1.1" xmlns="http://www.w3.org/2000/svg" xmlns:xlink="http://www.w3.org/1999/xlink">
    <!-- Generator: Sketch 47 (45396) - http://www.bohemiancoding.com/sketch -->
    <title>email</title>
    <desc>Created with Sketch.</desc>
    <defs></defs>
    <g id="Page-1" stroke="none" stroke-width="1" fill="none" fill-rule="evenodd">
        <g id="hilltop_site-upd_main-06" transform="translate(-150.000000, -3530.000000)" fill="#91929B">
            <g id="contacts" transform="translate(0.000000, 3253.000000)">
                <g id="Group-8" transform="translate(150.000000, 219.000000)">
                    <path d="M18,59.5897871 C18,60.1129253 17.8367259,60.6144252 17.5076066,61.091741 C17.1797729,61.5703298 16.7709449,61.9776393 16.2824084,62.3149425 C13.7651596,64.0447353 12.1979859,65.1228328 11.5821727,65.5466893 C11.5153203,65.5937844 11.3726162,65.694339 11.155346,65.8496258 C10.9380759,66.0049125 10.7568031,66.1309239 10.6128134,66.2276599 C10.4688237,66.324396 10.2952646,66.4325876 10.0908507,66.5509619 C9.88643668,66.6693362 9.69487894,66.759708 9.51360617,66.8195316 C9.3323334,66.8806281 9.16520249,66.9099034 9.01092779,66.9086306 L8.99035783,66.9086306 C8.83608314,66.9086306 8.66895222,66.8793552 8.48767945,66.8195316 C8.30640669,66.7609809 8.11484894,66.6706091 7.91043497,66.5509619 C7.706021,66.4313147 7.53246197,66.3231231 7.38847225,66.2276599 C7.24448254,66.1321968 7.06320977,66.0061854 6.84593958,65.8496258 C6.62866938,65.6930661 6.48596529,65.5925116 6.41911292,65.5466893 C5.80972788,65.1228328 4.93164774,64.5169598 3.78744375,63.7316161 C2.64195415,62.9462723 1.95543175,62.4740478 1.72787658,62.3149425 C1.31262053,62.0361901 0.921791301,61.6543374 0.552817656,61.1668387 C0.185129634,60.6793401 0,60.2274811 0,59.8099888 C0,59.2932148 0.138847225,58.8629941 0.416541676,58.516781 C0.694236126,58.1718407 1.09149346,57.9987341 1.60702807,58.000007 L16.3916863,58.000007 C16.8275123,58.000007 17.2041997,58.1552937 17.5217484,58.4671401 C17.8392972,58.7777136 17.9987144,59.1532021 17.9987144,59.5910599 L18,59.5897871 Z M18,62.5135059 L18,70.4089471 C18,70.8468048 17.8418684,71.2222933 17.5281766,71.5328669 C17.2131991,71.8447132 16.8352261,72 16.3929719,72 L1.60831369,72 C1.16605957,72 0.788086565,71.8447132 0.473109064,71.5328669 C0.159417184,71.2222933 0.00128562246,70.8468048 0.00128562246,70.4089471 L0.00128562246,62.5135059 C0.295693165,62.8393536 0.633811871,63.127016 1.01564174,63.3790387 C3.43904007,65.0108226 5.10392115,66.1525622 6.00771373,66.8093489 C6.3895436,67.0881014 6.69809299,67.3057574 6.93721877,67.4610442 C7.17634455,67.6176038 7.49132205,67.7767091 7.88600814,67.9383601 C8.27940861,68.1012839 8.64838226,68.1814729 8.99035783,68.1814729 L9.01092779,68.1814729 C9.35161774,68.1814729 9.72059139,68.1012839 10.1152775,67.9383601 C10.5099636,67.7767091 10.8262267,67.6176038 11.0640669,67.4610442 C11.301907,67.3057574 11.611742,67.0881014 11.9935719,66.8093489 C13.1313478,65.9934569 14.7988001,64.8504445 16.9959289,63.3790387 C17.3777587,63.1193789 17.7120206,62.8317165 18,62.5135059 L18,62.5135059 Z" id="email"></path>
                </g>
            </g>
        </g>
    </g>
</svg>