<?xml version="1.0" encoding="UTF-8"?>
<svg width="14px" height="13px" viewBox="0 0 14 13" version="1.1" xmlns="http://www.w3.org/2000/svg" xmlns:xlink="http://www.w3.org/1999/xlink">
    <!-- Generator: Sketch 47 (45396) - http://www.bohemiancoding.com/sketch -->
    <title>Combined Shape</title>
    <desc>Created with Sketch.</desc>
    <defs></defs>
    <g id="Page-1" stroke="none" stroke-width="1" fill="none" fill-rule="evenodd">
        <g id="hilltop_site-upd_main-06" transform="translate(-922.000000, -3549.000000)" fill="#FFFFFF">
            <g id="contacts" transform="translate(0.000000, 3253.000000)">
                <g id="Group-8" transform="translate(850.000000, 219.000000)">
                    <g id="btn" transform="translate(0.000000, 58.000000)">
                        <path d="M77.6412043,28.9058638 L73,32 L74.6361165,27.9097089 C73.0294375,26.9935455 72,25.5826434 72,24 C72,21.2385763 75.1340068,19 79,19 C82.8659932,19 86,21.2385763 86,24 C86,26.7614237 82.8659932,29 79,29 C78.53509,29 78.0807656,28.9676267 77.6412043,28.9058638 Z M76,25 C76.5522847,25 77,24.5522847 77,24 C77,23.4477153 76.5522847,23 76,23 C75.4477153,23 75,23.4477153 75,24 C75,24.5522847 75.4477153,25 76,25 Z M79,25 C79.5522847,25 80,24.5522847 80,24 C80,23.4477153 79.5522847,23 79,23 C78.4477153,23 78,23.4477153 78,24 C78,24.5522847 78.4477153,25 79,25 Z M82,25 C82.5522847,25 83,24.5522847 83,24 C83,23.4477153 82.5522847,23 82,23 C81.4477153,23 81,23.4477153 81,24 C81,24.5522847 81.4477153,25 82,25 Z" id="Combined-Shape"></path>
                    </g>
                </g>
            </g>
        </g>
    </g>
</svg>