<?xml version="1.0" encoding="UTF-8"?>
<svg width="18px" height="13px" viewBox="0 0 18 13" version="1.1" xmlns="http://www.w3.org/2000/svg" xmlns:xlink="http://www.w3.org/1999/xlink">
    <!-- Generator: Sketch 47 (45396) - http://www.bohemiancoding.com/sketch -->
    <title>GB</title>
    <desc>Created with Sketch.</desc>
    <defs>
        <rect id="path-1" x="0" y="0" width="18" height="13" rx="2"></rect>
    </defs>
    <g id="Page-1" stroke="none" stroke-width="1" fill="none" fill-rule="evenodd">
        <g id="hilltop_site-upd_main-06" transform="translate(-500.000000, -3575.000000)">
            <g id="contacts" transform="translate(0.000000, 3253.000000)">
                <g id="Group-8" transform="translate(500.000000, 219.000000)">
                    <g id="GB" transform="translate(0.000000, 103.000000)">
                        <g>
                            <mask id="mask-2" fill="white">
                                <use xlink:href="#path-1"></use>
                            </mask>
                            <use id="Mask" fill="#FFFFFF" xlink:href="#path-1"></use>
                            <rect id="Mask-Copy" fill="#0A17A7" mask="url(#mask-2)" x="0" y="0" width="18" height="13"></rect>
                            <path d="M4.2379318,8.66666667 L-6.66133815e-16,8.66666667 L-6.66133815e-16,4.33333333 L4.2379318,4.33333333 L-1.78838654,0.268530286 L-0.819118838,-1.16846817 L6.85714286,4.00923572 L6.85714286,-0.866666667 L11.1428571,-0.866666667 L11.1428571,4.00923572 L18.8191188,-1.16846817 L19.7883865,0.268530286 L13.7620682,4.33333333 L18,4.33333333 L18,8.66666667 L13.7620682,8.66666667 L19.7883865,12.7314697 L18.8191188,14.1684682 L11.1428571,8.99076428 L11.1428571,13.8666667 L6.85714286,13.8666667 L6.85714286,8.99076428 L-0.819118838,14.1684682 L-1.78838654,12.7314697 L4.2379318,8.66666667 Z" id="Rectangle-2" fill="#FFFFFF" mask="url(#mask-2)"></path>
                            <path d="M12.0008371,4.11592611 L20.1428571,-1.3" id="Line" stroke="#DB1F35" stroke-width="0.666666667" stroke-linecap="round" mask="url(#mask-2)"></path>
                            <path d="M12.8653564,13.8777222 L20.1642543,8.90338135" id="Line-Copy-2" stroke="#DB1F35" stroke-width="0.666666667" stroke-linecap="round" mask="url(#mask-2)" transform="translate(16.514805, 11.390552) scale(1, -1) translate(-16.514805, -11.390552) "></path>
                            <path d="M5.14641462,4.10180257 L-2.46695382,-1.08613688" id="Line-Copy" stroke="#DB1F35" stroke-width="0.666666667" stroke-linecap="round" mask="url(#mask-2)"></path>
                            <path d="M5.97216797,14.5018026 L-2.46695382,8.84318441" id="Line-Copy-3" stroke="#DB1F35" stroke-width="0.666666667" stroke-linecap="round" mask="url(#mask-2)" transform="translate(1.752607, 11.672493) scale(1, -1) translate(-1.752607, -11.672493) "></path>
                            <polygon id="Rectangle-2-Copy-3" fill="#E6273E" mask="url(#mask-2)" points="0 7.8 7.71428571 7.8 7.71428571 13 10.2857143 13 10.2857143 7.8 18 7.8 18 5.2 10.2857143 5.2 10.2857143 0 7.71428571 0 7.71428571 5.2 0 5.2"></polygon>
                        </g>
                    </g>
                </g>
            </g>
        </g>
    </g>
</svg>