<?xml version="1.0" encoding="UTF-8"?>
<svg width="18px" height="13px" viewBox="0 0 18 13" version="1.1" xmlns="http://www.w3.org/2000/svg" xmlns:xlink="http://www.w3.org/1999/xlink">
    <!-- Generator: Sketch 47 (45396) - http://www.bohemiancoding.com/sketch -->
    <title>US</title>
    <desc>Created with Sketch.</desc>
    <defs>
        <rect id="path-1" x="0" y="0" width="18" height="13" rx="2"></rect>
        <linearGradient x1="50%" y1="0%" x2="50%" y2="100%" id="linearGradient-3">
            <stop stop-color="#FFFFFF" offset="0%"></stop>
            <stop stop-color="#F0F0F0" offset="100%"></stop>
        </linearGradient>
        <path d="M1.28571429,1.73333333 C1.04902082,1.73333333 0.857142857,1.53932339 0.857142857,1.3 C0.857142857,1.06067661 1.04902082,0.866666667 1.28571429,0.866666667 C1.52240775,0.866666667 1.71428571,1.06067661 1.71428571,1.3 C1.71428571,1.53932339 1.52240775,1.73333333 1.28571429,1.73333333 Z M3,1.73333333 C2.76330654,1.73333333 2.57142857,1.53932339 2.57142857,1.3 C2.57142857,1.06067661 2.76330654,0.866666667 3,0.866666667 C3.23669346,0.866666667 3.42857143,1.06067661 3.42857143,1.3 C3.42857143,1.53932339 3.23669346,1.73333333 3,1.73333333 Z M4.71428571,1.73333333 C4.47759225,1.73333333 4.28571429,1.53932339 4.28571429,1.3 C4.28571429,1.06067661 4.47759225,0.866666667 4.71428571,0.866666667 C4.95097918,0.866666667 5.14285714,1.06067661 5.14285714,1.3 C5.14285714,1.53932339 4.95097918,1.73333333 4.71428571,1.73333333 Z M6.42857143,1.73333333 C6.19187796,1.73333333 6,1.53932339 6,1.3 C6,1.06067661 6.19187796,0.866666667 6.42857143,0.866666667 C6.66526489,0.866666667 6.85714286,1.06067661 6.85714286,1.3 C6.85714286,1.53932339 6.66526489,1.73333333 6.42857143,1.73333333 Z M2.14285714,2.6 C1.90616368,2.6 1.71428571,2.40599006 1.71428571,2.16666667 C1.71428571,1.92734328 1.90616368,1.73333333 2.14285714,1.73333333 C2.37955061,1.73333333 2.57142857,1.92734328 2.57142857,2.16666667 C2.57142857,2.40599006 2.37955061,2.6 2.14285714,2.6 Z M3.85714286,2.6 C3.62044939,2.6 3.42857143,2.40599006 3.42857143,2.16666667 C3.42857143,1.92734328 3.62044939,1.73333333 3.85714286,1.73333333 C4.09383632,1.73333333 4.28571429,1.92734328 4.28571429,2.16666667 C4.28571429,2.40599006 4.09383632,2.6 3.85714286,2.6 Z M5.57142857,2.6 C5.33473511,2.6 5.14285714,2.40599006 5.14285714,2.16666667 C5.14285714,1.92734328 5.33473511,1.73333333 5.57142857,1.73333333 C5.80812204,1.73333333 6,1.92734328 6,2.16666667 C6,2.40599006 5.80812204,2.6 5.57142857,2.6 Z M6.42857143,3.46666667 C6.19187796,3.46666667 6,3.27265672 6,3.03333333 C6,2.79400994 6.19187796,2.6 6.42857143,2.6 C6.66526489,2.6 6.85714286,2.79400994 6.85714286,3.03333333 C6.85714286,3.27265672 6.66526489,3.46666667 6.42857143,3.46666667 Z M4.71428571,3.46666667 C4.47759225,3.46666667 4.28571429,3.27265672 4.28571429,3.03333333 C4.28571429,2.79400994 4.47759225,2.6 4.71428571,2.6 C4.95097918,2.6 5.14285714,2.79400994 5.14285714,3.03333333 C5.14285714,3.27265672 4.95097918,3.46666667 4.71428571,3.46666667 Z M3,3.46666667 C2.76330654,3.46666667 2.57142857,3.27265672 2.57142857,3.03333333 C2.57142857,2.79400994 2.76330654,2.6 3,2.6 C3.23669346,2.6 3.42857143,2.79400994 3.42857143,3.03333333 C3.42857143,3.27265672 3.23669346,3.46666667 3,3.46666667 Z M1.28571429,3.46666667 C1.04902082,3.46666667 0.857142857,3.27265672 0.857142857,3.03333333 C0.857142857,2.79400994 1.04902082,2.6 1.28571429,2.6 C1.52240775,2.6 1.71428571,2.79400994 1.71428571,3.03333333 C1.71428571,3.27265672 1.52240775,3.46666667 1.28571429,3.46666667 Z M2.14285714,4.33333333 C1.90616368,4.33333333 1.71428571,4.13932339 1.71428571,3.9 C1.71428571,3.66067661 1.90616368,3.46666667 2.14285714,3.46666667 C2.37955061,3.46666667 2.57142857,3.66067661 2.57142857,3.9 C2.57142857,4.13932339 2.37955061,4.33333333 2.14285714,4.33333333 Z M3.85714286,4.33333333 C3.62044939,4.33333333 3.42857143,4.13932339 3.42857143,3.9 C3.42857143,3.66067661 3.62044939,3.46666667 3.85714286,3.46666667 C4.09383632,3.46666667 4.28571429,3.66067661 4.28571429,3.9 C4.28571429,4.13932339 4.09383632,4.33333333 3.85714286,4.33333333 Z M5.57142857,4.33333333 C5.33473511,4.33333333 5.14285714,4.13932339 5.14285714,3.9 C5.14285714,3.66067661 5.33473511,3.46666667 5.57142857,3.46666667 C5.80812204,3.46666667 6,3.66067661 6,3.9 C6,4.13932339 5.80812204,4.33333333 5.57142857,4.33333333 Z M6.42857143,5.2 C6.19187796,5.2 6,5.00599006 6,4.76666667 C6,4.52734328 6.19187796,4.33333333 6.42857143,4.33333333 C6.66526489,4.33333333 6.85714286,4.52734328 6.85714286,4.76666667 C6.85714286,5.00599006 6.66526489,5.2 6.42857143,5.2 Z M4.71428571,5.2 C4.47759225,5.2 4.28571429,5.00599006 4.28571429,4.76666667 C4.28571429,4.52734328 4.47759225,4.33333333 4.71428571,4.33333333 C4.95097918,4.33333333 5.14285714,4.52734328 5.14285714,4.76666667 C5.14285714,5.00599006 4.95097918,5.2 4.71428571,5.2 Z M3,5.2 C2.76330654,5.2 2.57142857,5.00599006 2.57142857,4.76666667 C2.57142857,4.52734328 2.76330654,4.33333333 3,4.33333333 C3.23669346,4.33333333 3.42857143,4.52734328 3.42857143,4.76666667 C3.42857143,5.00599006 3.23669346,5.2 3,5.2 Z M1.28571429,5.2 C1.04902082,5.2 0.857142857,5.00599006 0.857142857,4.76666667 C0.857142857,4.52734328 1.04902082,4.33333333 1.28571429,4.33333333 C1.52240775,4.33333333 1.71428571,4.52734328 1.71428571,4.76666667 C1.71428571,5.00599006 1.52240775,5.2 1.28571429,5.2 Z" id="path-4"></path>
        <filter x="-8.3%" y="-11.5%" width="116.7%" height="146.2%" filterUnits="objectBoundingBox" id="filter-5">
            <feOffset dx="0" dy="1" in="SourceAlpha" result="shadowOffsetOuter1"></feOffset>
            <feColorMatrix values="0 0 0 0 0   0 0 0 0 0   0 0 0 0 0  0 0 0 0.06 0" type="matrix" in="shadowOffsetOuter1"></feColorMatrix>
        </filter>
    </defs>
    <g id="Page-1" stroke="none" stroke-width="1" fill="none" fill-rule="evenodd">
        <g id="hilltop_site-upd_main-06" transform="translate(-500.000000, -3529.000000)">
            <g id="contacts" transform="translate(0.000000, 3253.000000)">
                <g id="Group-8" transform="translate(500.000000, 219.000000)">
                    <g id="US" transform="translate(0.000000, 57.000000)">
                        <g>
                            <mask id="mask-2" fill="white">
                                <use xlink:href="#path-1"></use>
                            </mask>
                            <use id="Mask" fill="#FFFFFF" xlink:href="#path-1"></use>
                            <path d="M0,0 L18,0 L18,0.866666667 L0,0.866666667 L0,0 Z M0,1.73333333 L18,1.73333333 L18,2.6 L0,2.6 L0,1.73333333 Z M0,3.46666667 L18,3.46666667 L18,4.33333333 L0,4.33333333 L0,3.46666667 Z M0,5.2 L18,5.2 L18,6.06666667 L0,6.06666667 L0,5.2 Z M0,6.93333333 L18,6.93333333 L18,7.8 L0,7.8 L0,6.93333333 Z M0,8.66666667 L18,8.66666667 L18,9.53333333 L0,9.53333333 L0,8.66666667 Z M0,10.4 L18,10.4 L18,11.2666667 L0,11.2666667 L0,10.4 Z M0,12.1333333 L18,12.1333333 L18,13 L0,13 L0,12.1333333 Z" id="Rectangle-511" fill="#D02F44" mask="url(#mask-2)"></path>
                            <rect id="Rectangle-511" fill="#46467F" mask="url(#mask-2)" x="0" y="0" width="7.71428571" height="6.06666667"></rect>
                            <g id="Oval-43" mask="url(#mask-2)">
                                <use fill="black" fill-opacity="1" filter="url(#filter-5)" xlink:href="#path-4"></use>
                                <use fill="url(#linearGradient-3)" fill-rule="evenodd" xlink:href="#path-4"></use>
                            </g>
                        </g>
                    </g>
                </g>
            </g>
        </g>
    </g>
</svg>