<svg xmlns="http://www.w3.org/2000/svg" width="102" height="84" viewBox="0 0 102 84">
  <g fill="none" fill-rule="evenodd">
    <rect width="102" height="84" fill="#FFFFFF" rx="4"/>
    <rect width="28" height="22" x="4" y="4" fill="#00B7B2" rx="2"/>
    <path fill="#FFFFFF" d="M24,15 C24,18.313 21.313,21 18,21 C14.687,21 12,18.313 12,15 C12,11.687 14.687,9 18,9 C21.313,9 24,11.687 24,15 L24,15 Z M18,10 C15.2423529,10 13,12.2423529 13,15 C13,17.7576471 15.2423529,20 18,20 C20.7576471,20 23,17.7576471 23,15 C23,12.2423529 20.7576471,10 18,10 L18,10 Z"/>
    <path fill="#FFFFFF" d="M20.75,15.25 C20.75,15.32 20.719,15.383 20.672,15.437 L18.18,17.929 C18.125,17.976 18.063,17.999 18,17.999 C17.937,17.999 17.875,17.976 17.82,17.929 L15.32,15.429 C15.25,15.351 15.226,15.249 15.265,15.156 C15.304,15.063 15.398,15 15.499,15 L16.999,15 L16.999,12.25 C16.999,12.109 17.108,12 17.249,12 L18.749,12 C18.89,12 18.999,12.109 18.999,12.25 L18.999,15 L20.499,15 C20.64,15 20.749,15.109 20.749,15.25 L20.75,15.25 Z"/>
    <rect width="28" height="22" x="37" y="4" fill="#2E2F39" rx="2"/>
    <path fill="#FFFFFF" d="M57,15 C57,18.313 54.313,21 51,21 C47.687,21 45,18.313 45,15 C45,11.687 47.687,9 51,9 C54.313,9 57,11.687 57,15 M56,15 C56,12.242 53.758,10 51,10 C48.242,10 46,12.242 46,15 C46,17.758 48.242,20 51,20 C53.758,20 56,17.758 56,15 M54,13 C54,13.555 53.555,14 53,14 C52.445,14 52,13.555 52,13 C52,12.445 52.445,12 53,12 C53.555,12 54,12.445 54,13 M50,13 C50,13.555 49.555,14 49,14 C48.445,14 48,13.555 48,13 C48,12.445 48.445,12 49,12 C49.555,12 50,12.445 50,13 M53.859,16.398 C53.468,17.656 52.32,18.5 51,18.5 C49.68,18.5 48.531,17.656 48.141,16.398 C48.055,16.132 48.203,15.859 48.469,15.773 C48.727,15.687 49.008,15.835 49.094,16.101 C49.352,16.937 50.125,17.499 51,17.499 C51.875,17.499 52.648,16.936 52.906,16.101 C52.992,15.835 53.273,15.687 53.539,15.773 C53.797,15.859 53.945,16.132 53.859,16.398"/>
    <rect width="28" height="22" x="70" y="4" fill="#38B0E4" rx="2"/>
    <path fill="#FFFFFF" d="M91.501,15 C91.501,17.211 89.712,19 87.501,19 C86.485,19 85.564,18.617 84.86,18 L83.141,18 C82.438,18.617 81.516,19 80.5,19 C78.289,19 76.5,17.211 76.5,15 C76.5,12.789 78.289,11 80.5,11 L87.5,11 C89.711,11 91.5,12.789 91.5,15 L91.501,15 Z M89.501,14 C89.501,13.445 89.056,13 88.501,13 C87.946,13 87.501,13.445 87.501,14 C87.501,14.555 87.946,15 88.501,15 C89.056,15 89.501,14.555 89.501,14 L89.501,14 Z M87.501,16 C87.501,15.445 87.056,15 86.501,15 C85.946,15 85.501,15.445 85.501,16 C85.501,16.555 85.946,17 86.501,17 C87.056,17 87.501,16.555 87.501,16 L87.501,16 Z M83.001,15.5 L83.001,14.5 C83.001,14.359 82.892,14.25 82.751,14.25 L81.251,14.25 L81.251,12.75 C81.251,12.609 81.142,12.5 81.001,12.5 L80.001,12.5 C79.86,12.5 79.751,12.609 79.751,12.75 L79.751,14.25 L78.251,14.25 C78.11,14.25 78.001,14.359 78.001,14.5 L78.001,15.5 C78.001,15.641 78.11,15.75 78.251,15.75 L79.751,15.75 L79.751,17.25 C79.751,17.391 79.86,17.5 80.001,17.5 L81.001,17.5 C81.142,17.5 81.251,17.391 81.251,17.25 L81.251,15.75 L82.751,15.75 C82.892,15.75 83.001,15.641 83.001,15.5 L83.001,15.5 Z"/>
    <rect width="28" height="22" x="4" y="31" fill="#38B0E4" rx="2"/>
    <path fill="#FFFFFF" d="M23.999,37.5 L23.999,41.5 C23.999,41.75 23.804,41.969 23.554,42 L15.398,42.953 C15.437,43.133 15.5,43.312 15.5,43.5 C15.5,43.68 15.391,43.844 15.313,44 L22.5,44 C22.773,44 23,44.227 23,44.5 C23,44.773 22.773,45 22.5,45 L14.5,45 C14.227,45 14,44.773 14,44.5 C14,44.258 14.352,43.672 14.477,43.43 L13.094,37 L11.5,37 C11.227,37 11,36.773 11,36.5 C11,36.227 11.227,36 11.5,36 L13.5,36 C14.023,36 14.039,36.625 14.117,37 L23.5,37 C23.773,37 24,37.227 24,37.5 L23.999,37.5 Z M22.999,46 C22.999,46.547 22.546,47 21.999,47 C21.452,47 20.999,46.547 20.999,46 C20.999,45.453 21.452,45 21.999,45 C22.546,45 22.999,45.453 22.999,46 L22.999,46 Z M15.999,46 C15.999,46.547 15.546,47 14.999,47 C14.452,47 13.999,46.547 13.999,46 C13.999,45.453 14.452,45 14.999,45 C15.546,45 15.999,45.453 15.999,46 L15.999,46 Z"/>
    <rect width="28" height="22" x="37" y="31" fill="#00B7B2" rx="2"/>
    <path fill="#FFFFFF" d="M58,37.25 C58,38.125 57.352,38.914 56.664,39.391 C55.445,40.235 54.219,41.079 53.008,41.93 C52.5,42.282 51.641,43 51.008,43 L50.992,43 C50.359,43 49.5,42.281 48.992,41.93 C47.781,41.078 46.554,40.235 45.344,39.391 C44.789,39.016 44,38.133 44,37.422 C44,36.656 44.414,36 45.25,36 L56.75,36 C57.43,36 58,36.563 58,37.25 M58,39.547 L58,45.75 C58,46.438 57.437,47 56.75,47 L45.25,47 C44.562,47 44,46.437 44,45.75 L44,39.547 C44.234,39.805 44.5,40.031 44.789,40.227 C46.086,41.11 47.398,41.993 48.672,42.922 C49.328,43.406 50.141,44 50.992,44 L51.008,44 C51.86,44 52.672,43.406 53.328,42.922 C54.601,42 55.914,41.11 57.219,40.227 C57.5,40.032 57.766,39.805 58,39.547"/>
    <rect width="28" height="22" x="70" y="31" fill="#2E2F39" rx="2"/>
    <path fill="#FFFFFF" d="M92,36.25 L92,46.75 C92,47.438 91.437,48 90.75,48 L78.25,48 C77.562,48 77,47.437 77,46.75 L77,36.25 C77,35.562 77.563,35 78.25,35 L90.75,35 C91.438,35 92,35.563 92,36.25 M91,37.5 L91,36.5 C91,36.227 90.773,36 90.5,36 L89.5,36 C89.227,36 89,36.227 89,36.5 L89,37.5 C89,37.773 89.227,38 89.5,38 L90.5,38 C90.773,38 91,37.773 91,37.5 M91,40.5 L91,39.5 C91,39.227 90.773,39 90.5,39 L89.5,39 C89.227,39 89,39.227 89,39.5 L89,40.5 C89,40.773 89.227,41 89.5,41 L90.5,41 C90.773,41 91,40.773 91,40.5 M91,43.5 L91,42.5 C91,42.227 90.773,42 90.5,42 L89.5,42 C89.227,42 89,42.227 89,42.5 L89,43.5 C89,43.773 89.227,44 89.5,44 L90.5,44 C90.773,44 91,43.773 91,43.5 M88,40.5 L88,36.5 C88,36.227 87.773,36 87.5,36 L81.5,36 C81.227,36 81,36.227 81,36.5 L81,40.5 C81,40.773 81.227,41 81.5,41 L87.5,41 C87.773,41 88,40.773 88,40.5 M91,46.5 L91,45.5 C91,45.227 90.773,45 90.5,45 L89.5,45 C89.227,45 89,45.227 89,45.5 L89,46.5 C89,46.773 89.227,47 89.5,47 L90.5,47 C90.773,47 91,46.773 91,46.5 M80,37.5 L80,36.5 C80,36.227 79.773,36 79.5,36 L78.5,36 C78.227,36 78,36.227 78,36.5 L78,37.5 C78,37.773 78.227,38 78.5,38 L79.5,38 C79.773,38 80,37.773 80,37.5 M88,46.5 L88,42.5 C88,42.227 87.773,42 87.5,42 L81.5,42 C81.227,42 81,42.227 81,42.5 L81,46.5 C81,46.773 81.227,47 81.5,47 L87.5,47 C87.773,47 88,46.773 88,46.5 M80,40.5 L80,39.5 C80,39.227 79.773,39 79.5,39 L78.5,39 C78.227,39 78,39.227 78,39.5 L78,40.5 C78,40.773 78.227,41 78.5,41 L79.5,41 C79.773,41 80,40.773 80,40.5 M80,43.5 L80,42.5 C80,42.227 79.773,42 79.5,42 L78.5,42 C78.227,42 78,42.227 78,42.5 L78,43.5 C78,43.773 78.227,44 78.5,44 L79.5,44 C79.773,44 80,43.773 80,43.5 M80,46.5 L80,45.5 C80,45.227 79.773,45 79.5,45 L78.5,45 C78.227,45 78,45.227 78,45.5 L78,46.5 C78,46.773 78.227,47 78.5,47 L79.5,47 C79.773,47 80,46.773 80,46.5"/>
    <rect width="28" height="22" x="4" y="58" fill="#00B7B2" rx="2"/>
    <path fill="#FFFFFF" d="M25,66.25 L25,69.25 L11,69.25 L11,66.25 C11,65.906 11.122,65.612 11.367,65.367 C11.612,65.122 11.906,65 12.25,65 L15,65 L15,63.75 C15,63.542 15.073,63.365 15.219,63.219 C15.365,63.073 15.542,63 15.75,63 L20.25,63 C20.458,63 20.635,63.073 20.781,63.219 C20.927,63.365 21,63.542 21,63.75 L21,65 L23.75,65 C24.094,65 24.388,65.122 24.633,65.367 C24.878,65.612 25,65.906 25,66.25 L25,66.25 Z M17,71 L19,71 L19,70 L17,70 L17,71 Z M25,70 L25,73.75 C25,74.094 24.878,74.388 24.633,74.633 C24.388,74.878 24.094,75 23.75,75 L12.25,75 C11.906,75 11.612,74.878 11.367,74.633 C11.122,74.388 11,74.094 11,73.75 L11,70 L16.25,70 L16.25,71.25 C16.25,71.385 16.299,71.503 16.398,71.602 C16.497,71.701 16.614,71.751 16.75,71.75 L19.25,71.75 C19.385,71.75 19.503,71.701 19.602,71.602 C19.701,71.503 19.751,71.386 19.75,71.25 L19.75,70 L25,70 Z M16,65 L20,65 L20,64 L16,64 L16,65 Z"/>
    <rect width="28" height="22" x="37" y="58" fill="#2E2F39" rx="2"/>
    <path fill="#FFFFFF" d="M47,63.4982452 C47,62.6707872 47.6764628,62 48.5063976,62 L54.4936024,62 C55.3255628,62 56,62.6752491 56,63.4982452 L56,74.5017548 C56,75.3292128 55.3235372,76 54.4936024,76 L48.5063976,76 C47.6744372,76 47,75.3247509 47,74.5017548 L47,63.4982452 Z M50.5,63.25 C50.5,63.3840332 50.6097974,63.5 50.7452393,63.5 L52.2547607,63.5 C52.3924713,63.5 52.5,63.3880712 52.5,63.25 C52.5,63.1159668 52.3902026,63 52.2547607,63 L50.7452393,63 C50.6075287,63 50.5,63.1119288 50.5,63.25 Z M48,65.0062585 L48,72.4937415 C48,72.7726455 48.22539,73 48.5034227,73 L54.4965773,73 C54.7670975,73 55,72.7733404 55,72.4937415 L55,65.0062585 C55,64.7273545 54.77461,64.5 54.4965773,64.5 L48.5034227,64.5 C48.2329025,64.5 48,64.7266596 48,65.0062585 Z M51.5,75.25 C51.9142136,75.25 52.25,74.9142136 52.25,74.5 C52.25,74.0857864 51.9142136,73.75 51.5,73.75 C51.0857864,73.75 50.75,74.0857864 50.75,74.5 C50.75,74.9142136 51.0857864,75.25 51.5,75.25 Z"/>
    <rect width="28" height="22" x="70" y="58" fill="#38B0E4" rx="2"/>
    <path fill="#FFFFFF" d="M88.0166309,67.9981672 C88.0166309,69.2871672 87.4006309,70.4431672 86.4546309,71.1701672 C86.3756309,71.2321672 86.2666309,71.1781672 86.2506309,71.0761672 C86.2276309,70.8571672 86.1646309,70.5991672 86.0246309,70.3571672 C85.9936309,70.3101672 86.0006309,70.2481672 86.0466309,70.2011672 C86.6406309,69.6541672 87.0156309,68.8731672 87.0156309,67.9981672 C87.0156309,66.2321672 85.4766309,64.8181672 83.6716309,65.0141672 C82.2886309,65.1701672 81.1636309,66.3111672 81.0316309,67.7011672 C80.9286309,68.6851672 81.3206309,69.5921672 81.9846309,70.2011672 C82.0316309,70.2481672 82.0386309,70.3101672 82.0066309,70.3571672 C81.8666309,70.5991672 81.8036309,70.8571672 81.7806309,71.0841672 C81.7636309,71.1781672 81.6556309,71.2321672 81.5776309,71.1701672 C80.6086309,70.4201672 79.9916309,69.2401672 80.0136309,67.9121672 C80.0606309,65.8341672 81.7476309,64.1001672 83.8196309,64.0061672 C86.1166309,63.8971672 88.0136309,65.7251672 88.0136309,67.9981672 L88.0166309,67.9981672 Z M85.7666309,67.7481672 C85.7666309,68.7171672 84.9866309,69.4981672 84.0166309,69.4981672 C83.0476309,69.4981672 82.2666309,68.7171672 82.2666309,67.7481672 C82.2666309,66.7791672 83.0476309,65.9981672 84.0166309,65.9981672 C84.9866309,65.9981672 85.7666309,66.7791672 85.7666309,67.7481672 L85.7666309,67.7481672 Z M90.0006309,67.9981672 C90.0006309,70.5291672 88.4376309,72.6931672 86.2196309,73.5761672 C86.1336309,73.6071672 86.0396309,73.5291672 86.0556309,73.4351672 C86.0796309,73.2711672 86.1026309,73.0991672 86.1336309,72.9191672 C86.1506309,72.7941672 86.1646309,72.6691672 86.1806309,72.5521672 C86.1896309,72.5051672 86.2116309,72.4741672 86.2506309,72.4581672 C87.8756309,71.6301672 89.0006309,69.9421672 89.0006309,67.9971672 C89.0006309,65.1451672 86.6106309,62.8491672 83.7276309,63.0051672 C81.0866309,63.1461672 78.9866309,65.3961672 79.0006309,68.0361672 C79.0166309,69.9811672 80.1496309,71.6611672 81.7826309,72.4731672 C81.8216309,72.4891672 81.8436309,72.5281672 81.8516309,72.5671672 C81.8686309,72.6761672 81.8826309,72.7941672 81.8996309,72.9191672 C81.9296309,73.1061672 81.9546309,73.2781672 81.9856309,73.4501672 C82.0006309,73.5441672 81.8996309,73.6221672 81.8126309,73.5831672 C79.4936309,72.6771672 77.8746309,70.3641672 78.0076309,67.7001672 C78.1566309,64.6771672 80.5936309,62.2001672 83.6176309,62.0121672 C87.1006309,61.7931672 89.9996309,64.5591672 89.9996309,67.9961672 L90.0006309,67.9981672 Z M85.7666309,71.3111672 C85.7666309,71.8271672 85.7116309,72.3421672 85.6336309,72.8501672 C85.5166309,73.6631672 85.4006309,74.4981672 85.2036309,75.2951672 C85.0626309,75.8651672 84.5326309,75.9981672 84.0166309,75.9981672 C83.5016309,75.9981672 82.9696309,75.8651672 82.8296309,75.2951672 C82.6346309,74.4981672 82.5176309,73.6621672 82.4006309,72.8501672 C82.3226309,72.3421672 82.2666309,71.8271672 82.2666309,71.3111672 C82.2666309,70.2561672 83.1196309,69.9981672 84.0166309,69.9981672 C84.9146309,69.9981672 85.7666309,70.2561672 85.7666309,71.3111672 L85.7666309,71.3111672 Z"/>
  </g>
</svg>
