<svg xmlns="http://www.w3.org/2000/svg" width="102" height="97" viewBox="0 0 102 97" xmlns:xlink="http://www.w3.org/1999/xlink">
  <defs>
    <path id="a" d="M85.7317073,5.65517241 C88.2913008,5.65517241 90.3658537,7.73913793 90.3658537,10.3103448 L90.3658537,86.3448276 C90.3658537,88.9160345 88.2913008,91 85.7317073,91 L4.63414634,91 C2.07455285,91 0,88.9160345 0,86.3448276 L0,10.3103448 C0,7.73913793 2.07455285,5.65517241 4.63414634,5.65517241 L85.7317073,5.65517241 Z"/>
    <path id="b" d="M10.2682927,0 C7.70869919,0 5.63414634,2.08396552 5.63414634,4.65517241 L5.63414634,80.6896552 C5.63414634,83.2608621 7.70869919,85.3448276 10.2682927,85.3448276 L91.3658537,85.3448276 C93.9254472,85.3448276 96,83.2608621 96,80.6896552 L96,4.65517241 C96,2.08396552 93.9254472,0 91.3658537,0 L10.2682927,0 Z"/>
    <path id="c" d="M10.2682927,0 C7.70869919,0 5.63414634,2.08396552 5.63414634,4.65517241 L5.63414634,80.6896552 C5.63414634,83.2608621 7.70869919,85.3448276 10.2682927,85.3448276 L91.3658537,85.3448276 C93.9254472,85.3448276 96,83.2608621 96,80.6896552 L96,4.65517241 C96,2.08396552 93.9254472,0 91.3658537,0 L10.2682927,0 Z"/>
    <path id="d" d="M4.63414634,5.65517241 C2.07455285,5.65517241 0,7.73913793 0,10.3103448 L0,86.3448276 C0,88.9160345 2.07455285,91 4.63414634,91 L85.7317073,91 C88.2913008,91 90.3658537,88.9160345 90.3658537,86.3448276 L90.3658537,10.3103448 C90.3658537,7.73913793 88.2913008,5.65517241 85.7317073,5.65517241 L4.63414634,5.65517241 Z"/>
  </defs>
  <g fill="none" fill-rule="evenodd" transform="translate(3 3)">
    <use fill="#FFFFFF" xlink:href="#a"/>
    <path stroke="#FFFFFF" stroke-width="3" d="M85.7317073,4.15517241 C89.1212518,4.15517241 91.8658537,6.91222708 91.8658537,10.3103448 L91.8658537,86.3448276 C91.8658537,89.7429453 89.1212518,92.5 85.7317073,92.5 L4.63414634,92.5 C1.24460184,92.5 -1.5,89.7429453 -1.5,86.3448276 L-1.5,10.3103448 C-1.5,6.91222708 1.24460184,4.15517241 4.63414634,4.15517241 L85.7317073,4.15517241 Z"/>
    <use fill="#FFFFFF" xlink:href="#b"/>
    <path stroke="#FFFFFF" stroke-width="3" d="M10.2682927,-1.5 L91.3658537,-1.5 C94.7553982,-1.5 97.5,1.25705466 97.5,4.65517241 L97.5,80.6896552 C97.5,84.0877729 94.7553982,86.8448276 91.3658537,86.8448276 L10.2682927,86.8448276 C6.87874818,86.8448276 4.13414634,84.0877729 4.13414634,80.6896552 L4.13414634,4.65517241 C4.13414634,1.25705466 6.87874818,-1.5 10.2682927,-1.5 Z"/>
    <path fill="#FFFFFF" d="M4.63414634,5.65517241 L85.7317073,5.65517241 C88.2913008,5.65517241 90.3658537,7.73913793 90.3658537,10.3103448 L90.3658537,86.3448276 C90.3658537,88.9160345 88.2913008,91 85.7317073,91 L4.63414634,91 C2.07455285,91 0,88.9160345 0,86.3448276 L0,10.3103448 C0,7.73913793 2.07455285,5.65517241 4.63414634,5.65517241"/>
    <use fill="#FFFFFF" xlink:href="#c"/>
    <path stroke="#D9D9D9" stroke-width="2.5" d="M10.2682927,1.25 C8.40032502,1.25 6.88414634,2.7730579 6.88414634,4.65517241 L6.88414634,80.6896552 C6.88414634,82.5717697 8.40032502,84.0948276 10.2682927,84.0948276 L91.3658537,84.0948276 C93.2338213,84.0948276 94.75,82.5717697 94.75,80.6896552 L94.75,4.65517241 C94.75,2.7730579 93.2338213,1.25 91.3658537,1.25 L10.2682927,1.25 Z"/>
    <use fill="#FFFFFF" xlink:href="#d"/>
    <path stroke="#FFFFFF" stroke-width="1.5" d="M4.63414634,4.90517241 L85.7317073,4.90517241 C88.7062763,4.90517241 91.1158537,7.3256825 91.1158537,10.3103448 L91.1158537,86.3448276 C91.1158537,89.3294899 88.7062763,91.75 85.7317073,91.75 L4.63414634,91.75 C1.65957734,91.75 -0.75,89.3294899 -0.75,86.3448276 L-0.75,10.3103448 C-0.75,7.3256825 1.65957734,4.90517241 4.63414634,4.90517241 Z"/>
    <path stroke="#38B0E4" stroke-width="2.5" d="M4.63414634,6.90517241 C2.76617868,6.90517241 1.25,8.42823031 1.25,10.3103448 L1.25,86.3448276 C1.25,88.2269421 2.76617868,89.75 4.63414634,89.75 L85.7317073,89.75 C87.599675,89.75 89.1158537,88.2269421 89.1158537,86.3448276 L89.1158537,10.3103448 C89.1158537,8.42823031 87.599675,6.90517241 85.7317073,6.90517241 L4.63414634,6.90517241 Z"/>
    <path fill="#36B1E7" d="M44.796748,17.2931034 C55.8870325,17.2931034 64.8780488,26.3249138 64.8780488,37.4655172 C64.8780488,48.6061207 55.8870325,57.637931 44.796748,57.637931 C33.7064634,57.637931 24.7154472,48.6061207 24.7154472,37.4655172 C24.7154472,26.3249138 33.7064634,17.2931034 44.796748,17.2931034"/>
    <polygon fill="#FFFFFF" points="54.065 35.914 46.341 35.914 46.341 28.155 43.252 28.155 43.252 35.914 35.528 35.914 35.528 39.017 43.252 39.017 43.252 46.776 46.341 46.776 46.341 39.017 54.065 39.017"/>
    <polygon fill="#2E2F39" points="56.382 63.946 56.382 43.672 72.602 58.204 65.38 58.251 69.783 68.415 65.535 70.044 61.271 59.663"/>
    <path fill="#FFFFFF" d="M56.3821138,41.3448276 C55.1023171,41.3448276 54.0650407,42.3868103 54.0650407,43.6724138 L54.0650407,63.9456897 C54.065813,65.2312931 55.1046341,66.2725 56.3844309,66.2709483 C56.9428455,66.2709483 57.4827236,66.0676724 57.9036585,65.6991379 L60.3597561,63.55 L63.3873984,70.9206897 C63.8631707,72.0930172 65.1839024,72.6687069 66.3609756,72.2163793 L70.6089431,70.587069 C71.8030081,70.1246552 72.3977236,68.7777586 71.9373984,67.5782759 C71.9250407,67.5464655 71.9126829,67.5146552 71.8987805,67.4836207 L68.8865854,60.5474138 L72.6093496,60.5241379 C73.8891463,60.5125 74.9163821,59.460431 74.9047967,58.1748276 C74.8986179,57.5269828 74.6236585,56.9101724 74.1463415,56.4741379 L57.9268293,41.9267241 C57.5028049,41.5434483 56.9528862,41.3308621 56.3821138,41.3293103 L56.3821138,41.3448276 Z M56.3821138,43.6724138 L72.601626,58.2043103 L65.3800813,58.2508621 L69.7825203,68.4146552 L65.5345528,70.0439655 L61.2711382,59.662931 L56.3821138,63.9301724 L56.3821138,43.6724138 L56.3821138,43.6724138 Z"/>
    <path fill="#2E2F39" d="M75.6601626,75.9094828 C75.6601626,74.5284483 75.0422764,73.7137931 74.0073171,73.7137931 C72.9800813,73.7137931 72.3621951,74.5284483 72.3621951,75.9094828 C72.3621951,77.3060345 72.9800813,78.1051724 74.0073171,78.1051724 C75.0422764,78.1051724 75.6601626,77.2982759 75.6601626,75.9094828 L75.6601626,75.9094828 Z M70.8329268,75.9094828 C70.8329268,73.8146552 72.0686992,72.5112069 73.9995935,72.5112069 C75.9536585,72.5112069 77.1894309,73.8146552 77.1894309,75.9094828 C77.1894309,78.0275862 75.9536585,79.3232759 74.0073171,79.3232759 C72.0764228,79.3232759 70.8406504,78.0275862 70.8406504,75.9094828 L70.8329268,75.9094828 Z M60.4292683,72.5965517 L61.8658537,72.5965517 L61.8658537,73.7603448 L61.896748,73.7603448 C62.1933333,72.9860345 62.9479268,72.4871552 63.7735772,72.5189655 C64.6270325,72.4522414 65.4063415,73.0069828 65.6272358,73.837931 L65.6504065,73.837931 C65.9933333,73.0069828 66.817439,72.4793966 67.7126016,72.5189655 C68.8417886,72.4607759 69.8041463,73.3328448 69.8620732,74.4663793 C69.865935,74.5493966 69.8651626,74.6324138 69.8597561,74.7146552 L69.8597561,79.2146552 L68.3691057,79.2146552 L68.3691057,75.087069 C68.4556098,74.4632759 68.0230894,73.8868103 67.4021138,73.7991379 C67.3233333,73.7882759 67.2437805,73.7859483 67.1642276,73.7913793 C66.4644715,73.7851724 65.8929268,74.35 65.886748,75.052931 C65.8859756,75.087069 65.8875203,75.1219828 65.8898374,75.1568966 L65.8898374,79.2146552 L64.4223577,79.2146552 L64.4223577,74.9862069 C64.474878,74.3717241 64.0215041,73.8301724 63.4090244,73.7774138 C63.3534146,73.7727586 63.2970325,73.7719828 63.2406504,73.7758621 C62.5239024,73.7743103 61.9415447,74.3562069 61.94,75.0762069 C61.94,75.1080172 61.9407724,75.1406034 61.9430894,75.1724138 L61.9430894,79.2068966 L60.4447154,79.2068966 L60.4447154,72.5732759 L60.4292683,72.5965517 Z M57.895935,75.9094828 C57.895935,74.5284483 57.2780488,73.7137931 56.2430894,73.7137931 C55.2158537,73.7137931 54.5979675,74.5284483 54.5979675,75.9094828 C54.5979675,77.3060345 55.2158537,78.1051724 56.2430894,78.1051724 C57.2780488,78.1051724 57.895935,77.2982759 57.895935,75.9094828 L57.895935,75.9094828 Z M53.0686992,75.9094828 C53.0686992,73.8146552 54.3044715,72.5112069 56.2353659,72.5112069 C58.1894309,72.5112069 59.4252033,73.8146552 59.4252033,75.9094828 C59.4252033,78.0275862 58.1894309,79.3232759 56.2430894,79.3232759 C54.3121951,79.3232759 53.0764228,78.0275862 53.0764228,75.9094828 L53.0686992,75.9094828 Z M49.253252,72.5965517 L50.6898374,72.5965517 L50.6898374,73.7603448 L50.7130081,73.7603448 C50.8728862,73.017069 51.5394309,72.4941379 52.2963415,72.5189655 C52.4539024,72.5228448 52.6099187,72.5492241 52.7597561,72.5965517 L52.7597561,73.9543103 C52.5643496,73.894569 52.3612195,73.8689655 52.1573171,73.8767241 C51.416626,73.8332759 50.7802033,74.4012069 50.7369512,75.1452586 C50.7323171,75.2243966 50.7346341,75.3035345 50.7439024,75.3818966 L50.7439024,79.2224138 L49.2455285,79.2224138 L49.2455285,72.5887931 L49.253252,72.5965517 Z M43.3601626,75.0715517 L44.904878,75.0715517 C45.8154878,75.1343966 46.604065,74.4431034 46.666626,73.5283621 C46.729187,72.6136207 46.0417886,71.8214655 45.1304065,71.7586207 C45.0554878,71.7531897 44.9797967,71.7531897 44.904878,71.7586207 L43.3601626,71.7586207 L43.3601626,75.0715517 Z M45.3142276,70.4784483 C46.8473577,70.3907759 48.1611382,71.5685345 48.2476423,73.1086207 C48.2538211,73.2063793 48.2538211,73.3049138 48.249187,73.4034483 C48.3078862,74.9621552 47.098374,76.2733621 45.5467073,76.3323276 C45.4486179,76.3362069 45.3505285,76.3346552 45.252439,76.3284483 L43.3601626,76.3284483 L43.3601626,79.2146552 L41.8154472,79.2146552 L41.8154472,70.462931 L45.3142276,70.462931 L45.3142276,70.4784483 Z M32.8174797,75.9094828 C32.8174797,77.2284483 33.4585366,78.0431034 34.454878,78.0431034 C35.4512195,78.0431034 36.1,77.1896552 36.1,75.9172414 C36.1,74.637069 35.4434959,73.7836207 34.454878,73.7836207 C33.450813,73.7836207 32.8097561,74.6215517 32.8097561,75.9172414 L32.8174797,75.9094828 Z M31.2727642,75.9094828 C31.2727642,73.8534483 32.3772358,72.5267241 34.0069106,72.5267241 C34.8619106,72.4840517 35.6628455,72.9480172 36.0536585,73.7137931 L36.0922764,73.7137931 L36.0922764,70.075 L37.5906504,70.075 L37.5906504,79.2301724 L36.1231707,79.2301724 L36.1231707,78.0974138 L36.0922764,78.0974138 C35.6945122,78.8763793 34.8773577,79.3473276 34.0069106,79.3 C32.3617886,79.3 31.2650407,77.9655172 31.2650407,75.9017241 L31.2727642,75.9094828 Z M25.4414634,75.9094828 C25.4414634,77.2284483 26.0902439,78.0431034 27.0865854,78.0431034 C28.0829268,78.0431034 28.7317073,77.1896552 28.7317073,75.9172414 C28.7317073,74.637069 28.0752033,73.7836207 27.0865854,73.7836207 C26.0825203,73.7836207 25.4414634,74.6215517 25.4414634,75.9172414 L25.4414634,75.9094828 Z M23.896748,75.9094828 C23.896748,73.8534483 25.0089431,72.5267241 26.6386179,72.5267241 C27.4967073,72.4809483 28.3015041,72.9456897 28.6930894,73.7137931 L28.7394309,73.7137931 L28.7394309,70.075 L30.2378049,70.075 L30.2378049,79.2301724 L28.7703252,79.2301724 L28.7703252,78.0974138 L28.7394309,78.0974138 C28.3416667,78.8763793 27.5245122,79.3473276 26.654065,79.3 C25.0089431,79.3 23.9121951,77.9655172 23.9121951,75.9017241 L23.896748,75.9094828 Z M18.3512195,75.7543103 L20.8227642,75.7543103 L19.6101626,72.0301724 L19.5715447,72.0301724 L18.3512195,75.7543103 Z M21.1934959,76.9646552 L17.9882114,76.9646552 L17.246748,79.2146552 L15.6247967,79.2146552 L18.7142276,70.4784483 L20.498374,70.4784483 L23.5878049,79.2224138 L21.9504065,79.2224138 L21.1934959,76.9646552 Z"/>
  </g>
</svg>
