<svg xmlns="http://www.w3.org/2000/svg" width="104" height="74" viewBox="0 0 104 74" xmlns:xlink="http://www.w3.org/1999/xlink">
  <defs>
    <rect id="a" width="98" height="68" rx="5"/>
  </defs>
  <g fill="none" fill-rule="evenodd" transform="translate(3 3)">
    <use fill="#FFFFFF" xlink:href="#a"/>
    <rect width="95" height="65" x="1.5" y="1.5" stroke="#2E2F39" stroke-width="3" rx="5"/>
    <rect width="101" height="71" x="-1.5" y="-1.5" stroke="#FFFFFF" stroke-width="3" rx="5"/>
    <path fill="#38B0E4" d="M31.85,37.2 C31.85,38.9680088 31.2946722,40.4583273 30.184,41.671 C29.0733278,42.8836727 27.5320099,43.693998 25.56,44.102 L25.56,49.474 L21.684,49.474 L21.684,44.306 C18.691985,44.0566654 16.2326763,42.9913427 14.306,41.11 L17.06,38.118 C18.6920082,39.6366743 20.5733227,40.396 22.704,40.396 C23.8146722,40.396 24.6873302,40.1466692 25.322,39.648 C25.9566698,39.1493308 26.274,38.4693376 26.274,37.608 C26.274,37.0413305 26.1606678,36.5710019 25.934,36.197 C25.7073322,35.8229981 25.2993363,35.4830015 24.71,35.177 C24.1206637,34.8709985 23.2706722,34.5480017 22.16,34.208 C19.6666542,33.4146627 17.8930053,32.4740054 16.839,31.386 C15.7849947,30.2979946 15.258,28.9040085 15.258,27.204 C15.258,25.5039915 15.8473274,24.0816724 17.026,22.937 C18.2046726,21.7923276 19.7573237,21.0726681 21.684,20.778 L21.684,15.78 L25.56,15.78 L25.56,20.812 C27.7586777,21.1746685 29.6399922,22.0926593 31.204,23.566 L28.722,26.49 C27.2259925,25.2206603 25.5826756,24.586 23.792,24.586 C22.8399952,24.586 22.0920027,24.7786647 21.548,25.164 C21.0039973,25.5493353 20.732,26.0933298 20.732,26.796 C20.732,27.2946692 20.8509988,27.7026651 21.089,28.02 C21.3270012,28.3373349 21.7519969,28.6376652 22.364,28.921 C22.9760031,29.2043347 23.8939939,29.5386647 25.118,29.924 C27.4073448,30.649337 29.1016612,31.5559946 30.201,32.644 C31.3003388,33.7320054 31.85,35.2506569 31.85,37.2 Z"/>
    <rect width="18" height="3" x="14" y="56" fill="#38B0E4"/>
    <path fill="#91929B" d="M55.694 37.676C55.694 39.3986753 55.1500054 40.8493274 54.062 42.028 52.9739946 43.2066726 51.4666763 43.9546651 49.54 44.272L49.54 49.27 46.82 49.27 46.82 44.374C44.0319861 44.2379993 41.708676 43.2633424 39.85 41.45L41.686 39.444C43.3180082 41.0306746 45.267322 41.824 47.534 41.824 48.9620071 41.824 50.1349954 41.4726702 51.053 40.77 51.9710046 40.0673298 52.43 39.0700065 52.43 37.778 52.43 37.0299963 52.2883348 36.4066692 52.005 35.908 51.7216653 35.4093308 51.2286702 34.9673353 50.526 34.582 49.8233298 34.1966647 48.8146732 33.800002 47.5 33.392 45.1653217 32.666663 43.4596721 31.8110049 42.383 30.825 41.3063279 29.8389951 40.768 28.5073417 40.768 26.83 40.768 25.2433254 41.3233278 23.9173387 42.434 22.852 43.5446722 21.7866613 45.0066576 21.152001 46.82 20.948L46.82 15.984 49.54 15.984 49.54 20.982C50.6280054 21.0953339 51.608329 21.3616646 52.481 21.781 53.353671 22.2003354 54.1866627 22.7839963 54.98 23.532L53.178 25.504C52.4073295 24.778663 51.6083375 24.2573349 50.781 23.94 49.9536625 23.6226651 49.0526715 23.464 48.078 23.464 46.8766607 23.464 45.8963371 23.7416639 45.137 24.297 44.3776629 24.8523361 43.998 25.6513281 43.998 26.694 43.998 27.3513366 44.1339986 27.9009978 44.406 28.343 44.6780014 28.7850022 45.1653298 29.1929981 45.868 29.567 46.5706702 29.9410019 47.6019932 30.3433312 48.962 30.774 50.3900071 31.2046688 51.5799952 31.6806641 52.532 32.202 53.4840048 32.7233359 54.2489971 33.4259956 54.827 34.31 55.4050029 35.1940044 55.694 36.3159932 55.694 37.676zM80.694 37.676C80.694 39.3986753 80.1500054 40.8493274 79.062 42.028 77.9739946 43.2066726 76.4666763 43.9546651 74.54 44.272L74.54 49.27 71.82 49.27 71.82 44.374C69.0319861 44.2379993 66.708676 43.2633424 64.85 41.45L66.686 39.444C68.3180082 41.0306746 70.267322 41.824 72.534 41.824 73.9620071 41.824 75.1349954 41.4726702 76.053 40.77 76.9710046 40.0673298 77.43 39.0700065 77.43 37.778 77.43 37.0299963 77.2883348 36.4066692 77.005 35.908 76.7216653 35.4093308 76.2286702 34.9673353 75.526 34.582 74.8233298 34.1966647 73.8146732 33.800002 72.5 33.392 70.1653217 32.666663 68.459672 31.8110049 67.383 30.825 66.3063279 29.8389951 65.768 28.5073417 65.768 26.83 65.768 25.2433254 66.3233278 23.9173387 67.434 22.852 68.5446722 21.7866613 70.0066576 21.152001 71.82 20.948L71.82 15.984 74.54 15.984 74.54 20.982C75.6280054 21.0953339 76.608329 21.3616646 77.481 21.781 78.353671 22.2003354 79.1866627 22.7839963 79.98 23.532L78.178 25.504C77.4073295 24.778663 76.6083375 24.2573349 75.781 23.94 74.9536625 23.6226651 74.0526715 23.464 73.078 23.464 71.8766607 23.464 70.8963371 23.7416639 70.137 24.297 69.3776629 24.8523361 68.998 25.6513281 68.998 26.694 68.998 27.3513366 69.1339986 27.9009978 69.406 28.343 69.6780014 28.7850022 70.1653298 29.1929981 70.868 29.567 71.5706702 29.9410019 72.6019932 30.3433312 73.962 30.774 75.3900071 31.2046688 76.5799952 31.6806641 77.532 32.202 78.4840048 32.7233359 79.2489971 33.4259956 79.827 34.31 80.4050029 35.1940044 80.694 36.3159932 80.694 37.676z"/>
  </g>
</svg>
