<svg xmlns="http://www.w3.org/2000/svg" width="123" height="87" viewBox="0 0 123 87" xmlns:xlink="http://www.w3.org/1999/xlink">
  <defs>
    <rect id="a" width="80" height="42" x="10"/>
    <rect id="b" width="80" height="42" x="5" y="5"/>
    <rect id="c" width="80" height="42" y="10"/>
  </defs>
  <g fill="none" fill-rule="evenodd">
    <g fill="#FFFFFF" transform="translate(26)">
      <rect width="88" height="50" y="10"/>
      <rect width="88" height="50" x="5" y="5"/>
      <rect width="88" height="50" x="9"/>
    </g>
    <g transform="translate(30 4)">
      <use fill="#FFFFFF" xlink:href="#a"/>
      <rect width="77" height="39" x="11.5" y="1.5" stroke="#00B7B2" stroke-width="3"/>
      <use fill="#FFFFFF" xlink:href="#b"/>
      <rect width="77" height="39" x="6.5" y="6.5" stroke="#00B7B2" stroke-width="3"/>
      <use fill="#FFFFFF" xlink:href="#c"/>
      <rect width="77" height="39" x="1.5" y="11.5" stroke="#00B7B2" stroke-width="3"/>
      <path fill="#00B7B2" d="M0,10 L10,10 L10,10 L10,10 C10,15.5228475 5.5228475,20 6.123234e-16,20 L0,20 L0,10 Z"/>
      <path fill="#00B7B2" d="M0,42 L10,42 L10,42 L10,42 C10,47.5228475 5.5228475,52 6.123234e-16,52 L0,52 L0,42 Z" transform="rotate(-90 5 47)"/>
      <path fill="#00B7B2" d="M70,10 L80,10 L80,10 L80,10 C80,15.5228475 75.5228475,20 70,20 L70,20 L70,10 Z" transform="rotate(90 75 15)"/>
      <path fill="#00B7B2" d="M70,42 L80,42 L80,42 L80,42 C80,47.5228475 75.5228475,52 70,52 L70,52 L70,42 Z" transform="rotate(-180 75 47)"/>
      <circle cx="40" cy="31" r="11" stroke="#00B7B2" stroke-width="4"/>
      <rect width="8" height="46" x="36" y="8" fill="#38B0E4"/>
      <rect width="3" height="42" x="44" y="10" fill="#FFFFFF"/>
      <rect width="3" height="42" x="33" y="10" fill="#FFFFFF"/>
      <rect width="12" height="4" x="10" y="29" fill="#91929B" rx="2"/>
      <rect width="12" height="4" x="58" y="29" fill="#91929B" rx="2"/>
      <polygon fill="#FFFFFF" points="33 8 37.4 3 51.5 3 47 8"/>
      <polygon fill="#38B0E4" points="36 8 41 2 49.5 2 44 8"/>
    </g>
    <g transform="translate(0 29)">
      <path fill="#FFFFFF" fill-rule="nonzero" d="M68.1994,16.5763 C72.9813108,16.5763 76.9544665,20.564102 76.6988299,25.2755667 C76.6727894,27.5415485 75.7555622,29.6642638 74.1216848,31.2966554 C72.4642443,32.9556041 70.3022101,33.8763 67.9994,33.8763 L58.8978765,33.8763 C58.8484571,35.8334063 58.0755187,37.6579907 56.7849139,39.038895 C56.9271719,39.6371186 56.9994,40.2545178 56.9994,40.8763 L56.9994,41.3763 C56.9994,44.1691148 55.5780163,46.6210866 53.3778258,48.0449659 C53.3928843,48.2531565 53.4004,48.4636621 53.4004,48.6763 L53.4004,49.1763 C53.4004,53.5331533 49.8562553,57.0763 45.4994,57.0763 L23.4004,57.0763 C21.2566757,57.0763 20.3129677,57.0590717 19.0898788,56.9689321 C17.4161646,56.8455823 15.8942011,56.5947068 14.4715077,56.1866561 C11.5579964,55.4579747 9.11805189,54.3570241 7.27804968,52.8593735 C5.09441115,51.1895323 3.39632953,49.0433057 2.41369556,46.5897859 C0.829494341,42.6264519 0.000400000001,38.3413694 0.000400000001,33.8763 C0.000400000001,27.9965766 0.629225129,24.3915384 2.98523249,21.3967029 C4.21455243,19.7283401 5.75048235,18.4505771 8.12369245,16.8730904 C8.31825323,16.7437647 8.52013941,16.6110896 8.75652114,16.4569175 C8.90737856,16.3585257 9.06552553,16.2557596 9.33629941,16.0801491 C10.1495589,15.5379761 10.4996782,15.2942029 10.8253149,15.0336936 L11.0124699,14.8955205 C14.8079698,12.3145806 16.5620543,11.1787613 18.8912521,9.8828549 C19.6971031,9.39273505 22.3073036,7.81724795 22.5361496,7.67863964 C24.0841747,6.74102587 25.3038395,5.99175442 26.4821966,5.2500434 C28.8277044,3.78308592 29.9749561,3.07299519 31.3111814,2.27202892 C33.3922401,1.08200247 35.6561119,0.686982612 37.8814996,1.25390024 C40.1475476,1.73576465 42.0976439,3.19319623 43.4231154,5.25275241 C45.6351281,9.11771179 44.8124289,13.7895898 41.7366922,16.5763 L68.1994,16.5763 Z"/>
      <path fill="#2E2F39" d="M68.1994,19.5763 L32.4004,19.5763 C34.4004,18.1763 37.0004,16.2763 38.9004,14.9763 C41.6004,13.2763 42.4994,9.6763 40.9004,6.8763 L40.8004,6.7763 C39.9994,5.4763 38.6994,4.4763 37.1994,4.1763 C35.6994,3.7763 34.1994,4.0763 32.8004,4.8763 C31.3004,5.7763 29.6994,6.7763 28.1004,7.7763 C25.4004,9.4763 22.6994,11.0763 20.4004,12.4763 C17.6994,13.9763 15.1994,15.6763 12.6994,17.3763 C12.1994,17.7763 11.6004,18.1763 11.0004,18.5763 C9.0004,19.8763 6.8004,21.2763 5.4004,23.1763 C3.1994,25.9763 3.0004,30.1763 3.0004,33.8763 C3.0004,38.0763 3.8004,41.9763 5.1994,45.4763 C6.0004,47.4763 7.4004,49.1763 9.1004,50.4763 C10.6994,51.7763 12.8004,52.6763 15.1994,53.2763 C18.0004,54.0763 20.6004,54.0763 23.4004,54.0763 L23.9004,54.0763 L45.4994,54.0763 C48.1994,54.0763 50.4004,51.8763 50.4004,49.1763 L50.4004,48.6763 C50.4004,47.7763 50.1994,46.9763 49.8004,46.2763 C52.1994,45.8763 53.9994,43.8763 53.9994,41.3763 L53.9994,40.8763 C53.9994,39.8763 53.6994,38.8763 53.1004,38.0763 C54.8004,37.2763 55.9004,35.5763 55.9004,33.6763 L55.9004,33.0763 C55.9004,32.2763 55.6994,31.5763 55.4004,30.8763 L67.9994,30.8763 C69.4994,30.8763 70.9004,30.2763 71.9994,29.1763 C73.1004,28.0763 73.6994,26.6763 73.6994,25.1763 C73.9004,22.1763 71.3004,19.5763 68.1994,19.5763"/>
      <path fill="#FFFFFF" d="M70.3004,27.4763 C69.6994,28.0763 68.9994,28.3763 68.1994,28.3763 L34.6004,28.2763 C33.9004,28.2763 33.3004,28.8763 33.3004,29.5763 C33.1994,31.1763 35.1994,31.0763 36.3004,30.9763 C37.6994,30.8763 39.1994,30.9763 40.6004,30.9763 L49.9004,30.9763 L51.1994,30.9763 C52.4994,30.9763 53.4994,31.8763 53.4994,33.0763 L53.4994,33.5763 C53.4994,34.8763 52.4994,35.8763 51.1994,35.8763 L49.3004,35.8763 L31.9004,35.8763 C31.1994,35.8763 30.6004,36.4763 30.6004,37.1763 C30.6004,37.8763 31.1994,38.4763 31.9004,38.4763 L49.1994,38.4763 C50.4994,38.4763 51.4994,39.4763 51.4994,40.7763 L51.4994,41.2763 C51.4994,42.5763 50.4994,43.5763 49.1994,43.5763 L45.6004,43.5763 L30.4004,43.5763 L28.3004,43.5763 C27.6004,43.5763 27.0004,44.1763 27.0004,44.8763 C27.0004,45.5763 27.6004,46.1763 28.3004,46.1763 L30.4004,46.1763 L45.6004,46.1763 C46.9004,46.1763 47.9004,47.1763 47.9004,48.4763 L47.9004,48.9763 C47.9004,50.2763 46.9004,51.2763 45.6004,51.2763 L23.5004,51.2763 C20.9004,51.2763 18.4004,51.2763 15.9004,50.5763 C13.8004,50.0763 12.1004,49.2763 10.6994,48.1763 C9.3004,47.1763 8.3004,45.7763 7.6994,44.2763 C6.4004,41.1763 5.6994,37.4763 5.6994,33.6763 C5.6994,30.5763 5.9004,26.7763 7.6004,24.5763 C8.8004,23.0763 10.6994,21.7763 12.6004,20.5763 C13.1994,20.1763 13.9004,19.7763 14.4004,19.3763 C19.3004,15.9763 24.6004,12.9763 29.6994,9.7763 C31.3004,8.7763 32.9004,7.7763 34.4004,6.8763 C35.1004,6.4763 35.9004,6.2763 36.6994,6.4763 C37.5004,6.6763 38.1994,7.1763 38.6004,7.8763 L38.6994,7.9763 C39.6004,9.4763 39.1004,11.4763 37.6004,12.4763 C37.6004,12.4763 35.1004,14.1763 32.6994,15.9763 C27.0004,20.0763 27.0004,20.0763 27.3004,20.9763 C27.5004,21.4763 28.0004,21.8763 28.6004,21.8763 L68.4004,21.8763 C70.1004,21.8763 71.4004,23.2763 71.4004,24.8763 C71.1994,26.0763 70.9004,26.8763 70.3004,27.4763"/>
    </g>
  </g>
</svg>
