<svg xmlns="http://www.w3.org/2000/svg" width="83" height="94" viewBox="0 0 83 94" xmlns:xlink="http://www.w3.org/1999/xlink">
  <defs>
    <path id="a" d="M39,86 C39,86 11.5903128,76.8715084 4.59031282,50.9273743 C-2.40968718,24.9832402 0.678583248,0 0.678583248,0 L39.1476447,0 L39,0 L39,86 Z"/>
    <path id="b" d="M39.2952895,0 L0.678583248,0 C0.678583248,0 -2.40968718,24.9832402 4.59031282,50.9273743 C11.5903128,76.8715084 39,86 39,86"/>
    <path id="c" d="M78.2952895,0 L39.6785832,0 C39.6785832,0 36.5903128,24.9832402 43.5903128,50.9273743 C50.5903128,76.8715084 78.2952895,86 78.2952895,86 L78.2952895,0 Z"/>
    <rect id="d" width="40" height="40" rx="6"/>
  </defs>
  <g fill="none" fill-rule="evenodd" transform="translate(4 3)">
    <use fill="#00B7B2" xlink:href="#a"/>
    <path stroke="#FFFFFF" stroke-width="3" d="M39.1476447,3.60822483e-16 L39.1476447,1.5 L39,1.5 L39,0 L39.1476447,1.95177482e-16 Z M39.1476447,1.95177482e-16 L40.5,1.98290996e-15 L40.5,88.0805575 L38.5260355,87.4231506 C38.2159197,87.31987 37.6591772,87.1161254 36.8908146,86.8060291 C35.6243663,86.2949149 34.216873,85.665778 32.7033262,84.912582 C28.3849809,82.7636158 24.0678862,80.0468053 20.0333061,76.7108867 C11.8550421,69.948839 5.89868153,61.5348483 3.14210016,51.3181173 C-1.24148444,35.0712164 -2.17444162,18.3091807 -1.15708263,3.70364608 C-1.08186002,2.62372599 -1.0011461,1.66729172 -0.920258244,0.84396766 C-0.891789667,0.554197767 -0.865272116,0.301330155 -0.841369747,0.0865686047 C-0.826776464,-0.0445512911 -0.816127312,-0.135148867 -0.810086182,-0.184019916 L-0.647413032,-1.5 L39.1476447,-1.5 L39.1476447,3.60822483e-16 Z"/>
    <use fill="#FFFFFF" xlink:href="#b"/>
    <path stroke="#2E2F39" stroke-width="4" d="M37.2884105,2 L2.48723074,2 C2.43508953,2.59104327 2.3836247,3.24098851 2.33445729,3.9468518 C1.34187098,18.1967418 2.25442348,34.5921754 6.52126303,50.4063836 C9.07317667,59.8645536 14.6089368,67.6844017 22.2635849,74.0135072 C26.077188,77.1667149 30.1707508,79.7428536 34.2626462,81.77913 C35.230155,82.2605977 36.1496282,82.687426 37.0100788,83.0612111 L37.2884105,2 Z"/>
    <g transform="matrix(-1 0 0 1 117.295 0)">
      <use fill="#38B0E4" xlink:href="#c"/>
      <path stroke="#38B0E4" stroke-width="4" d="M76.2952895,2 L41.4872307,2 C41.4350895,2.59104327 41.3836247,3.24098851 41.3344573,3.9468518 C40.341871,18.1967418 41.2544235,34.5921754 45.521263,50.4063836 C48.0768163,59.8780431 53.6675849,67.7072939 61.4131643,74.0414061 C65.2567697,77.1845961 69.3827789,79.7528654 73.5072553,81.7831385 C74.4894492,82.2666233 75.4225635,82.6948761 76.2952895,83.0695193 L76.2952895,2 Z"/>
    </g>
    <g transform="translate(20 19)">
      <use fill="#38B0E4" xlink:href="#d"/>
      <rect width="43" height="43" x="-1.5" y="-1.5" stroke="#FFFFFF" stroke-width="3" rx="6"/>
      <path fill="#FFFFFF" d="M10,25.6921035 C10,22.7603754 14.4763636,20.3842071 20,20.3842071 C25.5236364,20.3842071 30,22.7603754 30,25.6921035 L10,25.6921035 Z M25.5209091,13.3715912 C25.5209091,16.3387053 23.05,18.7431824 20.0009091,18.7431824 C16.95,18.7431824 14.4790909,16.3387053 14.4790909,13.3715912 C14.4790909,10.4044771 16.95,8 20.0009091,8 C23.05,8 25.5209091,10.4044771 25.5209091,13.3715912 Z"/>
    </g>
  </g>
</svg>
