<svg xmlns="http://www.w3.org/2000/svg" width="119" height="87" viewBox="0 0 119 87" xmlns:xlink="http://www.w3.org/1999/xlink">
  <defs>
    <path id="a" d="M94.8888889,19.9451887 C94.8888889,20.7299717 94.241,21.3665094 93.4422222,21.3665094 L17.78,21.3665094 C16.9812222,21.3665094 16.3333333,20.7299717 16.3333333,19.9451887 L16.3333333,18.2029245 C16.3333333,17.4181415 16.9812222,16.7816038 17.78,16.7816038 L93.4422222,16.7816038 C94.241,16.7816038 94.8888889,17.4181415 94.8888889,18.2029245 L94.8888889,19.9451887 Z M94.8888889,77.9136792 C94.8888889,78.758066 94.1927778,79.4419811 93.3333333,79.4419811 L4.66666667,79.4419811 C3.80722222,79.4419811 3.11111111,78.758066 3.11111111,77.9136792 L3.11111111,25.9514151 C3.11111111,25.1070283 3.80722222,24.4231132 4.66666667,24.4231132 L93.3333333,24.4231132 C94.1927778,24.4231132 94.8888889,25.1070283 94.8888889,25.9514151 L94.8888889,77.9136792 Z M5.44444444,16.7816038 C6.73322222,16.7816038 7.77777778,17.8078585 7.77777778,19.0740566 C7.77777778,20.3402547 6.73322222,21.3665094 5.44444444,21.3665094 C4.15566667,21.3665094 3.11111111,20.3402547 3.11111111,19.0740566 C3.11111111,17.8078585 4.15566667,16.7816038 5.44444444,16.7816038 L5.44444444,16.7816038 Z M11.6666667,16.7816038 C12.9554444,16.7816038 14,17.8078585 14,19.0740566 C14,20.3402547 12.9554444,21.3665094 11.6666667,21.3665094 C10.3778889,21.3665094 9.33333333,20.3402547 9.33333333,19.0740566 C9.33333333,17.8078585 10.3778889,16.7816038 11.6666667,16.7816038 L11.6666667,16.7816038 Z M94.8888889,13.725 L3.11111111,13.725 C1.393,13.725 0,15.0935943 0,16.7816038 L0,79.4419811 C0,81.1299906 1.393,82.4985849 3.11111111,82.4985849 L94.8888889,82.4985849 C96.607,82.4985849 98,81.1299906 98,79.4419811 L98,16.7816038 C98,15.0935943 96.607,13.725 94.8888889,13.725 L94.8888889,13.725 Z"/>
  </defs>
  <g fill="none" fill-rule="evenodd" transform="translate(3 1)">
    <polygon fill="#FFFFFF" points="1 82.501 96 82.501 96 17.501 1 17.501"/>
    <g transform="translate(0 .275)">
      <rect width="93" height="67" x="2" y="13.725" fill="#FFFFFF"/>
      <use fill="#91929B" xlink:href="#a"/>
      <path stroke="#FFFFFF" stroke-width="3" d="M93.3888889,19.8665094 L93.3888889,18.2816038 L17.8333333,18.2816038 L17.8333333,19.8665094 L93.3888889,19.8665094 Z M93.3888889,77.9136792 L93.3888889,25.9514151 C93.3888889,25.941448 93.3702272,25.9231132 93.3333333,25.9231132 L4.66666667,25.9231132 C4.62977282,25.9231132 4.61111111,25.941448 4.61111111,25.9514151 L4.61111111,77.9136792 C4.61111111,77.9236464 4.62977282,77.9419811 4.66666667,77.9419811 L93.3333333,77.9419811 C93.3702272,77.9419811 93.3888889,77.9236464 93.3888889,77.9136792 Z M5.44444444,18.2816038 C4.97821727,18.2816038 4.61111111,18.6422781 4.61111111,19.0740566 C4.61111111,19.5058351 4.97821727,19.8665094 5.44444444,19.8665094 C5.91067162,19.8665094 6.27777778,19.5058351 6.27777778,19.0740566 C6.27777778,18.6422781 5.91067162,18.2816038 5.44444444,18.2816038 Z M11.6666667,18.2816038 C11.2004395,18.2816038 10.8333333,18.6422781 10.8333333,19.0740566 C10.8333333,19.5058351 11.2004395,19.8665094 11.6666667,19.8665094 C12.1328938,19.8665094 12.5,19.5058351 12.5,19.0740566 C12.5,18.6422781 12.1328938,18.2816038 11.6666667,18.2816038 Z M94.8888889,12.225 C97.4295506,12.225 99.5,14.2591747 99.5,16.7816038 L99.5,79.4419811 C99.5,81.9644102 97.4295506,83.9985849 94.8888889,83.9985849 L3.11111111,83.9985849 C0.570449401,83.9985849 -1.5,81.9644102 -1.5,79.4419811 L-1.5,16.7816038 C-1.5,14.2591747 0.570449401,12.225 3.11111111,12.225 L94.8888889,12.225 Z"/>
      <path fill="#2E2F39" d="M8,56.226 L28,56.226 L28,52.226 L8,52.226 L8,56.226 Z M8,49.226 L36,49.226 L36,45.226 L8,45.226 L8,49.226 Z M8,42.226 L48,42.226 L48,38.226 L8,38.226 L8,42.226 Z M8,35.226 L36,35.226 L36,31.226 L8,31.226 L8,35.226 Z"/>
      <polygon fill="#00B7B2" points="33 72.226 65 72.226 65 64.226 33 64.226"/>
      <path fill="#38B0E4" d="M62.6104,50.5258 C54.1404,42.2758 49.0004,64.0258 49.0004,64.0258 C49.0004,64.0258 70.9264,58.9258 62.6104,50.5258"/>
      <path stroke="#FFFFFF" stroke-width="3" d="M63.6563,49.4506 L63.6763,49.4716 C66.4273,52.2516 66.6883,55.2336 64.6813,57.8636 C63.2303,59.7666 60.6883,61.3916 57.3393,62.8346 C55.5483,63.5966 53.7153,64.2536 51.8493,64.8046 C51.0183,65.0526 50.1813,65.2806 49.3403,65.4866 L46.9833,66.0346 L47.5403,63.6806 C47.5713,63.5486 47.6303,63.3096 47.7183,62.9806 C47.8623,62.4386 48.0323,61.8376 48.2283,61.1886 C48.7833,59.3356 49.4473,57.5156 50.2153,55.7396 C51.6703,52.4176 53.3103,49.8926 55.2283,48.4526 C57.8713,46.4706 60.8593,46.7266 63.6563,49.4506 Z"/>
      <path stroke="#FFFFFF" stroke-width="4" d="M112.79,4.1928 C112.632,24.8478 103.829,38.4888 89.97,46.6108 L92.295,55.6888 L85.083,62.8428 L74.575,52.4198 C74.079,53.5188 73.378,54.5628 72.495,55.5268 L71.089,57.0608 L55.929,42.0258 L57.361,40.6058 C58.271,39.7058 59.342,38.9828 60.516,38.4728 L50.185,28.2258 L57.407,21.0598 L66.554,23.3648 C74.66,9.5748 88.48,0.8538 109.416,0.7248 L113.174,0.7248 L112.79,4.1928 Z M109.434,4.7258 L109.44,4.7258 L109.428,4.7258 L109.434,4.7258 Z M95.971,21.2758 C98.126,21.2758 99.867,19.5478 99.867,17.4258 C99.867,15.3028 98.126,13.5758 95.971,13.5758 C93.815,13.5758 92.073,15.3028 92.073,17.4258 C92.073,19.5478 93.815,21.2758 95.971,21.2758 Z"/>
      <path fill="#FFFFFF" d="M96,12.226 C98.762,12.226 101,14.465 101,17.226 C101,19.987 98.762,22.226 96,22.226 C93.238,22.226 91,19.987 91,17.226 C91,14.465 93.238,12.226 96,12.226"/>
      <path fill="#2E2F39" d="M109.4277,2.726 C84.9317,2.876 73.1347,15.476 67.5417,25.676 L58.0127,23.276 L53.0247,28.226 L64.5167,39.626 C62.4007,39.626 60.2817,40.526 58.7697,42.026 L71.0197,54.176 C72.5317,52.526 73.4407,50.576 73.4407,48.476 L85.0817,60.026 L90.0727,55.076 L87.6537,45.626 C97.7847,40.076 110.6377,28.376 110.7897,4.076 L110.9407,2.726 L109.4267,2.726 L109.4277,2.726 Z M95.9707,23.276 C92.7137,23.276 90.0737,20.656 90.0737,17.426 C90.0737,14.195 92.7127,11.576 95.9707,11.576 C99.2267,11.576 101.8667,14.195 101.8667,17.426 C101.8667,20.656 99.2267,23.276 95.9707,23.276 L95.9707,23.276 Z"/>
    </g>
  </g>
</svg>
