<svg xmlns="http://www.w3.org/2000/svg" width="104" height="89" viewBox="0 0 104 89">
  <g fill="none" fill-rule="evenodd">
    <path fill="#FFFFFF" fill-rule="nonzero" d="M97.8888889,0 C101.252101,0 104,2.69975502 104,6.05660377 L104,68.7169811 C104,72.0738299 101.252101,74.7735849 97.8888889,74.7735849 L6.11111111,74.7735849 C2.7478988,74.7735849 0,72.0738299 0,68.7169811 L0,6.05660377 C0,2.69975502 2.7478988,0 6.11111111,0 L97.8888889,0 Z"/>
    <path fill="#91929B" d="M97.8888889,9.22018868 C97.8888889,10.0049717 97.241,10.6415094 96.4422222,10.6415094 L20.78,10.6415094 C19.9812222,10.6415094 19.3333333,10.0049717 19.3333333,9.22018868 L19.3333333,7.47792453 C19.3333333,6.69314151 19.9812222,6.05660377 20.78,6.05660377 L96.4422222,6.05660377 C97.241,6.05660377 97.8888889,6.69314151 97.8888889,7.47792453 L97.8888889,9.22018868 Z M97.8888889,67.1886792 C97.8888889,68.033066 97.1927778,68.7169811 96.3333333,68.7169811 L7.66666667,68.7169811 C6.80722222,68.7169811 6.11111111,68.033066 6.11111111,67.1886792 L6.11111111,15.2264151 C6.11111111,14.3820283 6.80722222,13.6981132 7.66666667,13.6981132 L96.3333333,13.6981132 C97.1927778,13.6981132 97.8888889,14.3820283 97.8888889,15.2264151 L97.8888889,67.1886792 Z M8.44444444,6.05660377 C9.73322222,6.05660377 10.7777778,7.08285849 10.7777778,8.3490566 C10.7777778,9.61525472 9.73322222,10.6415094 8.44444444,10.6415094 C7.15566667,10.6415094 6.11111111,9.61525472 6.11111111,8.3490566 C6.11111111,7.08285849 7.15566667,6.05660377 8.44444444,6.05660377 L8.44444444,6.05660377 Z M14.6666667,6.05660377 C15.9554444,6.05660377 17,7.08285849 17,8.3490566 C17,9.61525472 15.9554444,10.6415094 14.6666667,10.6415094 C13.3778889,10.6415094 12.3333333,9.61525472 12.3333333,8.3490566 C12.3333333,7.08285849 13.3778889,6.05660377 14.6666667,6.05660377 L14.6666667,6.05660377 Z M97.8888889,3 L6.11111111,3 C4.393,3 3,4.36859434 3,6.05660377 L3,68.7169811 C3,70.4049906 4.393,71.7735849 6.11111111,71.7735849 L97.8888889,71.7735849 C99.607,71.7735849 101,70.4049906 101,68.7169811 L101,6.05660377 C101,4.36859434 99.607,3 97.8888889,3 L97.8888889,3 Z"/>
    <path fill="#FFFFFF" d="M56.5845847,58.0099938 C55.5838779,58.0089944 54.6941406,58.6525921 54.3751034,59.6089944 C53.3337739,62.5541537 54.51976,65.8301062 57.1988799,67.4041224 L57.2781438,67.4640849 L57.3574077,67.4940662 L66.5916522,72.2410993 L70,74 L69.4550607,70.1723923 L68.6921456,64.9156777 L68.5435258,63.8963148 L67.6319909,63.4266084 L57.6249234,58.2698314 C57.3009322,58.0989382 56.9412722,58.0059963 56.5746767,58 L56.5845847,58.0099938 Z M56.5746767,60.0087445 C56.6261982,60.0107433 56.6777198,60.0237352 56.7232965,60.0487196 L66.7303641,65.2054966 L67.4833711,70.4722049 L58.2689426,65.7251718 C56.3477838,64.652842 55.4927244,62.3242973 56.2576211,60.2485946 C56.3041886,60.1066833 56.4359649,60.0097439 56.5845847,60.0087445 L56.5746767,60.0087445 Z"/>
    <path fill="#00B7B2" d="M58.386558,66.4605563 C56.3843599,65.4351199 55.493232,63.2084033 56.2903939,61.2234719 C56.3564799,61.0495395 56.5629985,60.957795 56.7509304,61.018958 C56.7633216,61.0227807 56.7746801,61.027559 56.7860386,61.0323374 L67.2152292,65.9636067 L68,71 L58.386558,66.4605563 Z"/>
    <rect width="58" height="39" x="23" y="22" fill="#38B0E4" rx="1"/>
    <path fill="#FFFFFF" d="M54.7222222,39.6792453 L47.0222222,39.6792453 L49.1766667,37.004717 L47.0222222,34.3301887 L54.7222222,34.3301887 L54.7222222,39.6792453 Z M42.2777778,32.0377358 L46.0422222,37.004717 L42.2777778,41.9487736 L54.7222222,41.9487736 L54.7222222,50.3773585 L57.0555556,50.3773585 L57.0555556,32.0377358 L42.2777778,32.0377358 Z"/>
    <circle cx="81.5" cy="70.5" r="3.5" fill="#FFFEFE"/>
    <circle cx="68.5" cy="80.5" r="3.5" fill="#FFFEFE"/>
    <path fill="#FFFFFF" d="M42.2388889,56.5822642 L67.0344444,32.2211321 C72.5263333,40.2798679 70.3283333,51.1865943 62.1258889,56.5822642 C56.109,60.5398019 48.2557778,60.5398019 42.2388889,56.5822642 L42.2388889,56.5822642 Z M37.3,51.7222642 C31.8135556,43.6597075 34.0177778,32.7545094 42.2241111,27.3641887 C48.2347778,23.4158208 56.0755556,23.4142925 62.0877778,27.3611321 L37.3,51.7222642 Z M52.1555556,17.5188679 C38.4098889,17.5188679 27.2666667,28.4668585 27.2666667,41.9716981 C27.2666667,55.4765377 38.4098889,66.4245283 52.1555556,66.4245283 C65.9012222,66.4245283 77.0444444,55.4765377 77.0444444,41.9716981 C77.0273333,28.4737358 65.8942222,17.5356792 52.1555556,17.5188679 L52.1555556,17.5188679 Z M52.1555556,61.0754717 C62.8857778,61.086934 71.5945556,52.5506038 71.6062222,42.0083774 C71.6108889,37.5938774 70.0592222,33.3146321 67.2133333,29.8981132 L39.8666667,56.7503774 C43.3293333,59.5471698 47.6732222,61.0754717 52.1555556,61.0754717 L52.1555556,61.0754717 Z M37.1211111,54.045283 L64.4677778,27.1853774 C56.1206667,20.5471981 43.8768889,21.8133962 37.1203333,30.0135 C31.3476667,37.0192358 31.3453333,47.0364906 37.1133333,54.045283 L37.1211111,54.045283 Z M52.1555556,19.0471698 C65.0425556,19.0471698 75.4888889,29.3104811 75.4888889,41.9716981 C75.4888889,54.6329151 65.0425556,64.8962264 52.1555556,64.8962264 C39.2685556,64.8962264 28.8222222,54.6329151 28.8222222,41.9716981 C28.8222222,29.3104811 39.2685556,19.0471698 52.1555556,19.0471698 L52.1555556,19.0471698 Z"/>
    <path fill="#2E2F39" d="M52.1555556,61.0754717 C47.674,61.0777642 43.3308889,59.5517547 39.8666667,56.7580189 L67.2133333,29.8981132 C74.0087778,38.0569528 72.7861111,50.0831604 64.4817778,56.7595472 C61.0043333,59.5555755 56.6487778,61.0800566 52.1555556,61.0754717 M32.7111111,41.9716981 C32.6963333,31.4294717 41.3833333,22.8717453 52.1135556,22.8572264 C56.6153333,22.8511132 60.9794444,24.3809434 64.46,27.1853774 L37.1133333,54.045283 C34.2666667,50.643283 32.7111111,46.3755 32.7111111,41.9716981 M52.1555556,19.0471698 C39.2685556,19.0471698 28.8222222,29.3104811 28.8222222,41.9716981 C28.8222222,54.6329151 39.2685556,64.8962264 52.1555556,64.8962264 C65.0425556,64.8962264 75.4888889,54.6329151 75.4888889,41.9716981 C75.4888889,29.3104811 65.0425556,19.0471698 52.1555556,19.0471698"/>
    <path fill="#00B7B2" d="M81.4363594,68.2519986 C80.9276555,68.2480351 80.4320991,68.4045922 80.0204838,68.6978892 C78.9423957,69.4806749 78.6996741,70.9640043 79.4743604,72.0371144 C79.9284519,72.6564069 80.6576278,73.0250098 81.4363594,73.0279824 C81.9450633,73.0319458 82.4416311,72.8763796 82.8522351,72.5820918 C83.9333572,71.7963334 84.1720334,70.3060679 83.3882451,69.2329579 C82.9361762,68.616638 82.2110457,68.2480351 81.4363594,68.2420899 L81.4363594,68.2519986 Z M67.5607783,78.1210439 C67.0520744,78.1170805 66.5555066,78.2726468 66.1449027,78.5669346 C65.0637805,79.3526929 64.8251043,80.8429584 65.6088926,81.9160684 C66.0629842,82.5353609 66.7921601,82.9039638 67.5708917,82.9069364 C68.0694822,82.9049547 68.5539139,82.7483976 68.9564271,82.4610458 C70.0446287,81.6812327 70.2924069,80.1899764 69.512664,79.111912 C69.0585725,78.4926195 68.3293965,78.1240166 67.5506649,78.1210439 L67.5607783,78.1210439 Z M67.6113453,87.999998 C63.4112514,88.0029706 60.0030365,84.6696906 60.0000025,80.5546158 C59.9969685,76.8557055 62.763994,73.7146539 66.4988716,73.1766126 C66.8740786,73.1231057 67.2523197,73.0963523 67.6315721,73.0973431 L67.7023659,73.0973431 L64.8200477,53.4979739 C64.7715033,53.1244166 64.8898301,52.7498685 65.1436764,52.4674711 C65.3965113,52.1771468 65.7656503,52.0077084 66.1550161,52.0017632 C68.8583272,51.9343842 71.2096921,53.805143 71.6971578,56.4111258 L73.4164354,68.0042816 L74.2558473,68.4303548 C75.4745117,64.5491248 79.6735943,62.3711969 83.635012,63.564202 C84.054718,63.6910331 84.4632992,63.8535355 84.8546877,64.0507182 C88.5754066,65.9294039 90.0630873,70.3902917 88.1921088,74.0584851 C86.9269228,76.574299 84.3095756,78.165633 81.4464728,78.1606787 C80.6566165,78.1646421 79.8708055,78.0437562 79.1203914,77.8039662 L79.1001647,77.8832356 L78.0483713,77.3878016 L74.5390225,75.6042392 L75.2671871,80.5288532 L75.1660531,80.5288532 C75.1781892,82.9267538 74.0111031,85.1839511 72.0308999,86.5929654 C70.7454871,87.5055549 69.1991487,87.9980163 67.6113453,87.999998 L67.6113453,87.999998 Z"/>
    <path fill="#FFFFFF" d="M66.4889781,81.3342885 C66.0259088,80.6982998 66.1691677,79.814652 66.8118151,79.3530154 C67.0468807,79.1885697 67.330372,79.1013937 67.6189075,79.1053563 C68.0678527,79.1053563 68.4895585,79.3193338 68.748837,79.6799255 C69.2169506,80.310961 69.0817626,81.1936181 68.4461773,81.6611986 C68.2111116,81.8256442 67.9276204,81.9128203 67.6390848,81.9088577 C67.1830776,81.9157922 66.752292,81.700824 66.4889781,81.3342885 Z M81.4605432,72.0421177 C81.011598,72.0421177 80.5898922,71.8281402 80.3306137,71.4675485 C79.8675444,70.8315598 80.0108034,69.947912 80.6534507,69.4862754 C81.2648233,69.0464328 82.1233679,69.1762062 82.5713042,69.7765319 C82.5773574,69.7854476 82.5844194,69.7943634 82.5904726,69.8032791 C83.0535419,70.4392678 82.910283,71.3229156 82.2676356,71.7845522 C82.03257,71.9489979 81.7490787,72.0361739 81.4605432,72.0322113 L81.4605432,72.0421177 Z M63.8800517,53.3527686 C63.8810606,53.460748 63.8901404,53.5687273 63.9062822,53.6757161 C63.9466368,54.0422516 64.2795625,56.3504348 66.610042,72.1609941 L66.4082688,72.1808068 C61.7019109,72.8306644 58.4230978,77.1042704 59.0849136,81.7255899 C59.7467295,86.3469094 64.0989755,89.5664782 68.8053334,88.9166206 C72.6793772,88.3816769 75.6989119,85.3473572 76.1539103,81.5324158 L76.1539103,79.3232963 L75.8512506,77.3420232 L77.6167653,78.2335961 L79.7353831,78.9567608 C83.5226644,79.7363918 87.36846,77.9027235 89.0875669,74.4988963 C91.203158,70.3382228 89.5163348,65.2820139 85.304321,63.1561079 C81.35663,61.1698816 76.5171019,62.5092222 74.2067997,66.2270812 L72.7641219,56.3504348 L72.7136787,56.1721202 C72.1245012,53.1298754 69.3894666,50.9465124 66.2367617,51.0009974 C64.9171655,51.0138757 63.8669365,52.0669223 63.8800517,53.3527686 Z M83.458097,73.379477 C84.989555,72.2778892 85.3355958,70.1727865 84.2349235,68.6541407 C83.1574551,67.1503544 81.0428728,66.7887721 79.5124238,67.8467719 C79.495273,67.8586595 79.4791312,67.8695566 79.4629893,67.8814442 C77.9315314,68.983032 77.5854905,71.0881347 78.6861629,72.6067805 C79.3237659,73.4894377 80.3578531,74.0134844 81.4605432,74.0134844 C82.1778466,74.0154657 82.8779993,73.7935631 83.458097,73.379477 Z M84.4064307,64.9392536 C87.6176498,66.5698414 88.9029445,70.4293614 87.2917862,73.6073234 C86.1961582,75.7867238 83.9362993,77.1686618 81.4605432,77.173615 C80.4436067,77.1726244 79.4407943,76.9348716 78.534833,76.4801694 L74.8222077,74.6276791 L74.0554699,69.3971181 L75.0038035,69.8726237 C75.0996457,69.1336088 75.3246228,68.4163879 75.6696548,67.7526614 C76.7683094,65.6000082 79.0089998,64.2388736 81.4605432,64.2359017 C82.4845417,64.2448174 83.4944162,64.4825702 84.4064307,64.9392536 Z M69.62655,83.2561234 C71.1640611,82.1545356 71.5111109,80.0415078 70.4033765,78.5208807 C69.318846,77.0161038 67.1961928,76.6594746 65.663726,77.7253996 C65.6526285,77.7333247 65.6425399,77.7402591 65.6314423,77.7481842 C64.0999844,78.849772 63.7539435,80.9548747 64.8546159,82.4735205 C65.4922189,83.3631122 66.5313504,83.8911214 67.6390848,83.8901308 C68.3604237,83.895084 69.0525055,83.6702095 69.62655,83.2561234 Z M70.7766568,56.627813 L74.1563564,79.6105809 C74.4912998,81.9930618 73.4733544,84.3725708 71.4929513,85.792153 C70.3872347,86.5806997 69.056541,87.0066734 67.6895281,87.0106359 C64.0566032,87.0552146 61.0754054,84.1992094 61.0300065,80.6329178 C60.988643,77.3717423 63.4300977,74.5920162 66.7210172,74.1521735 C67.0478896,74.1016511 67.3787975,74.0749039 67.7097054,74.0729226 C68.1293935,74.071932 68.5490816,74.1115574 68.9606987,74.191799 L65.8937474,53.3884315 C65.8654992,53.1992199 65.9996783,53.0228866 66.1923716,52.9961394 C66.2105312,52.9931675 66.2286908,52.9921769 66.2468503,52.9921769 C68.4814876,52.912926 70.4134652,54.4721879 70.7766568,56.627813 Z"/>
  </g>
</svg>
