<svg xmlns="http://www.w3.org/2000/svg" width="104" height="82" viewBox="0 0 104 82">
  <g fill="none" fill-rule="evenodd">
    <path fill="#FFFFFF" fill-rule="nonzero" d="M97.8888889,0 C101.252101,0 104,2.69975502 104,6.05660377 L104,68.7169811 C104,72.0738299 101.252101,74.7735849 97.8888889,74.7735849 L6.11111111,74.7735849 C2.7478988,74.7735849 0,72.0738299 0,68.7169811 L0,6.05660377 C0,2.69975502 2.7478988,0 6.11111111,0 L97.8888889,0 Z"/>
    <path fill="#91929B" d="M97.8888889,9.22018868 C97.8888889,10.0049717 97.241,10.6415094 96.4422222,10.6415094 L20.78,10.6415094 C19.9812222,10.6415094 19.3333333,10.0049717 19.3333333,9.22018868 L19.3333333,7.47792453 C19.3333333,6.69314151 19.9812222,6.05660377 20.78,6.05660377 L96.4422222,6.05660377 C97.241,6.05660377 97.8888889,6.69314151 97.8888889,7.47792453 L97.8888889,9.22018868 Z M97.8888889,67.1886792 C97.8888889,68.033066 97.1927778,68.7169811 96.3333333,68.7169811 L7.66666667,68.7169811 C6.80722222,68.7169811 6.11111111,68.033066 6.11111111,67.1886792 L6.11111111,15.2264151 C6.11111111,14.3820283 6.80722222,13.6981132 7.66666667,13.6981132 L96.3333333,13.6981132 C97.1927778,13.6981132 97.8888889,14.3820283 97.8888889,15.2264151 L97.8888889,67.1886792 Z M8.44444444,6.05660377 C9.73322222,6.05660377 10.7777778,7.08285849 10.7777778,8.3490566 C10.7777778,9.61525472 9.73322222,10.6415094 8.44444444,10.6415094 C7.15566667,10.6415094 6.11111111,9.61525472 6.11111111,8.3490566 C6.11111111,7.08285849 7.15566667,6.05660377 8.44444444,6.05660377 L8.44444444,6.05660377 Z M14.6666667,6.05660377 C15.9554444,6.05660377 17,7.08285849 17,8.3490566 C17,9.61525472 15.9554444,10.6415094 14.6666667,10.6415094 C13.3778889,10.6415094 12.3333333,9.61525472 12.3333333,8.3490566 C12.3333333,7.08285849 13.3778889,6.05660377 14.6666667,6.05660377 L14.6666667,6.05660377 Z M97.8888889,3 L6.11111111,3 C4.393,3 3,4.36859434 3,6.05660377 L3,68.7169811 C3,70.4049906 4.393,71.7735849 6.11111111,71.7735849 L97.8888889,71.7735849 C99.607,71.7735849 101,70.4049906 101,68.7169811 L101,6.05660377 C101,4.36859434 99.607,3 97.8888889,3 L97.8888889,3 Z"/>
    <rect width="32" height="8" x="36" y="55" fill="#00B7B2"/>
    <polygon fill="#FFFFFF" fill-rule="nonzero" points="70.099 79.726 64.387 81.934 61.733 75.437 57.5 79.145 57.5 58.632 73.913 73.398 67.391 73.438"/>
    <polygon fill="#2E2F39" points="59 61.999 59 75.837 62.326 72.922 65.219 80.004 68.105 78.888 65.118 71.951 70.029 71.921"/>
    <rect width="25" height="16" x="67" y="20" fill="#38B0E4"/>
    <rect width="25" height="8" x="67" y="39" fill="#2E2F39"/>
    <rect width="28" height="4" x="11" y="20" fill="#2E2F39"/>
    <rect width="40" height="4" x="11" y="27" fill="#2E2F39"/>
    <rect width="28" height="4" x="11" y="34" fill="#2E2F39"/>
    <rect width="20" height="4" x="11" y="41" fill="#2E2F39"/>
    <rect width="20" height="4" x="34" y="41" fill="#2E2F39"/>
  </g>
</svg>
